<svg width="32" height="32" viewBox="0 0 32 32" fill="none" xmlns="http://www.w3.org/2000/svg">
<g clip-path="url(#clip0_398_7087)">
<path d="M8 20C8.73733 20 9.33333 20.5973 9.33333 21.3333V25.3333C9.33333 26.0693 8.73733 26.6667 8 26.6667C7.26267 26.6667 6.66667 26.0693 6.66667 25.3333V21.3333C6.66667 20.5973 7.26267 20 8 20ZM13.3333 14.6667C12.596 14.6667 12 15.264 12 16V25.3333C12 26.0693 12.596 26.6667 13.3333 26.6667C14.0707 26.6667 14.6667 26.0693 14.6667 25.3333V16C14.6667 15.264 14.0707 14.6667 13.3333 14.6667ZM32 29.1107C32 30.9467 29.812 32 26 32C22.188 32 20 30.9467 20 29.1107V19.3333C20 18.156 22.4667 17.3333 26 17.3333C29.5333 17.3333 32 18.156 32 19.3333V29.1107ZM26 21.3333C24.7253 21.3333 23.5973 21.2227 22.6667 21.0307V23.3893C22.9987 23.6093 23.9947 24 26 24C27.9733 24 28.9827 23.5867 29.3333 23.348V21.032C28.4027 21.224 27.2747 21.3333 26 21.3333ZM29.3333 28.8093V26.2253C28.4507 26.4933 27.36 26.6667 26 26.6667C24.612 26.6667 23.5333 26.4973 22.6667 26.2387V28.8093C23.0613 29.0227 24.152 29.3333 26 29.3333C27.848 29.3333 28.9387 29.0227 29.3333 28.8093ZM17.3333 13.3333C15.128 13.3333 13.3333 11.5387 13.3333 9.33333V2.72933C13.1173 2.708 12.9053 2.66667 12.6867 2.66667H6.66667C4.46133 2.66667 2.66667 4.46133 2.66667 6.66667V25.3333C2.66667 27.5387 4.46133 29.3333 6.66667 29.3333H16C16.7373 29.3333 17.3333 29.9307 17.3333 30.6667C17.3333 31.4027 16.7373 32 16 32H6.66667C2.99067 32 0 29.0093 0 25.3333V6.66667C0 2.99067 2.99067 0 6.66667 0H12.6867C15.1787 0 17.5227 0.970667 19.2867 2.73333L23.932 7.38133C25.496 8.944 26.4573 11.02 26.636 13.2253C26.696 13.9587 26.1493 14.6027 25.4147 14.6627C24.6333 14.7373 23.996 14.1053 23.9587 13.3333H17.332H17.3333ZM17.3333 10.6667H23.088C22.7973 10.1627 22.464 9.68267 22.0467 9.26667L17.4013 4.62C16.9813 4.2 16.5013 3.868 16 3.57867V9.33333C16 10.068 16.5973 10.6667 17.3333 10.6667Z" fill="#BBBBBB"/>
</g>
<defs>
<clipPath id="clip0_398_7087">
<rect width="32" height="32" fill="white"/>
</clipPath>
</defs>
</svg>
