<svg width="192" height="223" viewBox="0 0 192 223" fill="none" xmlns="http://www.w3.org/2000/svg">
<g clip-path="url(#clip0_222_1625)">
<path d="M151.407 151.992C152.685 158.233 152.163 164.713 149.822 170.731C145.218 182.566 134.088 190.755 121.524 191.858C113.021 200.115 103.594 204.56 93.4709 205.082C92.4267 205.137 91.4256 204.963 90.5106 204.607C87.9592 203.614 86.0997 201.199 85.9457 198.294C85.7392 194.338 88.7803 190.969 92.7338 190.769C99.8745 190.402 106.755 186.75 113.176 179.912C114.543 178.453 116.46 177.637 118.463 177.648C126.508 177.724 133.579 172.97 136.468 165.543C138.248 160.968 138.175 155.918 136.267 151.315C134.699 147.737 136.611 143.236 140.281 141.888C145.037 139.862 148.451 135.554 150.298 131.005C151.891 126.911 153.155 120.42 145.735 111.404C144.091 109.404 143.65 106.664 144.588 104.252L147.311 97.2529C150.201 89.8258 144.104 83.5553 137.205 80.871C133.511 79.434 131.687 75.287 133.124 71.5935C135.806 64.7008 134.529 55.7295 126.874 52.6744C121.638 50.5374 114.423 50.6603 110.122 55.3312L97.6283 87.4438C96.1914 91.1372 92.0376 92.9586 88.3508 91.5243C84.664 90.0899 82.8334 85.9402 84.2703 82.2468L96.7613 50.1408C96.7403 43.85 91.3909 38.862 86.1679 36.8299C78.5204 33.8547 71.5308 39.625 68.8283 46.5711C67.3914 50.2646 63.2377 52.086 59.5508 50.6516C52.6581 47.97 43.9203 48.4693 41.0308 55.8964L38.3076 62.896C37.3695 65.3071 35.1992 67.0311 32.6287 67.3922C21.0736 69.0255 17.6188 74.6639 16.0259 78.7581C14.3127 83.3592 13.9082 88.8462 16.0542 93.5492C17.8453 97.0298 16.2185 101.626 12.6415 103.21C8.12707 105.307 4.65772 108.986 2.87775 113.561C-0.0117696 120.988 1.98046 129.269 7.96179 134.649C9.44516 135.995 10.3069 137.891 10.3352 139.894C10.4466 149.273 13.0502 156.615 18.0653 161.711C20.8349 164.534 20.8087 169.069 17.9829 171.845C15.1571 174.621 10.6371 174.578 7.84884 171.763C0.733388 164.534 -3.21088 154.887 -3.89121 143.056C-12.4224 133.754 -15.0848 120.199 -10.4776 108.358C-8.13639 102.34 -4.15772 97.2129 1.00931 93.4787C-0.369379 86.7443 0.184876 79.9236 2.66124 73.5585C5.48321 66.3051 11.8837 57.3449 26.3903 53.9762L27.6661 50.6968C32.398 38.5343 44.7809 32.6783 58.4632 35.4407C65.7966 23.9444 79.1998 18.7468 91.3623 23.4786C98.3685 26.2045 105.217 31.7066 108.732 39.2181C116.503 36.0435 125.222 36.5213 132.178 39.358C144.254 44.1719 150.594 57.0506 148.276 70.3827C160.227 77.5933 165.394 90.2848 160.662 102.447L159.386 105.727C167.809 118.016 166.471 128.946 163.649 136.199C161.173 142.564 156.978 147.969 151.404 151.998L151.407 151.992ZM105.599 155.902C100.667 168.578 89.6858 177.671 76.2414 180.207C74.1343 180.603 72.2709 182.269 71.39 184.533C68.407 192.201 60.0825 195.868 52.7155 193.002L46.0365 190.403C38.6696 187.537 35.0094 179.215 37.8755 171.848C38.8786 169.27 38.6518 166.829 37.4064 165.168C27.912 152.53 26.8869 135.498 34.8032 121.753C42.8936 107.698 59.0202 100.007 74.9263 102.627C86.9281 104.59 97.1884 111.681 103.107 122.065C109.028 132.443 109.938 144.77 105.608 155.898L105.599 155.902ZM92.2412 150.705C97.3939 138.291 90.6051 122.83 78.0155 118.248C66.9136 113.636 53.2091 118.363 47.2228 128.907C42.1007 137.803 42.7267 148.39 48.8568 156.55C50.6157 158.887 51.6732 161.644 52.2647 164.512L58.566 148.315C56.4453 145.86 55.0461 142.855 54.7612 139.614C54.4485 136.109 58.1952 133.614 61.4746 134.89L78.8534 141.651C82.1327 142.927 83.2082 147.298 80.6089 149.67C78.2088 151.866 75.1465 153.136 71.924 153.512L65.5993 169.769C68.0023 168.02 70.662 166.679 73.5754 166.128C82.1415 164.508 89.1126 158.746 92.2412 150.705Z" fill="#8CB9F8" fill-opacity="0.25"/>
</g>
<defs>
<clipPath id="clip0_222_1625">
<rect width="172" height="172" fill="white" transform="translate(31.5898 0.226562) rotate(21.2588)"/>
</clipPath>
</defs>
</svg>
