<svg width="168" height="161" viewBox="0 0 168 161" fill="none" xmlns="http://www.w3.org/2000/svg">
<g clip-path="url(#clip0_222_1640)">
<path d="M0.902344 75C0.902344 27.5567 39.459 -11 86.9023 -11C134.346 -11 172.902 27.5567 172.902 75C172.902 122.443 134.346 161 86.9023 161C81.6707 161 76.3673 160.498 71.279 159.567C67.409 158.85 64.829 155.123 65.5457 151.253C66.2624 147.383 69.989 144.803 73.859 145.52C78.0873 146.308 82.5307 146.667 86.9023 146.667C126.391 146.667 158.569 114.488 158.569 75C158.569 35.5117 126.391 3.33334 86.9023 3.33334C47.414 3.33334 15.2357 35.5117 15.2357 75C15.2357 79.3717 15.6657 83.7433 16.3823 88.0433C17.099 91.9133 14.519 95.64 10.649 96.3567C6.70735 97.0733 3.05235 94.4933 2.33569 90.6233C1.40402 85.535 0.902344 80.2317 0.902344 75ZM80.739 117.57C76.7973 116.997 73.214 119.72 72.6407 123.662C72.0673 127.603 74.7907 131.187 78.7323 131.76C81.4557 132.118 84.179 132.333 86.9023 132.333C118.507 132.333 144.236 106.605 144.236 75C144.236 43.395 118.507 17.6667 86.9023 17.6667C55.2973 17.6667 29.569 43.395 29.569 75C29.569 77.7233 29.784 80.4467 30.1423 83.17C30.7157 87.1117 34.299 89.835 38.2407 89.2617C42.1823 88.6883 44.9057 85.105 44.3323 81.1633C44.0457 79.1567 43.9023 77.0783 43.9023 75C43.9023 51.2783 63.1807 32 86.9023 32C110.624 32 129.902 51.2783 129.902 75C129.902 98.7217 110.624 118 86.9023 118C84.824 118 82.7457 117.857 80.739 117.57ZM96.434 85.6783C93.4957 88.33 93.209 92.845 95.8607 95.7833C98.5123 98.7217 103.027 99.0083 105.966 96.3567C112.057 90.91 115.497 83.0983 115.497 75C115.497 59.1617 102.669 46.3333 86.8307 46.3333C78.6607 46.3333 70.9207 49.845 65.474 55.865C62.8223 58.8033 63.109 63.3183 66.0473 65.97C68.9857 68.6217 73.5007 68.335 76.1523 65.3967C78.8757 62.3867 82.7457 60.595 86.8307 60.595C94.714 60.595 101.164 67.045 101.164 74.9283C101.164 79.0133 99.444 82.8833 96.3623 85.6067L96.434 85.6783ZM84.7523 87.255C87.5473 84.46 87.5473 79.945 84.7523 77.15C83.319 75.7167 81.5273 75.0717 79.664 75.0717C77.8007 75.0717 76.009 75.7883 74.5757 77.15L40.8207 110.905H22.259C20.324 110.905 18.5323 111.693 17.1707 112.983L2.83736 127.317C0.759018 129.395 0.185669 132.477 1.26068 135.128C2.33568 137.78 4.98734 139.572 7.854 139.572H22.1873V153.833C22.1873 156.7 23.9073 159.352 26.6307 160.427C29.354 161.573 32.364 160.928 34.4424 158.85L48.7757 144.517C50.1374 143.155 50.854 141.363 50.854 139.428V120.867L84.609 87.1117L84.7523 87.255Z" fill="#8CB9F8" fill-opacity="0.25"/>
</g>
<defs>
<clipPath id="clip0_222_1640">
<rect width="172" height="172" fill="white" transform="matrix(-1 0 0 -1 172.902 161)"/>
</clipPath>
</defs>
</svg>
