<svg width="33" height="32" viewBox="0 0 33 32" fill="none" xmlns="http://www.w3.org/2000/svg">
<g clip-path="url(#clip0_222_1816)">
<path d="M8.33319 15.9995C12.7452 15.9995 16.3332 12.4115 16.3332 7.99954C16.3332 3.58754 12.7452 -0.000459843 8.33319 -0.000459843C3.92119 -0.000459843 0.333192 3.58754 0.333192 7.99954C0.333192 12.4115 3.92119 15.9995 8.33319 15.9995ZM8.33319 2.66621C11.2745 2.66621 13.6665 5.05821 13.6665 7.99954C13.6665 9.50221 13.0372 10.8569 12.0332 11.8262C11.4385 10.3662 10.0119 9.33287 8.33986 9.33287H8.32652C6.65319 9.33287 5.22519 10.3649 4.63053 11.8249C3.62919 10.8542 2.99986 9.50221 2.99986 7.99954C2.99986 5.05821 5.39186 2.66621 8.33319 2.66621ZM6.33319 5.99954C6.33319 4.89554 7.22919 3.99954 8.33319 3.99954C9.43719 3.99954 10.3332 4.89554 10.3332 5.99954C10.3332 7.10354 9.43719 7.99954 8.33319 7.99954C7.22919 7.99954 6.33319 7.10354 6.33319 5.99954ZM31.4839 9.17154C31.3252 9.23421 31.1612 9.26221 30.9999 9.26221C30.4665 9.26221 29.9625 8.94087 29.7572 8.41287L28.2719 4.60621C23.3959 14.9422 14.5732 21.8942 2.01319 25.2875C1.89719 25.3182 1.77986 25.3329 1.66519 25.3329C1.07719 25.3329 0.538526 24.9422 0.378526 24.3475C0.186526 23.6369 0.606526 22.9049 1.31853 22.7115C13.1305 19.5209 21.3945 13.0062 25.9185 3.33554L21.8225 4.93287C21.1332 5.20221 20.3625 4.85954 20.0959 4.17554C19.8279 3.48887 20.1679 2.71687 20.8532 2.44887L26.7212 0.15954C27.9972 -0.341793 29.4519 0.29554 29.9532 1.57554L32.2425 7.44354C32.5105 8.13021 32.1705 8.90221 31.4852 9.17021L31.4839 9.17154ZM30.9999 11.9995V30.6662C30.9999 31.4035 30.4025 31.9995 29.6665 31.9995C28.9305 31.9995 28.3332 31.4035 28.3332 30.6662V11.9995C28.3332 11.2622 28.9305 10.6662 29.6665 10.6662C30.4025 10.6662 30.9999 11.2622 30.9999 11.9995ZM24.3332 18.6662V30.6662C24.3332 31.4035 23.7359 31.9995 22.9999 31.9995C22.2639 31.9995 21.6665 31.4035 21.6665 30.6662V18.6662C21.6665 17.9289 22.2639 17.3329 22.9999 17.3329C23.7359 17.3329 24.3332 17.9289 24.3332 18.6662ZM17.6665 23.9995V30.6662C17.6665 31.4035 17.0692 31.9995 16.3332 31.9995C15.5972 31.9995 14.9999 31.4035 14.9999 30.6662V23.9995C14.9999 23.2622 15.5972 22.6662 16.3332 22.6662C17.0692 22.6662 17.6665 23.2622 17.6665 23.9995ZM10.9999 26.6662V30.6662C10.9999 31.4035 10.4025 31.9995 9.66652 31.9995C8.93052 31.9995 8.33319 31.4035 8.33319 30.6662V26.6662C8.33319 25.9289 8.93052 25.3329 9.66652 25.3329C10.4025 25.3329 10.9999 25.9289 10.9999 26.6662ZM4.33319 29.3329V30.6662C4.33319 31.4035 3.73586 31.9995 2.99986 31.9995C2.26386 31.9995 1.66653 31.4035 1.66653 30.6662V29.3329C1.66653 28.5955 2.26386 27.9995 2.99986 27.9995C3.73586 27.9995 4.33319 28.5955 4.33319 29.3329Z" fill="#8CB9F8"/>
</g>
<defs>
<clipPath id="clip0_222_1816">
<rect width="32" height="32" fill="white" transform="translate(0.332031)"/>
</clipPath>
</defs>
</svg>
