<svg width="24" height="24" viewBox="0 0 24 24" fill="none" xmlns="http://www.w3.org/2000/svg">
<path d="M12.4504 1.11384H11.3499C11.3186 1.11385 11.2879 1.10463 11.2618 1.08733C11.2356 1.07004 11.2151 1.04543 11.2029 1.01658C10.9482 0.419531 10.3551 0 9.6657 0C8.97631 0 8.38325 0.419672 8.12764 1.01677C8.11534 1.04557 8.09484 1.07012 8.0687 1.08738C8.04255 1.10463 8.01192 1.11382 7.98059 1.1138H6.88105C6.57364 1.1138 6.32422 1.36322 6.32422 1.67086V3.8985C6.32422 4.20609 6.57359 4.45533 6.88109 4.45533H12.4504C12.758 4.45533 13.0072 4.20609 13.0072 3.8985V1.67086C13.0072 1.36322 12.758 1.11384 12.4503 1.11384H12.4504Z" fill="#1B3B7C"/>
<path d="M16.4405 2.22754H14.415V3.60426C14.415 4.85104 13.4044 5.86176 12.1575 5.86176H7.17703C5.93025 5.86176 4.91953 4.85104 4.91953 3.60426V2.22754H2.89641C1.29656 2.22754 0 3.52457 0 5.12441V21.1036C0 22.703 1.29656 24 2.89641 24H16.4405C18.0403 24 19.3369 22.7029 19.3369 21.1036V5.12441C19.3369 3.52448 18.0403 2.22754 16.4405 2.22754ZM3.11775 9.46785C3.39244 9.19321 3.83775 9.19321 4.11234 9.46785L4.32844 9.68451L5.51147 8.50124C5.78578 8.2266 6.23109 8.2266 6.50573 8.50124C6.78042 8.77593 6.78042 9.22124 6.50573 9.49593L4.85573 11.146C4.78649 11.2152 4.70426 11.2701 4.61377 11.3075C4.52328 11.3449 4.4263 11.3641 4.32839 11.3639C4.13761 11.3639 3.94683 11.2912 3.80166 11.146L3.11775 10.4621C2.84288 10.1873 2.84288 9.74198 3.11775 9.4679V9.46785ZM3.10181 14.461C3.3765 14.1863 3.82181 14.1863 4.09645 14.461L4.3125 14.6776L5.49553 13.4944C5.77041 13.2202 6.21516 13.2202 6.4898 13.4944C6.76448 13.7691 6.76448 14.2144 6.4898 14.4892L4.83984 16.1391C4.69978 16.2797 4.51266 16.3575 4.31344 16.3575H4.3125C4.21462 16.3577 4.11767 16.3385 4.02726 16.301C3.93684 16.2635 3.85475 16.2085 3.78572 16.1391L3.10181 15.4552C2.8275 15.1809 2.8275 14.7356 3.10181 14.4609V14.461ZM6.59437 19.4325L4.94438 21.083C4.87516 21.1522 4.79295 21.2072 4.70245 21.2446C4.61196 21.282 4.51496 21.3012 4.41703 21.3011C4.22625 21.3011 4.03547 21.2284 3.89006 21.083L3.20616 20.3991C2.93152 20.1244 2.93152 19.6795 3.20616 19.4048C3.48103 19.1301 3.92578 19.1301 4.20042 19.4048L4.41703 19.6214L5.60011 18.4384C5.87437 18.1635 6.31969 18.1635 6.59433 18.4384C6.86902 18.7131 6.86906 19.1584 6.59437 19.4325ZM8.21006 9.12655H15.6493C16.0379 9.12655 16.3524 9.44151 16.3524 9.82968C16.3524 10.2183 16.0379 10.5328 15.6493 10.5328H8.21006C7.82152 10.5328 7.50694 10.2183 7.50694 9.82968C7.50694 9.44151 7.82152 9.12655 8.21006 9.12655ZM8.19413 14.1197H15.6334C16.0219 14.1197 16.3365 14.4348 16.3365 14.8228C16.3365 15.2115 16.0219 15.5259 15.6334 15.5259H8.19417C7.80614 15.5259 7.49105 15.2115 7.49105 14.8228C7.49105 14.4346 7.80614 14.1197 8.19417 14.1197H8.19413ZM15.7377 20.4698H8.29875C7.9102 20.4698 7.59562 20.1554 7.59562 19.7667C7.59562 19.3786 7.9102 19.0635 8.29875 19.0635H15.7378C16.1259 19.0635 16.4409 19.3786 16.4409 19.7667C16.4409 20.1554 16.1259 20.4698 15.7378 20.4698H15.7377Z" fill="#1B3B7C"/>
</svg>
