<svg width="32" height="32" viewBox="0 0 32 32" fill="none" xmlns="http://www.w3.org/2000/svg">
<g clip-path="url(#clip0_222_1822)">
<path d="M31.0622 20.94C31.3409 21.972 31.2009 23.0507 30.6675 23.976C30.1355 24.9013 29.2742 25.5653 28.2435 25.8427C27.2129 26.1227 26.1329 25.9813 25.2075 25.4493L24.6075 25.104C23.4862 26.0653 22.1942 26.8093 20.7982 27.3027V27.9987C20.7982 30.204 19.0035 31.9987 16.7982 31.9987C14.5929 31.9987 12.7982 30.204 12.7982 27.9987V27.3027C11.4022 26.8093 10.1102 26.064 8.98887 25.104L8.38887 25.4493C6.54354 26.556 3.96087 25.8627 2.92754 23.9747C1.81687 22.1347 2.51554 19.548 4.40087 18.5133L5.00221 18.1667C4.86621 17.4413 4.79821 16.716 4.79821 16C4.79821 15.5013 4.83154 14.9947 4.89687 14.4933C4.99287 13.7613 5.65554 13.2427 6.39287 13.3453C7.12221 13.44 7.63687 14.1107 7.54087 14.84C7.49021 15.22 7.46354 15.6067 7.46354 16C7.46354 16.812 7.57954 17.6453 7.80754 18.4773C7.96887 19.0613 7.71287 19.6827 7.18621 19.9867L5.72887 20.8253C5.10087 21.1693 4.86754 22.0307 5.23687 22.644C5.58221 23.2747 6.44088 23.5067 7.05687 23.136L8.51154 22.3C9.03954 21.9987 9.70487 22.0907 10.1289 22.524C11.3142 23.7347 12.8129 24.6 14.4622 25.024C15.0515 25.176 15.4622 25.708 15.4622 26.316V28C15.4622 28.736 16.0609 29.3333 16.7955 29.3333C17.5302 29.3333 18.1289 28.736 18.1289 28V26.3173C18.1289 25.7093 18.5409 25.1787 19.1289 25.0267C20.7795 24.6 22.2769 23.7347 23.4622 22.524C23.8875 22.0907 24.5515 21.9987 25.0795 22.3L26.5342 23.136C27.1462 23.5067 28.0102 23.2733 28.3542 22.6453C28.7249 22.0307 28.4915 21.1693 27.8635 20.8253L26.4062 19.9867C25.8795 19.6827 25.6249 19.0627 25.7849 18.4773C26.0129 17.6453 26.1289 16.812 26.1289 16C26.1289 15.188 26.0129 14.3547 25.7849 13.5227C25.6235 12.9387 25.8795 12.3173 26.4062 12.0133L27.8635 11.1747C28.4915 10.8307 28.7249 9.96933 28.3555 9.356C28.0115 8.72667 27.1475 8.492 26.5355 8.864L25.0809 9.7C24.5529 10.0013 23.8875 9.90933 23.4635 9.476C22.2782 8.26533 20.7809 7.4 19.1302 6.97333C18.5422 6.82267 18.1302 6.29067 18.1302 5.68267V4C18.1302 3.264 17.5315 2.66667 16.7969 2.66667C16.0622 2.66667 15.4635 2.07067 15.4635 1.33333C15.4635 0.596 16.0609 0 16.7969 0C19.0022 0 20.7969 1.79467 20.7969 4V4.696C22.1929 5.18933 23.4849 5.93467 24.6062 6.89467L25.2062 6.54933C27.0475 5.43867 29.6355 6.13733 30.6675 8.024C31.7782 9.864 31.0795 12.4507 29.1942 13.4853L28.5929 13.832C28.7289 14.5573 28.7969 15.2827 28.7969 15.9987C28.7969 16.7147 28.7289 17.44 28.5929 18.1653L29.1942 18.512C30.1209 19.0453 30.7835 19.9067 31.0622 20.9373V20.94ZM4.79687 10.668C2.58754 10.668 0.796875 8.87733 0.796875 6.668V4.00267C0.796875 1.79333 2.58754 0.00133333 4.79687 0.00133333H8.79687C10.9969 0.00266667 12.7969 1.804 12.7955 4.004V11.216C12.7955 12.0667 12.0982 12.6667 11.3435 12.6667C11.0822 12.6667 10.8142 12.5947 10.5662 12.436L7.90621 10.6667H4.79687V10.668ZM4.79687 8.00133H7.90887C8.43421 8.00133 8.94754 8.15733 9.38621 8.448L10.1315 8.944V4.00533C10.1315 3.52933 9.88487 3.212 9.73687 3.06533C9.59021 2.91867 9.27154 2.67067 8.79821 2.67067H4.79821C4.06221 2.67067 3.46354 3.268 3.46354 4.00267V6.668C3.46354 7.40267 4.06221 8.00133 4.79687 8.00133ZM16.7969 16.0013C18.6382 16.0013 20.1302 14.5093 20.1302 12.668C20.1302 10.8267 18.6382 9.33467 16.7969 9.33467C14.9555 9.33467 13.4635 10.8267 13.4635 12.668C13.4635 14.5093 14.9555 16.0013 16.7969 16.0013ZM12.6649 21.8213C13.3035 22.192 14.1169 21.972 14.4862 21.336C14.9622 20.5133 15.8475 20.0013 16.7969 20.0013C17.7462 20.0013 18.6315 20.5133 19.1075 21.336C19.4782 21.9787 20.3035 22.188 20.9289 21.8213C21.5675 21.4533 21.7849 20.6373 21.4155 20C20.4649 18.356 18.6942 17.3347 16.7969 17.3347C14.8995 17.3347 13.1289 18.356 12.1782 20C11.8102 20.6387 12.0275 21.4533 12.6649 21.8213Z" fill="#8CB9F8"/>
</g>
<defs>
<clipPath id="clip0_222_1822">
<rect width="32" height="32" fill="white"/>
</clipPath>
</defs>
</svg>
