<svg width="24" height="24" viewBox="0 0 24 24" fill="none" xmlns="http://www.w3.org/2000/svg">
<g clip-path="url(#clip0_222_2300)">
<path d="M14.5653 14.59C13.4563 14.4157 12.6767 13.3896 12.8005 12.3021C12.8172 12.1547 12.8507 12.0097 12.9003 11.8699C13.0283 11.5005 12.8966 11.073 12.5797 10.8067C11.9094 10.2282 11.1494 9.76246 10.3297 9.42769C10.1506 9.35196 9.95133 9.33818 9.7635 9.38854C9.57568 9.43889 9.41003 9.55049 9.29282 9.70566C9.13731 9.91132 8.94215 10.0837 8.71888 10.2127C8.49561 10.3416 8.24876 10.4245 7.99291 10.4565C7.73705 10.4884 7.4774 10.4688 7.22927 10.3987C6.98115 10.3286 6.74959 10.2094 6.54829 10.0483C6.42399 9.94848 6.3128 9.83335 6.21735 9.70566C6.10022 9.5508 5.93482 9.43941 5.7473 9.38906C5.55977 9.33872 5.36082 9.35231 5.18188 9.42769C4.42514 9.73573 3.71897 10.1557 3.08704 10.6736C2.75423 10.9441 2.61501 11.3871 2.75048 11.7686C3.12829 12.7713 2.61829 13.9464 1.58141 14.3749C1.39663 14.4516 1.20186 14.5016 1.00298 14.5235C0.800265 14.5475 0.609872 14.6334 0.457661 14.7694C0.30545 14.9055 0.198799 15.085 0.152196 15.2838C-0.0376093 16.1265 -0.0545126 16.9989 0.102508 17.8483C0.142952 18.0533 0.247551 18.24 0.401172 18.3816C0.554793 18.5232 0.749471 18.6122 0.95704 18.6358C2.06657 18.7525 2.89157 19.7332 2.82079 20.8244C2.80651 21.0441 2.75483 21.2597 2.66798 21.4619C2.50391 21.8407 2.63095 22.3005 2.96985 22.5803C3.63601 23.1495 4.38897 23.6085 5.20016 23.9397C5.30088 23.9785 5.40731 24.0004 5.51516 24.0044C5.66126 24.0072 5.80568 23.9729 5.935 23.9049C6.06432 23.8369 6.17435 23.7373 6.25485 23.6153C6.42748 23.356 6.66049 23.1424 6.93388 22.9929C7.20727 22.8434 7.51285 22.7626 7.82438 22.7573C8.13591 22.752 8.44407 22.8224 8.72238 22.9625C9.0007 23.1025 9.24084 23.3081 9.4222 23.5614C9.53922 23.7275 9.7107 23.8474 9.90686 23.9002C10.103 23.953 10.3115 23.9355 10.4961 23.8507C11.2383 23.5222 11.9287 23.0873 12.5455 22.5597C12.8684 22.2869 12.9988 21.8505 12.8619 21.4764C12.4719 20.4794 12.9688 19.2996 14.0009 18.8608C14.1756 18.7864 14.3594 18.7358 14.5475 18.7103C14.7473 18.6813 14.9334 18.5916 15.0807 18.4535C15.2279 18.3153 15.3293 18.1354 15.3711 17.9378C15.46 17.5234 15.5082 17.1012 15.515 16.6774C15.5145 16.2306 15.4674 15.785 15.3744 15.348C15.332 15.1546 15.232 14.9787 15.0876 14.8433C14.9431 14.708 14.761 14.6197 14.5653 14.59ZM10.3414 16.6774C10.3415 17.189 10.1899 17.6891 9.90573 18.1145C9.62157 18.5399 9.21764 18.8715 8.74501 19.0674C8.27239 19.2632 7.7523 19.3145 7.25053 19.2148C6.74875 19.115 6.28783 18.8687 5.92604 18.507C5.56426 18.1453 5.31786 17.6844 5.21802 17.1826C5.11818 16.6809 5.16938 16.1608 5.36513 15.6881C5.56089 15.2155 5.89242 14.8115 6.31779 14.5272C6.74315 14.243 7.24326 14.0913 7.75485 14.0913C8.43967 14.0948 9.09543 14.3684 9.57972 14.8526C10.064 15.3368 10.3377 15.9926 10.3414 16.6774ZM23.2316 4.218C22.3377 4.07737 21.7091 3.2505 21.8094 2.37394C21.8224 2.25511 21.8493 2.13822 21.8895 2.02565C21.9927 1.728 21.8867 1.3844 21.6313 1.16878C21.0907 0.702138 20.4776 0.326746 19.8163 0.0573734C19.6717 -0.00355754 19.5108 -0.0143697 19.3594 0.0266578C19.2079 0.0676852 19.0746 0.158194 18.9805 0.28378C18.8551 0.449447 18.6977 0.588315 18.5178 0.692188C18.3378 0.796062 18.1389 0.862836 17.9327 0.88857C17.7265 0.914305 17.5173 0.898478 17.3173 0.842024C17.1174 0.78557 16.9307 0.689632 16.7684 0.559873C16.6689 0.479167 16.5798 0.386428 16.5031 0.28378C16.4088 0.15891 16.2755 0.0690702 16.1244 0.0284858C15.9733 -0.0120985 15.8129 -0.001108 15.6688 0.0597171C15.0591 0.307835 14.4902 0.646314 13.9813 1.06378C13.7131 1.28175 13.6006 1.63894 13.7099 1.94644C14.0145 2.75409 13.6034 3.70144 12.7677 4.0469C12.6186 4.10861 12.4616 4.14901 12.3013 4.1669C12.1384 4.18605 11.9853 4.25476 11.8627 4.36375C11.7401 4.47274 11.654 4.61674 11.6159 4.77628C11.4627 5.45551 11.449 6.15878 11.5756 6.84347C11.6088 7.00847 11.6933 7.15875 11.817 7.27276C11.9408 7.38678 12.0975 7.45868 12.2647 7.47815C13.1586 7.5719 13.8238 8.36316 13.7647 9.243C13.7537 9.42056 13.7125 9.59493 13.6428 9.75862C13.5106 10.0642 13.6133 10.4346 13.8866 10.66C14.4234 11.1184 15.0302 11.4879 15.6838 11.7546C15.765 11.7857 15.8509 11.8032 15.9378 11.8066C16.0556 11.8087 16.1719 11.7811 16.2762 11.7263C16.3804 11.6714 16.4691 11.5912 16.5341 11.493C16.6732 11.2839 16.861 11.1117 17.0813 10.9912C17.3016 10.8707 17.5479 10.8055 17.799 10.8012C18.0501 10.7969 18.2985 10.8537 18.5228 10.9666C18.7472 11.0795 18.9407 11.2452 19.0869 11.4494C19.1812 11.5825 19.3189 11.6787 19.4763 11.7215C19.6337 11.7642 19.8012 11.7509 19.9499 11.6838C20.5484 11.4189 21.1051 11.0684 21.6027 10.6432C21.8628 10.4233 21.9678 10.0713 21.8572 9.76987C21.5431 8.9669 21.9434 8.01581 22.7755 7.6605C22.9163 7.60059 23.0645 7.55976 23.2161 7.53909C23.3771 7.51557 23.5271 7.44331 23.6459 7.33202C23.7646 7.22074 23.8464 7.07576 23.8803 6.91659C23.952 6.58243 23.9908 6.24206 23.9961 5.90034C23.9957 5.54085 23.958 5.18237 23.8836 4.83065C23.8491 4.67516 23.7683 4.53374 23.652 4.42498C23.5356 4.31622 23.389 4.24521 23.2316 4.22128V4.218ZM19.827 5.90034C19.827 6.31262 19.7048 6.71565 19.4757 7.05845C19.2467 7.40125 18.9211 7.66843 18.5402 7.8262C18.1593 7.98397 17.7402 8.02525 17.3358 7.94482C16.9315 7.86439 16.56 7.66586 16.2685 7.37433C15.977 7.0828 15.7785 6.71137 15.698 6.30701C15.6176 5.90265 15.6589 5.48352 15.8167 5.10263C15.9744 4.72173 16.2416 4.39617 16.5844 4.16712C16.9272 3.93807 17.3302 3.81581 17.7425 3.81581C18.2945 3.81864 18.8231 4.03917 19.2134 4.42949C19.6037 4.8198 19.8242 5.34836 19.827 5.90034ZM23.8109 17.4822C23.5949 17.297 23.4579 17.036 23.4283 16.7529C23.3986 16.4699 23.4785 16.1862 23.6516 15.9602C23.7002 15.8984 23.7557 15.8424 23.817 15.7933C23.8963 15.7246 23.953 15.6336 23.9799 15.5322C24.0068 15.4308 24.0027 15.3237 23.968 15.2247C23.8267 14.7773 23.6134 14.3558 23.3366 13.9769C23.2768 13.8931 23.1909 13.8317 23.0924 13.8022C22.9938 13.7728 22.8882 13.777 22.7924 13.8142C22.665 13.8638 22.5291 13.8873 22.3926 13.8833C22.256 13.8794 22.1216 13.8481 21.9974 13.7912C21.8732 13.7344 21.7616 13.6532 21.6693 13.5525C21.5771 13.4518 21.5059 13.3336 21.4602 13.2049C21.4319 13.1254 21.4138 13.0427 21.4063 12.9588C21.3965 12.8564 21.353 12.7601 21.2824 12.6852C21.2119 12.6104 21.1184 12.5611 21.0167 12.5453C20.5899 12.4738 20.1547 12.4667 19.7258 12.5242C19.618 12.5363 19.5164 12.5812 19.4349 12.6528C19.3533 12.7243 19.2957 12.8192 19.2697 12.9246C19.1614 13.4814 18.6045 13.8696 18.0177 13.7739C17.913 13.7575 17.8113 13.7259 17.7158 13.6802C17.6177 13.6347 17.5081 13.6205 17.4017 13.6394C17.2953 13.6584 17.1973 13.7096 17.1209 13.7861C16.801 14.1132 16.5508 14.5019 16.3855 14.9285C16.3467 15.0321 16.342 15.1454 16.3719 15.2519C16.4018 15.3584 16.4649 15.4527 16.5519 15.521C16.7758 15.6945 16.9246 15.9474 16.9676 16.2275C17.0106 16.5075 16.9445 16.7934 16.783 17.0261C16.7158 17.1213 16.6327 17.2042 16.5374 17.2713C16.4485 17.3378 16.3835 17.4312 16.352 17.5376C16.3205 17.644 16.3242 17.7577 16.3625 17.8619C16.5048 18.3036 16.7169 18.7196 16.9906 19.0942C17.0252 19.1397 17.067 19.1791 17.1144 19.211C17.1795 19.2528 17.2541 19.2776 17.3313 19.2829C17.4084 19.2882 17.4857 19.274 17.5559 19.2414C17.7059 19.1726 17.8704 19.1411 18.0352 19.1497C18.2 19.1584 18.3602 19.2069 18.5022 19.2911C18.6441 19.3754 18.7635 19.4928 18.8501 19.6333C18.9366 19.7738 18.9878 19.9332 18.9992 20.0978C19.0057 20.2049 19.0493 20.3063 19.1226 20.3846C19.1958 20.4629 19.2941 20.5132 19.4005 20.5267C19.8264 20.5852 20.2586 20.5812 20.6834 20.515C20.7897 20.5011 20.8892 20.4551 20.9685 20.383C21.0479 20.3109 21.1033 20.2164 21.1274 20.1119C21.2286 19.5546 21.7808 19.1603 22.3681 19.2499C22.4676 19.2646 22.5646 19.293 22.6564 19.3342C22.7547 19.3767 22.8635 19.388 22.9684 19.3666C23.0733 19.3452 23.169 19.2922 23.2428 19.2147C23.3982 19.0528 23.5373 18.876 23.6581 18.6869C23.7823 18.4857 23.885 18.272 23.9647 18.0494C23.9995 17.9504 24.0034 17.8432 23.9759 17.7419C23.9485 17.6406 23.891 17.5501 23.8109 17.4822ZM21.3266 17.2478C21.1843 17.4785 20.9768 17.6618 20.7304 17.7745C20.484 17.8873 20.2096 17.9244 19.9421 17.8812C19.6746 17.8381 19.4258 17.7165 19.2274 17.532C19.0289 17.3474 18.8896 17.1082 18.8271 16.8445C18.7647 16.5808 18.7818 16.3045 18.8763 16.0505C18.9709 15.7965 19.1386 15.5763 19.3584 15.4177C19.5781 15.2591 19.8399 15.1691 20.1107 15.1593C20.3816 15.1495 20.6492 15.2202 20.8799 15.3625C21.1878 15.5547 21.4074 15.8606 21.4911 16.2138C21.5747 16.567 21.5156 16.9389 21.3266 17.2488V17.2478Z" fill="#1B3B7C"/>
</g>
<defs>
<clipPath id="clip0_222_2300">
<rect width="24" height="24" fill="white" transform="translate(-0.00390625 0.00244141)"/>
</clipPath>
</defs>
</svg>
