<svg width="33" height="32" viewBox="0 0 33 32" fill="none" xmlns="http://www.w3.org/2000/svg">
<g clip-path="url(#clip0_222_1809)">
<path d="M12.6641 16C17.0761 16 20.6641 12.412 20.6641 8C20.6641 3.588 17.0761 0 12.6641 0C8.25206 0 4.66406 3.588 4.66406 8C4.66406 12.412 8.25206 16 12.6641 16ZM12.6641 2.66667C15.6054 2.66667 17.9974 5.05867 17.9974 8C17.9974 10.9413 15.6054 13.3333 12.6641 13.3333C9.72273 13.3333 7.33073 10.9413 7.33073 8C7.33073 5.05867 9.72273 2.66667 12.6641 2.66667ZM13.9974 20C13.9974 20.736 13.4001 21.3333 12.6641 21.3333C7.5174 21.3333 3.33073 25.52 3.33073 30.6667C3.33073 31.4027 2.7334 32 1.9974 32C1.2614 32 0.664062 31.4027 0.664062 30.6667C0.664062 24.0507 6.04806 18.6667 12.6641 18.6667C13.4001 18.6667 13.9974 19.264 13.9974 20ZM28.6641 18.7347V18.6667C28.6641 17.196 27.4681 16 25.9974 16H23.3307C21.8601 16 20.6641 17.196 20.6641 18.6667V18.7347C18.4081 19.0613 16.6641 20.9893 16.6641 23.3333V27.3333C16.6641 29.9067 18.7574 32 21.3307 32H27.9974C30.5707 32 32.6641 29.9067 32.6641 27.3333V23.3333C32.6641 20.9893 30.9201 19.0613 28.6641 18.7347ZM21.3307 21.3333H27.9974C29.1001 21.3333 29.9974 22.2307 29.9974 23.3333V24H19.3307V23.3333C19.3307 22.2307 20.2281 21.3333 21.3307 21.3333ZM27.9974 29.3333H21.3307C20.2281 29.3333 19.3307 28.436 19.3307 27.3333V26.6667H23.3307C23.3307 27.4027 23.9281 28 24.6641 28C25.4001 28 25.9974 27.4027 25.9974 26.6667H29.9974V27.3333C29.9974 28.436 29.1001 29.3333 27.9974 29.3333Z" fill="#8CB9F8"/>
</g>
<defs>
<clipPath id="clip0_222_1809">
<rect width="32" height="32" fill="white" transform="translate(0.664062)"/>
</clipPath>
</defs>
</svg>
