<svg width="32" height="32" viewBox="0 0 32 32" fill="none" xmlns="http://www.w3.org/2000/svg">
<path d="M24.1613 10.5053C25.7213 12.0653 25.7213 14.6013 24.1613 16.1613L20.7173 19.6066C20.4573 19.8666 20.116 19.9973 19.7747 19.9973C19.4333 19.9973 19.092 19.8666 18.832 19.6066C18.3107 19.0853 18.3107 18.2426 18.832 17.7213L22.276 14.2759C22.796 13.7559 22.796 12.9106 22.276 12.3906L18.832 8.94525C18.3107 8.42392 18.3107 7.58125 18.832 7.05992C19.3533 6.53859 20.196 6.53859 20.7173 7.05992L24.1613 10.5053ZM13.168 8.94525C13.6893 8.42392 13.6893 7.58125 13.168 7.05992C12.6467 6.53859 11.804 6.53859 11.2827 7.05992L7.83867 10.5053C6.27867 12.0653 6.27867 14.6013 7.83867 16.1613L11.2827 19.6066C11.5427 19.8666 11.884 19.9973 12.2253 19.9973C12.5667 19.9973 12.908 19.8666 13.168 19.6066C13.6893 19.0853 13.6893 18.2426 13.168 17.7213L9.724 14.2759C9.204 13.7559 9.204 12.9106 9.724 12.3906L13.168 8.94525ZM32 7.99992V18.6666C32 22.3426 29.0093 25.3333 25.3333 25.3333H17.3333V27.9999H22.6667C23.4027 27.9999 24 28.5959 24 29.3333C24 30.0706 23.4027 30.6666 22.6667 30.6666H9.33333C8.59733 30.6666 8 30.0706 8 29.3333C8 28.5959 8.59733 27.9999 9.33333 27.9999H14.6667V25.3333H6.66667C2.99067 25.3333 0 22.3426 0 18.6666V7.99992C0 4.32392 2.99067 1.33325 6.66667 1.33325H25.3333C29.0093 1.33325 32 4.32392 32 7.99992ZM29.3333 7.99992C29.3333 5.79459 27.5387 3.99992 25.3333 3.99992H6.66667C4.46133 3.99992 2.66667 5.79459 2.66667 7.99992V18.6666C2.66667 20.8719 4.46133 22.6666 6.66667 22.6666H25.3333C27.5387 22.6666 29.3333 20.8719 29.3333 18.6666V7.99992Z" fill="url(#paint0_linear_398_3113)"/>
<defs>
<linearGradient id="paint0_linear_398_3113" x1="16" y1="1.33325" x2="16" y2="30.6666" gradientUnits="userSpaceOnUse">
<stop stop-color="#8CB9F8"/>
<stop offset="1" stop-color="#1B3B7C"/>
</linearGradient>
</defs>
</svg>
