<svg width="24" height="24" viewBox="0 0 24 24" fill="none" xmlns="http://www.w3.org/2000/svg">
<path d="M23.9942 12.6665L20.6971 4.95894C20.7623 4.78445 20.7998 4.59636 20.7998 4.39959C20.7997 3.97519 20.6311 3.5682 20.3309 3.26814C20.0308 2.96808 19.6237 2.79951 19.1993 2.79951C18.9457 2.79943 18.6956 2.85987 18.47 2.9758C18.2444 3.09174 18.0497 3.25983 17.902 3.46611H14.2118C14.0277 3.03166 13.7198 2.66105 13.3264 2.40053C12.933 2.14001 12.4716 2.00113 11.9997 2.00122C11.5279 2.00131 11.0665 2.14036 10.6732 2.40103C10.2799 2.66169 9.9721 3.03242 9.78818 3.46693H6.09797C5.90029 3.19241 5.62067 2.98763 5.2993 2.88201C4.97792 2.77638 4.63134 2.77536 4.30935 2.87908C3.98735 2.98281 3.70653 3.18594 3.50724 3.45929C3.30794 3.73264 3.20044 4.06213 3.20017 4.40042C3.20017 4.59718 3.2377 4.78487 3.30288 4.95977L0.00577498 12.6665H0C0 15.1695 2.14953 17.1998 4.80025 17.1998C7.45179 17.1998 9.60008 15.1695 9.60008 12.6665H9.59431L6.45767 5.33349H9.78818C9.97136 5.76533 10.2766 6.13434 10.6664 6.39526V18.2666H5.86656V19.3333C5.86656 20.8001 7.06652 22.0001 8.53336 22.0001H15.4666C16.9335 22.0001 18.1334 20.8001 18.1334 19.3333V18.2666H13.3332V6.39485C13.7228 6.13389 14.028 5.76508 14.2114 5.33349H17.5415L14.4003 12.6665L14.3999 12.6669L14.3983 12.6706L14.4003 12.6714C14.4032 15.1724 16.5511 17.1998 19.2002 17.1998C21.8517 17.1998 24 15.1695 24 12.6665C23.9981 12.6669 23.9961 12.6669 23.9942 12.6665ZM8.14396 12.6665H1.45612L4.33701 5.9312C4.63899 6.02237 4.96118 6.02223 5.26307 5.93079L8.14396 12.6665ZM15.8503 12.6665L18.7357 5.9312C19.038 6.0231 19.3607 6.0231 19.663 5.9312L22.5443 12.6665H15.8503Z" fill="#1B3B7C"/>
</svg>
