<svg width="24" height="24" viewBox="0 0 24 24" fill="none" xmlns="http://www.w3.org/2000/svg">
<g clip-path="url(#clip0_222_2308)">
<path d="M23.61 12.8761C23.6471 13.7621 23.3312 14.6268 22.7316 15.2802C22.1321 15.9337 21.2978 16.3226 20.4118 16.3617C20.3599 16.3641 20.3082 16.3653 20.2566 16.3653C20.0212 16.3651 19.7865 16.3397 19.5565 16.2893C18.8742 17.3428 17.9795 18.2423 16.9297 18.9303C15.8798 19.6182 14.6979 20.0794 13.4596 20.2845C13.3132 20.7148 13.021 21.0803 12.6335 21.318C12.2461 21.5557 11.7878 21.6506 11.3379 21.5862C10.8879 21.5219 10.4746 21.3023 10.1694 20.9656C9.86412 20.6288 9.68613 20.1959 9.66617 19.7418C9.64621 19.2878 9.78553 18.841 10.06 18.4787C10.3346 18.1164 10.727 17.8615 11.1696 17.7579C11.6122 17.6543 12.077 17.7086 12.4838 17.9113C12.8906 18.1141 13.2137 18.4527 13.3974 18.8684C15.1407 18.546 16.7157 17.622 17.8477 16.2576C18.9798 14.8931 19.5971 13.1747 19.5922 11.4018C19.5922 7.21324 16.1846 3.80566 11.9961 3.80566C7.80754 3.80566 4.39996 7.21324 4.39996 11.4018C4.39974 12.6969 4.73074 13.9706 5.36151 15.1018C5.38289 15.1391 5.39894 15.1793 5.40918 15.221C5.47011 15.3904 5.4636 15.5767 5.39099 15.7413C5.31839 15.906 5.18525 16.0365 5.01914 16.1057C4.61238 16.2769 4.17551 16.365 3.7342 16.365C3.68226 16.365 3.63021 16.3638 3.57806 16.3614C2.69244 16.3218 1.85866 15.9326 1.25955 15.2792C0.660432 14.6258 0.344877 13.7615 0.382073 12.8757C0.397026 12.5225 0.388683 12.2074 0.380526 11.9027C0.372933 11.6157 0.365011 11.319 0.378042 11.0094C0.416933 10.1446 0.788945 9.32837 1.41616 8.73169C2.04338 8.13501 2.87714 7.80417 3.74282 7.80846C5.13295 4.6279 8.30887 2.39941 11.9961 2.39941C15.6832 2.39941 18.8592 4.6279 20.2493 7.80851C21.1151 7.80357 21.9491 8.13413 22.5765 8.73082C23.2038 9.32751 23.5756 10.144 23.614 11.0089C23.6271 11.319 23.6192 11.6156 23.6115 11.9026C23.6035 12.2074 23.5951 12.5226 23.61 12.8761ZM17.8932 11.4018C17.8928 12.3052 17.685 13.1965 17.2857 14.0069C16.8864 14.8173 16.3063 15.5252 15.5901 16.076C14.874 16.6267 14.0409 17.0056 13.1551 17.1835C12.2694 17.3613 11.3546 17.3334 10.4813 17.1018L8.09442 18.4802C7.97398 18.5498 7.83562 18.582 7.69685 18.5729C7.55807 18.5639 7.4251 18.5138 7.31476 18.4292C7.20442 18.3445 7.12167 18.229 7.07697 18.0973C7.03227 17.9656 7.02763 17.8236 7.06364 17.6893L7.67367 15.4136C6.66342 14.3216 6.10131 12.8894 6.09918 11.4018C6.09918 8.1492 8.74439 5.50329 11.9961 5.50329C15.2477 5.50329 17.8932 8.1492 17.8932 11.4018ZM10.3566 11.4018C10.3566 11.2153 10.2825 11.0364 10.1507 10.9046C10.0188 10.7727 9.83996 10.6986 9.65348 10.6986H9.65231C9.5133 10.6989 9.37749 10.7403 9.26203 10.8178C9.14657 10.8952 9.05666 11.0051 9.00364 11.1336C8.95063 11.2621 8.93689 11.4034 8.96417 11.5397C8.99144 11.676 9.05851 11.8012 9.1569 11.8994C9.25529 11.9976 9.38057 12.0644 9.51693 12.0915C9.65329 12.1185 9.79459 12.1045 9.923 12.0512C10.0514 11.998 10.1611 11.9079 10.2383 11.7923C10.3155 11.6767 10.3567 11.5408 10.3567 11.4018H10.3566ZM12.6993 11.4018C12.6993 11.3787 12.698 11.3557 12.6956 11.3329C12.6934 11.3099 12.6899 11.287 12.6853 11.2644C12.6811 11.2419 12.6755 11.2197 12.6684 11.1979C12.6619 11.1758 12.6539 11.1543 12.6455 11.1327C12.637 11.1111 12.6267 11.091 12.6159 11.0708C12.6052 11.0505 12.5935 11.0308 12.5808 11.0118C12.568 10.9925 12.5542 10.9739 12.5395 10.956C12.525 10.9381 12.5096 10.921 12.4931 10.9049C12.4772 10.8885 12.4598 10.873 12.442 10.858C12.4242 10.8439 12.4054 10.8299 12.3862 10.8172C12.3671 10.8045 12.3474 10.7928 12.3272 10.7821C12.307 10.7713 12.2859 10.7614 12.2648 10.7525C12.2437 10.7437 12.2221 10.736 12.2002 10.7296C12.1563 10.7155 12.111 10.7064 12.0652 10.7024C11.9963 10.6958 11.9268 10.6991 11.8589 10.7122C11.8363 10.7168 11.8139 10.7226 11.7919 10.7296C11.7699 10.736 11.7483 10.7437 11.7272 10.7525C11.7061 10.7614 11.685 10.7713 11.6649 10.7821C11.6447 10.7929 11.625 10.8046 11.6058 10.8172C11.5673 10.8428 11.5315 10.8721 11.4989 10.9049C11.4825 10.921 11.467 10.9381 11.4525 10.956C11.438 10.9739 11.4244 10.9925 11.4118 11.0118C11.3989 11.0308 11.387 11.0505 11.3761 11.0708C11.3653 11.0909 11.3556 11.1116 11.347 11.1327C11.3381 11.154 11.3303 11.1758 11.3236 11.1979C11.3171 11.2194 11.3114 11.2419 11.3068 11.2644C11.3021 11.287 11.2987 11.3099 11.2964 11.3329C11.2941 11.3558 11.2931 11.3788 11.2931 11.4018C11.2931 11.4247 11.2941 11.4482 11.2964 11.4711C11.2987 11.4939 11.3022 11.5166 11.3068 11.5391C11.3114 11.5616 11.3171 11.5841 11.3236 11.6061C11.3303 11.6281 11.3381 11.6497 11.347 11.6708C11.3556 11.6921 11.3653 11.7129 11.3761 11.7332C11.3869 11.7533 11.3991 11.773 11.4118 11.7922C11.4244 11.8113 11.438 11.8298 11.4525 11.8475C11.4671 11.8655 11.4826 11.8827 11.4989 11.8991C11.5154 11.915 11.5322 11.931 11.5505 11.9455C11.5681 11.9601 11.5866 11.9738 11.6058 11.9863C11.625 11.9989 11.6447 12.0111 11.6649 12.0219C11.7056 12.0431 11.7481 12.0607 11.7919 12.0744C11.8139 12.081 11.8364 12.0866 11.8589 12.0913C11.9041 12.1005 11.9501 12.1051 11.9962 12.1049C12.1825 12.1044 12.3611 12.0304 12.4931 11.8991C12.5255 11.8662 12.5549 11.8304 12.5808 11.7922C12.5934 11.773 12.6052 11.7533 12.6159 11.7332C12.6267 11.713 12.6366 11.6919 12.6455 11.6708C12.6544 11.6497 12.6619 11.6277 12.6684 11.6061C12.6754 11.5842 12.6811 11.5618 12.6853 11.5391C12.6899 11.5166 12.6933 11.494 12.6956 11.4711C12.698 11.4481 12.6992 11.4249 12.6992 11.4017L12.6993 11.4018ZM15.0431 11.4018C15.0431 11.2153 14.969 11.0364 14.8371 10.9046C14.7053 10.7727 14.5264 10.6986 14.3399 10.6986H14.3386C14.1996 10.6989 14.0638 10.7404 13.9483 10.8178C13.8329 10.8952 13.743 11.0051 13.69 11.1336C13.6369 11.2621 13.6232 11.4035 13.6505 11.5398C13.6778 11.6761 13.7449 11.8012 13.8432 11.8994C13.9416 11.9976 14.0669 12.0644 14.2033 12.0915C14.3396 12.1185 14.4809 12.1045 14.6093 12.0512C14.7377 11.998 14.8475 11.9078 14.9247 11.7923C15.0019 11.6767 15.0431 11.5408 15.0431 11.4018Z" fill="#1B3B7C"/>
</g>
<defs>
<clipPath id="clip0_222_2308">
<rect width="24" height="24" fill="white" transform="translate(-0.00390625 0.00244141)"/>
</clipPath>
</defs>
</svg>
