<svg width="24" height="24" viewBox="0 0 24 24" fill="none" xmlns="http://www.w3.org/2000/svg">
<g clip-path="url(#clip0_222_2283)">
<path d="M10.6331 18.7501C9.69752 19.6147 8.40344 19.8083 7.25566 19.2556C6.84073 19.0558 6.49057 18.7799 6.21644 18.4494L4.65359 21.9062C4.58248 22.0635 4.66188 22.182 4.69929 22.2256C4.73669 22.2692 4.84174 22.3658 5.00796 22.3195L6.14571 22.0029C6.27267 21.9675 6.40386 21.9495 6.53566 21.9494C6.80834 21.9495 7.07547 22.0265 7.30638 22.1715C7.53729 22.3165 7.72262 22.5238 7.84109 22.7694L8.35493 23.8327C8.42998 23.9881 8.57074 24.0036 8.62934 24.0024C8.6868 24.0017 8.82818 23.983 8.89924 23.8258L11.3852 18.3271C11.1049 18.4074 10.8473 18.5523 10.6331 18.7501ZM19.3378 21.9062L17.7749 18.4494C17.5008 18.78 17.1506 19.0559 16.7357 19.2556C15.5879 19.8083 14.2938 19.6147 13.3582 18.7501C13.144 18.5522 12.8864 18.4074 12.6061 18.3271L15.092 23.8258C15.1631 23.9831 15.3045 24.0017 15.3619 24.0024C15.4205 24.0036 15.5613 23.9881 15.6364 23.8327L16.1502 22.7694C16.2687 22.5237 16.454 22.3165 16.6849 22.1715C16.9158 22.0265 17.1829 21.9495 17.4556 21.9494C17.5849 21.9494 17.716 21.9668 17.8456 22.0029L18.9833 22.3195C19.1495 22.3658 19.2546 22.2693 19.292 22.2256C19.3295 22.182 19.4089 22.0634 19.3378 21.9062Z" fill="#1B3B7C"/>
<path d="M20.5658 9.74264C19.2679 8.85389 18.8651 7.08928 19.649 5.72536C20.1201 4.90547 19.8749 4.09529 19.4883 3.61046C19.1017 3.12577 18.3663 2.70647 17.4622 2.98327C15.9583 3.44391 14.3274 2.65866 13.7497 1.19541C13.4025 0.315848 12.6161 0.00244141 11.9961 0.00244141C11.3761 0.00244141 10.5898 0.315848 10.2425 1.19546C9.66483 2.65875 8.03405 3.44391 6.52997 2.98332C5.6258 2.70657 4.89056 3.12577 4.50389 3.6105C4.11731 4.09533 3.87211 4.90543 4.34325 5.72541C5.12709 7.08928 4.72434 8.85394 3.42637 9.74269C2.64609 10.277 2.51555 11.1133 2.65345 11.7178C2.79136 12.3223 3.27192 13.0191 4.20675 13.1619C5.76178 13.3995 6.89025 14.8146 6.77592 16.3835C6.70711 17.3267 7.27959 17.9502 7.8382 18.2193C8.39686 18.4883 9.24126 18.5472 9.93576 17.9053C10.5134 17.3716 11.2549 17.1046 11.9961 17.1046C12.7375 17.1046 13.4786 17.3714 14.0563 17.9053C14.7509 18.5472 15.5954 18.4883 16.154 18.2193C16.7126 17.9503 17.285 17.3267 17.2162 16.3836C17.1019 14.8146 18.2304 13.3996 19.7854 13.1619C20.7202 13.0191 21.2007 12.3223 21.3387 11.7178C21.4767 11.1132 21.346 10.2769 20.5658 9.74264ZM11.9961 15.7488C8.59416 15.7488 5.82647 12.9811 5.82647 9.57919C5.82647 6.17724 8.59411 3.4095 11.9961 3.4095C15.3981 3.4095 18.1657 6.17719 18.1657 9.57914C18.1657 12.9811 15.3981 15.7488 11.9961 15.7488Z" fill="#1B3B7C"/>
<path d="M11.9959 4.55981C9.2282 4.55981 6.97656 6.8115 6.97656 9.57914C6.97656 12.3468 9.22816 14.5985 11.9959 14.5985C14.7636 14.5985 17.0152 12.3468 17.0152 9.57914C17.0152 6.8115 14.7636 4.55981 11.9959 4.55981ZM14.5682 9.09249L11.4443 11.3741C11.3826 11.4192 11.3125 11.4515 11.2381 11.4692C11.1638 11.4869 11.0867 11.4896 11.0112 11.4772C10.9358 11.4647 10.8637 11.4373 10.799 11.3966C10.7342 11.356 10.6783 11.3028 10.6344 11.2403L9.69995 9.90985C9.51737 9.64983 9.58014 9.2911 9.84006 9.10852C10.1 8.92594 10.4587 8.98866 10.6413 9.24863L11.239 10.0996L13.8897 8.16356C14.1462 7.9763 14.5061 8.03217 14.6934 8.28877C14.8808 8.54527 14.8247 8.90508 14.5682 9.09249Z" fill="#1B3B7C"/>
</g>
<defs>
<clipPath id="clip0_222_2283">
<rect width="24" height="24" fill="white" transform="translate(-0.00390625 0.00244141)"/>
</clipPath>
</defs>
</svg>
