<svg width="24" height="24" viewBox="0 0 24 24" fill="none" xmlns="http://www.w3.org/2000/svg">
<path d="M9.70368 13.2399C9.62832 13.2399 8.04744 13.2404 7.31832 13.2397C6.94296 13.2394 6.80904 13.1045 6.80904 12.7268C6.80844 11.7565 6.80844 10.7861 6.80904 9.81581C6.80928 9.44285 6.95088 9.30053 7.32144 9.30029C8.05056 9.29981 9.6228 9.30005 9.70368 9.30005V7.18757C9.70416 6.23381 9.87432 5.32085 10.3589 4.48493C10.855 3.62933 11.5769 3.04325 12.5021 2.70437C13.0946 2.48717 13.7098 2.40053 14.3386 2.40005C15.1253 2.39957 15.912 2.40029 16.699 2.40173C17.0371 2.40221 17.1871 2.55173 17.1878 2.89229C17.1893 3.80501 17.1893 4.71773 17.1878 5.63021C17.1874 5.97437 17.0436 6.11261 16.6978 6.11645C16.0529 6.12341 15.4075 6.11909 14.7634 6.14501C14.1127 6.14501 13.7705 6.46277 13.7705 7.13621C13.7549 7.84853 13.764 8.56157 13.764 9.29981C13.825 9.29981 15.6766 9.29957 16.542 9.29981C16.9351 9.29981 17.0695 9.43493 17.0695 9.83021C17.0695 10.7953 17.0693 11.7605 17.0686 12.7256C17.0683 13.1151 16.9421 13.2394 16.5466 13.2397C15.6811 13.2401 13.8367 13.2399 13.7561 13.2399V21.0507C13.7561 21.4671 13.625 21.5998 13.2142 21.5998H10.2086C9.84552 21.5998 9.70392 21.4587 9.70392 21.0956L9.70368 13.2399Z" fill="white"/>
</svg>
