<svg width="24" height="24" viewBox="0 0 24 24" fill="none" xmlns="http://www.w3.org/2000/svg">
<path d="M6.621 4.5H8C8.39782 4.5 8.77936 4.34196 9.06066 4.06066C9.34196 3.77936 9.5 3.39782 9.5 3C9.5 2.60218 9.34196 2.22064 9.06066 1.93934C8.77936 1.65804 8.39782 1.5 8 1.5H3C2.60315 1.50314 2.22343 1.66218 1.94281 1.94281C1.66218 2.22343 1.50314 2.60315 1.5 3V8C1.5 8.39782 1.65804 8.77936 1.93934 9.06066C2.22064 9.34196 2.60218 9.5 3 9.5C3.39782 9.5 3.77936 9.34196 4.06066 9.06066C4.34196 8.77936 4.5 8.39782 4.5 8V6.621L7.939 10.061C8.22039 10.3424 8.60205 10.5005 9 10.5005C9.39795 10.5005 9.7796 10.3424 10.061 10.061C10.3424 9.7796 10.5005 9.39795 10.5005 9C10.5005 8.60205 10.3424 8.22039 10.061 7.939L6.621 4.5ZM22.393 2.453C22.2832 2.17272 22.0917 1.93195 21.8433 1.76199C21.5948 1.59203 21.301 1.50074 21 1.5H16C15.6022 1.5 15.2206 1.65804 14.9393 1.93934C14.658 2.22064 14.5 2.60218 14.5 3C14.5 3.39782 14.658 3.77936 14.9393 4.06066C15.2206 4.34196 15.6022 4.5 16 4.5H17.379L13.939 7.939C13.6576 8.22039 13.4995 8.60205 13.4995 9C13.4995 9.39795 13.6576 9.7796 13.939 10.061C14.2204 10.3424 14.602 10.5005 15 10.5005C15.398 10.5005 15.7796 10.3424 16.061 10.061L19.5 6.621V8C19.5 8.39782 19.658 8.77936 19.9393 9.06066C20.2206 9.34196 20.6022 9.5 21 9.5C21.3978 9.5 21.7794 9.34196 22.0607 9.06066C22.342 8.77936 22.5 8.39782 22.5 8V3C22.4992 2.81255 22.4629 2.62695 22.393 2.453ZM7.939 13.939L4.5 17.379V16C4.5 15.6022 4.34196 15.2206 4.06066 14.9393C3.77936 14.658 3.39782 14.5 3 14.5C2.60218 14.5 2.22064 14.658 1.93934 14.9393C1.65804 15.2206 1.5 15.6022 1.5 16V21C1.50314 21.3969 1.66218 21.7766 1.94281 22.0572C2.22343 22.3378 2.60315 22.4969 3 22.5H8C8.39782 22.5 8.77936 22.342 9.06066 22.0607C9.34196 21.7794 9.5 21.3978 9.5 21C9.5 20.6022 9.34196 20.2206 9.06066 19.9393C8.77936 19.658 8.39782 19.5 8 19.5H6.621L10.061 16.061C10.3424 15.7796 10.5005 15.398 10.5005 15C10.5005 14.602 10.3424 14.2204 10.061 13.939C9.7796 13.6576 9.39795 13.4995 9 13.4995C8.60205 13.4995 8.22039 13.6576 7.939 13.939ZM21 14.5C20.6022 14.5 20.2206 14.658 19.9393 14.9393C19.658 15.2206 19.5 15.6022 19.5 16V17.379L16.061 13.939C15.7796 13.6576 15.398 13.4995 15 13.4995C14.602 13.4995 14.2204 13.6576 13.939 13.939C13.6576 14.2204 13.4995 14.602 13.4995 15C13.4995 15.398 13.6576 15.7796 13.939 16.061L17.379 19.5H16C15.6022 19.5 15.2206 19.658 14.9393 19.9393C14.658 20.2206 14.5 20.6022 14.5 21C14.5 21.3978 14.658 21.7794 14.9393 22.0607C15.2206 22.342 15.6022 22.5 16 22.5H21C21.3969 22.4969 21.7766 22.3378 22.0572 22.0572C22.3378 21.7766 22.4969 21.3969 22.5 21V16C22.5 15.6022 22.342 15.2206 22.0607 14.9393C21.7794 14.658 21.3978 14.5 21 14.5Z" fill="#1B3B7C"/>
</svg>
