<svg width="24" height="24" viewBox="0 0 24 24" fill="none" xmlns="http://www.w3.org/2000/svg">
<g clip-path="url(#clip0_239_3243)">
<path d="M19.3957 11.1091L12.8694 11.1088C12.5812 11.1088 12.3477 11.3423 12.3477 11.6305V13.7154C12.3477 14.0035 12.5812 14.2371 12.8694 14.2371H16.5446C16.1422 15.2815 15.391 16.1562 14.4327 16.7119L15.9998 19.4247C18.5136 17.9709 19.9998 15.42 19.9998 12.5644C19.9998 12.1578 19.9698 11.8671 19.9099 11.5399C19.8643 11.2912 19.6485 11.1091 19.3957 11.1091Z" fill="white"/>
<path d="M11.9989 17.3696C10.2003 17.3696 8.63019 16.3869 7.78691 14.9327L5.07422 16.4963C6.45469 18.8889 9.04075 20.5 11.9989 20.5C13.45 20.5 14.8193 20.1093 15.9989 19.4284V19.4247L14.4318 16.7119C13.715 17.1276 12.8855 17.3696 11.9989 17.3696Z" fill="white"/>
<path d="M16 19.4283V19.4246L14.4329 16.7118C13.7161 17.1275 12.8867 17.3695 12 17.3695V20.4999C13.4512 20.4999 14.8205 20.1092 16 19.4283Z" fill="white"/>
<path d="M7.13044 12.4999C7.13044 11.6134 7.37237 10.784 7.78803 10.0672L5.07534 8.50366C4.39069 9.67951 4 11.0451 4 12.4999C4 13.9548 4.39069 15.3204 5.07534 16.4962L7.78803 14.9327C7.37237 14.2159 7.13044 13.3865 7.13044 12.4999Z" fill="white"/>
<path d="M11.9989 7.63044C13.1717 7.63044 14.249 8.04719 15.0905 8.74041C15.2981 8.91141 15.5998 8.89906 15.79 8.70891L17.2672 7.23172C17.4829 7.01597 17.4675 6.66281 17.2371 6.46287C15.8272 5.23978 13.9928 4.5 11.9989 4.5C9.04075 4.5 6.45469 6.11116 5.07422 8.50372L7.78691 10.0673C8.63019 8.61312 10.2003 7.63044 11.9989 7.63044Z" fill="white"/>
<path d="M15.0916 8.74041C15.2992 8.91141 15.601 8.89906 15.7911 8.70891L17.2683 7.23172C17.484 7.01597 17.4686 6.66281 17.2382 6.46288C15.8283 5.23975 13.994 4.5 12 4.5V7.63044C13.1728 7.63044 14.2502 8.04719 15.0916 8.74041Z" fill="white"/>
</g>
<defs>
<clipPath id="clip0_239_3243">
<rect width="16" height="16" fill="white" transform="translate(4 4.5)"/>
</clipPath>
</defs>
</svg>
