<svg width="464" height="468" viewBox="0 0 464 468" fill="none" xmlns="http://www.w3.org/2000/svg">
<rect width="106.221" height="106.221" rx="11.0428" transform="matrix(-0.707107 -0.707107 -0.707107 0.707107 463.293 240.412)" fill="#8CB9F8" fill-opacity="0.06"/>
<rect width="127.109" height="127.109" rx="13.2143" transform="matrix(-0.707107 -0.707107 -0.707107 0.707107 384.621 347.005)" fill="#8CB9F8" fill-opacity="0.06"/>
<rect width="106.221" height="106.221" rx="11.0428" transform="matrix(-0.707107 -0.707107 -0.707107 0.707107 118.219 385.35)" fill="#8CB9F8" fill-opacity="0.06"/>
<rect width="167.013" height="167.013" rx="11.0428" transform="matrix(-0.707107 -0.707107 -0.707107 0.707107 266.871 267.267)" fill="#8CB9F8" fill-opacity="0.06"/>
<rect width="146.563" height="146.563" rx="11.0428" transform="matrix(-0.707107 -0.707107 -0.707107 0.707107 384.652 135.194)" fill="#8CB9F8" fill-opacity="0.06"/>
<rect width="75.1405" height="75.1405" rx="11.0428" transform="matrix(-0.707107 -0.707107 -0.707107 0.707107 239.449 414.074)" fill="#8CB9F8" fill-opacity="0.06"/>
<rect width="75.1405" height="75.1405" rx="11.0428" transform="matrix(-0.707107 -0.707107 -0.707107 0.707107 104.246 165.398)" fill="#8CB9F8" fill-opacity="0.06"/>
<rect width="105.492" height="105.492" rx="15.5033" transform="matrix(-0.707107 -0.707107 -0.707107 0.707107 223.41 74.594)" fill="#8CB9F8" fill-opacity="0.06"/>
</svg>
