<svg width="446" height="468" viewBox="0 0 446 468" fill="none" xmlns="http://www.w3.org/2000/svg">
<rect y="240.412" width="106.221" height="106.221" rx="11.0428" transform="rotate(-45 0 240.412)" fill="#8CB9F8" fill-opacity="0.06"/>
<rect x="78.6719" y="347.005" width="127.109" height="127.109" rx="13.2143" transform="rotate(-45 78.6719 347.005)" fill="#8CB9F8" fill-opacity="0.06"/>
<rect x="345.074" y="385.351" width="106.221" height="106.221" rx="11.0428" transform="rotate(-45 345.074 385.351)" fill="#8CB9F8" fill-opacity="0.06"/>
<rect x="196.422" y="267.267" width="167.013" height="167.013" rx="11.0428" transform="rotate(-45 196.422 267.267)" fill="#8CB9F8" fill-opacity="0.06"/>
<rect x="78.6367" y="135.194" width="146.563" height="146.563" rx="11.0428" transform="rotate(-45 78.6367 135.194)" fill="#8CB9F8" fill-opacity="0.06"/>
<rect x="223.84" y="414.073" width="75.1405" height="75.1405" rx="11.0428" transform="rotate(-45 223.84 414.073)" fill="#8CB9F8" fill-opacity="0.06"/>
<rect x="359.043" y="165.398" width="75.1405" height="75.1405" rx="11.0428" transform="rotate(-45 359.043 165.398)" fill="#8CB9F8" fill-opacity="0.06"/>
<rect x="239.879" y="74.594" width="105.492" height="105.492" rx="15.5033" transform="rotate(-45 239.879 74.594)" fill="#8CB9F8" fill-opacity="0.06"/>
</svg>
