<svg width="159" height="172" viewBox="0 0 159 172" fill="none" xmlns="http://www.w3.org/2000/svg">
<path d="M172 57.334C172 64.9593 170.165 73.1365 166.539 81.6433C165.378 84.3667 162.734 86.0078 159.946 86.0078C159.007 86.0078 158.054 85.8215 157.136 85.4273C153.488 83.8793 151.797 79.6653 153.352 76.0247C156.212 69.3023 157.667 63.0172 157.667 57.334C157.667 37.9123 142.896 21.5007 125.417 21.5007C109.399 21.5007 100.276 27.9865 94.127 33.641L66.7217 59.0755C64.1918 61.6125 63.5898 65.8767 65.5535 68.6072C66.8363 70.3917 68.7212 71.4667 70.8497 71.6387C72.9638 71.8322 75.0135 71.0582 76.497 69.5603L106.403 40.9295C109.242 38.199 113.792 38.2922 116.537 41.1517C119.275 44.0112 119.174 48.5477 116.315 51.2853L107.443 59.7778L141.463 89.6342C149.432 96.6288 151.396 108.375 146.028 116.953C142.724 122.228 137.328 125.776 131.229 126.671C130.813 126.729 130.405 126.779 129.989 126.815C129.96 130.506 128.979 134.161 126.965 137.386C123.661 142.66 118.264 146.208 112.165 147.104C110.84 147.29 109.521 147.369 108.202 147.304C107.815 150.042 106.884 152.708 105.371 155.123C102.068 160.398 96.7428 165.063 87.5122 165.063C82.4453 165.063 77.529 163.236 73.6733 159.846L51.428 139.894C27.9572 118.681 0 87.1545 0 57.334C0 29.6707 20.898 7.16732 46.5833 7.16732C52.503 7.16732 58.2865 8.37132 63.7618 10.7507C67.3953 12.3273 69.0652 16.5485 67.4885 20.1748C65.9118 23.8012 61.6907 25.4638 58.0643 23.9015C54.395 22.3105 50.5322 21.5078 46.5762 21.5078C29.0967 21.5078 14.3262 37.9195 14.3262 57.3412C14.3262 76.5048 30.9027 102.04 61.017 129.251L83.1907 149.132C84.6025 150.372 86.559 150.945 88.494 150.665C90.4577 150.379 92.1418 149.268 93.224 147.526C94.8723 144.882 94.0553 140.955 91.3535 138.59L68.37 116.738C65.5105 114.015 65.3887 109.486 68.1048 106.612C70.8282 103.745 75.3575 103.623 78.2313 106.332L104.906 131.516C106.188 132.634 108.174 133.222 110.08 132.921C112.044 132.634 113.728 131.516 114.81 129.782C116.458 127.137 115.641 123.21 112.939 120.838L87.4262 97.7397C84.5022 95.0952 84.2657 90.573 86.903 87.6418C89.5332 84.7107 94.0553 84.4527 97.0008 87.0757L123.818 110.941C125.252 112.202 127.215 112.79 129.143 112.489C131.107 112.202 132.791 111.084 133.873 109.35C135.522 106.705 134.705 102.778 132.003 100.406L97.0438 69.7252L86.5088 79.8087C82.1587 84.166 76.0168 86.4307 69.6815 85.929C63.3892 85.4202 57.6343 82.1593 53.9077 76.9778C47.8518 68.5642 49.0773 56.431 56.76 48.7483L84.3875 23.106C91.8552 16.2475 104.196 7.16016 125.402 7.16016C151.088 7.16016 171.986 29.6635 171.986 57.3268L172 57.334Z" fill="#8CB9F8" fill-opacity="0.25"/>
</svg>
