<svg width="24" height="24" viewBox="0 0 24 24" fill="none" xmlns="http://www.w3.org/2000/svg">
<g clip-path="url(#clip0_222_1754)">
<path d="M4 9C5.65685 9 7 7.65685 7 6C7 4.34315 5.65685 3 4 3C2.34315 3 1 4.34315 1 6C1 7.65685 2.34315 9 4 9Z" fill="#1B3B7C"/>
<path d="M7.29 11.07C6.2835 11.6981 5.45339 12.5719 4.87782 13.6094C4.30226 14.6468 4.00017 15.8136 4 17H2C1.47005 16.9984 0.962265 16.7872 0.587535 16.4125C0.212805 16.0377 0.00158273 15.5299 0 15L0 13C0.00237409 12.2051 0.319207 11.4434 0.881302 10.8813C1.4434 10.3192 2.20508 10.0024 3 10H5C5.43657 10.001 5.86767 10.0972 6.26319 10.2821C6.65872 10.4669 7.00914 10.7358 7.29 11.07Z" fill="#1B3B7C"/>
<path d="M20 9C21.6569 9 23 7.65685 23 6C23 4.34315 21.6569 3 20 3C18.3431 3 17 4.34315 17 6C17 7.65685 18.3431 9 20 9Z" fill="#1B3B7C"/>
<path d="M24.0009 13V15C23.9994 15.5299 23.7881 16.0377 23.4134 16.4125C23.0387 16.7872 22.5309 16.9984 22.0009 17H20.0009C20.0008 15.8136 19.6987 14.6468 19.1231 13.6094C18.5475 12.5719 17.7174 11.6981 16.7109 11.07C16.9918 10.7358 17.3422 10.4669 17.7377 10.2821C18.1333 10.0972 18.5644 10.001 19.0009 10H21.0009C21.7959 10.0024 22.5575 10.3192 23.1196 10.8813C23.6817 11.4434 23.9986 12.2051 24.0009 13Z" fill="#1B3B7C"/>
<path d="M12 11C14.2091 11 16 9.20914 16 7C16 4.79086 14.2091 3 12 3C9.79086 3 8 4.79086 8 7C8 9.20914 9.79086 11 12 11Z" fill="#1B3B7C"/>
<path d="M18 17V18C17.9976 18.7949 17.6808 19.5566 17.1187 20.1187C16.5566 20.6808 15.7949 20.9976 15 21H9C8.20508 20.9976 7.4434 20.6808 6.8813 20.1187C6.31921 19.5566 6.00237 18.7949 6 18V17C6 15.6739 6.52678 14.4021 7.46447 13.4645C8.40215 12.5268 9.67392 12 11 12H13C14.3261 12 15.5979 12.5268 16.5355 13.4645C17.4732 14.4021 18 15.6739 18 17Z" fill="#1B3B7C"/>
</g>
<defs>
<clipPath id="clip0_222_1754">
<rect width="24" height="24" fill="white"/>
</clipPath>
</defs>
</svg>
