<svg width="24" height="24" viewBox="0 0 24 24" fill="none" xmlns="http://www.w3.org/2000/svg">
<g clip-path="url(#clip0_222_1772)">
<path d="M21.1422 12.0468V22.1249C21.1422 23.1796 20.4812 23.9999 19.6375 23.9999H17.5797C16.7359 23.9999 16.075 23.1749 16.075 22.1249V12.0468C16.075 10.9921 16.7359 10.1718 17.5797 10.1718H19.6375C20.4765 10.1718 21.1422 10.9968 21.1422 12.0468ZM21.175 6.13582C21.0344 6.23425 20.8515 6.23894 20.7015 6.14988L19.2953 5.30613C16.9797 9.1405 13.7125 12.7499 7.4031 12.7499C6.07185 12.7499 4.60466 12.5905 2.98279 12.2343C2.74841 12.1827 2.59841 11.953 2.64529 11.7139C2.69216 11.4983 2.88904 11.353 3.10935 11.3718C3.5031 11.4046 12.6531 12.0186 16.4969 3.55769L15.0578 2.85925C14.8422 2.75613 14.7484 2.49363 14.8515 2.278C14.8984 2.17957 14.9781 2.10457 15.0765 2.06238L19.8531 0.0326908C20.0734 -0.0610592 20.3312 0.0420658 20.425 0.262378C20.439 0.295191 20.4484 0.328003 20.4531 0.360816L21.3578 5.69988C21.3906 5.86863 21.3156 6.04207 21.175 6.13582ZM14.5375 15.7499V22.1249C14.5375 23.1796 13.8765 23.9999 13.0328 23.9999H10.9703C10.1265 23.9999 9.4656 23.1749 9.4656 22.1249V15.7499C9.4656 14.6952 10.1265 13.8749 10.9703 13.8749H13.0281C13.8765 13.8702 14.5375 14.6952 14.5375 15.7499ZM8.0781 18.8343V22.1249C8.0781 23.1749 7.41716 23.9999 6.57341 23.9999H4.51091C3.66716 23.9999 3.00623 23.1749 3.00623 22.1249V18.8343C3.00623 17.7796 3.66716 16.9593 4.51091 16.9593H6.56873C7.41717 16.9546 8.0781 17.7796 8.0781 18.8343Z" fill="#1B3B7C"/>
</g>
<defs>
<clipPath id="clip0_222_1772">
<rect width="24" height="24" fill="white"/>
</clipPath>
</defs>
</svg>
