<svg width="73" height="72" viewBox="0 0 73 72" fill="none" xmlns="http://www.w3.org/2000/svg">
<rect x="0.832031" y="0.5" width="71" height="71" rx="35.5" fill="#8CB9F8" fill-opacity="0.1"/>
<rect x="0.832031" y="0.5" width="71" height="71" rx="35.5" stroke="url(#paint0_linear_222_1815)"/>
<g clip-path="url(#clip0_222_1815)">
<path d="M28.3332 35.9995C32.7452 35.9995 36.3332 32.4115 36.3332 27.9995C36.3332 23.5875 32.7452 19.9995 28.3332 19.9995C23.9212 19.9995 20.3332 23.5875 20.3332 27.9995C20.3332 32.4115 23.9212 35.9995 28.3332 35.9995ZM28.3332 22.6662C31.2745 22.6662 33.6665 25.0582 33.6665 27.9995C33.6665 29.5022 33.0372 30.8569 32.0332 31.8262C31.4385 30.3662 30.0119 29.3329 28.3399 29.3329H28.3265C26.6532 29.3329 25.2252 30.3649 24.6305 31.8249C23.6292 30.8542 22.9999 29.5022 22.9999 27.9995C22.9999 25.0582 25.3919 22.6662 28.3332 22.6662ZM26.3332 25.9995C26.3332 24.8955 27.2292 23.9995 28.3332 23.9995C29.4372 23.9995 30.3332 24.8955 30.3332 25.9995C30.3332 27.1035 29.4372 27.9995 28.3332 27.9995C27.2292 27.9995 26.3332 27.1035 26.3332 25.9995ZM51.4839 29.1715C51.3252 29.2342 51.1612 29.2622 50.9999 29.2622C50.4665 29.2622 49.9625 28.9409 49.7572 28.4129L48.2719 24.6062C43.3959 34.9422 34.5732 41.8942 22.0132 45.2875C21.8972 45.3182 21.7799 45.3329 21.6652 45.3329C21.0772 45.3329 20.5385 44.9422 20.3785 44.3475C20.1865 43.6369 20.6065 42.9049 21.3185 42.7115C33.1305 39.5209 41.3945 33.0062 45.9185 23.3355L41.8225 24.9329C41.1332 25.2022 40.3625 24.8595 40.0959 24.1755C39.8279 23.4889 40.1679 22.7169 40.8532 22.4489L46.7212 20.1595C47.9972 19.6582 49.4519 20.2955 49.9532 21.5755L52.2425 27.4435C52.5105 28.1302 52.1705 28.9022 51.4852 29.1702L51.4839 29.1715ZM50.9999 31.9995V50.6662C50.9999 51.4035 50.4025 51.9995 49.6665 51.9995C48.9305 51.9995 48.3332 51.4035 48.3332 50.6662V31.9995C48.3332 31.2622 48.9305 30.6662 49.6665 30.6662C50.4025 30.6662 50.9999 31.2622 50.9999 31.9995ZM44.3332 38.6662V50.6662C44.3332 51.4035 43.7359 51.9995 42.9999 51.9995C42.2639 51.9995 41.6665 51.4035 41.6665 50.6662V38.6662C41.6665 37.9289 42.2639 37.3329 42.9999 37.3329C43.7359 37.3329 44.3332 37.9289 44.3332 38.6662ZM37.6665 43.9995V50.6662C37.6665 51.4035 37.0692 51.9995 36.3332 51.9995C35.5972 51.9995 34.9999 51.4035 34.9999 50.6662V43.9995C34.9999 43.2622 35.5972 42.6662 36.3332 42.6662C37.0692 42.6662 37.6665 43.2622 37.6665 43.9995ZM30.9999 46.6662V50.6662C30.9999 51.4035 30.4025 51.9995 29.6665 51.9995C28.9305 51.9995 28.3332 51.4035 28.3332 50.6662V46.6662C28.3332 45.9289 28.9305 45.3329 29.6665 45.3329C30.4025 45.3329 30.9999 45.9289 30.9999 46.6662ZM24.3332 49.3329V50.6662C24.3332 51.4035 23.7359 51.9995 22.9999 51.9995C22.2639 51.9995 21.6665 51.4035 21.6665 50.6662V49.3329C21.6665 48.5955 22.2639 47.9995 22.9999 47.9995C23.7359 47.9995 24.3332 48.5955 24.3332 49.3329Z" fill="#1B3B7C"/>
</g>
<defs>
<linearGradient id="paint0_linear_222_1815" x1="36.332" y1="0" x2="36.332" y2="72" gradientUnits="userSpaceOnUse">
<stop stop-color="#8CB9F8"/>
<stop offset="1" stop-color="#1B3B7C"/>
</linearGradient>
<clipPath id="clip0_222_1815">
<rect width="32" height="32" fill="white" transform="translate(20.332 20)"/>
</clipPath>
</defs>
</svg>
