<svg width="73" height="72" viewBox="0 0 73 72" fill="none" xmlns="http://www.w3.org/2000/svg">
<rect x="0.832031" y="0.5" width="71" height="71" rx="35.5" fill="#8CB9F8" fill-opacity="0.1"/>
<rect x="0.832031" y="0.5" width="71" height="71" rx="35.5" stroke="url(#paint0_linear_222_1796)"/>
<g clip-path="url(#clip0_222_1796)">
<path d="M24.168 26.624C24.8854 26.8107 25.6094 26.3787 25.7907 25.6653C26.2454 23.9 27.8387 22.6667 29.6654 22.6667H35.6854C35.9027 22.6667 36.1187 22.6773 36.332 22.6973V29.3333C36.332 31.5387 38.1267 33.3333 40.332 33.3333H48.332C49.0694 33.3333 49.6654 32.736 49.6654 32C49.6654 30.8187 48.3054 28.5067 47.156 27.3573L42.2854 22.7333C40.5214 20.9707 38.1774 20 35.6854 20H29.6654C26.6214 20 23.9667 22.056 23.2094 25.0013C23.0254 25.7147 23.4547 26.4413 24.168 26.624ZM38.9987 23.548C39.512 23.8427 39.9894 24.2093 40.424 24.6427L45.2947 29.2653C45.6814 29.652 46.0507 30.176 46.3467 30.6653H40.3307C39.5947 30.6653 38.9974 30.0667 38.9974 29.332V23.548H38.9987ZM41.6654 34.6667C42.4027 34.6667 42.9987 35.264 42.9987 36C42.9987 36.736 42.4027 37.3333 41.6654 37.3333H36.332C35.596 37.3333 34.9987 36.736 34.9987 36C34.9987 35.264 35.596 34.6667 36.332 34.6667H41.6654ZM26.3334 42.6667C30.816 41.44 32.4254 37.724 32.332 35.652V31.6267C32.332 30.604 31.68 29.7013 30.708 29.3787L26.7507 28.0667C26.4787 27.9773 26.1854 27.9773 25.912 28.0667L21.9574 29.3787C20.9854 29.7 20.332 30.6027 20.332 31.6267V35.6813C20.392 38.424 22.208 40.7253 25.7267 42.5213C25.9174 42.6187 26.124 42.6667 26.3334 42.6667ZM22.9987 35.652V31.844L26.332 30.7387L29.6654 31.844V35.6253C29.6294 37.4387 28.556 38.8253 26.388 39.852C24.1427 38.596 23.032 37.2107 22.9987 35.652ZM51.16 37.172C49.6 35.612 47.064 35.612 45.504 37.172L37.8947 44.7813C36.8867 45.788 36.332 47.128 36.332 48.552V50.6667C36.332 51.4027 36.9294 52 37.6654 52H39.78C41.204 52 42.544 51.444 43.5507 50.4373L51.16 42.828C51.9147 42.072 52.332 41.068 52.332 39.9987C52.332 38.9293 51.9147 37.9267 51.16 37.172ZM49.2747 40.9427L41.6654 48.552C41.1614 49.056 40.492 49.3333 39.78 49.3333H38.9987V48.552C38.9987 47.8507 39.284 47.1627 39.78 46.6667L47.3894 39.0573C47.9107 38.5373 48.7534 38.5373 49.2747 39.0573C49.5267 39.308 49.6654 39.6427 49.6654 40C49.6654 40.3573 49.5267 40.6907 49.2747 40.9427ZM33.6654 50.6667C33.6654 51.4027 33.068 52 32.332 52H29.6654C25.9894 52 22.9987 49.0093 22.9987 45.3333C22.9987 44.5973 23.596 44 24.332 44C25.068 44 25.6654 44.5973 25.6654 45.3333C25.6654 47.5387 27.46 49.3333 29.6654 49.3333H32.332C33.068 49.3333 33.6654 49.9307 33.6654 50.6667ZM36.332 42.6667H34.332C33.596 42.6667 32.9987 42.0693 32.9987 41.3333C32.9987 40.5973 33.596 40 34.332 40H36.332C37.068 40 37.6654 40.5973 37.6654 41.3333C37.6654 42.0693 37.068 42.6667 36.332 42.6667Z" fill="#1B3B7C"/>
</g>
<defs>
<linearGradient id="paint0_linear_222_1796" x1="36.332" y1="0" x2="36.332" y2="72" gradientUnits="userSpaceOnUse">
<stop stop-color="#8CB9F8"/>
<stop offset="1" stop-color="#1B3B7C"/>
</linearGradient>
<clipPath id="clip0_222_1796">
<rect width="32" height="32" fill="white" transform="translate(20.332 20)"/>
</clipPath>
</defs>
</svg>
