<svg width="72" height="72" viewBox="0 0 72 72" fill="none" xmlns="http://www.w3.org/2000/svg">
<rect x="0.5" y="0.5" width="71" height="71" rx="35.5" fill="#8CB9F8" fill-opacity="0.1"/>
<rect x="0.5" y="0.5" width="71" height="71" rx="35.5" stroke="url(#paint0_linear_222_1802)"/>
<g clip-path="url(#clip0_222_1802)">
<path d="M33.333 22.6667C33.333 21.1933 34.5263 20 35.9996 20C37.473 20 38.6663 21.1933 38.6663 22.6667C38.6663 24.14 37.473 25.3333 35.9996 25.3333C34.5263 25.3333 33.333 24.14 33.333 22.6667ZM32.469 31.9733C33.1983 32.1093 33.8943 31.652 34.0423 30.932C34.2303 30.0053 35.0543 29.3333 36.001 29.3333C36.9476 29.3333 37.7716 30.0053 37.9596 30.932C38.089 31.564 38.645 32 39.265 32C39.3516 32 39.4423 31.9907 39.5316 31.9733C40.253 31.8267 40.7196 31.1227 40.573 30.4C40.133 28.236 38.2103 26.6653 35.9996 26.6653C33.789 26.6653 31.8663 28.236 31.4263 30.4C31.281 31.1227 31.7463 31.8253 32.4676 31.9733H32.469ZM47.333 28C48.8063 28 49.9996 26.8067 49.9996 25.3333C49.9996 23.86 48.8063 22.6667 47.333 22.6667C45.8596 22.6667 44.6663 23.86 44.6663 25.3333C44.6663 26.8067 45.8596 28 47.333 28ZM26.625 33.5987C26.7543 34.2307 27.3103 34.6667 27.9303 34.6667C28.017 34.6667 28.1076 34.6573 28.197 34.64C28.9183 34.4933 29.385 33.7893 29.2383 33.0667C28.7983 30.9027 26.8756 29.332 24.665 29.332C22.4543 29.332 20.533 30.904 20.093 33.068C19.9476 33.7907 20.413 34.4933 21.1343 34.6413C21.8636 34.78 22.5596 34.32 22.7076 33.6C22.8956 32.6733 23.7196 32.0013 24.6663 32.0013C25.613 32.0013 26.437 32.672 26.625 33.5987ZM24.6663 28C26.1396 28 27.333 26.8067 27.333 25.3333C27.333 23.86 26.1396 22.6667 24.6663 22.6667C23.193 22.6667 21.9996 23.86 21.9996 25.3333C21.9996 26.8067 23.193 28 24.6663 28ZM51.9063 33.068C51.4663 30.904 49.5436 29.3333 47.333 29.3333C45.1223 29.3333 43.1996 30.904 42.7596 33.068C42.6143 33.7907 43.0796 34.4933 43.801 34.6413C44.5303 34.78 45.2263 34.32 45.3743 33.6C45.5623 32.6733 46.3863 32.0013 47.333 32.0013C48.2796 32.0013 49.1036 32.6733 49.2916 33.6C49.421 34.232 49.977 34.668 50.597 34.668C50.6836 34.668 50.7743 34.6587 50.8636 34.6413C51.585 34.4947 52.053 33.7907 51.9063 33.068ZM46.3503 44.736L40.009 42.3587V36.144C40.009 34.1227 38.5743 32.364 36.6716 32.0547C35.4996 31.8653 34.3143 32.1907 33.4196 32.9533C32.5236 33.7147 32.009 34.8253 32.009 36.0013V46.0853L30.6556 45.008C30.6463 45 30.633 44.9987 30.6236 44.992C29.009 43.5893 26.5583 43.6933 25.0876 45.2693C23.581 46.88 23.6663 49.416 25.261 50.9093L26.005 51.6267C26.253 51.8667 26.585 52 26.9303 52C28.1303 52 28.7196 50.54 27.8556 49.7067L27.0983 48.976C26.561 48.472 26.533 47.6253 27.037 47.088C27.537 46.552 28.381 46.5267 28.917 47.024C28.9303 47.036 28.9476 47.0387 28.961 47.0507C28.9756 47.0627 31.2796 48.9093 31.2796 48.9093C31.9143 49.4147 32.7623 49.5093 33.493 49.1587C34.2236 48.8053 34.6783 48.0827 34.6783 47.272V36C34.6783 35.608 34.8503 35.2373 35.149 34.9827C35.453 34.7267 35.8423 34.6173 36.245 34.6853C36.8623 34.7853 37.345 35.4253 37.345 36.1427V43.2813C37.345 43.8373 37.6903 44.3347 38.209 44.5307L45.4156 47.232C46.8956 47.7867 47.9116 49.164 48.0036 50.744C48.045 51.452 48.633 51.9987 49.333 51.9987C49.3596 51.9987 49.385 51.9987 49.413 51.996C50.1476 51.9533 50.709 51.3227 50.665 50.5867C50.5116 47.956 48.817 45.6587 46.3516 44.7333L46.3503 44.736Z" fill="#1B3B7C"/>
</g>
<defs>
<linearGradient id="paint0_linear_222_1802" x1="36" y1="0" x2="36" y2="72" gradientUnits="userSpaceOnUse">
<stop stop-color="#8CB9F8"/>
<stop offset="1" stop-color="#1B3B7C"/>
</linearGradient>
<clipPath id="clip0_222_1802">
<rect width="32" height="32" fill="white" transform="translate(20 20)"/>
</clipPath>
</defs>
</svg>
