<svg width="73" height="72" viewBox="0 0 73 72" fill="none" xmlns="http://www.w3.org/2000/svg">
<rect x="1.16406" y="0.5" width="71" height="71" rx="35.5" fill="#8CB9F8" fill-opacity="0.1"/>
<rect x="1.16406" y="0.5" width="71" height="71" rx="35.5" stroke="url(#paint0_linear_222_1808)"/>
<g clip-path="url(#clip0_222_1808)">
<path d="M32.6641 36C37.0761 36 40.6641 32.412 40.6641 28C40.6641 23.588 37.0761 20 32.6641 20C28.2521 20 24.6641 23.588 24.6641 28C24.6641 32.412 28.2521 36 32.6641 36ZM32.6641 22.6667C35.6054 22.6667 37.9974 25.0587 37.9974 28C37.9974 30.9413 35.6054 33.3333 32.6641 33.3333C29.7227 33.3333 27.3307 30.9413 27.3307 28C27.3307 25.0587 29.7227 22.6667 32.6641 22.6667ZM33.9974 40C33.9974 40.736 33.4001 41.3333 32.6641 41.3333C27.5174 41.3333 23.3307 45.52 23.3307 50.6667C23.3307 51.4027 22.7334 52 21.9974 52C21.2614 52 20.6641 51.4027 20.6641 50.6667C20.6641 44.0507 26.0481 38.6667 32.6641 38.6667C33.4001 38.6667 33.9974 39.264 33.9974 40ZM48.6641 38.7347V38.6667C48.6641 37.196 47.4681 36 45.9974 36H43.3307C41.8601 36 40.6641 37.196 40.6641 38.6667V38.7347C38.4081 39.0613 36.6641 40.9893 36.6641 43.3333V47.3333C36.6641 49.9067 38.7574 52 41.3307 52H47.9974C50.5707 52 52.6641 49.9067 52.6641 47.3333V43.3333C52.6641 40.9893 50.9201 39.0613 48.6641 38.7347ZM41.3307 41.3333H47.9974C49.1001 41.3333 49.9974 42.2307 49.9974 43.3333V44H39.3307V43.3333C39.3307 42.2307 40.2281 41.3333 41.3307 41.3333ZM47.9974 49.3333H41.3307C40.2281 49.3333 39.3307 48.436 39.3307 47.3333V46.6667H43.3307C43.3307 47.4027 43.9281 48 44.6641 48C45.4001 48 45.9974 47.4027 45.9974 46.6667H49.9974V47.3333C49.9974 48.436 49.1001 49.3333 47.9974 49.3333Z" fill="#1B3B7C"/>
</g>
<defs>
<linearGradient id="paint0_linear_222_1808" x1="36.6641" y1="0" x2="36.6641" y2="72" gradientUnits="userSpaceOnUse">
<stop stop-color="#8CB9F8"/>
<stop offset="1" stop-color="#1B3B7C"/>
</linearGradient>
<clipPath id="clip0_222_1808">
<rect width="32" height="32" fill="white" transform="translate(20.6641 20)"/>
</clipPath>
</defs>
</svg>
