<svg width="73" height="72" viewBox="0 0 73 72" fill="none" xmlns="http://www.w3.org/2000/svg">
<rect x="1.16406" y="0.5" width="71" height="71" rx="35.5" fill="#8CB9F8" fill-opacity="0.1"/>
<rect x="1.16406" y="0.5" width="71" height="71" rx="35.5" stroke="url(#paint0_linear_222_1827)"/>
<g clip-path="url(#clip0_222_1827)">
<path d="M45.9973 22.6667C45.9973 21.1933 47.1907 20 48.664 20C50.1373 20 51.3307 21.1933 51.3307 22.6667C51.3307 24.14 50.1373 25.3333 48.664 25.3333C47.1907 25.3333 45.9973 24.14 45.9973 22.6667ZM24.664 25.3333C26.1373 25.3333 27.3307 24.14 27.3307 22.6667C27.3307 21.1933 26.1373 20 24.664 20C23.1907 20 21.9973 21.1933 21.9973 22.6667C21.9973 24.14 23.1907 25.3333 24.664 25.3333ZM52.6227 29.4947C52.1213 27.8573 50.5987 26.6667 48.7973 26.6667H47.2387C47.2933 27.104 47.3307 27.548 47.3307 28C47.3307 28.9227 47.2013 29.8133 46.9813 30.6667H51.7853C52.3907 30.6667 52.7987 30.0747 52.6227 29.4947ZM25.9973 28C25.9973 27.548 26.0347 27.104 26.0893 26.6667H24.5507C22.708 26.6667 21.1547 27.9133 20.692 29.6107C20.5453 30.148 20.9973 30.6667 21.5547 30.6667H26.3467C26.1267 29.8133 25.9973 28.9227 25.9973 28ZM36.664 28C37.768 28 38.664 27.104 38.664 26C38.664 24.896 37.768 24 36.664 24C35.56 24 34.664 24.896 34.664 26C34.664 27.104 35.56 28 36.664 28ZM49.996 50.5893C50.0387 51.324 49.4773 51.9547 48.7427 51.9987C48.716 51.9987 48.6893 52 48.664 52C47.9627 52 47.376 51.4533 47.3333 50.744C47.2427 49.1667 46.2253 47.788 44.7453 47.2333L38.9053 45.264C38.364 45.0813 37.9987 44.572 37.9987 44V37.476C37.9987 36.76 37.516 36.12 36.8987 36.0187C36.4933 35.9533 36.1053 36.0587 35.8013 36.3173C35.5027 36.5707 35.3307 36.9413 35.3307 37.3333V47.2733C35.3307 48.084 34.8773 48.8067 34.1453 49.16C33.4133 49.5133 32.5667 49.4147 31.932 48.912C31.932 48.912 29.584 47.0387 29.5707 47.0253C29.0347 46.528 28.192 46.5533 27.6907 47.0893C27.188 47.6267 27.216 48.4733 27.752 48.9773L28.5093 49.708C29.3733 50.54 28.784 52.0013 27.584 52.0013C27.2387 52.0013 26.9067 51.868 26.6587 51.628L25.9147 50.9107C24.32 49.4173 24.2347 46.8813 25.7413 45.2707C27.212 43.696 29.6613 43.5907 31.276 44.9933C31.2867 45.0013 32.6627 46.088 32.6627 46.088V37.3373C32.6627 36.5813 32.8947 35.8627 33.2853 35.236C30.4947 33.9347 28.6627 31.14 28.6627 28.004C28.6627 23.592 32.2507 20.004 36.6627 20.004C41.0747 20.004 44.6627 23.592 44.6627 28.004C44.6627 31.168 42.8293 33.956 40.02 35.2507C40.4227 35.9013 40.6627 36.6667 40.6627 37.48V43.0467L45.6373 44.724C48.1467 45.6653 49.8413 47.9627 49.9947 50.592L49.996 50.5893ZM31.3307 28C31.3307 29.48 31.944 30.8467 32.9587 31.8293C33.5507 30.3667 34.9787 29.3333 36.6533 29.3333H36.6747C38.348 29.3333 39.7747 30.3707 40.3667 31.8333C41.3827 30.8533 41.9973 29.4907 41.9973 28C41.9973 25.0587 39.6053 22.6667 36.664 22.6667C33.7227 22.6667 31.3307 25.0587 31.3307 28Z" fill="#1B3B7C"/>
</g>
<defs>
<linearGradient id="paint0_linear_222_1827" x1="36.6641" y1="0" x2="36.6641" y2="72" gradientUnits="userSpaceOnUse">
<stop stop-color="#8CB9F8"/>
<stop offset="1" stop-color="#1B3B7C"/>
</linearGradient>
<clipPath id="clip0_222_1827">
<rect width="32" height="32" fill="white" transform="translate(20.6641 20)"/>
</clipPath>
</defs>
</svg>
