<svg width="72" height="72" viewBox="0 0 72 72" fill="none" xmlns="http://www.w3.org/2000/svg">
<rect x="0.5" y="0.5" width="71" height="71" rx="35.5" fill="#8CB9F8" fill-opacity="0.1"/>
<rect x="0.5" y="0.5" width="71" height="71" rx="35.5" stroke="url(#paint0_linear_222_1821)"/>
<g clip-path="url(#clip0_222_1821)">
<path d="M51.0622 40.94C51.3409 41.972 51.2009 43.0507 50.6675 43.976C50.1355 44.9013 49.2742 45.5653 48.2435 45.8427C47.2129 46.1227 46.1329 45.9813 45.2075 45.4493L44.6075 45.104C43.4862 46.0653 42.1942 46.8093 40.7982 47.3027V47.9987C40.7982 50.204 39.0035 51.9987 36.7982 51.9987C34.5929 51.9987 32.7982 50.204 32.7982 47.9987V47.3027C31.4022 46.8093 30.1102 46.064 28.9889 45.104L28.3889 45.4493C26.5435 46.556 23.9609 45.8627 22.9275 43.9747C21.8169 42.1347 22.5155 39.548 24.4009 38.5133L25.0022 38.1667C24.8662 37.4413 24.7982 36.716 24.7982 36C24.7982 35.5013 24.8315 34.9947 24.8969 34.4933C24.9929 33.7613 25.6555 33.2427 26.3929 33.3453C27.1222 33.44 27.6369 34.1107 27.5409 34.84C27.4902 35.22 27.4635 35.6067 27.4635 36C27.4635 36.812 27.5795 37.6453 27.8075 38.4773C27.9689 39.0613 27.7129 39.6827 27.1862 39.9867L25.7289 40.8253C25.1009 41.1693 24.8675 42.0307 25.2369 42.644C25.5822 43.2747 26.4409 43.5067 27.0569 43.136L28.5115 42.3C29.0395 41.9987 29.7049 42.0907 30.1289 42.524C31.3142 43.7347 32.8129 44.6 34.4622 45.024C35.0515 45.176 35.4622 45.708 35.4622 46.316V48C35.4622 48.736 36.0609 49.3333 36.7955 49.3333C37.5302 49.3333 38.1289 48.736 38.1289 48V46.3173C38.1289 45.7093 38.5409 45.1787 39.1289 45.0267C40.7795 44.6 42.2769 43.7347 43.4622 42.524C43.8875 42.0907 44.5515 41.9987 45.0795 42.3L46.5342 43.136C47.1462 43.5067 48.0102 43.2733 48.3542 42.6453C48.7249 42.0307 48.4915 41.1693 47.8635 40.8253L46.4062 39.9867C45.8795 39.6827 45.6249 39.0627 45.7849 38.4773C46.0129 37.6453 46.1289 36.812 46.1289 36C46.1289 35.188 46.0129 34.3547 45.7849 33.5227C45.6235 32.9387 45.8795 32.3173 46.4062 32.0133L47.8635 31.1747C48.4915 30.8307 48.7249 29.9693 48.3555 29.356C48.0115 28.7267 47.1475 28.492 46.5355 28.864L45.0809 29.7C44.5529 30.0013 43.8875 29.9093 43.4635 29.476C42.2782 28.2653 40.7809 27.4 39.1302 26.9733C38.5422 26.8227 38.1302 26.2907 38.1302 25.6827V24C38.1302 23.264 37.5315 22.6667 36.7969 22.6667C36.0622 22.6667 35.4635 22.0707 35.4635 21.3333C35.4635 20.596 36.0609 20 36.7969 20C39.0022 20 40.7969 21.7947 40.7969 24V24.696C42.1929 25.1893 43.4849 25.9347 44.6062 26.8947L45.2062 26.5493C47.0475 25.4387 49.6355 26.1373 50.6675 28.024C51.7782 29.864 51.0795 32.4507 49.1942 33.4853L48.5929 33.832C48.7289 34.5573 48.7969 35.2827 48.7969 35.9987C48.7969 36.7147 48.7289 37.44 48.5929 38.1653L49.1942 38.512C50.1209 39.0453 50.7835 39.9067 51.0622 40.9373V40.94ZM24.7969 30.668C22.5875 30.668 20.7969 28.8773 20.7969 26.668V24.0027C20.7969 21.7933 22.5875 20.0013 24.7969 20.0013H28.7969C30.9969 20.0027 32.7969 21.804 32.7955 24.004V31.216C32.7955 32.0667 32.0982 32.6667 31.3435 32.6667C31.0822 32.6667 30.8142 32.5947 30.5662 32.436L27.9062 30.6667H24.7969V30.668ZM24.7969 28.0013H27.9089C28.4342 28.0013 28.9475 28.1573 29.3862 28.448L30.1315 28.944V24.0053C30.1315 23.5293 29.8849 23.212 29.7369 23.0653C29.5902 22.9187 29.2715 22.6707 28.7982 22.6707H24.7982C24.0622 22.6707 23.4635 23.268 23.4635 24.0027V26.668C23.4635 27.4027 24.0622 28.0013 24.7969 28.0013ZM36.7969 36.0013C38.6382 36.0013 40.1302 34.5093 40.1302 32.668C40.1302 30.8267 38.6382 29.3347 36.7969 29.3347C34.9555 29.3347 33.4635 30.8267 33.4635 32.668C33.4635 34.5093 34.9555 36.0013 36.7969 36.0013ZM32.6649 41.8213C33.3035 42.192 34.1169 41.972 34.4862 41.336C34.9622 40.5133 35.8475 40.0013 36.7969 40.0013C37.7462 40.0013 38.6315 40.5133 39.1075 41.336C39.4782 41.9787 40.3035 42.188 40.9289 41.8213C41.5675 41.4533 41.7849 40.6373 41.4155 40C40.4649 38.356 38.6942 37.3347 36.7969 37.3347C34.8995 37.3347 33.1289 38.356 32.1782 40C31.8102 40.6387 32.0275 41.4533 32.6649 41.8213Z" fill="#1B3B7C"/>
</g>
<defs>
<linearGradient id="paint0_linear_222_1821" x1="36" y1="0" x2="36" y2="72" gradientUnits="userSpaceOnUse">
<stop stop-color="#8CB9F8"/>
<stop offset="1" stop-color="#1B3B7C"/>
</linearGradient>
<clipPath id="clip0_222_1821">
<rect width="32" height="32" fill="white" transform="translate(20 20)"/>
</clipPath>
</defs>
</svg>
