<svg width="56" height="57" viewBox="0 0 56 57" fill="none" xmlns="http://www.w3.org/2000/svg">
<rect y="0.419922" width="56" height="56" rx="28" fill="url(#paint0_linear_1560_135)"/>
<g clip-path="url(#clip0_1560_135)">
<path d="M38.6639 28.4748V40.2326C38.6639 41.4631 37.8928 42.4201 36.9084 42.4201H34.5077C33.5233 42.4201 32.7522 41.4576 32.7522 40.2326V28.4748C32.7522 27.2443 33.5233 26.2873 34.5077 26.2873H36.9084C37.8873 26.2873 38.6639 27.2498 38.6639 28.4748ZM38.7022 21.5787C38.5381 21.6935 38.3248 21.699 38.1498 21.5951L36.5092 20.6107C33.8077 25.0842 29.9959 29.2951 22.635 29.2951C21.0819 29.2951 19.3702 29.1092 17.478 28.6935C17.2045 28.6334 17.0295 28.3654 17.0842 28.0865C17.1389 27.8349 17.3686 27.6654 17.6256 27.6873C18.085 27.7256 28.76 28.442 33.2444 18.5709L31.5655 17.756C31.3139 17.6357 31.2045 17.3295 31.3248 17.0779C31.3795 16.9631 31.4725 16.8756 31.5873 16.8264L37.16 14.4584C37.417 14.349 37.7178 14.4693 37.8272 14.7264C37.8436 14.7646 37.8545 14.8029 37.86 14.8412L38.9155 21.0701C38.9537 21.267 38.8662 21.4693 38.7022 21.5787ZM30.9584 32.7951V40.2326C30.9584 41.4631 30.1873 42.4201 29.203 42.4201H26.7967C25.8123 42.4201 25.0412 41.4576 25.0412 40.2326V32.7951C25.0412 31.5646 25.8123 30.6076 26.7967 30.6076H29.1975C30.1873 30.6021 30.9584 31.5646 30.9584 32.7951ZM23.4225 36.3935V40.2326C23.4225 41.4576 22.6514 42.4201 21.667 42.4201H19.2608C18.2764 42.4201 17.5053 41.4576 17.5053 40.2326V36.3935C17.5053 35.1631 18.2764 34.206 19.2608 34.206H21.6616C22.6514 34.2006 23.4225 35.1631 23.4225 36.3935Z" fill="white"/>
</g>
<defs>
<linearGradient id="paint0_linear_1560_135" x1="0.808888" y1="2.64215" x2="61.9421" y2="13.013" gradientUnits="userSpaceOnUse">
<stop stop-color="#366EE2"/>
<stop offset="1" stop-color="#1B3B7C"/>
</linearGradient>
<clipPath id="clip0_1560_135">
<rect width="28" height="28" fill="white" transform="translate(14 14.4199)"/>
</clipPath>
</defs>
</svg>
