<svg width="24" height="24" viewBox="0 0 24 24" fill="none" xmlns="http://www.w3.org/2000/svg">
<path d="M12.0106 6.8645C11.3366 6.86439 10.6693 6.99705 10.0466 7.2549C9.42399 7.51276 8.85823 7.89075 8.38169 8.36729C7.90515 8.84383 7.52716 9.40958 7.26931 10.0322C7.01146 10.6549 6.8788 11.3222 6.87891 11.9962C6.8788 12.6701 7.01146 13.3375 7.26931 13.9601C7.52716 14.5828 7.90515 15.1485 8.38169 15.6251C8.85823 16.1016 9.42399 16.4796 10.0466 16.7374C10.6693 16.9953 11.3366 17.1279 12.0106 17.1278C12.6845 17.1279 13.3519 16.9953 13.9745 16.7374C14.5972 16.4796 15.1629 16.1016 15.6395 15.6251C16.116 15.1485 16.494 14.5828 16.7518 13.9601C17.0097 13.3375 17.1424 12.6701 17.1422 11.9962C17.1424 11.3222 17.0097 10.6549 16.7518 10.0322C16.494 9.40958 16.116 8.84383 15.6395 8.36729C15.1629 7.89075 14.5972 7.51276 13.9745 7.2549C13.3519 6.99705 12.6845 6.86439 12.0106 6.8645ZM12.0106 15.327C11.352 15.3268 10.7083 15.1314 10.1608 14.7655C9.61335 14.3995 9.18667 13.8794 8.93473 13.271C8.68279 12.6625 8.61692 11.993 8.74543 11.3471C8.87395 10.7013 9.19108 10.108 9.65674 9.64234C10.1224 9.17668 10.7157 8.85954 11.3616 8.73103C12.0074 8.60251 12.6769 8.66839 13.2854 8.92032C13.8938 9.17226 14.4139 9.59895 14.7799 10.1464C15.1458 10.6939 15.3412 11.3376 15.3414 11.9962C15.3416 12.4336 15.2556 12.8669 15.0883 13.2711C14.921 13.6753 14.6757 14.0426 14.3663 14.3519C14.057 14.6613 13.6897 14.9066 13.2855 15.0739C12.8813 15.2412 12.448 15.3272 12.0106 15.327Z" fill="white"/>
<path d="M16.1235 2.06282C14.2835 1.97699 9.72602 1.98116 7.88436 2.06282C6.26602 2.13866 4.83852 2.52949 3.68769 3.68032C1.76436 5.60366 2.01019 8.19532 2.01019 11.9962C2.01019 15.8862 1.79352 18.4178 3.68769 20.312C5.61852 22.242 8.24769 21.9895 12.0035 21.9895C15.8569 21.9895 17.1869 21.992 18.5494 21.4645C20.4019 20.7453 21.8002 19.0895 21.9369 16.1153C22.0235 14.2745 22.0185 9.71782 21.9369 7.87616C21.7719 4.36532 19.8877 2.23616 16.1235 2.06282ZM19.036 19.0395C17.7752 20.3003 16.026 20.1878 11.9794 20.1878C7.81269 20.1878 6.14186 20.2495 4.92269 19.027C3.51852 17.6295 3.77269 15.3853 3.77269 11.9828C3.77269 7.37866 3.30019 4.06282 7.92102 3.82616C8.98269 3.78866 9.29519 3.77616 11.9677 3.77616L12.0052 3.80116C16.446 3.80116 19.9302 3.33616 20.1394 7.95616C20.1869 9.01032 20.1977 9.32699 20.1977 11.9953C20.1969 16.1137 20.2752 17.7945 19.036 19.0395Z" fill="white"/>
<path d="M17.3398 7.8611C18.0021 7.8611 18.539 7.32422 18.539 6.66194C18.539 5.99965 18.0021 5.46277 17.3398 5.46277C16.6775 5.46277 16.1406 5.99965 16.1406 6.66194C16.1406 7.32422 16.6775 7.8611 17.3398 7.8611Z" fill="white"/>
</svg>
