<svg width="2943" height="569" viewBox="0 0 2943 569" fill="none" xmlns="http://www.w3.org/2000/svg">
<path d="M201.406 340.114C205.062 321.51 190.691 294.85 147.715 230.164C148.525 266.213 134.421 279.424 111.568 307.616C109.225 310.507 106.582 313.159 103.903 315.741C80.5687 338.222 74.5341 369.863 117.21 400.399L201.406 340.114Z" fill="#1C3D7D"/>
<path d="M379.761 234.888C375.795 253.428 389.718 280.325 431.606 345.72C431.399 309.664 445.722 296.69 469.043 268.884C471.434 266.033 474.135 263.441 476.788 260.832C500.339 237.669 505.227 196.353 464.954 176.02L379.761 234.888Z" fill="#93BAFA"/>
<path d="M237 193.505C255.079 197.481 281.418 184.037 345.5 143.505C310.295 143.506 297.709 129.449 270.69 106.525C267.92 104.174 265.389 101.536 262.928 98.864C241.494 75.5948 210.741 69.0112 180 109.999L237 193.505Z" fill="#1C3D7D"/>
<path d="M219.448 141.008L249.418 234.494C280.418 301.994 200.498 339.497 197 338C199.296 314.559 184.918 289.994 146.918 229.494C136.57 207.255 132.465 194.123 126.42 169.995C126.42 169.995 119.418 121.494 162.617 111.997C181.311 105.934 197.848 114.934 207.37 122.244C213.422 126.889 217.119 133.742 219.448 141.008Z" fill="#3264C8"/>
<path d="M431.926 217.573L338.118 246.522C270.284 276.785 235.153 196.898 236.688 193.416C260.102 195.967 283.324 181.422 344.234 144.083C366.585 133.977 379.761 130.016 403.954 124.234C403.954 124.234 452.527 117.761 461.554 161.061C467.413 179.82 458.233 196.258 450.82 205.7C446.109 211.701 439.216 215.323 431.926 217.573Z" fill="#3264C8"/>
<path d="M145.734 351.852L240.627 326.69C309.62 299.174 361.173 378.773 359.5 382.19C317.5 368 292.765 393.937 230.406 428.802C207.667 438.002 194.343 441.432 169.938 446.239C169.938 446.239 121.144 450.757 113.862 407.13C108.76 388.151 118.592 372.095 126.378 362.958C131.326 357.151 138.359 353.808 145.734 351.852Z" fill="#8FB8FA"/>
<circle cx="52" cy="229" r="52" fill="#142856"/>
<circle cx="240" cy="517" r="52" fill="#5C95F6"/>
<circle cx="524" cy="333" r="52" fill="#95BBF7"/>
<circle cx="344" cy="52" r="52" fill="#1C3D79"/>
<path d="M387.498 231L364.998 239C297.494 294.5 336.122 351.379 345.494 364.5C372.994 403 414.496 412 403.5 462.5C535.996 436 357.995 270.5 387.498 231Z" fill="#376CDB"/>
<path d="M237.5 425C293 391 322.5 366.5 359.5 382C392.56 401.836 408.91 432.942 405.466 454.762C404.574 460.411 401.047 465.246 396.984 469.27C326.51 539.053 308.034 425 237.5 425Z" fill="#5B96F9"/>
<path fill-rule="evenodd" clip-rule="evenodd" d="M849.25 149.145C852.963 149.337 859.037 149.337 862.75 149.145C866.462 148.952 863.425 148.795 856 148.795C848.575 148.795 845.537 148.952 849.25 149.145ZM989.269 149.096C990.242 149.35 991.592 149.333 992.269 149.059C992.946 148.785 992.15 148.578 990.5 148.598C988.85 148.618 988.296 148.842 989.269 149.096ZM2850.81 150.086C2851.53 150.375 2852.4 150.339 2852.73 150.007C2853.06 149.675 2852.47 149.439 2851.42 149.482C2850.25 149.53 2850.01 149.767 2850.81 150.086ZM735.75 151.065C736.438 151.343 737.563 151.343 738.25 151.065C738.938 150.788 738.375 150.561 737 150.561C735.625 150.561 735.063 150.788 735.75 151.065ZM2135 227.414V304.403H2172.42C2193 304.403 2210.55 304.13 2211.42 303.796C2213.92 302.835 2213.43 295.191 2210.46 288.911C2208.32 284.398 2207.1 283.133 2202.76 280.973C2197.9 278.55 2196.73 278.403 2182.33 278.403H2167.06L2166.78 220.653C2166.51 164.838 2166.43 162.786 2164.48 159.403C2161.5 154.226 2155.47 151.726 2144.25 151.013L2135 150.425V227.414ZM2521.33 151.338C2511.21 151.85 2509.9 152.139 2507.44 154.403C2505.95 155.778 2503.91 158.703 2502.89 160.903C2501.15 164.669 2501.04 168.979 2501.02 234.653L2501 304.403L2509.25 304.381C2521.94 304.347 2529.48 299.769 2531.95 290.602C2532.96 286.856 2533.98 150.223 2533 150.588C2532.72 150.69 2527.47 151.028 2521.33 151.338ZM673.5 152.806C669.74 154.465 667.505 156.95 665.538 161.657C664.204 164.851 664 174.561 664 234.871V304.403L672.75 304.381C685.958 304.348 692.54 300.537 694.969 291.517C695.546 289.376 696.059 259.937 696.223 219.647L696.5 151.403L686.5 151.442C680.463 151.466 675.311 152.006 673.5 152.806ZM741.647 227.653L742.095 303.903L750.798 303.862C760.987 303.813 765.659 302.026 769.806 296.592L772.5 293.063L772.797 266.733C772.97 251.318 773.48 240.403 774.026 240.403C775.443 240.403 778.099 246.209 785.435 265.341C796.262 293.573 797.526 295.544 808.393 301.147C812.608 303.32 815.207 303.855 823.27 304.209L833.04 304.637L832.866 227.936L832.693 151.234L821.916 151.569C810.062 151.936 807.645 152.937 803.342 159.256C800.191 163.884 799.691 170.136 800.509 194.661C801.104 212.503 800.997 216.569 799.942 216.217C798.073 215.594 797.793 214.961 789.54 192.667C778.48 162.793 775.654 158.013 766.541 153.77C762.3 151.795 759.889 151.421 751.349 151.413L741.198 151.403L741.647 227.653ZM869 157.087C869 170.674 876.93 177.309 893.25 177.379L899 177.403V240.903V304.403H907.032C918.841 304.403 924.123 301.802 928.356 293.903C930.464 289.97 930.505 288.956 930.804 233.653L931.107 177.403H938.603C952.709 177.403 960 170.602 960 157.443V151.403H914.5H869V157.087ZM996 194.74C996 218.575 995.702 253 995.338 271.24L994.677 304.403H1032.26C1052.93 304.403 1070.55 304.13 1071.42 303.796C1074.88 302.467 1072.7 289.042 1068.21 284.087C1064.22 279.68 1061.15 278.96 1044 278.421L1027.5 277.903V258.403V238.903L1038 238.374C1055.17 237.509 1059.27 233.99 1061.54 218.177L1062.22 213.451L1044.86 213.177L1027.5 212.903L1027.23 195.308L1026.95 177.713L1042.86 177.122C1059.71 176.495 1063.78 175.539 1067.68 171.282C1070.57 168.133 1071.74 164.85 1072.57 157.496L1073.26 151.403H1034.63H996V194.74ZM1112.93 151.653C1112.89 151.791 1112.77 186.216 1112.68 228.153L1112.5 304.403H1151.25C1181.53 304.403 1190.02 304.13 1190.1 303.153C1190.94 292.852 1186.97 283.961 1179.96 280.38C1176.57 278.654 1174.04 278.403 1160.04 278.403H1144V220.741V163.079L1141.53 158.861C1138.18 153.139 1133.62 151.403 1121.98 151.403C1117.04 151.403 1112.97 151.515 1112.93 151.653ZM1225 227.915V304.426L1263.75 304.165L1302.5 303.903L1302.29 297.969C1301.99 289.599 1298.77 283.572 1293.01 280.653C1288.97 278.602 1287.18 278.403 1272.79 278.403H1257V221.968C1257 184.526 1256.64 164.586 1255.94 162.718C1254.63 159.269 1250.42 154.708 1246.8 152.814C1245.02 151.886 1240.83 151.403 1234.55 151.403H1225V227.915ZM1336.5 227.904V304.404L1375.19 304.403C1401.53 304.403 1414.09 304.062 1414.54 303.336C1415.64 301.552 1412.9 289.552 1410.63 286.217C1405.96 279.351 1404.61 278.936 1385.93 278.587L1369 278.271L1369.01 258.587L1369.02 238.903L1377.97 238.744C1382.89 238.656 1388.48 238.068 1390.4 237.437C1398.35 234.813 1402.94 227.965 1402.98 218.677L1403 213.45L1385.75 213.177L1368.5 212.903L1368.23 195.153L1367.95 177.403L1382.73 177.397C1390.85 177.394 1399.15 176.933 1401.17 176.373C1407.74 174.548 1412.76 166.469 1414.35 155.153L1414.87 151.403L1375.69 151.404H1336.5V227.904ZM1462.13 152.642C1460.83 153.335 1458.35 155.859 1456.63 158.251L1453.5 162.598L1453.21 225.01C1453.03 265.952 1453.29 288.75 1453.97 291.282C1455.38 296.534 1458.55 300.293 1463.42 302.507C1467.11 304.18 1470.48 304.361 1498.38 304.381C1531.44 304.405 1534.28 304.067 1539.93 299.457C1544.26 295.925 1544.83 292.249 1544.93 267.111L1545 248.32L1537.25 248.955C1527.39 249.763 1523.57 250.752 1519.48 253.559C1514.59 256.905 1513.02 260.374 1512.33 269.282L1511.72 277.259L1504.61 277.919C1500.7 278.282 1494.8 278.199 1491.5 277.735L1485.5 276.891L1485.2 233.397C1485.04 209.475 1485.18 187.091 1485.53 183.653L1486.16 177.403H1498.93H1511.71L1512.35 185.08C1513.71 201.094 1518.93 205.174 1538.3 205.343L1545.11 205.403L1544.8 184.076C1544.51 163.316 1544.43 162.655 1542.05 159.171C1537.02 151.845 1537.53 151.934 1499 151.642C1472.73 151.443 1463.93 151.681 1462.13 152.642ZM1578.06 157.653C1579.62 172.355 1585.32 177.267 1600.91 177.359L1608.31 177.403L1607.59 240.903L1606.87 304.403L1616.18 304.381C1629.11 304.351 1635.95 300.953 1638.93 293.088C1639.64 291.215 1640 271.419 1640 233.957V177.642L1649.5 177.226C1658.99 176.811 1659 176.809 1663.03 172.874C1667.37 168.637 1670 161.974 1670 155.221V151.403H1623.7H1577.4L1578.06 157.653ZM1798.48 152.236C1795 153.384 1792.28 155.808 1789.85 159.928L1787.5 163.903L1787.22 234.248L1786.95 304.592L1796.72 304.248C1812.4 303.695 1818.25 299.291 1819.47 287.118C1819.82 283.7 1819.96 251.878 1819.8 216.403L1819.5 151.903L1810 151.736C1804.78 151.644 1799.59 151.869 1798.48 152.236ZM1872.21 153.052C1870.33 153.991 1867.75 156.668 1866.21 159.299L1863.5 163.903V190.403C1863.5 204.978 1863.86 218.6 1864.3 220.674C1865.29 225.341 1870.01 230.857 1875.34 233.578C1878.57 235.226 1882.37 235.804 1894.44 236.484C1902.72 236.952 1911.53 237.6 1914 237.925C1922.7 239.069 1922 237.285 1922 258.345V277.153L1918.88 277.778C1917.16 278.122 1910.85 278.403 1904.86 278.403H1893.96L1894.73 275.653C1896.39 269.729 1895.52 261.785 1892.76 257.611C1888.95 251.864 1883.47 249.557 1873 249.301L1864.5 249.093L1864.23 270.304C1863.92 295.038 1864.34 296.755 1871.88 301.187L1876.5 303.903L1906.69 304.207C1926.39 304.405 1938.3 304.13 1940.96 303.415C1946.3 301.976 1951.71 297.125 1953.06 292.56C1953.76 290.175 1954.03 278.122 1953.82 257.903C1953.51 227.58 1953.45 226.834 1951.24 223.739C1946.67 217.327 1935.99 214.746 1905.75 212.747L1896 212.102V194.753V177.403L1909.75 177.401L1923.5 177.398L1923.17 184.876C1922.56 198.79 1928.38 204.452 1944 205.131C1948.75 205.337 1953.16 205.054 1954 204.488C1955.24 203.648 1955.5 200.271 1955.5 184.689C1955.5 166.349 1955.44 165.785 1952.88 160.919C1947.94 151.549 1949.74 151.938 1910.18 151.656C1879.69 151.439 1875.1 151.607 1872.21 153.052ZM2006.78 152.957C2005.29 153.768 2002.82 156.563 2001.28 159.167L1998.5 163.903V227.403C1998.5 278.262 1998.77 291.536 1999.84 294.081C2001.46 297.919 2007.36 302.015 2013.21 303.364C2019.13 304.73 2071.97 304.691 2077.43 303.317C2083.07 301.896 2087.58 297.675 2088.97 292.512C2089.75 289.625 2090 269.285 2089.79 225.062L2089.5 161.746L2086.62 157.968C2081.69 151.505 2080.98 151.398 2043.28 151.443C2015.47 151.476 2009.02 151.743 2006.78 152.957ZM2247.74 220.153C2247.88 257.965 2248.22 290.325 2248.52 292.062C2249.2 296.053 2255.5 301.892 2260.68 303.331C2262.97 303.968 2276.33 304.394 2294.14 304.397L2323.77 304.403L2329.06 301.639C2333.02 299.572 2334.94 297.768 2336.68 294.482L2339 290.088V220.746V151.403L2329.25 151.419C2317.67 151.439 2312.95 153.45 2309.29 159.923L2307.03 163.903L2307.01 216.903C2306.99 246.053 2306.7 271.552 2306.37 273.568C2305.77 277.205 2305.72 277.239 2299.87 277.918C2296.62 278.295 2290.83 278.287 2286.98 277.901L2280 277.2L2279.99 222.552C2279.99 188.045 2279.61 166.532 2278.96 164.184C2277.63 159.417 2273.49 154.506 2269.33 152.767C2267.37 151.948 2262.36 151.403 2256.78 151.403L2247.5 151.402L2247.74 220.153ZM2374 157.453C2374 164.375 2375.55 168.004 2380.16 171.882C2384.67 175.677 2387.4 176.611 2396 177.301L2403.5 177.903L2403.76 241.249L2404.02 304.596L2413.26 304.249C2421.77 303.93 2422.87 303.648 2427.15 300.673C2430.01 298.686 2432.6 295.796 2433.87 293.166C2435.89 289.004 2435.95 287.381 2436.03 233.271L2436.12 177.653L2444.02 177.196C2458.08 176.382 2465 169.941 2465 157.669V151.403H2419.5H2374V157.453ZM2587.5 152.806C2583.69 154.487 2581.51 156.948 2579.41 161.94C2577.88 165.561 2577.8 171.384 2578.42 229.403C2579.19 300.701 2578.5 294.942 2586.93 300.903L2591.17 303.903H2623.84C2654.5 303.903 2656.74 303.781 2660.49 301.903C2665.64 299.319 2668.71 294.608 2669.49 288.103C2669.83 285.243 2669.98 255.864 2669.81 222.817L2669.5 162.73L2666.57 158.497C2661.57 151.297 2662.18 151.398 2624.3 151.442C2598.5 151.472 2589.79 151.795 2587.5 152.806ZM2715 228.022V304.642L2724.25 304.231C2738.33 303.607 2744.22 299.835 2746.07 290.261C2746.53 287.864 2746.93 275.639 2746.96 263.094C2746.99 248.046 2747.34 240.497 2748.01 240.907C2749.71 241.96 2751.9 246.913 2759.44 266.776C2769.89 294.293 2771.27 296.516 2781 301.477C2784.79 303.408 2787.12 303.781 2795.73 303.837C2801.36 303.873 2805.97 303.565 2805.98 303.153C2805.99 302.741 2806 268.428 2806 226.903V151.403H2795.04H2784.07L2780.07 155.566C2775.04 160.804 2773.79 166.212 2774.2 181.044C2774.72 199.965 2774.05 219.1 2772.94 217.191C2771.75 215.15 2762.84 192.797 2759.27 182.903C2753.16 165.972 2746.38 155.736 2739.28 152.755C2737.27 151.908 2732.13 151.403 2725.53 151.403H2715V228.022ZM2859.32 152.995C2857.58 153.867 2854.88 156.414 2853.32 158.654L2850.5 162.727L2850.19 189.315C2849.8 222.407 2849.93 223.384 2855.39 228.844C2860.98 234.432 2867.44 236.02 2889.27 237.166C2900.12 237.736 2906.48 238.481 2907.27 239.276C2908.15 240.155 2908.5 245.582 2908.5 258.371C2908.5 268.197 2908.27 276.455 2908 276.723C2907.73 276.99 2901.57 277.533 2894.33 277.929L2881.17 278.65L2881.71 272.673C2882.38 265.308 2880.82 260.035 2876.63 255.534C2872.13 250.687 2868.34 249.403 2858.53 249.403H2850L2850 270.653C2850 295.33 2850.5 297.219 2858 301.398L2862.5 303.903H2895H2927.5L2931.8 301.441C2934.16 300.087 2937.09 297.387 2938.3 295.441C2940.47 291.958 2940.5 291.402 2940.19 259.903C2939.87 225.85 2939.93 226.287 2934.76 221.33C2933.52 220.141 2931.08 218.56 2929.36 217.816C2926.18 216.453 2908.1 213.977 2891.5 212.632L2882.5 211.903L2882.23 194.653L2881.95 177.403H2895.73H2909.51L2909.5 186.195C2909.5 192.915 2909.92 195.622 2911.26 197.682C2914.84 203.14 2922.72 205.233 2937.34 204.609L2942.18 204.403L2941.82 184.653C2941.5 166.801 2941.26 164.519 2939.33 160.903C2938.16 158.703 2935.99 155.778 2934.52 154.403L2931.84 151.903L2897.17 151.656C2867.18 151.442 2862.07 151.623 2859.32 152.995ZM2636.75 179.165C2638.52 181.462 2638.57 275.433 2636.8 277.203C2635.33 278.677 2616.32 278.854 2612.56 277.428L2610 276.453L2610.01 235.178C2610.01 212.477 2610.3 190.21 2610.65 185.697L2611.29 177.491L2617.4 177.197C2628.21 176.676 2635.39 177.407 2636.75 179.165ZM2056.42 178.01C2057.83 178.552 2058 183.831 2058 227.31C2058 263.849 2057.7 276.303 2056.8 277.203C2056 278.006 2051.54 278.403 2043.32 278.403H2031.04L2030.37 275.757C2030.01 274.302 2029.94 251.976 2030.23 226.144C2030.65 187.789 2031 179.017 2032.12 178.305C2033.68 177.322 2053.98 177.075 2056.42 178.01ZM1543.36 237.403C1543.36 242.628 1543.53 244.766 1543.73 242.153C1543.94 239.54 1543.94 235.266 1543.73 232.653C1543.53 230.04 1543.36 232.178 1543.36 237.403ZM2139.01 386.608C2139.02 397.22 2139.3 407.591 2139.64 409.653C2140.23 413.233 2140.44 413.403 2144.13 413.403C2147.99 413.403 2148 413.393 2148.16 409.153C2148.25 406.816 2148.25 404.115 2148.17 403.153C2147.98 400.913 2148.8 400.957 2152.5 403.385C2154.71 404.836 2155.63 406.344 2156 409.128C2156.49 412.86 2156.56 412.907 2161.4 413.214L2166.3 413.525L2165.66 406.714C2165.3 402.968 2165.01 393.04 2165.01 384.653L2165 369.403H2161.5H2158V376.844C2158 380.937 2157.61 384.526 2157.13 384.82C2155.55 385.801 2153.08 381.885 2151.94 376.576C2150.7 370.772 2148.85 369.039 2142.75 367.97L2139 367.312L2139.01 386.608ZM1514.33 369.079C1510.41 369.621 1509.01 372.954 1508.97 381.802C1508.95 388.179 1507.56 403.22 1506.41 409.653L1505.74 413.403H1509.87C1513.49 413.403 1514 413.122 1514.01 411.153C1514.01 409.915 1514.48 407.216 1515.05 405.153C1515.96 401.892 1516.48 401.403 1519.07 401.403C1522.45 401.403 1524 404.092 1524 409.968C1524 413.379 1524.03 413.403 1528.56 413.403C1531.08 413.403 1532.86 412.992 1532.55 412.482C1532.23 411.975 1531.32 404.084 1530.52 394.946C1529.08 378.6 1527.74 370.979 1526.13 369.982C1524.78 369.149 1517.72 368.609 1514.33 369.079ZM1609 390.87V413.403H1621C1633.52 413.403 1634.02 413.212 1632.39 408.985C1631.91 407.712 1630.1 407.403 1623.17 407.403C1614.96 407.403 1614.66 407.327 1616.86 405.79C1618.8 404.428 1619.11 403.455 1618.83 399.54L1618.5 394.903L1623.75 394.601C1626.98 394.415 1629.01 393.838 1629.01 393.101C1629.02 392.442 1629.3 390.891 1629.63 389.653C1630.2 387.518 1629.95 387.403 1624.71 387.403H1619.19L1618.51 382.449C1618.13 379.724 1618.12 377.024 1618.47 376.449C1618.83 375.874 1622.04 375.403 1625.62 375.403H1632.13L1631.81 372.153L1631.5 368.903L1620.25 368.62L1609 368.337V390.87ZM1724.25 369.184L1712 369.465V372.009C1712 374.42 1712.25 374.539 1716.75 374.261L1721.5 373.968L1721.77 393.686L1722.04 413.403H1725.02C1728.44 413.403 1728.12 415.689 1728.36 389.733C1728.44 381.389 1728.87 374.197 1729.32 373.751C1729.76 373.305 1731.51 373.734 1733.2 374.703C1736.89 376.818 1737.23 376.587 1736.82 372.253L1736.5 368.903L1724.25 369.184ZM2203.75 369.099L2196 369.487V391.445V413.403H2206.8C2213.87 413.403 2218.02 412.988 2218.8 412.203C2219.57 411.433 2220 407.492 2220 401.203V391.403H2213.08C2209.28 391.403 2205.45 391.13 2204.58 390.796C2202.33 389.931 2202.65 384.789 2205.29 379.403C2207.23 375.451 2208.03 374.792 2211.84 373.992C2215.24 373.279 2216.38 373.387 2217.08 374.492C2218.56 376.832 2218.14 377.403 2214.97 377.403C2211.52 377.403 2210.11 379.621 2212.05 381.966C2212.87 382.956 2214.61 383.397 2216.91 383.204L2220.5 382.903L2220.76 377.403C2220.9 374.378 2220.63 371.306 2220.15 370.577C2219.13 369.004 2214.32 368.571 2203.75 369.099ZM2291.79 390.87L2291.5 413.405L2295.75 413.404L2300 413.403V403.314V393.225L2306 393.564C2311.96 393.901 2312 393.885 2312 391.153C2312 388.697 2311.64 388.403 2308.62 388.403C2306.77 388.403 2303.82 388.118 2302.08 387.769L2298.91 387.135L2299.21 381.019L2299.5 374.903H2306.8H2314.09L2313.8 371.903L2313.5 368.903L2302.79 368.62L2292.07 368.336L2291.79 390.87ZM2501.6 369.136C2501.27 369.466 2501 379.588 2501 391.63V413.524L2504.75 413.213L2508.5 412.903L2508.16 404.153L2507.81 395.403H2513.41C2517.82 395.403 2519 395.734 2519 396.97C2519 398.134 2519.58 398.36 2521.25 397.848C2522.49 397.469 2524.01 396.75 2524.64 396.25C2526.33 394.906 2526.92 390.464 2525.83 387.338C2525.19 385.523 2525.24 383.215 2525.97 380.515C2526.86 377.218 2526.78 375.87 2525.54 373.483C2524.7 371.859 2523.49 370.204 2522.84 369.806C2521.39 368.908 2502.43 368.31 2501.6 369.136ZM896 391.373V413.403L906.25 413.388C911.887 413.379 917.11 412.986 917.855 412.514C918.668 411.998 919.423 409.006 919.742 405.029L920.274 398.403H916.692C913.128 398.403 913.108 398.427 912.805 403.153L912.5 407.903L907.903 408.202L903.305 408.5L902.605 391.932C902.221 382.82 902.179 374.923 902.512 374.384C903.496 372.792 908.609 373.262 910.878 375.153C912.033 376.115 913.338 378.703 913.778 380.903C914.451 384.265 915.011 384.953 917.289 385.219C920.336 385.575 920.541 384.548 919.368 374.79L918.754 369.676L907.377 369.509L896 369.342V391.373ZM951.75 369.986C951.337 370.399 951 380.067 951 391.471V412.207L956.891 412.89C960.131 413.266 965.255 413.265 968.277 412.888C973.656 412.216 973.784 412.125 974.375 408.552C975.232 403.364 975.116 372.103 974.235 370.903C973.37 369.726 952.847 368.889 951.75 369.986ZM1004.65 370.156C1004.4 370.57 1004.8 372.701 1005.56 374.892C1006.44 377.447 1006.58 379.222 1005.96 379.84C1005.42 380.379 1005 387.982 1005 397.103V413.403H1008.43C1012.68 413.403 1013.62 411.206 1011.87 405.369C1010.84 401.917 1010.87 401.098 1012.07 400.34C1012.86 399.841 1013.78 399.427 1014.13 399.418C1015.46 399.386 1020.34 406.816 1020.94 409.788C1021.51 412.585 1021.98 412.933 1025.6 413.201L1029.63 413.5L1029.56 391.952L1029.5 370.404H1025.65L1021.8 370.403L1022.06 375.653C1022.47 384.051 1022.14 386.403 1020.54 386.403C1018.79 386.403 1017.49 384.139 1014.9 376.605C1013.84 373.524 1012.41 370.649 1011.73 370.218C1010.15 369.214 1005.26 369.171 1004.65 370.156ZM1060.25 370.065C1058.83 370.639 1058.59 383.603 1059.66 402.153L1060.31 413.403H1063.51C1066.71 413.403 1066.72 413.381 1067.27 407.366C1067.87 400.723 1069.47 397.721 1071.51 399.413C1072.2 399.982 1073.01 401.719 1073.32 403.272C1073.64 404.826 1074.93 407.722 1076.19 409.708C1078.05 412.617 1079.13 413.327 1081.75 413.361L1085 413.403V391.34V369.276L1081.75 369.59L1078.5 369.903L1078.64 384.903C1078.71 393.153 1078.47 398.328 1078.1 396.403C1077.72 394.478 1076.26 390.428 1074.85 387.403C1073.44 384.378 1071.48 379.428 1070.5 376.403C1069.51 373.378 1068.21 370.572 1067.6 370.168C1066.37 369.349 1062.17 369.29 1060.25 370.065ZM1114.53 382.653C1114.89 390.194 1114.73 398.848 1114.15 402.737C1113.59 406.495 1113.37 410.208 1113.67 410.987C1114.1 412.1 1116.79 412.403 1126.21 412.403C1136.75 412.403 1138.14 412.209 1137.61 410.821C1137.27 409.951 1137 408.826 1137 408.321C1137 407.816 1133.31 407.403 1128.8 407.403C1122.42 407.403 1120.87 407.136 1121.8 406.203C1122.46 405.543 1123 402.393 1123 399.203V393.403H1128.5C1133.98 393.403 1134 393.393 1134 390.309V387.215L1129 387.902C1123.25 388.694 1122.93 388.332 1122.67 380.716L1122.5 375.903L1129.5 375.403C1136.25 374.921 1136.51 374.805 1136.82 372.153L1137.13 369.403H1125.51H1113.89L1114.53 382.653ZM1166.65 370.087C1166.29 370.444 1166 379.9 1166 391.101C1166 409.556 1166.16 411.533 1167.75 412.184C1170.4 413.275 1187.77 413.043 1188.86 411.903C1189.38 411.353 1189.97 408.203 1190.16 404.903C1190.49 399.051 1190.43 398.895 1187.84 398.595C1185.59 398.335 1185.08 398.755 1184.51 401.356C1183.58 405.593 1181.46 407.403 1177.43 407.403H1174V390.403C1174 381.053 1174.29 373.403 1174.64 373.403C1174.99 373.403 1177.25 374.387 1179.66 375.589C1183.41 377.462 1184.12 378.323 1184.65 381.589C1185.15 384.764 1185.65 385.403 1187.63 385.403C1189.92 385.403 1190 385.146 1190 377.576V369.749L1178.65 369.594C1172.41 369.508 1167.01 369.73 1166.65 370.087ZM1217 371.903C1217 374.199 1217.37 374.403 1221.5 374.403H1226L1226.21 390.653C1226.33 399.591 1226.44 408.386 1226.46 410.199C1226.5 413.349 1226.66 413.482 1230 413.199L1233.5 412.903L1233.77 393.653L1234.04 374.403H1236.46C1237.78 374.403 1240.02 374.842 1241.43 375.378C1243.88 376.309 1244 376.196 1244 372.878V369.403H1230.5H1217V371.903ZM1270 391.463V413.524L1273.75 413.213L1277.5 412.903L1277.77 391.153L1278.04 369.403H1274.02H1270V391.463ZM1307 391.403V413.403H1311H1315V406.833C1315 400.593 1315.11 400.28 1317.25 400.583C1318.77 400.799 1319.61 401.709 1319.85 403.376C1320.04 404.736 1321.28 407.133 1322.6 408.703C1323.92 410.272 1325 411.972 1325 412.48C1325 412.988 1326.8 413.403 1329 413.403H1333V391.346V369.288L1328.75 369.596L1324.5 369.903L1324.83 376.153C1325.17 382.737 1324.9 383.074 1320.57 381.428C1318.24 380.543 1318 379.938 1318 374.928V369.403H1312.5H1307V391.403ZM1365.25 370.081C1364.3 370.451 1364 375.797 1364 392.072V413.575L1375.42 413.239C1381.7 413.054 1387.05 412.678 1387.31 412.403C1387.57 412.128 1388.1 407.29 1388.5 401.653L1389.22 391.403H1384.75C1382.29 391.403 1378.19 391.117 1375.64 390.767L1371 390.131V382.786C1371 375.785 1371.12 375.412 1373.5 374.814C1374.88 374.469 1377.12 374.469 1378.5 374.814C1380.7 375.366 1381 375.976 1381 379.922V384.403H1385.04H1389.09L1388.79 377.197L1388.5 369.991L1377.5 369.792C1371.45 369.683 1365.94 369.813 1365.25 370.081ZM1456.39 370.985C1456.73 371.855 1457 372.98 1457 373.485C1457 373.99 1459.03 374.403 1461.5 374.403H1466V393.903V413.403H1470H1474V393.858V374.312L1477.5 374.969C1480.26 375.487 1481 375.302 1481 374.096C1481 373.255 1481.27 371.855 1481.61 370.985C1482.14 369.592 1480.64 369.403 1469 369.403C1457.36 369.403 1455.86 369.592 1456.39 370.985ZM1560 377.153C1560.01 381.415 1560.3 391.316 1560.66 399.153C1561.3 413.249 1561.34 413.403 1563.66 413.403C1565.8 413.403 1566.01 412.956 1566.13 408.153L1566.26 402.903L1567.27 408.153L1568.28 413.403H1575.97H1583.65L1583.21 410.403C1582.78 407.459 1582.66 407.403 1576.89 407.403C1573.65 407.403 1570.97 407.066 1570.93 406.653C1570.9 406.24 1570.66 398.253 1570.41 388.903C1570.16 379.553 1569.75 371.341 1569.51 370.653C1569.24 369.903 1567.25 369.403 1564.53 369.403H1560L1560 377.153ZM1660.98 369.75C1660.72 370.016 1660.63 379.946 1660.79 391.818L1661.08 413.403H1664.54C1667.65 413.403 1668 413.122 1668.01 410.653C1668.01 409.141 1668.48 406.216 1669.05 404.153C1670.7 398.23 1673.09 399.196 1675.85 406.903C1678.18 413.397 1678.18 413.403 1682.09 413.403H1686V391.403V369.403H1682.39H1678.78L1679.42 380.653C1680.49 399.427 1681.07 406.807 1681.66 408.903C1682.05 410.288 1681.9 410.596 1681.16 409.903C1679.33 408.17 1676.99 397.287 1677.62 393.365C1678.08 390.477 1677.55 388.218 1675.22 383.273C1673.57 379.77 1671.93 375.931 1671.57 374.743C1671.21 373.555 1670.38 372.133 1669.71 371.583C1668.31 370.424 1661.7 369.037 1660.98 369.75ZM1841 391.403V413.403H1853H1865V405.403V397.403H1862C1859.08 397.403 1859 397.527 1859 402.286C1859 406.815 1858.8 407.208 1856.26 407.694C1850.32 408.829 1850 407.942 1850 390.31V374.288L1854.25 374.596L1858.5 374.903L1859.39 380.153C1860.17 384.751 1860.57 385.403 1862.64 385.403C1864.92 385.403 1865 385.142 1865 377.403V369.403H1853H1841V391.403ZM1896 375.653C1896.01 379.091 1896.3 388.99 1896.66 397.653L1897.31 413.403H1900.66H1904V408.058C1904 404.15 1904.49 402.268 1905.83 401.058C1908.54 398.603 1909.68 399.025 1910.28 402.709C1910.57 404.528 1911.51 407.678 1912.35 409.709C1913.77 413.106 1914.22 413.403 1917.95 413.403C1921.29 413.403 1922 413.062 1922 411.47C1922 410.407 1921.1 409.252 1920 408.904C1917.9 408.238 1916.91 405.654 1916.65 400.234C1916.53 397.605 1917.03 396.726 1919.25 395.639C1922.6 394 1922.78 391.444 1920.02 384.44L1918.03 379.403H1921.02C1924.35 379.403 1924.47 379.187 1922.88 376.087C1919.7 369.923 1918.45 369.403 1906.83 369.403H1896L1896 375.653ZM1950.44 389.153C1950.41 400.015 1950.02 409.915 1949.57 411.153L1948.77 413.403H1960.95H1973.13L1972.82 410.653C1972.51 407.967 1972.33 407.896 1965.25 407.609L1958 407.315V400.409V393.503L1963.75 393.203C1969.19 392.919 1969.52 392.756 1969.82 390.153C1970.13 387.42 1970.09 387.403 1964.07 387.403H1958V381.548V375.692L1964.64 375.072C1968.3 374.731 1971.39 374.328 1971.52 374.177C1971.65 374.026 1972.06 372.891 1972.44 371.653C1973.13 369.411 1973.09 369.403 1961.82 369.403H1950.5L1950.44 389.153ZM2049 371.975C2049 374.44 2049.21 374.533 2054.06 374.225L2059.13 373.903L2059.03 393.653L2058.93 413.403H2062.46H2066V393.903V374.403H2070.5C2074.63 374.403 2075 374.199 2075 371.903V369.403H2062H2049V371.975ZM2102 391.463V413.524L2105.75 413.213L2109.5 412.903L2109.77 391.153L2110.04 369.403H2106.02H2102V391.463ZM2342.18 390.441C2342.44 407.764 2342.77 411.659 2344 412.502C2345.33 413.411 2364.56 413.176 2365.5 412.239C2366.01 411.724 2366.43 371.503 2365.93 370.999C2365.69 370.761 2364.27 370.258 2362.77 369.882L2360.05 369.197L2359.77 388.05L2359.5 406.903L2354.75 407.208L2350 407.513V388.458V369.403H2345.93H2341.85L2342.18 390.441ZM2394 372.216C2394 374.911 2394.2 375.026 2398.72 374.966L2403.44 374.903L2403.12 394.153L2402.81 413.403H2406.9H2411V394.403V375.403H2415.5C2419.83 375.403 2420 375.292 2420 372.403V369.403H2407H2394V372.216ZM2447.84 370.09C2447.75 370.537 2447.63 380.195 2447.59 391.551L2447.5 412.199L2459 412.617C2465.32 412.846 2470.57 413.005 2470.67 412.968C2471.22 412.749 2471.23 370.407 2470.68 370.405C2470.31 370.404 2468.88 370.403 2467.5 370.403H2465V388.955V407.508L2459.75 407.205L2454.5 406.903L2454.36 388.403L2454.22 369.903L2451.11 369.59C2449.4 369.417 2447.93 369.642 2447.84 370.09ZM2556.82 388.903C2556.72 399.628 2556.61 409.415 2556.57 410.653C2556.52 412.358 2556.98 412.827 2558.5 412.59C2560.87 412.219 2572.34 412.362 2576.25 412.811C2578.68 413.092 2579 412.798 2579 410.265C2579 407.458 2578.89 407.403 2573.43 407.403C2565.07 407.403 2564 406.492 2564 399.368V393.403H2569.94C2576.28 393.403 2577.52 392.621 2576.47 389.295C2575.88 387.464 2575.28 387.284 2571.57 387.839C2564.89 388.842 2564 388.084 2564 381.403C2564 374.668 2564.34 374.403 2573.08 374.403C2578.73 374.403 2579 374.288 2579 371.903V369.403H2568H2557L2556.82 388.903ZM2607.43 370.724C2607.15 371.451 2607.05 376.513 2607.21 381.974L2607.5 391.903L2613.96 392.616C2622.14 393.517 2625.39 395.767 2625.81 400.822C2626.23 405.756 2624.67 407.403 2619.58 407.403C2614.69 407.403 2613 406.068 2613 402.203C2613 399.771 2612.61 399.403 2610.06 399.403C2606.32 399.403 2605.8 400.315 2606.62 405.409C2607.63 411.775 2608.8 412.403 2619.54 412.403C2628.24 412.403 2629.02 412.237 2630.19 410.153C2630.88 408.915 2631.46 404.878 2631.47 401.181C2631.51 392.838 2629.98 391.008 2620.36 387.892C2612.37 385.304 2611.26 383.994 2612.56 378.731C2613.42 375.24 2613.83 374.876 2617.21 374.595C2622.17 374.183 2624.69 375.712 2625.54 379.645C2626.26 382.96 2627.51 384.36 2629.75 384.388C2630.61 384.398 2631 382.547 2631 378.416C2631 372.481 2630.97 372.417 2627.38 370.916C2622.69 368.957 2608.16 368.817 2607.43 370.724ZM2003.6 374.653C2003.32 376.99 2002.83 383.074 2002.51 388.171C2001.99 396.456 2000.92 404.476 1999.44 411.212C1998.96 413.376 1999.2 413.502 2003.19 413.212L2007.45 412.903L2008.48 406.903C2009.28 402.187 2009.87 400.921 2011.25 400.986C2017.44 401.281 2017.07 400.846 2018.49 409.653C2019.02 412.945 2019.43 413.403 2021.88 413.403C2023.41 413.403 2024.89 413.184 2025.15 412.916C2025.42 412.648 2024.84 405.786 2023.86 397.666C2022.89 389.546 2022.07 380.091 2022.04 376.653L2022 370.403H2013.06H2004.12L2003.6 374.653ZM1519.84 379.524C1520.48 382.292 1521 386.988 1521 389.96C1521 394.918 1520.79 395.418 1518.45 396.004C1517.05 396.356 1515.78 396.477 1515.63 396.273C1515.48 396.07 1515.55 390.873 1515.79 384.726C1516.11 376.425 1516.53 373.67 1517.45 374.021C1518.12 374.281 1519.2 376.757 1519.84 379.524ZM2518.94 375.063C2519.18 375.272 2519.4 378.697 2519.44 382.673L2519.5 389.903L2515.1 390.218C2512.26 390.421 2510.4 390.068 2509.86 389.218C2508.88 387.666 2508.71 375.032 2509.65 374.082C2510.28 373.456 2518.03 374.274 2518.94 375.063ZM1670.67 386.653C1671.38 388.855 1670.2 388.894 1667.83 386.748C1666.45 385.502 1666.02 383.711 1666.07 379.498L1666.14 373.903L1668.12 379.403C1669.21 382.428 1670.36 385.691 1670.67 386.653ZM1913.72 381.742C1914.78 386.987 1914.82 388.91 1913.93 389.992C1912.14 392.149 1908.23 391.7 1906.64 389.153C1904.78 386.189 1902.64 376.797 1903.5 375.397C1903.88 374.792 1906.02 374.433 1908.26 374.6L1912.34 374.903L1913.72 381.742ZM968.072 376.653C968.275 380.192 967.817 406.919 967.549 407.187C966.872 407.864 959.044 407.78 958.352 407.088C957.947 406.684 957.543 399.389 957.453 390.878L957.29 375.403H962.645C966.224 375.403 968.024 375.818 968.072 376.653ZM2014.42 378.653C2016.07 386.725 2017.16 394.575 2016.69 395.043C2016.39 395.346 2014.82 395.303 2013.21 394.949L2010.28 394.304L2010.39 385.356C2010.48 377.581 2010.73 376.407 2012.23 376.405C2013.22 376.404 2014.16 377.362 2014.42 378.653ZM1010.47 381.353C1012.12 384.528 1012.56 395.973 1011.13 398.23C1010.62 399.035 1010.07 396.083 1009.75 390.73C1009.45 385.875 1008.89 381.115 1008.5 380.153C1007.32 377.263 1008.83 378.181 1010.47 381.353ZM1068.25 384.653C1072.22 394.71 1072.38 396.097 1069.61 396.626C1067.4 397.048 1067.21 396.709 1066.67 391.491C1066.36 388.417 1065.79 384.216 1065.42 382.153C1064.42 376.653 1065.46 377.565 1068.25 384.653ZM1015.57 389.403C1016.36 389.403 1017 389.811 1017 390.309C1017 390.808 1016.1 390.98 1015 390.693C1013.73 390.361 1013.04 389.389 1013.12 388.036C1013.21 386.346 1013.33 386.267 1013.69 387.653C1013.94 388.615 1014.79 389.403 1015.57 389.403ZM1322.87 391.629C1323.08 397.758 1321.52 397.046 1320.72 390.653C1320.35 387.642 1320.55 386.403 1321.44 386.403C1322.25 386.403 1322.75 388.222 1322.87 391.629ZM2156.99 390.153C2156.99 391.665 2156.68 395.378 2156.31 398.403C2155.75 402.871 2155.49 403.434 2154.91 401.403C2154.52 400.028 2154.16 396.316 2154.1 393.153C2154.02 388.664 2154.33 387.403 2155.5 387.403C2156.47 387.403 2157 388.371 2156.99 390.153ZM1022.2 396.153C1022.62 404.001 1022.43 404.739 1021.02 400.792C1020.45 399.203 1019.31 396.706 1018.49 395.243C1016.74 392.13 1017.45 389.403 1020.02 389.403C1021.55 389.403 1021.89 390.444 1022.2 396.153ZM1906 395.023C1906 395.743 1905.1 396.814 1904 397.403C1902.15 398.394 1902 398.163 1902 394.283C1902 390.156 1902.03 390.12 1904 391.903C1905.1 392.898 1906 394.302 1906 395.023ZM1376.86 395.173C1380.57 398.371 1381.25 399.536 1381.36 402.92L1381.5 406.903H1376.5H1371.5L1371.21 399.153C1371.05 394.891 1371.27 391.404 1371.71 391.406C1372.14 391.407 1374.46 393.102 1376.86 395.173ZM1671.29 394.84C1671.17 396.454 1670.16 398.691 1669.04 399.811L1667 401.847V396.556C1667 391.64 1667.16 391.287 1669.25 391.584C1671.06 391.842 1671.46 392.479 1671.29 394.84ZM2209.87 396.508C2213.4 397.739 2215 400.011 2215 403.802C2215 407.028 2211.84 408.783 2207.49 407.967C2203.71 407.258 2203 405.973 2203 399.821C2203 394.907 2203.96 394.446 2209.87 396.508ZM2510 397.404C2510 397.855 2511.7 400.401 2513.77 403.063C2515.84 405.725 2518.33 409.141 2519.29 410.653C2521.52 414.147 2526 414.54 2526 411.241C2526 409.59 2522.4 402.021 2520.46 399.59C2519.78 398.739 2510 396.695 2510 397.404ZM1118.5 406.403C1118.84 406.953 1118.42 407.403 1117.56 407.403C1116.7 407.403 1116 406.953 1116 406.403C1116 405.853 1116.42 405.403 1116.94 405.403C1117.46 405.403 1118.16 405.853 1118.5 406.403ZM1763.64 410.475C1762.39 416.699 1762.84 420.403 1764.84 420.403C1767.88 420.403 1770.32 416.787 1770.41 412.143C1770.5 408.107 1770.35 407.888 1767.39 407.6C1764.6 407.328 1764.2 407.628 1763.64 410.475Z" fill="#054FC1"/>
</svg>
