<svg width="343" height="67" viewBox="0 0 343 67" fill="none" xmlns="http://www.w3.org/2000/svg">
<path d="M23.4623 39.6283C23.8882 37.4606 22.2138 34.3543 17.2064 26.8174C17.3008 31.0176 15.6574 32.5569 12.9947 35.8418C12.7218 36.1785 12.4138 36.4876 12.1016 36.7884C9.38278 39.4079 8.67966 43.0946 13.6521 46.6524L23.4623 39.6283Z" fill="#1C3D7D"/>
<path d="M44.2454 27.3676C43.7833 29.5278 45.4056 32.6617 50.2862 40.2814C50.2621 36.0802 51.9309 34.5686 54.6482 31.3287C54.9268 30.9965 55.2415 30.6945 55.5506 30.3905C58.2947 27.6916 58.8642 22.8776 54.1718 20.5085L44.2454 27.3676Z" fill="#93BAFA"/>
<path d="M27.6141 22.5456C29.7206 23.0089 32.7895 21.4425 40.2561 16.7198C36.1541 16.7199 34.6876 15.0821 31.5395 12.411C31.2168 12.1372 30.9218 11.8297 30.6351 11.5184C28.1377 8.80718 24.5545 8.04008 20.9727 12.8158L27.6141 22.5456Z" fill="#1C3D7D"/>
<path d="M25.5679 16.4293L29.0599 27.322C32.6719 35.1868 23.36 39.5565 22.9523 39.3821C23.2199 36.6509 21.5446 33.7886 17.117 26.7394C15.9112 24.1482 15.433 22.6181 14.7286 19.8067C14.7286 19.8067 13.9128 14.1557 18.9462 13.0491C21.1243 12.3426 23.0511 13.3913 24.1606 14.243C24.8658 14.7843 25.2966 15.5828 25.5679 16.4293Z" fill="#3264C8"/>
<path d="M50.3273 25.3507L39.3972 28.7238C31.4935 32.2499 27.4001 22.9417 27.5789 22.536C30.3071 22.8333 33.0128 21.1385 40.1099 16.7879C42.7141 15.6105 44.2493 15.1489 47.0681 14.4752C47.0681 14.4752 52.7278 13.721 53.7795 18.7661C54.4621 20.9519 53.3926 22.8671 52.5288 23.9673C51.9799 24.6665 51.1767 25.0886 50.3273 25.3507Z" fill="#3264C8"/>
<path d="M16.98 40.9967L28.0366 38.0649C36.0754 34.8588 42.0822 44.1334 41.8872 44.5316C36.9935 42.8782 34.1115 45.9003 26.8456 49.9626C24.1962 51.0346 22.6438 51.4342 19.8001 51.9942C19.8001 51.9942 14.1148 52.5208 13.2664 47.4375C12.672 45.2261 13.8175 43.3553 14.7247 42.2907C15.3013 41.6141 16.1207 41.2246 16.98 40.9967Z" fill="#8FB8FA"/>
<circle cx="6.05884" cy="26.6819" r="6.05884" fill="#142856"/>
<circle cx="27.969" cy="60.238" r="6.05884" fill="#5C95F6"/>
<circle cx="61.0549" cy="38.7996" r="6.05884" fill="#95BBF7"/>
<circle cx="40.0823" cy="6.05884" r="6.05884" fill="#1C3D79"/>
<path d="M45.1499 26.915L42.5283 27.8472C34.663 34.3138 39.1638 40.9411 40.2558 42.47C43.46 46.9558 48.2956 48.0045 47.0144 53.8885C62.4524 50.8009 41.7123 31.5174 45.1499 26.915Z" fill="#376CDB"/>
<path d="M27.6719 49.5189C34.1385 45.5573 37.5758 42.7027 41.8869 44.5087C45.7389 46.82 47.6439 50.4443 47.2426 52.9867C47.1387 53.6449 46.7278 54.2082 46.2543 54.6771C38.043 62.808 35.8902 49.5189 27.6719 49.5189Z" fill="#5B96F9"/>
<path fill-rule="evenodd" clip-rule="evenodd" d="M332.166 15.5968C332.25 15.6305 332.351 15.6263 332.39 15.5876C332.428 15.549 332.36 15.5215 332.237 15.5265C332.101 15.5321 332.073 15.5597 332.166 15.5968ZM248.763 24.6068V33.5773H253.122C255.52 33.5773 257.565 33.5455 257.666 33.5066C257.958 33.3946 257.901 32.5039 257.555 31.7722C257.306 31.2464 257.163 31.099 256.658 30.8473C256.092 30.565 255.955 30.5479 254.278 30.5479H252.498L252.466 23.819C252.434 17.3157 252.425 17.0766 252.198 16.6824C251.85 16.0792 251.148 15.7879 249.84 15.7049L248.763 15.6363V24.6068ZM293.776 15.7427C292.597 15.8024 292.444 15.8361 292.158 16.0998C291.985 16.2601 291.746 16.6009 291.628 16.8572C291.425 17.296 291.413 17.7982 291.41 25.4503L291.407 33.5773L292.369 33.5747C293.847 33.5708 294.726 33.0373 295.013 31.9692C295.131 31.5328 295.251 15.6128 295.136 15.6553C295.104 15.6672 294.492 15.7066 293.776 15.7427ZM78.4741 15.9138C78.036 16.1071 77.7756 16.3966 77.5464 16.9451C77.391 17.3172 77.3672 18.4486 77.3672 25.4757V33.5773L78.3867 33.5747C79.9257 33.5709 80.6926 33.1268 80.9756 32.0758C81.0428 31.8264 81.1026 28.3963 81.1217 23.7018L81.154 15.7503L79.9888 15.7548C79.2854 15.7576 78.6851 15.8206 78.4741 15.9138ZM86.4143 24.6347L86.4665 33.519L87.4806 33.5142C88.6677 33.5085 89.2121 33.3003 89.6953 32.6672L90.0092 32.256L90.0438 29.1881C90.064 27.392 90.1234 26.1202 90.187 26.1202C90.3521 26.1202 90.6616 26.7967 91.5163 29.0259C92.7779 32.3154 92.9251 32.5451 94.1913 33.1979C94.6824 33.4511 94.9853 33.5134 95.9247 33.5547L97.0631 33.6045L97.0428 24.6676L97.0227 15.7306L95.767 15.7696C94.3858 15.8124 94.1042 15.929 93.6028 16.6653C93.2356 17.2045 93.1774 17.933 93.2727 20.7906C93.342 22.8694 93.3296 23.3432 93.2066 23.3022C92.9889 23.2296 92.9562 23.1558 91.9946 20.5582C90.706 17.0774 90.3767 16.5205 89.3149 16.0261C88.8207 15.796 88.5398 15.7524 87.5448 15.7515L86.362 15.7503L86.4143 24.6347ZM101.253 16.4126C101.253 17.9957 102.177 18.7688 104.079 18.7769L104.749 18.7797V26.1785V33.5773H105.684C107.06 33.5773 107.676 33.2742 108.169 32.3539C108.415 31.8956 108.419 31.7775 108.454 25.3338L108.489 18.7797H109.363C111.006 18.7797 111.856 17.9873 111.856 16.4541V15.7503H106.555H101.253V16.4126ZM116.051 20.7998C116.051 23.5769 116.016 27.588 115.973 29.7133L115.896 33.5773H120.275C122.683 33.5773 124.737 33.5455 124.838 33.5066C125.241 33.3517 124.987 31.7875 124.465 31.2101C124 30.6966 123.641 30.6128 121.643 30.55L119.721 30.4896V28.2175V25.9455L120.944 25.8838C122.945 25.783 123.423 25.373 123.687 23.5306L123.766 22.9799L121.744 22.948L119.721 22.916L119.689 20.8659L119.657 18.8158L121.51 18.747C123.474 18.6739 123.948 18.5625 124.403 18.0665C124.74 17.6996 124.875 17.3171 124.972 16.4602L125.052 15.7503H120.551H116.051V20.7998ZM129.674 15.7794C129.67 15.7955 129.657 19.8066 129.645 24.6929L129.625 33.5773H134.14C137.668 33.5773 138.657 33.5455 138.666 33.4316C138.764 32.2314 138.302 31.1955 137.484 30.7782C137.09 30.5771 136.796 30.5479 135.164 30.5479H133.295V23.8293V17.1107L133.007 16.6193C132.616 15.9526 132.086 15.7503 130.729 15.7503C130.154 15.7503 129.679 15.7633 129.674 15.7794ZM142.733 24.6652V33.58L147.248 33.5495L151.763 33.519L151.738 32.8276C151.704 31.8524 151.328 31.1501 150.657 30.81C150.186 30.571 149.978 30.5479 148.301 30.5479H146.461V23.9723C146.461 19.6097 146.42 17.2863 146.337 17.0687C146.186 16.6668 145.695 16.1354 145.273 15.9147C145.066 15.8066 144.577 15.7503 143.846 15.7503H142.733V24.6652ZM155.724 24.6639V33.5774L160.232 33.5773C163.301 33.5773 164.765 33.5375 164.818 33.453C164.946 33.2451 164.627 31.8469 164.362 31.4583C163.817 30.6583 163.66 30.61 161.484 30.5693L159.511 30.5325L159.512 28.239L159.513 25.9455L160.556 25.9269C161.13 25.9167 161.781 25.8482 162.004 25.7747C162.93 25.4689 163.466 24.671 163.47 23.5888L163.473 22.9798L161.463 22.948L159.453 22.916L159.421 20.8479L159.389 18.7797L161.111 18.779C162.057 18.7787 163.024 18.725 163.259 18.6597C164.025 18.4471 164.609 17.5057 164.795 16.1872L164.856 15.7503L160.29 15.7504H155.724V24.6639ZM170.362 15.8947C170.21 15.9754 169.922 16.2695 169.721 16.5482L169.357 17.0547L169.323 24.3267C169.302 29.0971 169.332 31.7534 169.411 32.0485C169.576 32.6604 169.945 33.0984 170.513 33.3564C170.942 33.5513 171.336 33.5724 174.586 33.5747C178.438 33.5775 178.77 33.5381 179.428 33.001C179.932 32.5895 179.998 32.1611 180.009 29.2322L180.018 27.0427L179.115 27.1167C177.966 27.2108 177.522 27.3261 177.044 27.6531C176.475 28.043 176.291 28.4472 176.211 29.4851L176.14 30.4146L175.312 30.4915C174.856 30.5338 174.169 30.5241 173.784 30.47L173.085 30.3717L173.05 25.3039C173.031 22.5166 173.048 19.9085 173.089 19.5079L173.162 18.7797H174.65H176.139L176.214 19.6742C176.372 21.5401 176.981 22.0155 179.238 22.0352L180.031 22.0422L179.995 19.5572C179.961 17.1384 179.952 17.0613 179.674 16.6554C179.088 15.8018 179.147 15.8122 174.658 15.7781C171.598 15.755 170.572 15.7827 170.362 15.8947ZM183.87 16.4785C184.052 18.1915 184.715 18.7639 186.532 18.7746L187.395 18.7797L187.311 26.1785L187.227 33.5773L188.312 33.5747C189.818 33.5712 190.615 33.1753 190.963 32.2589C191.045 32.0407 191.087 29.7341 191.087 25.3692V18.8076L192.194 18.7591C193.3 18.7107 193.301 18.7105 193.77 18.252C194.276 17.7583 194.583 16.982 194.583 16.1952V15.7503H189.188H183.793L183.87 16.4785ZM209.553 15.8474C209.148 15.9811 208.831 16.2635 208.547 16.7436L208.273 17.2067L208.241 25.4031L208.209 33.5993L209.348 33.5592C211.175 33.4948 211.856 32.9816 211.999 31.5633C212.039 31.165 212.056 27.4573 212.036 23.3239L212.002 15.8086L210.895 15.7891C210.286 15.7784 209.682 15.8046 209.553 15.8474ZM218.143 15.9424C217.924 16.0518 217.624 16.3638 217.444 16.6703L217.128 17.2067V20.2944C217.128 21.9927 217.17 23.5798 217.221 23.8215C217.337 24.3653 217.887 25.008 218.508 25.325C218.885 25.517 219.327 25.5844 220.733 25.6636C221.698 25.7181 222.724 25.7936 223.012 25.8315C224.026 25.9648 223.945 25.7569 223.945 28.2108V30.4022L223.58 30.475C223.38 30.5151 222.645 30.5479 221.947 30.5479H220.678L220.767 30.2274C220.96 29.5372 220.859 28.6116 220.537 28.1252C220.094 27.4556 219.455 27.1868 218.235 27.157L217.245 27.1328L217.213 29.6042C217.177 32.4861 217.226 32.6862 218.105 33.2026L218.643 33.519L222.161 33.5544C224.456 33.5775 225.844 33.5455 226.153 33.4622C226.776 33.2945 227.406 32.7293 227.563 32.1974C227.645 31.9195 227.676 30.5151 227.652 28.1593C227.616 24.6262 227.609 24.5392 227.352 24.1786C226.819 23.4315 225.574 23.1308 222.051 22.8979L220.915 22.8227V20.8013V18.7797L222.517 18.7795L224.119 18.7791L224.081 19.6504C224.01 21.2716 224.688 21.9314 226.508 22.0105C227.061 22.0345 227.575 22.0015 227.673 21.9356C227.818 21.8377 227.848 21.4442 227.848 19.6287C227.848 17.4917 227.841 17.426 227.542 16.8591C226.968 15.7673 227.177 15.8126 222.567 15.7798C219.015 15.7545 218.48 15.7741 218.143 15.9424ZM233.823 15.9314C233.649 16.0259 233.361 16.3515 233.182 16.6549L232.858 17.2067V24.6055C232.858 30.5314 232.889 32.0781 233.014 32.3746C233.203 32.8218 233.89 33.299 234.572 33.4562C235.262 33.6154 241.419 33.6108 242.055 33.4507C242.712 33.2852 243.237 32.7934 243.399 32.1918C243.49 31.8554 243.519 29.4855 243.495 24.3328L243.461 16.9554L243.125 16.5152C242.551 15.7622 242.469 15.7497 238.076 15.755C234.835 15.7588 234.084 15.7899 233.823 15.9314ZM261.899 23.7608C261.914 28.1665 261.955 31.937 261.989 32.1394C262.068 32.6044 262.803 33.2847 263.406 33.4524C263.674 33.5266 265.23 33.5762 267.304 33.5766L270.758 33.5773L271.374 33.2552C271.835 33.0144 272.059 32.8042 272.261 32.4213L272.532 31.9093V23.8299V15.7503L271.396 15.7522C270.047 15.7545 269.497 15.9888 269.07 16.743L268.807 17.2067L268.804 23.3821C268.802 26.7786 268.769 29.7496 268.73 29.9845C268.66 30.4083 268.654 30.4122 267.972 30.4913C267.594 30.5353 266.919 30.5343 266.471 30.4894L265.657 30.4077L265.657 24.0403C265.656 20.0197 265.612 17.5131 265.536 17.2395C265.382 16.6841 264.899 16.1118 264.414 15.9092C264.185 15.8138 263.602 15.7503 262.952 15.7503L261.871 15.7502L261.899 23.7608ZM276.61 16.4552C276.61 17.2617 276.79 17.6846 277.327 18.1364C277.853 18.5786 278.171 18.6874 279.173 18.7678L280.047 18.838L280.077 26.2188L280.107 33.5998L281.184 33.5593C282.176 33.5222 282.304 33.4893 282.803 33.1427C283.136 32.9112 283.438 32.5744 283.586 32.268C283.821 31.783 283.828 31.5939 283.838 25.2892L283.848 18.8088L284.769 18.7556C286.407 18.6608 287.213 17.9103 287.213 16.4804V15.7503H281.911H276.61V16.4552ZM301.486 15.9138C301.042 16.1096 300.788 16.3964 300.543 16.978C300.365 17.3999 300.355 18.0784 300.428 24.8386C300.518 33.1459 300.438 32.4749 301.42 33.1695L301.914 33.519H305.72C309.293 33.519 309.554 33.5048 309.99 33.286C310.591 32.9849 310.949 32.436 311.039 31.6781C311.079 31.3448 311.096 27.9217 311.076 24.0712L311.04 17.0701L310.699 16.5769C310.117 15.7379 310.188 15.7497 305.774 15.7548C302.767 15.7583 301.753 15.796 301.486 15.9138ZM316.342 24.6777V33.6051L317.42 33.5572C319.06 33.4845 319.747 33.045 319.962 31.9295C320.016 31.6502 320.063 30.2258 320.065 28.7641C320.069 27.0108 320.11 26.1312 320.188 26.179C320.386 26.3017 320.641 26.8788 321.52 29.1931C322.737 32.3993 322.898 32.6583 324.032 33.2364C324.473 33.4613 324.745 33.5048 325.749 33.5113C326.404 33.5155 326.942 33.4796 326.943 33.4316C326.944 33.3836 326.945 29.3856 326.945 24.5473V15.7503H325.668H324.39L323.924 16.2354C323.338 16.8457 323.192 17.4758 323.24 19.204C323.3 21.4086 323.223 23.6381 323.093 23.4157C322.954 23.1779 321.916 20.5734 321.5 19.4206C320.788 17.4478 319.998 16.2552 319.171 15.9078C318.936 15.8091 318.338 15.7503 317.569 15.7503H316.342V24.6777ZM333.158 15.9358C332.955 16.0374 332.64 16.3342 332.459 16.5952L332.13 17.0697L332.094 20.1677C332.048 24.0234 332.063 24.1372 332.699 24.7734C333.351 25.4245 334.104 25.6095 336.647 25.7431C337.911 25.8095 338.652 25.8963 338.745 25.9889C338.847 26.0913 338.888 26.7237 338.888 28.2138C338.888 29.3587 338.862 30.3209 338.83 30.3521C338.798 30.3832 338.081 30.4465 337.237 30.4926L335.703 30.5766L335.766 29.8802C335.844 29.0221 335.662 28.4077 335.175 27.8832C334.65 27.3185 334.208 27.1689 333.066 27.1689H332.072L332.072 29.6449C332.072 32.5201 332.129 32.7402 333.004 33.2271L333.528 33.519H337.315H341.102L341.603 33.2322C341.878 33.0744 342.219 32.7598 342.36 32.5331C342.612 32.1272 342.616 32.0625 342.581 28.3923C342.543 24.4246 342.55 24.4755 341.947 23.8979C341.803 23.7594 341.519 23.5752 341.318 23.4885C340.948 23.3297 338.842 23.0412 336.907 22.8845L335.858 22.7995L335.827 20.7896L335.795 18.7797H337.4H339.005L339.005 19.8041C339.004 20.5871 339.053 20.9025 339.21 21.1426C339.626 21.7785 340.544 22.0224 342.248 21.9497L342.812 21.9257L342.771 19.6245C342.733 17.5444 342.705 17.2785 342.48 16.8572C342.343 16.6009 342.091 16.2601 341.919 16.0998L341.607 15.8086L337.568 15.7798C334.074 15.7548 333.478 15.7759 333.158 15.9358ZM307.225 18.985C307.431 19.2527 307.437 30.2018 307.23 30.408C307.059 30.5798 304.844 30.6004 304.407 30.4343L304.108 30.3207L304.108 25.5114C304.109 22.8664 304.143 20.2719 304.184 19.7461L304.258 18.79L304.969 18.7557C306.229 18.695 307.067 18.7802 307.225 18.985ZM239.606 18.8504C239.771 18.9136 239.791 19.5287 239.791 24.5947C239.791 28.8521 239.756 30.3032 239.651 30.408C239.557 30.5016 239.038 30.5479 238.08 30.5479H236.649L236.572 30.2396C236.529 30.07 236.522 27.4687 236.555 24.4588C236.604 19.9899 236.645 18.9678 236.776 18.8848C236.957 18.7703 239.323 18.7415 239.606 18.8504Z" fill="#054FC1"/>
<path d="M102.439 44.5616V49.5929C102.439 49.7265 102.463 49.8168 102.51 49.8639C102.557 49.9111 102.652 49.9346 102.793 49.9346H103.123V50.7712H102.463C102.086 50.7712 101.807 50.6848 101.626 50.512C101.454 50.3313 101.367 50.0682 101.367 49.7225V44.4202C101.367 44.0824 101.454 43.8271 101.626 43.6543C101.807 43.4736 102.086 43.3833 102.463 43.3833H103.194V44.2199H102.793C102.652 44.2199 102.557 44.2435 102.51 44.2906C102.463 44.3299 102.439 44.4202 102.439 44.5616ZM104.386 45.6928C104.027 45.6928 103.736 45.4017 103.736 45.0427V44.5616C103.736 44.4202 103.712 44.3299 103.665 44.2906C103.626 44.2435 103.535 44.2199 103.394 44.2199H103.005V43.3833H103.712C104.097 43.3833 104.376 43.4736 104.549 43.6543C104.729 43.8271 104.82 44.0824 104.82 44.4202V45.6928H104.386ZM103.736 49.5929V49.1236C103.736 48.7646 104.027 48.4735 104.386 48.4735H104.82V49.7225C104.82 50.0682 104.729 50.3313 104.549 50.512C104.376 50.6848 104.097 50.7712 103.712 50.7712H103.005V49.9346H103.394C103.535 49.9346 103.626 49.9111 103.665 49.8639C103.712 49.8168 103.736 49.7265 103.736 49.5929Z" fill="#189BFA"/>
<path d="M110.271 48.5265V44.591C110.271 44.4496 110.248 44.3593 110.2 44.32C110.161 44.2729 110.067 44.2493 109.918 44.2493H109.529V43.3892H110.236C110.621 43.3892 110.9 43.4795 111.072 43.6602C111.253 43.833 111.343 44.0883 111.343 44.4261V48.5265H110.271ZM110.271 49.5634V48.0316H111.343V49.7284C111.343 50.0662 111.253 50.3254 111.072 50.5061C110.9 50.6789 110.621 50.7653 110.236 50.7653H109.458V49.9051H109.918C110.067 49.9051 110.161 49.8816 110.2 49.8344C110.248 49.7873 110.271 49.697 110.271 49.5634ZM108.893 44.591V48.5383H107.82V44.4261C107.82 44.0883 107.907 43.833 108.08 43.6602C108.26 43.4795 108.543 43.3892 108.928 43.3892H109.635V44.2493H109.246C109.105 44.2493 109.01 44.2729 108.963 44.32C108.916 44.3593 108.893 44.4496 108.893 44.591ZM108.893 47.9492V49.5634C108.893 49.697 108.916 49.7873 108.963 49.8344C109.01 49.8816 109.105 49.9051 109.246 49.9051H109.611V50.7653H108.928C108.543 50.7653 108.26 50.6789 108.08 50.5061C107.907 50.3254 107.82 50.0662 107.82 49.7284V47.9492H108.893Z" fill="#189BFA"/>
<path d="M116.971 43.958C116.971 43.6438 117.226 43.3892 117.54 43.3892H117.949V50.7653H117.303C117.051 50.7653 116.828 50.5987 116.757 50.3562L115.322 45.4512V50.1965C115.322 50.5106 115.067 50.7653 114.753 50.7653H114.344V43.3892H115.036C115.289 43.3892 115.512 43.556 115.583 43.7988L116.971 48.5619V43.958Z" fill="#189BFA"/>
<path d="M123.577 43.958C123.577 43.6438 123.831 43.3892 124.146 43.3892H124.555V50.7653H123.909C123.656 50.7653 123.434 50.5987 123.363 50.3562L121.927 45.4512V50.1965C121.927 50.5106 121.673 50.7653 121.358 50.7653H120.949V43.3892H121.642C121.895 43.3892 122.117 43.556 122.188 43.7988L123.577 48.5619V43.958Z" fill="#189BFA"/>
<path d="M127.555 43.3892H128.627V50.7653H127.555V43.3892ZM130.324 46.5234V46.8148C130.324 47.1289 130.069 47.3836 129.755 47.3836H128.144V46.5234H130.324ZM130.677 43.3892V43.6805C130.677 43.9946 130.422 44.2493 130.108 44.2493H128.12V43.3892H130.677ZM130.191 49.9051C130.505 49.9051 130.76 50.1598 130.76 50.474V50.7653H128.12V49.9051H130.191Z" fill="#189BFA"/>
<path d="M134.83 44.5616V49.5929C134.83 49.7265 134.854 49.8168 134.901 49.8639C134.948 49.9111 135.042 49.9346 135.184 49.9346H135.513V50.7712H134.854C134.477 50.7712 134.198 50.6848 134.017 50.512C133.844 50.3313 133.758 50.0682 133.758 49.7225V44.4202C133.758 44.0824 133.844 43.8271 134.017 43.6543C134.198 43.4736 134.477 43.3833 134.854 43.3833H135.584V44.2199H135.184C135.042 44.2199 134.948 44.2435 134.901 44.2906C134.854 44.3299 134.83 44.4202 134.83 44.5616ZM136.776 45.6928C136.417 45.6928 136.126 45.4017 136.126 45.0427V44.5616C136.126 44.4202 136.103 44.3299 136.055 44.2906C136.016 44.2435 135.926 44.2199 135.784 44.2199H135.396V43.3833H136.103C136.488 43.3833 136.766 43.4736 136.939 43.6543C137.12 43.8271 137.21 44.0824 137.21 44.4202V45.6928H136.776ZM136.126 49.5929V49.1236C136.126 48.7646 136.417 48.4735 136.776 48.4735H137.21V49.7225C137.21 50.0682 137.12 50.3313 136.939 50.512C136.766 50.6848 136.488 50.7712 136.103 50.7712H135.396V49.9346H135.784C135.926 49.9346 136.016 49.9111 136.055 49.8639C136.103 49.8168 136.126 49.7265 136.126 49.5929Z" fill="#189BFA"/>
<path d="M141.448 43.5306H142.509V50.1965C142.509 50.5106 142.254 50.7653 141.94 50.7653H141.448V43.5306ZM143.746 43.3892V43.6805C143.746 43.9946 143.491 44.2493 143.177 44.2493H140.78C140.466 44.2493 140.211 43.9946 140.211 43.6805V43.3892H143.746Z" fill="#189BFA"/>
<path d="M146.746 43.958C146.746 43.6438 147.001 43.3892 147.315 43.3892H147.807V50.1965C147.807 50.5106 147.552 50.7653 147.238 50.7653H146.746V43.958Z" fill="#189BFA"/>
<path d="M153.432 43.958C153.432 43.6438 153.687 43.3892 154.001 43.3892H154.41V50.7653H153.764C153.512 50.7653 153.289 50.5987 153.218 50.3562L151.783 45.4512V50.1965C151.783 50.5106 151.528 50.7653 151.214 50.7653H150.805V43.3892H151.497C151.75 43.3892 151.973 43.556 152.043 43.7988L153.432 48.5619V43.958Z" fill="#189BFA"/>
<path d="M158.486 44.5616V49.5929C158.486 49.7265 158.51 49.8168 158.557 49.8639C158.604 49.9111 158.698 49.9346 158.84 49.9346H159.17V50.7712H158.51C158.133 50.7712 157.854 50.6848 157.673 50.512C157.5 50.3313 157.414 50.0682 157.414 49.7225V44.4202C157.414 44.0824 157.5 43.8271 157.673 43.6543C157.854 43.4736 158.133 43.3833 158.51 43.3833H159.24V44.2199H158.84C158.698 44.2199 158.604 44.2435 158.557 44.2906C158.51 44.3299 158.486 44.4202 158.486 44.5616ZM160.866 46.9653V47.7901H159.205V47.5342C159.205 47.22 159.46 46.9653 159.774 46.9653H160.866ZM160.363 45.5396C160.049 45.5396 159.794 45.2849 159.794 44.9708V44.5616C159.794 44.4202 159.771 44.3299 159.724 44.2906C159.676 44.2435 159.582 44.2199 159.441 44.2199H159.052V43.3833H159.771C160.148 43.3833 160.423 43.4736 160.595 43.6543C160.776 43.8271 160.866 44.0824 160.866 44.4202V45.5396H160.363ZM159.794 49.5929V47.5309H160.866V49.7225C160.866 50.0682 160.776 50.3313 160.595 50.512C160.423 50.6848 160.148 50.7712 159.771 50.7712H159.064V49.9346H159.441C159.582 49.9346 159.676 49.9111 159.724 49.8639C159.771 49.8168 159.794 49.7265 159.794 49.5929Z" fill="#189BFA"/>
<path d="M171.104 43.5306H172.165V50.1965C172.165 50.5106 171.91 50.7653 171.596 50.7653H171.104V43.5306ZM173.402 43.3892V43.6805C173.402 43.9946 173.147 44.2493 172.833 44.2493H170.436C170.122 44.2493 169.867 43.9946 169.867 43.6805V43.3892H173.402Z" fill="#189BFA"/>
<path d="M179.725 48.1966V49.0568H177.31V48.1966H179.725ZM180.656 50.7653H180.063C179.786 50.7653 179.55 50.5657 179.503 50.2926L178.476 44.3082L177.549 50.2837C177.506 50.5608 177.268 50.7653 176.987 50.7653H176.402L177.71 43.3892H179.254L180.656 50.7653Z" fill="#189BFA"/>
<path d="M183.656 43.3892H184.148C184.462 43.3892 184.717 43.6438 184.717 43.958V50.7653H183.656V43.3892ZM184.175 50.7653V49.9051H185.974C186.288 49.9051 186.543 50.1598 186.543 50.474V50.7653H184.175Z" fill="#189BFA"/>
<path d="M189.543 43.3892H190.615V50.7653H189.543V43.3892ZM192.312 46.5234V46.8148C192.312 47.1289 192.057 47.3836 191.743 47.3836H190.132V46.5234H192.312ZM192.665 43.3892V43.6805C192.665 43.9946 192.411 44.2493 192.097 44.2493H190.109V43.3892H192.665ZM192.179 49.9051C192.493 49.9051 192.748 50.1598 192.748 50.474V50.7653H190.109V49.9051H192.179Z" fill="#189BFA"/>
<path d="M198.374 43.958C198.374 43.6438 198.628 43.3892 198.943 43.3892H199.352V50.7653H198.706C198.453 50.7653 198.231 50.5987 198.16 50.3562L196.724 45.4512V50.1965C196.724 50.5106 196.469 50.7653 196.155 50.7653H195.746V43.3892H196.439C196.692 43.3892 196.914 43.556 196.985 43.7988L198.374 48.5619V43.958Z" fill="#189BFA"/>
<path d="M203.589 43.5306H204.649V50.1965C204.649 50.5106 204.395 50.7653 204.08 50.7653H203.589V43.5306ZM205.886 43.3892V43.6805C205.886 43.9946 205.632 44.2493 205.318 44.2493H202.92C202.606 44.2493 202.352 43.9946 202.352 43.6805V43.3892H205.886Z" fill="#189BFA"/>
<path d="M212.262 47.6724H213.452V48.4383L212.639 50.7713H212.262V47.6724Z" fill="#189BFA"/>
<path d="M220.9 44.5616V49.5929C220.9 49.7265 220.924 49.8168 220.971 49.8639C221.018 49.9111 221.112 49.9346 221.254 49.9346H221.584V50.7712H220.924C220.547 50.7712 220.268 50.6848 220.087 50.512C219.915 50.3313 219.828 50.0682 219.828 49.7225V44.4202C219.828 44.0824 219.915 43.8271 220.087 43.6543C220.268 43.4736 220.547 43.3833 220.924 43.3833H221.654V44.2199H221.254C221.112 44.2199 221.018 44.2435 220.971 44.2906C220.924 44.3299 220.9 44.4202 220.9 44.5616ZM222.847 45.6928C222.488 45.6928 222.197 45.4017 222.197 45.0427V44.5616C222.197 44.4202 222.173 44.3299 222.126 44.2906C222.087 44.2435 221.996 44.2199 221.855 44.2199H221.466V43.3833H222.173C222.558 43.3833 222.837 43.4736 223.01 43.6543C223.19 43.8271 223.281 44.0824 223.281 44.4202V45.6928H222.847ZM222.197 49.5929V49.1236C222.197 48.7646 222.488 48.4735 222.847 48.4735H223.281V49.7225C223.281 50.0682 223.19 50.3313 223.01 50.512C222.837 50.6848 222.558 50.7712 222.173 50.7712H221.466V49.9346H221.855C221.996 49.9346 222.087 49.9111 222.126 49.8639C222.173 49.8168 222.197 49.7265 222.197 49.5929Z" fill="#189BFA"/>
<path d="M228.732 46.5941V44.591C228.732 44.4496 228.709 44.3593 228.661 44.32C228.622 44.2729 228.528 44.2493 228.379 44.2493H226.423V43.3892H228.697C229.082 43.3892 229.361 43.4795 229.533 43.6602C229.714 43.833 229.804 44.0883 229.804 44.4261V46.7355C229.804 47.0812 229.714 47.3443 229.533 47.525C229.361 47.6978 229.082 47.7842 228.697 47.7842H226.8V46.9358H228.379C228.528 46.9358 228.622 46.9123 228.661 46.8651C228.709 46.818 228.732 46.7277 228.732 46.5941ZM226.281 43.3892H227.342V50.1965C227.342 50.5106 227.087 50.7653 226.773 50.7653H226.281V43.3892ZM227.766 47.36H228.85L230.181 50.7653H229.423C229.185 50.7653 228.972 50.6171 228.889 50.394L227.766 47.36Z" fill="#189BFA"/>
<path d="M233.18 43.3892H234.252V50.7653H233.18V43.3892ZM235.949 46.5234V46.8148C235.949 47.1289 235.694 47.3836 235.38 47.3836H233.769V46.5234H235.949ZM236.302 43.3892V43.6805C236.302 43.9946 236.047 44.2493 235.733 44.2493H233.745V43.3892H236.302ZM235.816 49.9051C236.13 49.9051 236.385 50.1598 236.385 50.474V50.7653H233.745V49.9051H235.816Z" fill="#189BFA"/>
<path d="M242.71 48.1966V49.0568H240.294V48.1966H242.71ZM243.64 50.7653H243.048C242.771 50.7653 242.534 50.5657 242.487 50.2926L241.461 44.3082L240.534 50.2837C240.491 50.5608 240.252 50.7653 239.972 50.7653H239.387L240.695 43.3892H242.238L243.64 50.7653Z" fill="#189BFA"/>
<path d="M247.878 43.5306H248.938V50.1965C248.938 50.5106 248.684 50.7653 248.369 50.7653H247.878V43.5306ZM250.176 43.3892V43.6805C250.176 43.9946 249.921 44.2493 249.607 44.2493H247.209C246.895 44.2493 246.641 43.9946 246.641 43.6805V43.3892H250.176Z" fill="#189BFA"/>
<path d="M253.176 43.958C253.176 43.6438 253.43 43.3892 253.745 43.3892H254.236V50.1965C254.236 50.5106 253.982 50.7653 253.667 50.7653H253.176V43.958Z" fill="#189BFA"/>
<path d="M259.862 43.958C259.862 43.6438 260.117 43.3892 260.431 43.3892H260.84V50.7653H260.194C259.941 50.7653 259.719 50.5987 259.648 50.3562L258.212 45.4512V50.1965C258.212 50.5106 257.958 50.7653 257.644 50.7653H257.234V43.3892H257.927C258.18 43.3892 258.402 43.556 258.473 43.7988L259.862 48.5619V43.958Z" fill="#189BFA"/>
<path d="M264.912 44.5616V49.5929C264.912 49.7265 264.936 49.8168 264.983 49.8639C265.03 49.9111 265.124 49.9346 265.266 49.9346H265.596V50.7712H264.936C264.559 50.7712 264.28 50.6848 264.099 50.512C263.926 50.3313 263.84 50.0682 263.84 49.7225V44.4202C263.84 44.0824 263.926 43.8271 264.099 43.6543C264.28 43.4736 264.559 43.3833 264.936 43.3833H265.666V44.2199H265.266C265.124 44.2199 265.03 44.2435 264.983 44.2906C264.936 44.3299 264.912 44.4202 264.912 44.5616ZM267.292 46.9653V47.7901H265.631V47.5342C265.631 47.22 265.886 46.9653 266.2 46.9653H267.292ZM266.789 45.5396C266.475 45.5396 266.22 45.2849 266.22 44.9708V44.5616C266.22 44.4202 266.196 44.3299 266.149 44.2906C266.102 44.2435 266.008 44.2199 265.867 44.2199H265.478V43.3833H266.196C266.573 43.3833 266.848 43.4736 267.021 43.6543C267.202 43.8271 267.292 44.0824 267.292 44.4202V45.5396H266.789ZM266.22 49.5929V47.5309H267.292V49.7225C267.292 50.0682 267.202 50.3313 267.021 50.512C266.848 50.6848 266.573 50.7712 266.196 50.7712H265.489V49.9346H265.867C266.008 49.9346 266.102 49.9111 266.149 49.8639C266.196 49.8168 266.22 49.7265 266.22 49.5929Z" fill="#189BFA"/>
<path d="M276.293 43.3892H277.365V50.7653H276.293V43.3892ZM279.062 46.6766V46.9444C279.062 47.2585 278.807 47.5132 278.493 47.5132H276.894V46.6766H279.062ZM279.51 43.3892V43.6805C279.51 43.9946 279.255 44.2493 278.941 44.2493H276.859V43.3892H279.51Z" fill="#189BFA"/>
<path d="M284.959 49.5634V43.958C284.959 43.6438 285.213 43.3892 285.528 43.3892H286.031V49.7284C286.031 50.0662 285.941 50.3254 285.76 50.5061C285.587 50.6789 285.308 50.7653 284.923 50.7653H284.146V49.9051H284.617C284.758 49.9051 284.849 49.8816 284.888 49.8344C284.935 49.7873 284.959 49.697 284.959 49.5634ZM283.011 43.3892C283.325 43.3892 283.58 43.6438 283.58 43.958V49.5634C283.58 49.697 283.604 49.7873 283.651 49.8344C283.698 49.8816 283.792 49.9051 283.934 49.9051H284.299V50.7653H283.615C283.231 50.7653 282.948 50.6789 282.767 50.5061C282.594 50.3254 282.508 50.0662 282.508 49.7284V43.3892H283.011Z" fill="#189BFA"/>
<path d="M290.268 43.5306H291.329V50.1965C291.329 50.5106 291.074 50.7653 290.76 50.7653H290.268V43.5306ZM292.566 43.3892V43.6805C292.566 43.9946 292.311 44.2493 291.997 44.2493H289.6C289.286 44.2493 289.031 43.9946 289.031 43.6805V43.3892H292.566Z" fill="#189BFA"/>
<path d="M298.017 49.5634V43.958C298.017 43.6438 298.272 43.3892 298.586 43.3892H299.09V49.7284C299.09 50.0662 298.999 50.3254 298.819 50.5061C298.646 50.6789 298.367 50.7653 297.982 50.7653H297.204V49.9051H297.676C297.817 49.9051 297.907 49.8816 297.947 49.8344C297.994 49.7873 298.017 49.697 298.017 49.5634ZM296.07 43.3892C296.384 43.3892 296.639 43.6438 296.639 43.958V49.5634C296.639 49.697 296.662 49.7873 296.709 49.8344C296.756 49.8816 296.851 49.9051 296.992 49.9051H297.357V50.7653H296.674C296.289 50.7653 296.006 50.6789 295.826 50.5061C295.653 50.3254 295.566 50.0662 295.566 49.7284V43.3892H296.07Z" fill="#189BFA"/>
<path d="M304.541 46.5941V44.591C304.541 44.4496 304.517 44.3593 304.47 44.32C304.431 44.2729 304.336 44.2493 304.187 44.2493H302.231V43.3892H304.505C304.89 43.3892 305.169 43.4795 305.342 43.6602C305.523 43.833 305.613 44.0883 305.613 44.4261V46.7355C305.613 47.0812 305.523 47.3443 305.342 47.525C305.169 47.6978 304.89 47.7842 304.505 47.7842H302.608V46.9358H304.187C304.336 46.9358 304.431 46.9123 304.47 46.8651C304.517 46.818 304.541 46.7277 304.541 46.5941ZM302.09 43.3892H303.15V50.1965C303.15 50.5106 302.896 50.7653 302.581 50.7653H302.09V43.3892ZM303.574 47.36H304.659L305.99 50.7653H305.231C304.993 50.7653 304.78 50.6171 304.698 50.394L303.574 47.36Z" fill="#189BFA"/>
<path d="M308.992 43.3892H310.064V50.7653H308.992V43.3892ZM311.761 46.5234V46.8148C311.761 47.1289 311.507 47.3836 311.192 47.3836H309.581V46.5234H311.761ZM312.115 43.3892V43.6805C312.115 43.9946 311.86 44.2493 311.546 44.2493H309.558V43.3892H312.115ZM311.628 49.9051C311.942 49.9051 312.197 50.1598 312.197 50.474V50.7653H309.558V49.9051H311.628Z" fill="#189BFA"/>
<path d="M317.481 49.5634V47.7606C317.481 47.6192 317.458 47.5289 317.411 47.4896C317.371 47.4425 317.281 47.4189 317.14 47.4189H316.268C315.891 47.4189 315.616 47.3286 315.443 47.1479C315.278 46.9673 315.195 46.708 315.195 46.3703V44.4261C315.195 44.2968 315.199 44.1146 315.203 43.9389C315.21 43.6323 315.462 43.3892 315.769 43.3892C315.951 43.3892 316.145 43.3892 316.291 43.3892H317.446C317.593 43.3892 317.788 43.3892 317.973 43.3892C318.287 43.3892 318.542 43.6438 318.542 43.958C318.542 44.1277 318.542 44.3015 318.542 44.4261V45.5101H318.038C317.724 45.5101 317.469 45.2554 317.469 44.9413V44.591C317.469 44.4496 317.446 44.3593 317.399 44.32C317.359 44.2729 317.265 44.2493 317.116 44.2493H316.621C316.48 44.2493 316.385 44.2729 316.338 44.32C316.291 44.3593 316.268 44.4496 316.268 44.591V46.2289C316.268 46.3624 316.291 46.4527 316.338 46.4999C316.385 46.547 316.48 46.5706 316.621 46.5706H317.481C317.858 46.5706 318.133 46.6609 318.306 46.8416C318.479 47.0144 318.565 47.2697 318.565 47.6075V49.7284C318.565 49.8601 318.562 50.0325 318.557 50.194C318.55 50.4705 318.342 50.6996 318.066 50.727C317.863 50.7472 317.636 50.7653 317.469 50.7653H316.315C316.151 50.7653 315.922 50.7477 315.716 50.7278C315.431 50.7003 315.219 50.4582 315.219 50.1723C315.219 50.0172 315.219 49.8542 315.219 49.7284V48.6444H315.722C316.036 48.6444 316.291 48.899 316.291 49.2132V49.5634C316.291 49.697 316.315 49.7873 316.362 49.8344C316.409 49.8816 316.503 49.9051 316.645 49.9051H317.14C317.281 49.9051 317.371 49.8816 317.411 49.8344C317.458 49.7873 317.481 49.697 317.481 49.5634Z" fill="#189BFA"/>
</svg>
