<svg width="390" height="844" viewBox="0 0 390 844" fill="none" xmlns="http://www.w3.org/2000/svg">
<g clip-path="url(#clip0_1386_2570)">
<rect width="390" height="844" fill="white"/>
<rect width="48.2641" height="48.2641" rx="5.01756" transform="matrix(-0.707107 -0.707107 -0.707107 0.707107 131.051 215.237)" fill="#8CB9F8" fill-opacity="0.06"/>
<rect width="57.7549" height="57.7549" rx="6.00422" transform="matrix(-0.707107 -0.707107 -0.707107 0.707107 95.3008 263.674)" fill="#8CB9F8" fill-opacity="0.06"/>
<rect width="75.8863" height="75.8863" rx="5.01756" transform="matrix(-0.707107 -0.707107 -0.707107 0.707107 41.8008 227.443)" fill="#8CB9F8" fill-opacity="0.06"/>
<rect width="66.594" height="66.594" rx="5.01756" transform="matrix(-0.707107 -0.707107 -0.707107 0.707107 95.3203 167.428)" fill="#8CB9F8" fill-opacity="0.06"/>
<rect width="34.1418" height="34.1418" rx="5.01756" transform="matrix(-0.707107 -0.707107 -0.707107 0.707107 29.3477 294.148)" fill="#8CB9F8" fill-opacity="0.06"/>
<rect width="47.9326" height="47.9326" rx="7.04429" transform="matrix(-0.707107 -0.707107 -0.707107 0.707107 22.0508 139.893)" fill="#8CB9F8" fill-opacity="0.06"/>
<rect x="257.992" y="697.237" width="48.2641" height="48.2641" rx="5.01756" transform="rotate(-45 257.992 697.237)" fill="#8CB9F8" fill-opacity="0.06"/>
<rect x="293.742" y="745.674" width="57.7549" height="57.7549" rx="6.00422" transform="rotate(-45 293.742 745.674)" fill="#8CB9F8" fill-opacity="0.06"/>
<rect x="347.246" y="709.443" width="75.8863" height="75.8863" rx="5.01756" transform="rotate(-45 347.246 709.443)" fill="#8CB9F8" fill-opacity="0.06"/>
<rect x="293.727" y="649.428" width="66.594" height="66.594" rx="5.01756" transform="rotate(-45 293.727 649.428)" fill="#8CB9F8" fill-opacity="0.06"/>
<rect x="359.699" y="776.148" width="34.1418" height="34.1418" rx="5.01756" transform="rotate(-45 359.699 776.148)" fill="#8CB9F8" fill-opacity="0.06"/>
<rect x="366.992" y="621.893" width="47.9326" height="47.9326" rx="7.04429" transform="rotate(-45 366.992 621.893)" fill="#8CB9F8" fill-opacity="0.06"/>
<path d="M400.502 669C309.502 662.5 230.502 568 230.502 568C230.502 568 260.502 530.425 198.502 506.846C136.502 481.769 136.502 460.872 198.502 444.154C252.07 428.573 252.07 407.675 198.502 381.462C144.934 356.385 144.934 335.487 198.502 318.769C260.502 300.736 260.502 279.838 198.502 256.077C136.502 231 86.5408 112.367 -17.5 89.5" stroke="#BBBBBB" stroke-width="2" stroke-dasharray="4 4"/>
<path d="M192.057 185.349L160.514 154.655C156.976 151.115 151.24 151.115 147.702 154.655L99.6536 202.737C96.1155 206.277 96.1155 212.018 99.6536 215.558L147.702 263.639C151.24 267.18 156.976 267.18 160.514 263.639L192.057 232.663" stroke="#189BFA" stroke-width="1.69745" stroke-linecap="round"/>
<path d="M192.709 232.063L209.202 215.558C212.74 212.017 212.74 206.277 209.202 202.736L192.426 185.949" stroke="#1B3B7C" stroke-width="1.69745" stroke-dasharray="0.57 3.39"/>
<g filter="url(#filter0_d_1386_2570)">
<rect x="99.2617" y="209.147" width="76.951" height="76.951" rx="9.05306" transform="rotate(-45 99.2617 209.147)" fill="white" shape-rendering="crispEdges"/>
<path d="M132.244 205.877C133.182 205.877 133.867 206.069 134.298 206.454C134.729 206.838 134.944 207.377 134.944 208.07C134.944 208.385 134.895 208.685 134.795 208.97C134.699 209.252 134.54 209.502 134.318 209.721C134.096 209.936 133.802 210.107 133.438 210.233C133.076 210.359 132.63 210.422 132.1 210.422H131.324V213.147H130.131V205.877H132.244ZM132.165 206.866H131.324V209.427H131.976C132.35 209.427 132.668 209.384 132.93 209.298C133.192 209.209 133.391 209.068 133.527 208.875C133.663 208.683 133.731 208.43 133.731 208.115C133.731 207.694 133.603 207.38 133.348 207.175C133.096 206.969 132.702 206.866 132.165 206.866ZM139.067 207.538C139.16 207.538 139.261 207.543 139.37 207.553C139.48 207.563 139.574 207.576 139.654 207.592L139.544 208.686C139.475 208.667 139.389 208.652 139.286 208.642C139.186 208.632 139.097 208.627 139.017 208.627C138.808 208.627 138.61 208.662 138.421 208.731C138.232 208.798 138.064 208.9 137.918 209.04C137.772 209.175 137.658 209.346 137.575 209.552C137.492 209.757 137.451 209.996 137.451 210.268V213.147H136.277V207.642H137.192L137.351 208.612H137.406C137.515 208.416 137.651 208.237 137.814 208.075C137.976 207.912 138.162 207.783 138.371 207.687C138.583 207.587 138.815 207.538 139.067 207.538ZM142.866 207.538C143.357 207.538 143.778 207.639 144.13 207.841C144.481 208.043 144.751 208.33 144.94 208.701C145.129 209.073 145.224 209.517 145.224 210.034V210.661H141.549C141.562 211.194 141.704 211.606 141.976 211.894C142.251 212.182 142.636 212.327 143.13 212.327C143.481 212.327 143.796 212.294 144.075 212.227C144.357 212.158 144.647 212.056 144.945 211.924V212.874C144.67 213.003 144.39 213.097 144.105 213.157C143.82 213.217 143.478 213.247 143.08 213.247C142.54 213.247 142.064 213.142 141.653 212.933C141.245 212.721 140.925 212.406 140.693 211.989C140.464 211.571 140.35 211.052 140.35 210.432C140.35 209.815 140.455 209.291 140.663 208.86C140.872 208.43 141.166 208.101 141.544 207.876C141.922 207.65 142.362 207.538 142.866 207.538ZM142.866 208.418C142.498 208.418 142.2 208.537 141.971 208.776C141.746 209.015 141.613 209.364 141.573 209.825H144.08C144.077 209.55 144.03 209.306 143.941 209.094C143.854 208.882 143.722 208.716 143.543 208.597C143.367 208.478 143.142 208.418 142.866 208.418ZM149.366 207.538C150.019 207.538 150.543 207.776 150.938 208.254C151.335 208.731 151.534 209.441 151.534 210.382C151.534 211.006 151.442 211.531 151.256 211.959C151.074 212.383 150.817 212.705 150.485 212.923C150.157 213.139 149.774 213.247 149.336 213.247C149.058 213.247 148.816 213.21 148.61 213.137C148.405 213.064 148.229 212.97 148.083 212.854C147.937 212.734 147.815 212.605 147.715 212.466H147.645C147.662 212.599 147.677 212.746 147.69 212.909C147.707 213.068 147.715 213.214 147.715 213.346V215.589H146.541V207.642H147.496L147.66 208.403H147.715C147.818 208.247 147.942 208.103 148.088 207.97C148.237 207.838 148.416 207.733 148.625 207.657C148.837 207.577 149.084 207.538 149.366 207.538ZM149.053 208.492C148.731 208.492 148.473 208.557 148.277 208.686C148.085 208.812 147.944 209.003 147.854 209.258C147.768 209.514 147.722 209.834 147.715 210.218V210.382C147.715 210.79 147.757 211.136 147.839 211.422C147.926 211.703 148.067 211.919 148.262 212.068C148.461 212.214 148.73 212.287 149.068 212.287C149.353 212.287 149.588 212.209 149.774 212.053C149.963 211.897 150.104 211.675 150.197 211.387C150.289 211.098 150.336 210.759 150.336 210.367C150.336 209.774 150.23 209.313 150.018 208.985C149.809 208.657 149.487 208.492 149.053 208.492ZM155.045 207.538C155.742 207.538 156.267 207.692 156.622 208C156.98 208.308 157.159 208.789 157.159 209.442V213.147H156.328L156.105 212.366H156.065C155.909 212.565 155.748 212.729 155.582 212.859C155.417 212.988 155.224 213.084 155.006 213.147C154.79 213.214 154.526 213.247 154.215 213.247C153.887 213.247 153.593 213.187 153.335 213.068C153.076 212.945 152.872 212.759 152.723 212.511C152.574 212.262 152.499 211.947 152.499 211.566C152.499 210.999 152.71 210.573 153.131 210.288C153.555 210.003 154.195 209.845 155.05 209.815L156.005 209.781V209.492C156.005 209.111 155.916 208.839 155.737 208.676C155.561 208.514 155.312 208.433 154.991 208.433C154.715 208.433 154.449 208.473 154.19 208.552C153.931 208.632 153.679 208.73 153.434 208.846L153.056 208.02C153.325 207.878 153.63 207.761 153.971 207.672C154.316 207.582 154.674 207.538 155.045 207.538ZM156 210.517L155.289 210.541C154.705 210.561 154.296 210.661 154.061 210.84C153.825 211.019 153.708 211.264 153.708 211.576C153.708 211.848 153.789 212.047 153.951 212.173C154.114 212.295 154.328 212.357 154.593 212.357C154.997 212.357 155.332 212.242 155.597 212.013C155.866 211.781 156 211.441 156 210.994V210.517ZM161.585 207.538C161.678 207.538 161.779 207.543 161.888 207.553C161.998 207.563 162.092 207.576 162.172 207.592L162.062 208.686C161.993 208.667 161.906 208.652 161.804 208.642C161.704 208.632 161.615 208.627 161.535 208.627C161.326 208.627 161.127 208.662 160.938 208.731C160.749 208.798 160.582 208.9 160.436 209.04C160.29 209.175 160.176 209.346 160.093 209.552C160.01 209.757 159.969 209.996 159.969 210.268V213.147H158.795V207.642H159.71L159.869 208.612H159.924C160.033 208.416 160.169 208.237 160.332 208.075C160.494 207.912 160.68 207.783 160.889 207.687C161.101 207.587 161.333 207.538 161.585 207.538ZM164.36 207.642V213.147H163.191V207.642H164.36ZM163.783 205.534C163.962 205.534 164.116 205.582 164.245 205.678C164.378 205.774 164.444 205.94 164.444 206.175C164.444 206.407 164.378 206.573 164.245 206.672C164.116 206.769 163.962 206.817 163.783 206.817C163.597 206.817 163.44 206.769 163.31 206.672C163.184 206.573 163.121 206.407 163.121 206.175C163.121 205.94 163.184 205.774 163.31 205.678C163.44 205.582 163.597 205.534 163.783 205.534ZM168.905 207.538C169.525 207.538 170.007 207.698 170.352 208.02C170.7 208.338 170.874 208.851 170.874 209.557V213.147H169.706V209.776C169.706 209.348 169.618 209.028 169.442 208.816C169.266 208.6 168.995 208.492 168.627 208.492C168.093 208.492 167.721 208.657 167.513 208.985C167.307 209.313 167.204 209.789 167.204 210.412V213.147H166.036V207.642H166.946L167.11 208.388H167.174C167.294 208.196 167.441 208.038 167.617 207.916C167.796 207.79 167.995 207.695 168.214 207.632C168.436 207.569 168.666 207.538 168.905 207.538ZM174.082 215.594C173.336 215.594 172.764 215.46 172.366 215.191C171.968 214.923 171.769 214.546 171.769 214.062C171.769 213.724 171.876 213.437 172.088 213.202C172.3 212.97 172.603 212.809 172.998 212.72C172.849 212.653 172.719 212.55 172.61 212.411C172.504 212.269 172.451 212.111 172.451 211.939C172.451 211.733 172.509 211.558 172.625 211.412C172.741 211.266 172.915 211.125 173.147 210.989C172.859 210.866 172.626 210.667 172.451 210.392C172.278 210.114 172.192 209.787 172.192 209.412C172.192 209.015 172.277 208.676 172.446 208.398C172.615 208.116 172.862 207.902 173.187 207.756C173.512 207.607 173.905 207.533 174.365 207.533C174.465 207.533 174.573 207.539 174.689 207.553C174.808 207.563 174.917 207.576 175.017 207.592C175.12 207.606 175.198 207.621 175.251 207.637H177.155V208.289L176.22 208.463C176.31 208.589 176.381 208.733 176.434 208.895C176.487 209.054 176.514 209.228 176.514 209.417C176.514 209.988 176.316 210.437 175.922 210.765C175.531 211.09 174.99 211.253 174.301 211.253C174.135 211.246 173.974 211.233 173.818 211.213C173.699 211.286 173.608 211.367 173.545 211.456C173.482 211.543 173.45 211.64 173.45 211.75C173.45 211.839 173.482 211.912 173.545 211.969C173.608 212.022 173.701 212.061 173.823 212.088C173.949 212.114 174.102 212.128 174.281 212.128H175.231C175.834 212.128 176.295 212.255 176.613 212.511C176.931 212.766 177.091 213.141 177.091 213.635C177.091 214.261 176.832 214.744 176.315 215.082C175.798 215.423 175.053 215.594 174.082 215.594ZM174.127 214.773C174.534 214.773 174.878 214.734 175.156 214.654C175.435 214.574 175.645 214.46 175.788 214.311C175.93 214.165 176.001 213.991 176.001 213.789C176.001 213.61 175.957 213.472 175.867 213.376C175.778 213.28 175.643 213.214 175.464 213.177C175.285 213.141 175.063 213.122 174.798 213.122H173.933C173.717 213.122 173.527 213.156 173.361 213.222C173.195 213.291 173.066 213.391 172.973 213.52C172.883 213.649 172.839 213.805 172.839 213.988C172.839 214.24 172.95 214.434 173.172 214.569C173.397 214.705 173.716 214.773 174.127 214.773ZM174.355 210.487C174.697 210.487 174.951 210.394 175.116 210.208C175.282 210.019 175.365 209.754 175.365 209.412C175.365 209.041 175.279 208.763 175.106 208.577C174.937 208.391 174.685 208.299 174.35 208.299C174.022 208.299 173.772 208.393 173.6 208.582C173.43 208.771 173.346 209.051 173.346 209.422C173.346 209.757 173.43 210.019 173.6 210.208C173.772 210.394 174.024 210.487 174.355 210.487Z" fill="#1B3B7C"/>
<rect x="134.344" y="161.893" width="27.1592" height="27.1592" rx="13.5796" transform="rotate(-45 134.344 161.893)" fill="#1B3B7C"/>
<path d="M152.997 162.258C152.997 162.845 152.951 163.369 152.858 163.83C152.769 164.29 152.623 164.682 152.42 165.003C152.221 165.325 151.96 165.57 151.635 165.739C151.31 165.908 150.915 165.993 150.451 165.993C149.868 165.993 149.389 165.845 149.014 165.55C148.639 165.252 148.362 164.824 148.183 164.267C148.004 163.707 147.915 163.037 147.915 162.258C147.915 161.472 147.996 160.801 148.159 160.244C148.324 159.684 148.593 159.254 148.964 158.956C149.335 158.658 149.831 158.508 150.451 158.508C151.031 158.508 151.509 158.658 151.883 158.956C152.261 159.251 152.541 159.679 152.724 160.239C152.906 160.796 152.997 161.469 152.997 162.258ZM149.442 162.258C149.442 162.812 149.471 163.274 149.531 163.646C149.594 164.014 149.699 164.29 149.844 164.476C149.99 164.662 150.193 164.754 150.451 164.754C150.706 164.754 150.907 164.663 151.053 164.481C151.202 164.295 151.308 164.018 151.371 163.65C151.434 163.279 151.466 162.815 151.466 162.258C151.466 161.704 151.434 161.242 151.371 160.871C151.308 160.499 151.202 160.221 151.053 160.035C150.907 159.846 150.706 159.752 150.451 159.752C150.193 159.752 149.99 159.846 149.844 160.035C149.699 160.221 149.594 160.499 149.531 160.871C149.471 161.242 149.442 161.704 149.442 162.258ZM157.582 165.893H156.046V161.686C156.046 161.57 156.047 161.428 156.051 161.258C156.054 161.086 156.059 160.91 156.066 160.731C156.072 160.549 156.079 160.385 156.086 160.239C156.049 160.282 155.974 160.357 155.862 160.463C155.752 160.566 155.65 160.658 155.553 160.741L154.718 161.413L153.977 160.488L156.319 158.623H157.582V165.893Z" fill="white"/>
</g>
<path d="M192.057 319.644L160.514 288.95C156.976 285.41 151.24 285.41 147.702 288.95L99.6536 337.032C96.1155 340.572 96.1155 346.313 99.6536 349.853L147.702 397.934C151.24 401.475 156.976 401.475 160.514 397.934L192.057 366.958" stroke="#189BFA" stroke-width="1.69745" stroke-linecap="round"/>
<path d="M192.712 366.358L209.206 349.853C212.744 346.312 212.744 340.572 209.206 337.031L192.43 320.244" stroke="#1B3B7C" stroke-width="1.69745" stroke-dasharray="0.57 3.39"/>
<g filter="url(#filter1_d_1386_2570)">
<rect x="99.2578" y="343.442" width="76.951" height="76.951" rx="9.05306" transform="rotate(-45 99.2578 343.442)" fill="white" shape-rendering="crispEdges"/>
<path d="M134.324 345.463C134.324 345.894 134.218 346.265 134.006 346.577C133.797 346.888 133.495 347.127 133.101 347.293C132.709 347.459 132.242 347.542 131.698 347.542C131.433 347.542 131.179 347.527 130.937 347.497C130.695 347.467 130.467 347.424 130.251 347.368C130.039 347.308 129.845 347.237 129.669 347.154V346.03C129.964 346.159 130.294 346.277 130.659 346.383C131.023 346.486 131.395 346.537 131.773 346.537C132.081 346.537 132.336 346.497 132.539 346.418C132.744 346.335 132.897 346.219 132.996 346.07C133.096 345.917 133.145 345.74 133.145 345.537C133.145 345.322 133.087 345.14 132.971 344.99C132.855 344.841 132.679 344.705 132.444 344.583C132.212 344.457 131.92 344.322 131.569 344.18C131.33 344.084 131.101 343.974 130.883 343.852C130.667 343.729 130.475 343.585 130.306 343.419C130.137 343.253 130.002 343.058 129.903 342.832C129.807 342.603 129.759 342.335 129.759 342.027C129.759 341.615 129.856 341.264 130.052 340.972C130.251 340.681 130.53 340.457 130.888 340.301C131.249 340.145 131.67 340.067 132.151 340.067C132.532 340.067 132.89 340.107 133.225 340.187C133.563 340.266 133.895 340.379 134.219 340.525L133.842 341.484C133.543 341.362 133.253 341.264 132.971 341.191C132.693 341.118 132.408 341.082 132.116 341.082C131.864 341.082 131.65 341.12 131.474 341.196C131.299 341.272 131.164 341.38 131.072 341.519C130.982 341.655 130.937 341.818 130.937 342.007C130.937 342.219 130.989 342.398 131.091 342.544C131.198 342.686 131.36 342.817 131.579 342.937C131.801 343.056 132.086 343.189 132.434 343.334C132.835 343.5 133.175 343.674 133.454 343.857C133.735 344.039 133.951 344.258 134.1 344.513C134.249 344.765 134.324 345.082 134.324 345.463ZM137.825 347.542C137.304 347.542 136.853 347.44 136.472 347.238C136.091 347.036 135.798 346.726 135.592 346.308C135.386 345.891 135.284 345.36 135.284 344.717C135.284 344.047 135.396 343.5 135.622 343.076C135.847 342.651 136.159 342.338 136.557 342.136C136.958 341.934 137.417 341.833 137.934 341.833C138.263 341.833 138.559 341.866 138.824 341.932C139.093 341.995 139.32 342.073 139.506 342.166L139.158 343.101C138.955 343.018 138.748 342.948 138.536 342.892C138.324 342.835 138.12 342.807 137.924 342.807C137.603 342.807 137.334 342.879 137.119 343.021C136.907 343.164 136.747 343.376 136.641 343.658C136.539 343.939 136.487 344.289 136.487 344.707C136.487 345.111 136.54 345.453 136.646 345.731C136.752 346.007 136.91 346.215 137.119 346.358C137.328 346.497 137.585 346.567 137.89 346.567C138.191 346.567 138.461 346.53 138.7 346.457C138.939 346.385 139.164 346.29 139.376 346.174V347.189C139.168 347.308 138.944 347.396 138.705 347.452C138.466 347.512 138.173 347.542 137.825 347.542ZM143.459 341.833C143.552 341.833 143.653 341.838 143.763 341.848C143.872 341.857 143.967 341.871 144.046 341.887L143.937 342.981C143.867 342.961 143.781 342.947 143.678 342.937C143.579 342.927 143.489 342.922 143.41 342.922C143.201 342.922 143.002 342.956 142.813 343.026C142.624 343.092 142.456 343.195 142.311 343.334C142.165 343.47 142.05 343.641 141.967 343.847C141.885 344.052 141.843 344.291 141.843 344.563V347.442H140.669V341.937H141.584L141.744 342.907H141.798C141.908 342.711 142.044 342.532 142.206 342.37C142.369 342.207 142.554 342.078 142.763 341.982C142.975 341.882 143.207 341.833 143.459 341.833ZM147.259 341.833C147.749 341.833 148.17 341.934 148.522 342.136C148.873 342.338 149.143 342.625 149.332 342.996C149.521 343.368 149.616 343.812 149.616 344.329V344.956H145.941C145.954 345.489 146.097 345.901 146.368 346.189C146.644 346.477 147.028 346.622 147.522 346.622C147.874 346.622 148.189 346.588 148.467 346.522C148.749 346.453 149.039 346.351 149.337 346.219V347.169C149.062 347.298 148.782 347.392 148.497 347.452C148.212 347.512 147.87 347.542 147.472 347.542C146.932 347.542 146.456 347.437 146.045 347.228C145.637 347.016 145.318 346.701 145.085 346.283C144.857 345.866 144.742 345.347 144.742 344.727C144.742 344.11 144.847 343.586 145.056 343.155C145.264 342.724 145.558 342.396 145.936 342.171C146.314 341.945 146.755 341.833 147.259 341.833ZM147.259 342.713C146.891 342.713 146.592 342.832 146.364 343.071C146.138 343.31 146.005 343.659 145.966 344.12H148.472C148.469 343.845 148.422 343.601 148.333 343.389C148.247 343.177 148.114 343.011 147.935 342.892C147.759 342.772 147.534 342.713 147.259 342.713ZM153.127 341.833C153.617 341.833 154.038 341.934 154.39 342.136C154.741 342.338 155.012 342.625 155.201 342.996C155.389 343.368 155.484 343.812 155.484 344.329V344.956H151.809C151.822 345.489 151.965 345.901 152.237 346.189C152.512 346.477 152.896 346.622 153.39 346.622C153.742 346.622 154.057 346.588 154.335 346.522C154.617 346.453 154.907 346.351 155.205 346.219V347.169C154.93 347.298 154.65 347.392 154.365 347.452C154.08 347.512 153.738 347.542 153.341 347.542C152.8 347.542 152.324 347.437 151.913 347.228C151.506 347.016 151.186 346.701 150.954 346.283C150.725 345.866 150.61 345.347 150.61 344.727C150.61 344.11 150.715 343.586 150.924 343.155C151.133 342.724 151.426 342.396 151.804 342.171C152.182 341.945 152.623 341.833 153.127 341.833ZM153.127 342.713C152.759 342.713 152.46 342.832 152.232 343.071C152.006 343.31 151.874 343.659 151.834 344.12H154.34C154.337 343.845 154.29 343.601 154.201 343.389C154.115 343.177 153.982 343.011 153.803 342.892C153.627 342.772 153.402 342.713 153.127 342.713ZM159.671 341.833C160.291 341.833 160.774 341.993 161.118 342.315C161.466 342.633 161.641 343.145 161.641 343.852V347.442H160.472V344.07C160.472 343.643 160.384 343.323 160.208 343.111C160.033 342.895 159.761 342.787 159.393 342.787C158.859 342.787 158.488 342.952 158.279 343.28C158.073 343.608 157.97 344.084 157.97 344.707V347.442H156.802V341.937H157.712L157.876 342.683H157.941C158.06 342.491 158.208 342.333 158.383 342.211C158.562 342.085 158.761 341.99 158.98 341.927C159.202 341.864 159.433 341.833 159.671 341.833ZM164.445 341.937V347.442H163.277V341.937H164.445ZM163.868 339.828C164.047 339.828 164.202 339.877 164.331 339.973C164.464 340.069 164.53 340.235 164.53 340.47C164.53 340.702 164.464 340.868 164.331 340.967C164.202 341.063 164.047 341.112 163.868 341.112C163.683 341.112 163.525 341.063 163.396 340.967C163.27 340.868 163.207 340.702 163.207 340.47C163.207 340.235 163.27 340.069 163.396 339.973C163.525 339.877 163.683 339.828 163.868 339.828ZM168.991 341.833C169.611 341.833 170.093 341.993 170.438 342.315C170.786 342.633 170.96 343.145 170.96 343.852V347.442H169.791V344.07C169.791 343.643 169.703 343.323 169.528 343.111C169.352 342.895 169.08 342.787 168.712 342.787C168.178 342.787 167.807 342.952 167.598 343.28C167.393 343.608 167.29 344.084 167.29 344.707V347.442H166.121V341.937H167.031L167.195 342.683H167.26C167.379 342.491 167.527 342.333 167.703 342.211C167.882 342.085 168.081 341.99 168.299 341.927C168.522 341.864 168.752 341.833 168.991 341.833ZM174.168 349.889C173.422 349.889 172.85 349.755 172.452 349.486C172.054 349.217 171.855 348.841 171.855 348.357C171.855 348.019 171.961 347.732 172.173 347.497C172.386 347.265 172.689 347.104 173.083 347.014C172.934 346.948 172.805 346.845 172.696 346.706C172.589 346.564 172.536 346.406 172.536 346.234C172.536 346.028 172.594 345.852 172.71 345.707C172.826 345.561 173.001 345.42 173.233 345.284C172.944 345.161 172.712 344.962 172.536 344.687C172.364 344.409 172.278 344.082 172.278 343.707C172.278 343.31 172.362 342.971 172.531 342.693C172.7 342.411 172.947 342.197 173.272 342.051C173.597 341.902 173.99 341.828 174.451 341.828C174.55 341.828 174.658 341.834 174.774 341.848C174.894 341.857 175.003 341.871 175.102 341.887C175.205 341.901 175.283 341.915 175.336 341.932H177.241V342.584L176.306 342.758C176.395 342.884 176.467 343.028 176.52 343.19C176.573 343.349 176.599 343.523 176.599 343.712C176.599 344.283 176.402 344.732 176.008 345.06C175.616 345.385 175.076 345.547 174.386 345.547C174.221 345.541 174.06 345.528 173.904 345.508C173.785 345.581 173.693 345.662 173.63 345.751C173.567 345.838 173.536 345.935 173.536 346.045C173.536 346.134 173.567 346.207 173.63 346.264C173.693 346.317 173.786 346.356 173.909 346.383C174.035 346.409 174.187 346.423 174.366 346.423H175.316C175.92 346.423 176.38 346.55 176.699 346.806C177.017 347.061 177.176 347.436 177.176 347.929C177.176 348.556 176.918 349.038 176.4 349.377C175.883 349.718 175.139 349.889 174.168 349.889ZM174.212 349.068C174.62 349.068 174.963 349.029 175.242 348.949C175.52 348.869 175.731 348.755 175.873 348.606C176.016 348.46 176.087 348.286 176.087 348.084C176.087 347.905 176.042 347.767 175.953 347.671C175.863 347.575 175.729 347.508 175.55 347.472C175.371 347.436 175.149 347.417 174.884 347.417H174.018C173.803 347.417 173.612 347.45 173.446 347.517C173.281 347.586 173.151 347.686 173.059 347.815C172.969 347.944 172.924 348.1 172.924 348.283C172.924 348.535 173.035 348.728 173.257 348.864C173.483 349 173.801 349.068 174.212 349.068ZM174.441 344.782C174.783 344.782 175.036 344.689 175.202 344.503C175.368 344.314 175.451 344.049 175.451 343.707C175.451 343.336 175.364 343.058 175.192 342.872C175.023 342.686 174.771 342.593 174.436 342.593C174.108 342.593 173.858 342.688 173.685 342.877C173.516 343.066 173.432 343.346 173.432 343.717C173.432 344.052 173.516 344.314 173.685 344.503C173.858 344.689 174.109 344.782 174.441 344.782Z" fill="#1B3B7C"/>
<rect x="134.34" y="296.188" width="27.1592" height="27.1592" rx="13.5796" transform="rotate(-45 134.34 296.188)" fill="#1B3B7C"/>
<path d="M152.993 296.553C152.993 297.14 152.947 297.664 152.854 298.124C152.765 298.585 152.619 298.976 152.417 299.298C152.218 299.62 151.956 299.865 151.631 300.034C151.306 300.203 150.911 300.288 150.447 300.288C149.864 300.288 149.385 300.14 149.01 299.845C148.635 299.547 148.359 299.119 148.18 298.562C148 298.002 147.911 297.332 147.911 296.553C147.911 295.767 147.992 295.096 148.155 294.539C148.32 293.979 148.589 293.549 148.96 293.251C149.332 292.953 149.827 292.803 150.447 292.803C151.027 292.803 151.505 292.953 151.879 293.251C152.257 293.546 152.538 293.974 152.72 294.534C152.902 295.091 152.993 295.764 152.993 296.553ZM149.438 296.553C149.438 297.107 149.468 297.569 149.527 297.94C149.59 298.308 149.695 298.585 149.84 298.771C149.986 298.957 150.189 299.049 150.447 299.049C150.702 299.049 150.903 298.958 151.049 298.776C151.198 298.59 151.304 298.313 151.367 297.945C151.43 297.574 151.462 297.11 151.462 296.553C151.462 295.999 151.43 295.537 151.367 295.166C151.304 294.794 151.198 294.516 151.049 294.33C150.903 294.141 150.702 294.047 150.447 294.047C150.189 294.047 149.986 294.141 149.84 294.33C149.695 294.516 149.59 294.794 149.527 295.166C149.468 295.537 149.438 295.999 149.438 296.553ZM158.578 294.544C158.578 294.879 158.508 295.169 158.369 295.414C158.23 295.659 158.041 295.86 157.802 296.016C157.567 296.172 157.302 296.286 157.007 296.359V296.389C157.59 296.462 158.033 296.641 158.334 296.926C158.639 297.211 158.792 297.592 158.792 298.07C158.792 298.494 158.687 298.874 158.479 299.209C158.273 299.543 157.955 299.807 157.524 299.999C157.093 300.192 156.537 300.288 155.858 300.288C155.457 300.288 155.082 300.255 154.734 300.188C154.389 300.125 154.064 300.027 153.759 299.895V298.587C154.071 298.746 154.397 298.867 154.739 298.95C155.08 299.03 155.399 299.069 155.694 299.069C156.244 299.069 156.629 298.975 156.847 298.786C157.07 298.594 157.181 298.325 157.181 297.98C157.181 297.778 157.129 297.607 157.026 297.468C156.924 297.329 156.745 297.223 156.489 297.15C156.237 297.077 155.884 297.04 155.43 297.04H154.878V295.862H155.44C155.888 295.862 156.227 295.82 156.46 295.737C156.695 295.651 156.854 295.535 156.937 295.389C157.023 295.24 157.066 295.071 157.066 294.882C157.066 294.623 156.987 294.421 156.828 294.275C156.668 294.129 156.403 294.057 156.032 294.057C155.8 294.057 155.588 294.086 155.395 294.146C155.206 294.202 155.036 294.272 154.883 294.355C154.731 294.434 154.596 294.512 154.48 294.589L153.769 293.529C154.054 293.324 154.387 293.153 154.769 293.017C155.153 292.881 155.611 292.813 156.141 292.813C156.891 292.813 157.484 292.964 157.922 293.266C158.359 293.568 158.578 293.994 158.578 294.544Z" fill="white"/>
</g>
<path d="M192.057 453.938L160.514 423.245C156.976 419.705 151.24 419.705 147.702 423.245L99.6536 471.326C96.1155 474.867 96.1155 480.607 99.6536 484.148L147.702 532.229C151.24 535.77 156.976 535.77 160.514 532.229L192.057 501.253" stroke="#189BFA" stroke-width="1.69745" stroke-linecap="round"/>
<path d="M192.72 500.653L209.214 484.148C212.752 480.607 212.752 474.867 209.214 471.326L192.438 454.539" stroke="#1B3B7C" stroke-width="1.69745" stroke-dasharray="0.57 3.39"/>
<g filter="url(#filter2_d_1386_2570)">
<rect x="99.2656" y="477.737" width="76.951" height="76.951" rx="9.05306" transform="rotate(-45 99.2656 477.737)" fill="white" shape-rendering="crispEdges"/>
<path d="M145.368 481.737H144.18V478.455H140.828V481.737H139.635V474.467H140.828V477.44H144.18V474.467H145.368V481.737ZM148.342 476.232V481.737H147.174V476.232H148.342ZM147.765 474.123C147.944 474.123 148.099 474.171 148.228 474.268C148.36 474.364 148.427 474.53 148.427 474.765C148.427 474.997 148.36 475.163 148.228 475.262C148.099 475.358 147.944 475.406 147.765 475.406C147.58 475.406 147.422 475.358 147.293 475.262C147.167 475.163 147.104 474.997 147.104 474.765C147.104 474.53 147.167 474.364 147.293 474.268C147.422 474.171 147.58 474.123 147.765 474.123ZM152.808 476.128C152.901 476.128 153.002 476.132 153.111 476.142C153.221 476.152 153.315 476.166 153.395 476.182L153.285 477.276C153.216 477.256 153.13 477.241 153.027 477.232C152.927 477.222 152.838 477.217 152.758 477.217C152.549 477.217 152.35 477.251 152.161 477.321C151.972 477.387 151.805 477.49 151.659 477.629C151.513 477.765 151.399 477.936 151.316 478.142C151.233 478.347 151.192 478.586 151.192 478.858V481.737H150.018V476.232H150.933L151.092 477.202H151.147C151.256 477.006 151.392 476.827 151.555 476.665C151.717 476.502 151.903 476.373 152.112 476.277C152.324 476.177 152.556 476.128 152.808 476.128ZM155.583 476.232V481.737H154.414V476.232H155.583ZM155.006 474.123C155.185 474.123 155.339 474.171 155.469 474.268C155.601 474.364 155.667 474.53 155.667 474.765C155.667 474.997 155.601 475.163 155.469 475.262C155.339 475.358 155.185 475.406 155.006 475.406C154.82 475.406 154.663 475.358 154.534 475.262C154.408 475.163 154.345 474.997 154.345 474.765C154.345 474.53 154.408 474.364 154.534 474.268C154.663 474.171 154.82 474.123 155.006 474.123ZM160.128 476.128C160.748 476.128 161.231 476.288 161.575 476.61C161.923 476.928 162.098 477.44 162.098 478.147V481.737H160.929V478.365C160.929 477.938 160.841 477.618 160.665 477.406C160.49 477.19 160.218 477.082 159.85 477.082C159.316 477.082 158.945 477.246 158.736 477.575C158.53 477.903 158.427 478.379 158.427 479.002V481.737H157.259V476.232H158.169L158.333 476.978H158.398C158.517 476.786 158.664 476.628 158.84 476.505C159.019 476.379 159.218 476.285 159.437 476.222C159.659 476.159 159.889 476.128 160.128 476.128ZM165.305 484.184C164.559 484.184 163.987 484.05 163.589 483.781C163.192 483.512 162.993 483.136 162.993 482.652C162.993 482.314 163.099 482.027 163.311 481.792C163.523 481.56 163.826 481.399 164.221 481.309C164.072 481.243 163.942 481.14 163.833 481.001C163.727 480.858 163.674 480.701 163.674 480.529C163.674 480.323 163.732 480.147 163.848 480.001C163.964 479.856 164.138 479.715 164.37 479.579C164.082 479.456 163.85 479.257 163.674 478.982C163.502 478.704 163.415 478.377 163.415 478.002C163.415 477.605 163.5 477.266 163.669 476.988C163.838 476.706 164.085 476.492 164.41 476.346C164.735 476.197 165.128 476.123 165.589 476.123C165.688 476.123 165.796 476.129 165.912 476.142C166.031 476.152 166.141 476.166 166.24 476.182C166.343 476.195 166.421 476.21 166.474 476.227H168.378V476.878L167.443 477.053C167.533 477.178 167.604 477.323 167.657 477.485C167.71 477.644 167.737 477.818 167.737 478.007C167.737 478.578 167.54 479.027 167.145 479.355C166.754 479.68 166.213 479.842 165.524 479.842C165.358 479.836 165.197 479.822 165.042 479.803C164.922 479.876 164.831 479.957 164.768 480.046C164.705 480.132 164.674 480.23 164.674 480.34C164.674 480.429 164.705 480.502 164.768 480.558C164.831 480.612 164.924 480.651 165.046 480.678C165.172 480.704 165.325 480.718 165.504 480.718H166.454C167.057 480.718 167.518 480.845 167.836 481.101C168.155 481.356 168.314 481.73 168.314 482.224C168.314 482.851 168.055 483.333 167.538 483.672C167.021 484.013 166.276 484.184 165.305 484.184ZM165.35 483.363C165.758 483.363 166.101 483.323 166.379 483.244C166.658 483.164 166.868 483.05 167.011 482.901C167.153 482.755 167.225 482.581 167.225 482.379C167.225 482.2 167.18 482.062 167.09 481.966C167.001 481.87 166.867 481.803 166.688 481.767C166.509 481.73 166.286 481.712 166.021 481.712H165.156C164.94 481.712 164.75 481.745 164.584 481.812C164.418 481.881 164.289 481.981 164.196 482.11C164.107 482.239 164.062 482.395 164.062 482.577C164.062 482.829 164.173 483.023 164.395 483.159C164.62 483.295 164.939 483.363 165.35 483.363ZM165.579 479.077C165.92 479.077 166.174 478.984 166.339 478.798C166.505 478.609 166.588 478.344 166.588 478.002C166.588 477.631 166.502 477.353 166.33 477.167C166.16 476.981 165.908 476.888 165.574 476.888C165.245 476.888 164.995 476.983 164.823 477.172C164.654 477.361 164.569 477.641 164.569 478.012C164.569 478.347 164.654 478.609 164.823 478.798C164.995 478.984 165.247 479.077 165.579 479.077Z" fill="#1B3B7C"/>
<rect x="134.344" y="430.483" width="27.1592" height="27.1592" rx="13.5796" transform="rotate(-45 134.344 430.483)" fill="#1B3B7C"/>
<path d="M152.997 430.848C152.997 431.435 152.951 431.959 152.858 432.419C152.769 432.88 152.623 433.271 152.42 433.593C152.221 433.915 151.96 434.16 151.635 434.329C151.31 434.498 150.915 434.583 150.451 434.583C149.868 434.583 149.389 434.435 149.014 434.14C148.639 433.842 148.362 433.414 148.183 432.857C148.004 432.297 147.915 431.627 147.915 430.848C147.915 430.062 147.996 429.391 148.159 428.834C148.324 428.274 148.593 427.844 148.964 427.546C149.335 427.247 149.831 427.098 150.451 427.098C151.031 427.098 151.509 427.247 151.883 427.546C152.261 427.841 152.541 428.269 152.724 428.829C152.906 429.386 152.997 430.059 152.997 430.848ZM149.442 430.848C149.442 431.402 149.471 431.864 149.531 432.235C149.594 432.603 149.699 432.88 149.844 433.066C149.99 433.252 150.193 433.344 150.451 433.344C150.706 433.344 150.907 433.253 151.053 433.071C151.202 432.885 151.308 432.608 151.371 432.24C151.434 431.869 151.466 431.405 151.466 430.848C151.466 430.294 151.434 429.832 151.371 429.46C151.308 429.089 151.202 428.811 151.053 428.625C150.907 428.436 150.706 428.342 150.451 428.342C150.193 428.342 149.99 428.436 149.844 428.625C149.699 428.811 149.594 429.089 149.531 429.46C149.471 429.832 149.442 430.294 149.442 430.848ZM156.429 429.838C156.873 429.838 157.267 429.923 157.612 430.092C157.96 430.261 158.234 430.51 158.433 430.838C158.632 431.166 158.731 431.571 158.731 432.051C158.731 432.575 158.622 433.028 158.403 433.409C158.187 433.787 157.864 434.077 157.433 434.279C157.006 434.481 156.472 434.583 155.832 434.583C155.451 434.583 155.091 434.549 154.753 434.483C154.418 434.42 154.124 434.322 153.873 434.19V432.862C154.124 432.995 154.426 433.107 154.778 433.2C155.132 433.29 155.466 433.334 155.777 433.334C156.082 433.334 156.339 433.295 156.548 433.215C156.757 433.132 156.914 433.006 157.02 432.837C157.13 432.665 157.185 432.446 157.185 432.181C157.185 431.826 157.065 431.554 156.826 431.365C156.588 431.176 156.221 431.082 155.727 431.082C155.538 431.082 155.341 431.1 155.136 431.136C154.933 431.173 154.764 431.209 154.628 431.246L154.017 430.918L154.29 427.213H158.234V428.516H155.638L155.504 429.943C155.616 429.92 155.739 429.896 155.872 429.873C156.004 429.85 156.19 429.838 156.429 429.838Z" fill="white"/>
</g>
<path d="M277.057 255.349L245.514 224.655C241.976 221.115 236.24 221.115 232.702 224.655L184.654 272.737C181.115 276.277 181.115 282.018 184.654 285.558L232.702 333.639C236.24 337.18 241.976 337.18 245.514 333.639L277.057 302.663" stroke="#189BFA" stroke-width="1.69745" stroke-linecap="round"/>
<path d="M277.712 302.063L294.206 285.559C297.744 282.018 297.744 276.277 294.206 272.737L277.43 255.949" stroke="#1B3B7C" stroke-width="1.69745" stroke-dasharray="0.57 3.39"/>
<g filter="url(#filter3_d_1386_2570)">
<rect x="184.266" y="279.147" width="76.951" height="76.951" rx="9.05306" transform="rotate(-45 184.266 279.147)" fill="white" shape-rendering="crispEdges"/>
<path d="M222.332 281.168C222.332 281.599 222.226 281.971 222.013 282.282C221.805 282.594 221.503 282.833 221.108 282.998C220.717 283.164 220.25 283.247 219.706 283.247C219.441 283.247 219.187 283.232 218.945 283.202C218.703 283.172 218.474 283.129 218.259 283.073C218.047 283.013 217.853 282.942 217.677 282.859V281.735C217.972 281.864 218.302 281.982 218.667 282.088C219.031 282.191 219.403 282.242 219.781 282.242C220.089 282.242 220.344 282.203 220.546 282.123C220.752 282.04 220.904 281.924 221.004 281.775C221.103 281.622 221.153 281.445 221.153 281.243C221.153 281.027 221.095 280.845 220.979 280.696C220.863 280.547 220.687 280.411 220.452 280.288C220.22 280.162 219.928 280.028 219.577 279.885C219.338 279.789 219.109 279.68 218.89 279.557C218.675 279.434 218.483 279.29 218.314 279.124C218.144 278.959 218.01 278.763 217.911 278.537C217.815 278.309 217.767 278.04 217.767 277.732C217.767 277.321 217.864 276.969 218.06 276.678C218.259 276.386 218.537 276.162 218.895 276.006C219.257 275.85 219.678 275.773 220.159 275.773C220.54 275.773 220.898 275.812 221.233 275.892C221.571 275.971 221.902 276.084 222.227 276.23L221.849 277.19C221.551 277.067 221.261 276.969 220.979 276.896C220.701 276.823 220.415 276.787 220.124 276.787C219.872 276.787 219.658 276.825 219.482 276.901C219.306 276.978 219.172 277.085 219.079 277.225C218.99 277.361 218.945 277.523 218.945 277.712C218.945 277.924 218.996 278.103 219.099 278.249C219.205 278.392 219.368 278.523 219.587 278.642C219.809 278.761 220.094 278.894 220.442 279.04C220.843 279.206 221.183 279.38 221.461 279.562C221.743 279.744 221.959 279.963 222.108 280.218C222.257 280.47 222.332 280.787 222.332 281.168ZM228.488 280.382C228.488 280.84 228.429 281.246 228.309 281.601C228.19 281.956 228.016 282.256 227.787 282.501C227.558 282.743 227.283 282.929 226.962 283.058C226.64 283.184 226.277 283.247 225.872 283.247C225.495 283.247 225.148 283.184 224.833 283.058C224.518 282.929 224.245 282.743 224.013 282.501C223.784 282.256 223.606 281.956 223.48 281.601C223.354 281.246 223.291 280.84 223.291 280.382C223.291 279.776 223.396 279.262 223.605 278.841C223.817 278.416 224.119 278.093 224.51 277.871C224.901 277.649 225.367 277.538 225.907 277.538C226.415 277.538 226.862 277.649 227.25 277.871C227.638 278.093 227.941 278.416 228.16 278.841C228.379 279.265 228.488 279.779 228.488 280.382ZM224.495 280.382C224.495 280.784 224.543 281.127 224.639 281.412C224.739 281.697 224.891 281.916 225.097 282.068C225.302 282.218 225.567 282.292 225.892 282.292C226.217 282.292 226.482 282.218 226.688 282.068C226.894 281.916 227.044 281.697 227.141 281.412C227.237 281.127 227.285 280.784 227.285 280.382C227.285 279.981 227.237 279.642 227.141 279.363C227.044 279.081 226.894 278.867 226.688 278.721C226.482 278.572 226.216 278.498 225.887 278.498C225.403 278.498 225.05 278.66 224.828 278.985C224.606 279.31 224.495 279.776 224.495 280.382ZM234.63 277.642V283.147H233.71L233.551 282.406H233.486C233.37 282.595 233.223 282.753 233.044 282.879C232.865 283.002 232.666 283.093 232.447 283.152C232.228 283.215 231.998 283.247 231.756 283.247C231.341 283.247 230.986 283.177 230.691 283.038C230.4 282.895 230.176 282.677 230.02 282.382C229.864 282.087 229.786 281.705 229.786 281.238V277.642H230.96V281.019C230.96 281.447 231.046 281.767 231.218 281.979C231.394 282.191 231.666 282.297 232.034 282.297C232.389 282.297 232.671 282.224 232.879 282.078C233.088 281.932 233.236 281.717 233.322 281.432C233.412 281.147 233.456 280.797 233.456 280.382V277.642H234.63ZM239.096 277.538C239.188 277.538 239.29 277.543 239.399 277.553C239.508 277.563 239.603 277.576 239.682 277.593L239.573 278.687C239.503 278.667 239.417 278.652 239.314 278.642C239.215 278.632 239.126 278.627 239.046 278.627C238.837 278.627 238.638 278.662 238.449 278.731C238.26 278.798 238.093 278.901 237.947 279.04C237.801 279.176 237.687 279.346 237.604 279.552C237.521 279.758 237.479 279.996 237.479 280.268V283.147H236.306V277.642H237.221L237.38 278.612H237.435C237.544 278.416 237.68 278.237 237.842 278.075C238.005 277.913 238.191 277.783 238.399 277.687C238.612 277.588 238.844 277.538 239.096 277.538ZM242.92 283.247C242.399 283.247 241.949 283.146 241.567 282.944C241.186 282.741 240.893 282.431 240.687 282.014C240.481 281.596 240.379 281.065 240.379 280.422C240.379 279.753 240.491 279.206 240.717 278.781C240.942 278.357 241.254 278.044 241.652 277.841C242.053 277.639 242.512 277.538 243.029 277.538C243.358 277.538 243.654 277.571 243.919 277.637C244.188 277.7 244.415 277.778 244.601 277.871L244.253 278.806C244.05 278.723 243.843 278.654 243.631 278.597C243.419 278.541 243.215 278.513 243.019 278.513C242.698 278.513 242.429 278.584 242.214 278.726C242.002 278.869 241.842 279.081 241.736 279.363C241.634 279.645 241.582 279.995 241.582 280.412C241.582 280.817 241.635 281.158 241.741 281.437C241.847 281.712 242.005 281.921 242.214 282.063C242.423 282.203 242.68 282.272 242.985 282.272C243.286 282.272 243.556 282.236 243.795 282.163C244.034 282.09 244.259 281.995 244.471 281.879V282.894C244.263 283.013 244.039 283.101 243.8 283.157C243.561 283.217 243.268 283.247 242.92 283.247ZM246.933 277.642V283.147H245.764V277.642H246.933ZM246.356 275.534C246.535 275.534 246.689 275.582 246.819 275.678C246.951 275.774 247.018 275.94 247.018 276.175C247.018 276.407 246.951 276.573 246.819 276.673C246.689 276.769 246.535 276.817 246.356 276.817C246.171 276.817 246.013 276.769 245.884 276.673C245.758 276.573 245.695 276.407 245.695 276.175C245.695 275.94 245.758 275.774 245.884 275.678C246.013 275.582 246.171 275.534 246.356 275.534ZM251.478 277.538C252.098 277.538 252.581 277.699 252.926 278.02C253.274 278.339 253.448 278.851 253.448 279.557V283.147H252.279V279.776C252.279 279.348 252.191 279.028 252.015 278.816C251.84 278.6 251.568 278.493 251.2 278.493C250.666 278.493 250.295 278.657 250.086 278.985C249.88 279.313 249.778 279.789 249.778 280.412V283.147H248.609V277.642H249.519L249.683 278.388H249.748C249.867 278.196 250.015 278.039 250.19 277.916C250.369 277.79 250.568 277.695 250.787 277.632C251.009 277.569 251.24 277.538 251.478 277.538ZM256.655 285.594C255.909 285.594 255.337 285.46 254.94 285.191C254.542 284.923 254.343 284.547 254.343 284.062C254.343 283.724 254.449 283.438 254.661 283.202C254.873 282.97 255.177 282.809 255.571 282.72C255.422 282.653 255.293 282.551 255.183 282.411C255.077 282.269 255.024 282.111 255.024 281.939C255.024 281.733 255.082 281.558 255.198 281.412C255.314 281.266 255.488 281.125 255.72 280.989C255.432 280.867 255.2 280.668 255.024 280.392C254.852 280.114 254.766 279.787 254.766 279.413C254.766 279.015 254.85 278.677 255.019 278.398C255.188 278.116 255.435 277.903 255.76 277.757C256.085 277.608 256.478 277.533 256.939 277.533C257.038 277.533 257.146 277.54 257.262 277.553C257.381 277.563 257.491 277.576 257.59 277.593C257.693 277.606 257.771 277.621 257.824 277.637H259.729V278.289L258.794 278.463C258.883 278.589 258.954 278.733 259.008 278.896C259.061 279.055 259.087 279.229 259.087 279.418C259.087 279.988 258.89 280.437 258.495 280.765C258.104 281.09 257.564 281.253 256.874 281.253C256.708 281.246 256.548 281.233 256.392 281.213C256.272 281.286 256.181 281.367 256.118 281.457C256.055 281.543 256.024 281.641 256.024 281.75C256.024 281.84 256.055 281.913 256.118 281.969C256.181 282.022 256.274 282.062 256.397 282.088C256.523 282.115 256.675 282.128 256.854 282.128H257.804C258.407 282.128 258.868 282.256 259.187 282.511C259.505 282.766 259.664 283.141 259.664 283.635C259.664 284.261 259.405 284.744 258.888 285.082C258.371 285.423 257.627 285.594 256.655 285.594ZM256.7 284.774C257.108 284.774 257.451 284.734 257.729 284.654C258.008 284.575 258.218 284.46 258.361 284.311C258.504 284.165 258.575 283.991 258.575 283.789C258.575 283.61 258.53 283.472 258.441 283.376C258.351 283.28 258.217 283.214 258.038 283.177C257.859 283.141 257.637 283.123 257.371 283.123H256.506C256.291 283.123 256.1 283.156 255.934 283.222C255.768 283.292 255.639 283.391 255.546 283.52C255.457 283.65 255.412 283.806 255.412 283.988C255.412 284.24 255.523 284.434 255.745 284.57C255.971 284.706 256.289 284.774 256.7 284.774ZM256.929 280.487C257.27 280.487 257.524 280.394 257.69 280.208C257.855 280.019 257.938 279.754 257.938 279.413C257.938 279.041 257.852 278.763 257.68 278.577C257.511 278.392 257.259 278.299 256.924 278.299C256.596 278.299 256.345 278.393 256.173 278.582C256.004 278.771 255.919 279.051 255.919 279.423C255.919 279.758 256.004 280.019 256.173 280.208C256.345 280.394 256.597 280.487 256.929 280.487Z" fill="#1B3B7C"/>
<rect x="219.344" y="231.893" width="27.1592" height="27.1592" rx="13.5796" transform="rotate(-45 219.344 231.893)" fill="#1B3B7C"/>
<path d="M237.997 232.258C237.997 232.845 237.951 233.369 237.858 233.83C237.769 234.29 237.623 234.682 237.42 235.003C237.221 235.325 236.96 235.57 236.635 235.739C236.31 235.908 235.915 235.993 235.451 235.993C234.868 235.993 234.389 235.845 234.014 235.55C233.639 235.252 233.362 234.824 233.183 234.267C233.004 233.707 232.915 233.037 232.915 232.258C232.915 231.472 232.996 230.801 233.159 230.244C233.324 229.684 233.593 229.254 233.964 228.956C234.335 228.658 234.831 228.508 235.451 228.508C236.031 228.508 236.509 228.658 236.883 228.956C237.261 229.251 237.541 229.679 237.724 230.239C237.906 230.796 237.997 231.469 237.997 232.258ZM234.442 232.258C234.442 232.812 234.471 233.274 234.531 233.646C234.594 234.014 234.699 234.29 234.844 234.476C234.99 234.662 235.193 234.754 235.451 234.754C235.706 234.754 235.907 234.663 236.053 234.481C236.202 234.295 236.308 234.018 236.371 233.65C236.434 233.279 236.466 232.815 236.466 232.258C236.466 231.704 236.434 231.242 236.371 230.871C236.308 230.499 236.202 230.221 236.053 230.035C235.907 229.846 235.706 229.752 235.451 229.752C235.193 229.752 234.99 229.846 234.844 230.035C234.699 230.221 234.594 230.499 234.531 230.871C234.471 231.242 234.442 231.704 234.442 232.258ZM243.865 235.893H238.783V234.824L240.608 232.979C240.976 232.601 241.271 232.286 241.493 232.034C241.719 231.779 241.881 231.547 241.981 231.338C242.083 231.129 242.135 230.905 242.135 230.667C242.135 230.378 242.054 230.163 241.891 230.02C241.732 229.874 241.518 229.801 241.25 229.801C240.968 229.801 240.694 229.866 240.429 229.995C240.164 230.125 239.887 230.309 239.599 230.547L238.763 229.558C238.972 229.379 239.192 229.21 239.425 229.05C239.66 228.891 239.932 228.764 240.24 228.668C240.552 228.568 240.925 228.518 241.359 228.518C241.836 228.518 242.246 228.605 242.587 228.777C242.932 228.949 243.197 229.185 243.383 229.483C243.569 229.778 243.662 230.113 243.662 230.488C243.662 230.889 243.582 231.255 243.423 231.587C243.264 231.918 243.032 232.246 242.727 232.571C242.425 232.896 242.06 233.256 241.633 233.65L240.698 234.531V234.6H243.865V235.893Z" fill="white"/>
</g>
<path d="M277.057 389.644L245.514 358.95C241.976 355.41 236.24 355.41 232.702 358.95L184.654 407.032C181.115 410.572 181.115 416.313 184.654 419.853L232.702 467.934C236.24 471.475 241.976 471.475 245.514 467.934L277.057 436.958" stroke="#189BFA" stroke-width="1.69745" stroke-linecap="round"/>
<path d="M277.712 436.358L294.206 419.853C297.744 416.313 297.744 410.572 294.206 407.032L277.43 390.244" stroke="#1B3B7C" stroke-width="1.69745" stroke-dasharray="0.57 3.39"/>
<g filter="url(#filter4_d_1386_2570)">
<rect x="184.27" y="413.442" width="76.951" height="76.951" rx="9.05306" transform="rotate(-45 184.27 413.442)" fill="white" shape-rendering="crispEdges"/>
<path d="M221.336 415.463C221.336 415.894 221.23 416.265 221.017 416.577C220.808 416.889 220.507 417.127 220.112 417.293C219.721 417.459 219.254 417.542 218.71 417.542C218.445 417.542 218.191 417.527 217.949 417.497C217.707 417.467 217.478 417.424 217.263 417.368C217.051 417.308 216.857 417.237 216.681 417.154V416.03C216.976 416.159 217.306 416.277 217.671 416.383C218.035 416.486 218.407 416.537 218.784 416.537C219.093 416.537 219.348 416.498 219.55 416.418C219.756 416.335 219.908 416.219 220.008 416.07C220.107 415.917 220.157 415.74 220.157 415.538C220.157 415.322 220.099 415.14 219.983 414.991C219.867 414.842 219.691 414.706 219.456 414.583C219.224 414.457 218.932 414.323 218.581 414.18C218.342 414.084 218.113 413.975 217.894 413.852C217.679 413.729 217.487 413.585 217.317 413.419C217.148 413.253 217.014 413.058 216.915 412.832C216.818 412.604 216.77 412.335 216.77 412.027C216.77 411.616 216.868 411.264 217.064 410.973C217.263 410.681 217.541 410.457 217.899 410.301C218.261 410.145 218.682 410.067 219.162 410.067C219.544 410.067 219.902 410.107 220.237 410.187C220.575 410.266 220.906 410.379 221.231 410.525L220.853 411.485C220.555 411.362 220.265 411.264 219.983 411.191C219.704 411.118 219.419 411.082 219.128 411.082C218.876 411.082 218.662 411.12 218.486 411.196C218.31 411.273 218.176 411.38 218.083 411.52C217.994 411.655 217.949 411.818 217.949 412.007C217.949 412.219 218 412.398 218.103 412.544C218.209 412.687 218.372 412.817 218.591 412.937C218.813 413.056 219.098 413.189 219.446 413.335C219.847 413.5 220.187 413.675 220.465 413.857C220.747 414.039 220.963 414.258 221.112 414.513C221.261 414.765 221.336 415.082 221.336 415.463ZM224.812 411.833C225.302 411.833 225.723 411.934 226.075 412.136C226.426 412.338 226.696 412.625 226.885 412.997C227.074 413.368 227.169 413.812 227.169 414.329V414.956H223.494C223.507 415.49 223.65 415.901 223.922 416.189C224.197 416.478 224.581 416.622 225.075 416.622C225.427 416.622 225.742 416.589 226.02 416.522C226.302 416.453 226.592 416.352 226.89 416.219V417.169C226.615 417.298 226.335 417.393 226.05 417.452C225.765 417.512 225.423 417.542 225.026 417.542C224.485 417.542 224.009 417.437 223.598 417.229C223.191 417.016 222.871 416.701 222.639 416.284C222.41 415.866 222.295 415.347 222.295 414.727C222.295 414.11 222.4 413.587 222.609 413.156C222.818 412.725 223.111 412.396 223.489 412.171C223.867 411.946 224.308 411.833 224.812 411.833ZM224.812 412.713C224.444 412.713 224.145 412.832 223.917 413.071C223.691 413.31 223.559 413.66 223.519 414.12H226.025C226.022 413.845 225.975 413.602 225.886 413.389C225.8 413.177 225.667 413.011 225.488 412.892C225.312 412.773 225.087 412.713 224.812 412.713ZM229.66 417.442H228.487V409.704H229.66V417.442ZM233.524 411.833C234.015 411.833 234.436 411.934 234.788 412.136C235.139 412.338 235.409 412.625 235.598 412.997C235.787 413.368 235.882 413.812 235.882 414.329V414.956H232.207C232.22 415.49 232.362 415.901 232.634 416.189C232.909 416.478 233.294 416.622 233.788 416.622C234.139 416.622 234.454 416.589 234.733 416.522C235.015 416.453 235.305 416.352 235.603 416.219V417.169C235.328 417.298 235.048 417.393 234.763 417.452C234.478 417.512 234.136 417.542 233.738 417.542C233.198 417.542 232.722 417.437 232.311 417.229C231.903 417.016 231.583 416.701 231.351 416.284C231.122 415.866 231.008 415.347 231.008 414.727C231.008 414.11 231.113 413.587 231.321 413.156C231.53 412.725 231.824 412.396 232.202 412.171C232.58 411.946 233.02 411.833 233.524 411.833ZM233.524 412.713C233.156 412.713 232.858 412.832 232.629 413.071C232.404 413.31 232.271 413.66 232.231 414.12H234.738C234.735 413.845 234.688 413.602 234.599 413.389C234.512 413.177 234.38 413.011 234.201 412.892C234.025 412.773 233.8 412.713 233.524 412.713ZM239.417 417.542C238.897 417.542 238.446 417.441 238.065 417.238C237.683 417.036 237.39 416.726 237.185 416.309C236.979 415.891 236.876 415.36 236.876 414.717C236.876 414.047 236.989 413.5 237.214 413.076C237.44 412.652 237.751 412.338 238.149 412.136C238.55 411.934 239.01 411.833 239.527 411.833C239.855 411.833 240.152 411.866 240.417 411.932C240.686 411.995 240.913 412.073 241.098 412.166L240.75 413.101C240.548 413.018 240.341 412.948 240.129 412.892C239.916 412.836 239.712 412.808 239.517 412.808C239.195 412.808 238.927 412.879 238.711 413.021C238.499 413.164 238.34 413.376 238.234 413.658C238.131 413.94 238.08 414.29 238.08 414.707C238.08 415.112 238.133 415.453 238.239 415.732C238.345 416.007 238.502 416.216 238.711 416.358C238.92 416.498 239.177 416.567 239.482 416.567C239.784 416.567 240.054 416.531 240.293 416.458C240.531 416.385 240.757 416.29 240.969 416.174V417.189C240.76 417.308 240.536 417.396 240.298 417.452C240.059 417.512 239.766 417.542 239.417 417.542ZM244.311 416.597C244.463 416.597 244.614 416.584 244.763 416.557C244.913 416.527 245.048 416.493 245.171 416.453V417.338C245.042 417.394 244.874 417.442 244.669 417.482C244.463 417.522 244.25 417.542 244.027 417.542C243.716 417.542 243.436 417.49 243.187 417.388C242.938 417.282 242.741 417.101 242.595 416.846C242.449 416.59 242.376 416.237 242.376 415.786V412.827H241.625V412.305L242.431 411.893L242.814 410.714H243.55V411.937H245.126V412.827H243.55V415.771C243.55 416.05 243.62 416.257 243.759 416.393C243.898 416.529 244.082 416.597 244.311 416.597ZM247.459 411.937V417.442H246.29V411.937H247.459ZM246.882 409.829C247.061 409.829 247.215 409.877 247.344 409.973C247.477 410.069 247.543 410.235 247.543 410.47C247.543 410.702 247.477 410.868 247.344 410.968C247.215 411.064 247.061 411.112 246.882 411.112C246.696 411.112 246.539 411.064 246.409 410.968C246.283 410.868 246.22 410.702 246.22 410.47C246.22 410.235 246.283 410.069 246.409 409.973C246.539 409.877 246.696 409.829 246.882 409.829ZM252.004 411.833C252.624 411.833 253.106 411.994 253.451 412.315C253.799 412.633 253.973 413.146 253.973 413.852V417.442H252.805V414.071C252.805 413.643 252.717 413.323 252.541 413.111C252.365 412.895 252.094 412.788 251.726 412.788C251.192 412.788 250.82 412.952 250.612 413.28C250.406 413.608 250.303 414.084 250.303 414.707V417.442H249.135V411.937H250.045L250.209 412.683H250.273C250.393 412.491 250.54 412.333 250.716 412.211C250.895 412.085 251.094 411.99 251.313 411.927C251.535 411.864 251.765 411.833 252.004 411.833ZM257.181 419.889C256.435 419.889 255.863 419.755 255.465 419.486C255.067 419.218 254.869 418.841 254.869 418.357C254.869 418.019 254.975 417.732 255.187 417.497C255.399 417.265 255.702 417.104 256.097 417.015C255.948 416.948 255.818 416.846 255.709 416.706C255.603 416.564 255.55 416.406 255.55 416.234C255.55 416.028 255.608 415.853 255.724 415.707C255.84 415.561 256.014 415.42 256.246 415.284C255.958 415.161 255.726 414.963 255.55 414.687C255.377 414.409 255.291 414.082 255.291 413.708C255.291 413.31 255.376 412.972 255.545 412.693C255.714 412.411 255.961 412.198 256.286 412.052C256.611 411.902 257.004 411.828 257.464 411.828C257.564 411.828 257.672 411.835 257.788 411.848C257.907 411.858 258.016 411.871 258.116 411.888C258.219 411.901 258.297 411.916 258.35 411.932H260.254V412.584L259.319 412.758C259.409 412.884 259.48 413.028 259.533 413.19C259.586 413.35 259.613 413.524 259.613 413.713C259.613 414.283 259.415 414.732 259.021 415.06C258.63 415.385 258.089 415.548 257.4 415.548C257.234 415.541 257.073 415.528 256.917 415.508C256.798 415.581 256.707 415.662 256.644 415.752C256.581 415.838 256.549 415.936 256.549 416.045C256.549 416.134 256.581 416.207 256.644 416.264C256.707 416.317 256.8 416.357 256.922 416.383C257.048 416.41 257.201 416.423 257.38 416.423H258.33C258.933 416.423 259.394 416.551 259.712 416.806C260.03 417.061 260.19 417.436 260.19 417.93C260.19 418.556 259.931 419.039 259.414 419.377C258.897 419.718 258.152 419.889 257.181 419.889ZM257.226 419.069C257.633 419.069 257.977 419.029 258.255 418.949C258.534 418.87 258.744 418.755 258.887 418.606C259.029 418.46 259.101 418.286 259.101 418.084C259.101 417.905 259.056 417.767 258.966 417.671C258.877 417.575 258.742 417.509 258.563 417.472C258.384 417.436 258.162 417.418 257.897 417.418H257.032C256.816 417.418 256.626 417.451 256.46 417.517C256.294 417.587 256.165 417.686 256.072 417.815C255.982 417.945 255.938 418.1 255.938 418.283C255.938 418.535 256.049 418.729 256.271 418.865C256.496 419.001 256.815 419.069 257.226 419.069ZM257.454 414.782C257.796 414.782 258.05 414.689 258.215 414.503C258.381 414.314 258.464 414.049 258.464 413.708C258.464 413.336 258.378 413.058 258.205 412.872C258.036 412.687 257.784 412.594 257.449 412.594C257.121 412.594 256.871 412.688 256.699 412.877C256.529 413.066 256.445 413.346 256.445 413.718C256.445 414.052 256.529 414.314 256.699 414.503C256.871 414.689 257.123 414.782 257.454 414.782Z" fill="#1B3B7C"/>
<rect x="219.344" y="366.188" width="27.1592" height="27.1592" rx="13.5796" transform="rotate(-45 219.344 366.188)" fill="#1B3B7C"/>
<path d="M237.997 366.553C237.997 367.14 237.951 367.664 237.858 368.124C237.769 368.585 237.623 368.976 237.42 369.298C237.221 369.62 236.96 369.865 236.635 370.034C236.31 370.203 235.915 370.288 235.451 370.288C234.868 370.288 234.389 370.14 234.014 369.845C233.639 369.547 233.362 369.119 233.183 368.562C233.004 368.002 232.915 367.332 232.915 366.553C232.915 365.767 232.996 365.096 233.159 364.539C233.324 363.979 233.593 363.549 233.964 363.251C234.335 362.953 234.831 362.803 235.451 362.803C236.031 362.803 236.509 362.953 236.883 363.251C237.261 363.546 237.541 363.974 237.724 364.534C237.906 365.091 237.997 365.764 237.997 366.553ZM234.442 366.553C234.442 367.107 234.471 367.569 234.531 367.94C234.594 368.308 234.699 368.585 234.844 368.771C234.99 368.957 235.193 369.049 235.451 369.049C235.706 369.049 235.907 368.958 236.053 368.776C236.202 368.59 236.308 368.313 236.371 367.945C236.434 367.574 236.466 367.11 236.466 366.553C236.466 365.999 236.434 365.537 236.371 365.166C236.308 364.794 236.202 364.516 236.053 364.33C235.907 364.141 235.706 364.047 235.451 364.047C235.193 364.047 234.99 364.141 234.844 364.33C234.699 364.516 234.594 364.794 234.531 365.166C234.471 365.537 234.442 365.999 234.442 366.553ZM244.03 368.681H243.154V370.188H241.652V368.681H238.549V367.612L241.737 362.918H243.154V367.488H244.03V368.681ZM241.652 367.488V366.255C241.652 366.139 241.654 366.001 241.657 365.842C241.664 365.683 241.671 365.524 241.677 365.364C241.684 365.205 241.691 365.064 241.697 364.942C241.707 364.816 241.714 364.728 241.717 364.678H241.677C241.614 364.814 241.548 364.947 241.478 365.076C241.409 365.202 241.328 365.335 241.235 365.474L239.902 367.488H241.652Z" fill="white"/>
</g>
<path d="M277.057 523.938L245.514 493.245C241.976 489.705 236.24 489.705 232.702 493.245L184.654 541.326C181.115 544.867 181.115 550.607 184.654 554.148L232.702 602.229C236.24 605.77 241.976 605.77 245.514 602.229L277.057 571.253" stroke="#189BFA" stroke-width="1.69745" stroke-linecap="round"/>
<path d="M277.716 570.653L294.21 554.148C297.748 550.608 297.748 544.867 294.21 541.327L277.434 524.539" stroke="#1B3B7C" stroke-width="1.69745" stroke-dasharray="0.57 3.39"/>
<g filter="url(#filter5_d_1386_2570)">
<rect x="184.266" y="547.737" width="76.951" height="76.951" rx="9.05306" transform="rotate(-45 184.266 547.737)" fill="white" shape-rendering="crispEdges"/>
<path d="M216.589 548.092C216.589 548.652 216.518 549.163 216.376 549.624C216.236 550.081 216.026 550.476 215.744 550.807C215.462 551.136 215.109 551.389 214.685 551.568C214.26 551.747 213.763 551.837 213.193 551.837C212.613 551.837 212.109 551.747 211.681 551.568C211.257 551.389 210.904 551.134 210.622 550.802C210.343 550.471 210.135 550.075 209.995 549.614C209.856 549.153 209.786 548.642 209.786 548.082C209.786 547.333 209.909 546.68 210.154 546.123C210.403 545.563 210.779 545.128 211.283 544.82C211.791 544.508 212.43 544.352 213.203 544.352C213.959 544.352 214.587 544.507 215.088 544.815C215.588 545.123 215.963 545.558 216.211 546.118C216.463 546.675 216.589 547.333 216.589 548.092ZM211.04 548.092C211.04 548.652 211.116 549.138 211.268 549.549C211.421 549.957 211.655 550.272 211.97 550.494C212.288 550.713 212.696 550.822 213.193 550.822C213.694 550.822 214.101 550.713 214.416 550.494C214.731 550.272 214.963 549.957 215.112 549.549C215.262 549.138 215.336 548.652 215.336 548.092C215.336 547.24 215.166 546.574 214.824 546.093C214.486 545.609 213.945 545.367 213.203 545.367C212.706 545.367 212.296 545.476 211.975 545.695C211.656 545.914 211.421 546.227 211.268 546.635C211.116 547.039 211.04 547.525 211.04 548.092ZM220.901 546.128C221.521 546.128 222.003 546.289 222.348 546.61C222.696 546.928 222.87 547.441 222.87 548.147V551.737H221.702V548.366C221.702 547.938 221.614 547.618 221.438 547.406C221.262 547.19 220.991 547.083 220.623 547.083C220.089 547.083 219.717 547.247 219.509 547.575C219.303 547.903 219.2 548.379 219.2 549.002V551.737H218.032V546.232H218.942L219.106 546.978H219.17C219.29 546.786 219.437 546.628 219.613 546.506C219.792 546.38 219.991 546.285 220.21 546.222C220.432 546.159 220.662 546.128 220.901 546.128ZM225.675 543.999V545.864C225.675 546.08 225.668 546.292 225.655 546.501C225.645 546.706 225.635 546.867 225.625 546.983H225.675C225.824 546.744 226.032 546.544 226.297 546.381C226.565 546.216 226.908 546.133 227.326 546.133C227.979 546.133 228.505 546.373 228.903 546.854C229.3 547.331 229.499 548.039 229.499 548.977C229.499 549.601 229.408 550.124 229.226 550.549C229.043 550.973 228.787 551.295 228.455 551.514C228.127 551.729 227.741 551.837 227.296 551.837C226.879 551.837 226.54 551.761 226.282 551.608C226.027 551.452 225.826 551.272 225.68 551.066H225.596L225.382 551.737H224.506V543.999H225.675ZM227.018 547.083C226.686 547.083 226.423 547.149 226.227 547.282C226.035 547.414 225.896 547.613 225.809 547.878C225.723 548.14 225.678 548.473 225.675 548.878V548.982C225.675 549.596 225.771 550.065 225.964 550.39C226.159 550.715 226.514 550.877 227.028 550.877C227.436 550.877 227.749 550.713 227.968 550.385C228.186 550.053 228.296 549.579 228.296 548.962C228.296 548.339 228.186 547.87 227.968 547.555C227.752 547.24 227.436 547.083 227.018 547.083ZM235.726 548.972C235.726 549.43 235.666 549.836 235.546 550.191C235.427 550.545 235.253 550.845 235.024 551.091C234.796 551.333 234.52 551.518 234.199 551.648C233.877 551.774 233.514 551.837 233.11 551.837C232.732 551.837 232.385 551.774 232.07 551.648C231.755 551.518 231.482 551.333 231.25 551.091C231.021 550.845 230.844 550.545 230.718 550.191C230.592 549.836 230.529 549.43 230.529 548.972C230.529 548.366 230.633 547.852 230.842 547.431C231.054 547.006 231.356 546.683 231.747 546.461C232.138 546.239 232.604 546.128 233.145 546.128C233.652 546.128 234.099 546.239 234.487 546.461C234.875 546.683 235.178 547.006 235.397 547.431C235.616 547.855 235.726 548.369 235.726 548.972ZM231.732 548.972C231.732 549.373 231.78 549.717 231.876 550.002C231.976 550.287 232.128 550.506 232.334 550.658C232.539 550.807 232.805 550.882 233.13 550.882C233.455 550.882 233.72 550.807 233.925 550.658C234.131 550.506 234.282 550.287 234.378 550.002C234.474 549.717 234.522 549.373 234.522 548.972C234.522 548.571 234.474 548.231 234.378 547.953C234.282 547.671 234.131 547.457 233.925 547.311C233.72 547.162 233.453 547.088 233.125 547.088C232.641 547.088 232.288 547.25 232.065 547.575C231.843 547.9 231.732 548.366 231.732 548.972ZM239.227 546.128C239.923 546.128 240.448 546.282 240.803 546.59C241.161 546.899 241.34 547.379 241.34 548.032V551.737H240.51L240.286 550.957H240.246C240.09 551.155 239.929 551.32 239.764 551.449C239.598 551.578 239.406 551.674 239.187 551.737C238.971 551.804 238.708 551.837 238.396 551.837C238.068 551.837 237.774 551.777 237.516 551.658C237.257 551.535 237.053 551.349 236.904 551.101C236.755 550.852 236.68 550.537 236.68 550.156C236.68 549.589 236.891 549.163 237.312 548.878C237.736 548.593 238.376 548.435 239.231 548.405L240.186 548.371V548.082C240.186 547.701 240.097 547.429 239.918 547.267C239.742 547.104 239.493 547.023 239.172 547.023C238.897 547.023 238.63 547.063 238.371 547.142C238.113 547.222 237.861 547.32 237.615 547.436L237.237 546.61C237.506 546.468 237.811 546.352 238.152 546.262C238.497 546.173 238.855 546.128 239.227 546.128ZM240.181 549.107L239.47 549.131C238.887 549.151 238.477 549.251 238.242 549.43C238.006 549.609 237.889 549.854 237.889 550.166C237.889 550.438 237.97 550.637 238.132 550.763C238.295 550.885 238.509 550.947 238.774 550.947C239.178 550.947 239.513 550.832 239.779 550.603C240.047 550.371 240.181 550.032 240.181 549.584V549.107ZM245.766 546.128C245.859 546.128 245.96 546.133 246.069 546.143C246.179 546.153 246.273 546.166 246.353 546.182L246.243 547.277C246.174 547.257 246.088 547.242 245.985 547.232C245.885 547.222 245.796 547.217 245.716 547.217C245.507 547.217 245.308 547.252 245.12 547.321C244.931 547.388 244.763 547.49 244.617 547.63C244.471 547.766 244.357 547.936 244.274 548.142C244.191 548.347 244.15 548.586 244.15 548.858V551.737H242.976V546.232H243.891L244.05 547.202H244.105C244.214 547.006 244.35 546.827 244.513 546.665C244.675 546.502 244.861 546.373 245.07 546.277C245.282 546.177 245.514 546.128 245.766 546.128ZM249.222 551.837C248.566 551.837 248.039 551.598 247.641 551.121C247.246 550.64 247.049 549.932 247.049 548.997C247.049 548.052 247.25 547.338 247.651 546.854C248.055 546.37 248.587 546.128 249.247 546.128C249.526 546.128 249.769 546.166 249.978 546.242C250.187 546.315 250.366 546.415 250.515 546.541C250.668 546.667 250.797 546.807 250.903 546.963H250.958C250.941 546.86 250.921 546.713 250.898 546.521C250.878 546.325 250.868 546.144 250.868 545.979V543.999H252.042V551.737H251.127L250.918 550.986H250.868C250.769 551.146 250.643 551.29 250.49 551.419C250.341 551.545 250.162 551.646 249.953 551.722C249.748 551.799 249.504 551.837 249.222 551.837ZM249.55 550.887C250.051 550.887 250.404 550.743 250.61 550.454C250.815 550.166 250.921 549.733 250.928 549.156V549.002C250.928 548.386 250.828 547.913 250.63 547.585C250.431 547.253 250.068 547.088 249.54 547.088C249.119 547.088 248.798 547.258 248.576 547.6C248.357 547.938 248.248 548.41 248.248 549.017C248.248 549.624 248.357 550.088 248.576 550.41C248.798 550.728 249.123 550.887 249.55 550.887ZM254.886 546.232V551.737H253.718V546.232H254.886ZM254.31 544.124C254.489 544.124 254.643 544.172 254.772 544.268C254.905 544.364 254.971 544.53 254.971 544.765C254.971 544.997 254.905 545.163 254.772 545.262C254.643 545.359 254.489 545.407 254.31 545.407C254.124 545.407 253.966 545.359 253.837 545.262C253.711 545.163 253.648 544.997 253.648 544.765C253.648 544.53 253.711 544.364 253.837 544.268C253.966 544.172 254.124 544.124 254.31 544.124ZM259.432 546.128C260.052 546.128 260.534 546.289 260.879 546.61C261.227 546.928 261.401 547.441 261.401 548.147V551.737H260.232V548.366C260.232 547.938 260.145 547.618 259.969 547.406C259.793 547.19 259.521 547.083 259.153 547.083C258.62 547.083 258.248 547.247 258.039 547.575C257.834 547.903 257.731 548.379 257.731 549.002V551.737H256.562V546.232H257.472L257.637 546.978H257.701C257.821 546.786 257.968 546.628 258.144 546.506C258.323 546.38 258.522 546.285 258.741 546.222C258.963 546.159 259.193 546.128 259.432 546.128ZM264.609 554.184C263.863 554.184 263.291 554.05 262.893 553.781C262.495 553.513 262.296 553.136 262.296 552.652C262.296 552.314 262.402 552.027 262.614 551.792C262.827 551.56 263.13 551.399 263.525 551.31C263.375 551.243 263.246 551.141 263.137 551.001C263.031 550.859 262.978 550.701 262.978 550.529C262.978 550.323 263.036 550.148 263.152 550.002C263.268 549.856 263.442 549.715 263.674 549.579C263.385 549.456 263.153 549.257 262.978 548.982C262.805 548.704 262.719 548.377 262.719 548.003C262.719 547.605 262.803 547.267 262.973 546.988C263.142 546.706 263.389 546.492 263.714 546.347C264.038 546.197 264.431 546.123 264.892 546.123C264.992 546.123 265.099 546.129 265.215 546.143C265.335 546.153 265.444 546.166 265.544 546.182C265.646 546.196 265.724 546.211 265.777 546.227H267.682V546.879L266.747 547.053C266.837 547.179 266.908 547.323 266.961 547.485C267.014 547.645 267.04 547.819 267.04 548.008C267.04 548.578 266.843 549.027 266.449 549.355C266.057 549.68 265.517 549.843 264.827 549.843C264.662 549.836 264.501 549.823 264.345 549.803C264.226 549.876 264.135 549.957 264.072 550.046C264.009 550.133 263.977 550.23 263.977 550.34C263.977 550.429 264.009 550.502 264.072 550.559C264.135 550.612 264.227 550.652 264.35 550.678C264.476 550.705 264.629 550.718 264.808 550.718H265.757C266.361 550.718 266.822 550.845 267.14 551.101C267.458 551.356 267.617 551.731 267.617 552.225C267.617 552.851 267.359 553.334 266.842 553.672C266.324 554.013 265.58 554.184 264.609 554.184ZM264.653 553.363C265.061 553.363 265.404 553.324 265.683 553.244C265.961 553.165 266.172 553.05 266.314 552.901C266.457 552.755 266.528 552.581 266.528 552.379C266.528 552.2 266.483 552.062 266.394 551.966C266.304 551.87 266.17 551.804 265.991 551.767C265.812 551.731 265.59 551.712 265.325 551.712H264.459C264.244 551.712 264.053 551.746 263.888 551.812C263.722 551.882 263.593 551.981 263.5 552.11C263.41 552.24 263.365 552.395 263.365 552.578C263.365 552.83 263.476 553.024 263.699 553.16C263.924 553.296 264.242 553.363 264.653 553.363ZM264.882 549.077C265.224 549.077 265.477 548.984 265.643 548.798C265.809 548.609 265.892 548.344 265.892 548.003C265.892 547.631 265.805 547.353 265.633 547.167C265.464 546.981 265.212 546.889 264.877 546.889C264.549 546.889 264.299 546.983 264.126 547.172C263.957 547.361 263.873 547.641 263.873 548.013C263.873 548.347 263.957 548.609 264.126 548.798C264.299 548.984 264.551 549.077 264.882 549.077Z" fill="#1B3B7C"/>
<rect x="219.344" y="500.483" width="27.1592" height="27.1592" rx="13.5796" transform="rotate(-45 219.344 500.483)" fill="#1B3B7C"/>
<path d="M237.997 500.848C237.997 501.435 237.951 501.959 237.858 502.419C237.769 502.88 237.623 503.271 237.42 503.593C237.221 503.915 236.96 504.16 236.635 504.329C236.31 504.498 235.915 504.583 235.451 504.583C234.868 504.583 234.389 504.435 234.014 504.14C233.639 503.842 233.362 503.414 233.183 502.857C233.004 502.297 232.915 501.627 232.915 500.848C232.915 500.062 232.996 499.391 233.159 498.834C233.324 498.274 233.593 497.844 233.964 497.546C234.335 497.247 234.831 497.098 235.451 497.098C236.031 497.098 236.509 497.247 236.883 497.546C237.261 497.841 237.541 498.269 237.724 498.829C237.906 499.386 237.997 500.059 237.997 500.848ZM234.442 500.848C234.442 501.402 234.471 501.864 234.531 502.235C234.594 502.603 234.699 502.88 234.844 503.066C234.99 503.252 235.193 503.344 235.451 503.344C235.706 503.344 235.907 503.253 236.053 503.071C236.202 502.885 236.308 502.608 236.371 502.24C236.434 501.869 236.466 501.405 236.466 500.848C236.466 500.294 236.434 499.832 236.371 499.46C236.308 499.089 236.202 498.811 236.053 498.625C235.907 498.436 235.706 498.342 235.451 498.342C235.193 498.342 234.99 498.436 234.844 498.625C234.699 498.811 234.594 499.089 234.531 499.46C234.471 499.832 234.442 500.294 234.442 500.848ZM238.733 501.395C238.733 500.977 238.763 500.564 238.823 500.157C238.886 499.746 238.994 499.359 239.146 498.998C239.299 498.633 239.512 498.312 239.788 498.033C240.063 497.751 240.412 497.531 240.837 497.372C241.261 497.209 241.775 497.128 242.378 497.128C242.521 497.128 242.687 497.135 242.876 497.148C243.068 497.158 243.227 497.176 243.353 497.203V498.431C243.221 498.401 243.078 498.378 242.926 498.361C242.776 498.342 242.627 498.332 242.478 498.332C241.875 498.332 241.407 498.428 241.076 498.62C240.747 498.812 240.515 499.079 240.379 499.421C240.247 499.759 240.169 500.153 240.146 500.604H240.21C240.303 500.442 240.419 500.298 240.558 500.172C240.701 500.046 240.873 499.946 241.076 499.873C241.278 499.797 241.515 499.759 241.787 499.759C242.211 499.759 242.579 499.85 242.891 500.032C243.202 500.211 243.443 500.472 243.612 500.813C243.781 501.155 243.865 501.571 243.865 502.061C243.865 502.585 243.764 503.036 243.562 503.414C243.36 503.792 243.073 504.082 242.702 504.284C242.334 504.483 241.896 504.583 241.389 504.583C241.018 504.583 240.671 504.52 240.349 504.394C240.028 504.264 239.746 504.069 239.504 503.807C239.262 503.545 239.073 503.215 238.937 502.817C238.801 502.416 238.733 501.942 238.733 501.395ZM241.359 503.354C241.661 503.354 241.906 503.252 242.095 503.046C242.284 502.84 242.378 502.519 242.378 502.081C242.378 501.726 242.296 501.448 242.13 501.246C241.967 501.04 241.72 500.937 241.389 500.937C241.163 500.937 240.964 500.989 240.792 501.092C240.623 501.191 240.492 501.319 240.399 501.474C240.306 501.627 240.26 501.784 240.26 501.947C240.26 502.116 240.283 502.283 240.33 502.449C240.376 502.615 240.446 502.766 240.538 502.902C240.631 503.038 240.746 503.147 240.882 503.23C241.021 503.313 241.18 503.354 241.359 503.354Z" fill="white"/>
</g>
</g>
<defs>
<filter id="filter0_d_1386_2570" x="94.1694" y="139.86" width="119.009" height="131.056" filterUnits="userSpaceOnUse" color-interpolation-filters="sRGB">
<feFlood flood-opacity="0" result="BackgroundImageFix"/>
<feColorMatrix in="SourceAlpha" type="matrix" values="0 0 0 0 0 0 0 0 0 0 0 0 0 0 0 0 0 0 127 0" result="hardAlpha"/>
<feOffset dy="2.26326"/>
<feGaussianBlur stdDeviation="2.54617"/>
<feComposite in2="hardAlpha" operator="out"/>
<feColorMatrix type="matrix" values="0 0 0 0 0 0 0 0 0 0 0 0 0 0 0 0 0 0 0.19 0"/>
<feBlend mode="normal" in2="BackgroundImageFix" result="effect1_dropShadow_1386_2570"/>
<feBlend mode="normal" in="SourceGraphic" in2="effect1_dropShadow_1386_2570" result="shape"/>
</filter>
<filter id="filter1_d_1386_2570" x="94.1655" y="274.155" width="119.009" height="131.056" filterUnits="userSpaceOnUse" color-interpolation-filters="sRGB">
<feFlood flood-opacity="0" result="BackgroundImageFix"/>
<feColorMatrix in="SourceAlpha" type="matrix" values="0 0 0 0 0 0 0 0 0 0 0 0 0 0 0 0 0 0 127 0" result="hardAlpha"/>
<feOffset dy="2.26326"/>
<feGaussianBlur stdDeviation="2.54617"/>
<feComposite in2="hardAlpha" operator="out"/>
<feColorMatrix type="matrix" values="0 0 0 0 0 0 0 0 0 0 0 0 0 0 0 0 0 0 0.19 0"/>
<feBlend mode="normal" in2="BackgroundImageFix" result="effect1_dropShadow_1386_2570"/>
<feBlend mode="normal" in="SourceGraphic" in2="effect1_dropShadow_1386_2570" result="shape"/>
</filter>
<filter id="filter2_d_1386_2570" x="94.1733" y="408.45" width="119.009" height="131.056" filterUnits="userSpaceOnUse" color-interpolation-filters="sRGB">
<feFlood flood-opacity="0" result="BackgroundImageFix"/>
<feColorMatrix in="SourceAlpha" type="matrix" values="0 0 0 0 0 0 0 0 0 0 0 0 0 0 0 0 0 0 127 0" result="hardAlpha"/>
<feOffset dy="2.26326"/>
<feGaussianBlur stdDeviation="2.54617"/>
<feComposite in2="hardAlpha" operator="out"/>
<feColorMatrix type="matrix" values="0 0 0 0 0 0 0 0 0 0 0 0 0 0 0 0 0 0 0.19 0"/>
<feBlend mode="normal" in2="BackgroundImageFix" result="effect1_dropShadow_1386_2570"/>
<feBlend mode="normal" in="SourceGraphic" in2="effect1_dropShadow_1386_2570" result="shape"/>
</filter>
<filter id="filter3_d_1386_2570" x="179.173" y="209.86" width="119.009" height="131.056" filterUnits="userSpaceOnUse" color-interpolation-filters="sRGB">
<feFlood flood-opacity="0" result="BackgroundImageFix"/>
<feColorMatrix in="SourceAlpha" type="matrix" values="0 0 0 0 0 0 0 0 0 0 0 0 0 0 0 0 0 0 127 0" result="hardAlpha"/>
<feOffset dy="2.26326"/>
<feGaussianBlur stdDeviation="2.54617"/>
<feComposite in2="hardAlpha" operator="out"/>
<feColorMatrix type="matrix" values="0 0 0 0 0 0 0 0 0 0 0 0 0 0 0 0 0 0 0.19 0"/>
<feBlend mode="normal" in2="BackgroundImageFix" result="effect1_dropShadow_1386_2570"/>
<feBlend mode="normal" in="SourceGraphic" in2="effect1_dropShadow_1386_2570" result="shape"/>
</filter>
<filter id="filter4_d_1386_2570" x="179.177" y="344.155" width="119.009" height="131.056" filterUnits="userSpaceOnUse" color-interpolation-filters="sRGB">
<feFlood flood-opacity="0" result="BackgroundImageFix"/>
<feColorMatrix in="SourceAlpha" type="matrix" values="0 0 0 0 0 0 0 0 0 0 0 0 0 0 0 0 0 0 127 0" result="hardAlpha"/>
<feOffset dy="2.26326"/>
<feGaussianBlur stdDeviation="2.54617"/>
<feComposite in2="hardAlpha" operator="out"/>
<feColorMatrix type="matrix" values="0 0 0 0 0 0 0 0 0 0 0 0 0 0 0 0 0 0 0.19 0"/>
<feBlend mode="normal" in2="BackgroundImageFix" result="effect1_dropShadow_1386_2570"/>
<feBlend mode="normal" in="SourceGraphic" in2="effect1_dropShadow_1386_2570" result="shape"/>
</filter>
<filter id="filter5_d_1386_2570" x="179.173" y="478.45" width="119.009" height="131.056" filterUnits="userSpaceOnUse" color-interpolation-filters="sRGB">
<feFlood flood-opacity="0" result="BackgroundImageFix"/>
<feColorMatrix in="SourceAlpha" type="matrix" values="0 0 0 0 0 0 0 0 0 0 0 0 0 0 0 0 0 0 127 0" result="hardAlpha"/>
<feOffset dy="2.26326"/>
<feGaussianBlur stdDeviation="2.54617"/>
<feComposite in2="hardAlpha" operator="out"/>
<feColorMatrix type="matrix" values="0 0 0 0 0 0 0 0 0 0 0 0 0 0 0 0 0 0 0.19 0"/>
<feBlend mode="normal" in2="BackgroundImageFix" result="effect1_dropShadow_1386_2570"/>
<feBlend mode="normal" in="SourceGraphic" in2="effect1_dropShadow_1386_2570" result="shape"/>
</filter>
<clipPath id="clip0_1386_2570">
<rect width="390" height="844" fill="white"/>
</clipPath>
</defs>
</svg>
