<svg width="32" height="32" viewBox="0 0 32 32" fill="none" xmlns="http://www.w3.org/2000/svg">
<g clip-path="url(#clip0_398_7400)">
<path d="M26.0011 18.6667C27.8425 18.6667 29.3345 20.1587 29.3345 22C29.3345 23.8413 27.8425 25.3333 26.0011 25.3333C24.1598 25.3333 22.6678 23.8413 22.6678 22C22.6678 20.1587 24.1598 18.6667 26.0011 18.6667ZM12.6678 22C12.6678 23.8413 14.1598 25.3333 16.0011 25.3333C17.8425 25.3333 19.3345 23.8413 19.3345 22C19.3345 20.1587 17.8425 18.6667 16.0011 18.6667C14.1598 18.6667 12.6678 20.1587 12.6678 22ZM6.00114 18.6667C4.15981 18.6667 2.66781 20.1587 2.66781 22C2.66781 23.8413 4.15981 25.3333 6.00114 25.3333C7.84247 25.3333 9.33447 23.8413 9.33447 22C9.33447 20.1587 7.84247 18.6667 6.00114 18.6667ZM26.0011 26.6667C24.1585 26.6667 22.4598 27.3733 21.2505 28.5773C19.8651 27.3613 18.0038 26.6667 16.0011 26.6667C13.9985 26.6667 12.1371 27.3613 10.7518 28.5773C9.54247 27.3733 7.84381 26.6667 6.00114 26.6667C3.50114 26.6667 1.26114 27.96 0.155807 30.0413C-0.189526 30.692 0.0584737 31.4987 0.70914 31.8453C1.35981 32.1893 2.16781 31.9427 2.51314 31.292C3.14381 30.1013 4.51314 29.3333 6.00114 29.3333C7.48914 29.3333 8.85981 30.1013 9.48914 31.292C9.50114 31.3147 9.84914 32 10.6691 32C11.4891 32 11.7611 31.428 11.7718 31.4133C12.6385 30.1307 14.2598 29.3333 16.0011 29.3333C17.7425 29.3333 19.3625 30.1307 20.2305 31.4133C20.2438 31.4333 20.5678 32 21.3358 32C22.1038 32 22.5025 31.3107 22.5131 31.292C23.1438 30.1013 24.5131 29.3333 26.0011 29.3333C27.4891 29.3333 28.8598 30.1013 29.4891 31.292C29.7291 31.744 30.1905 32 30.6691 32C30.8798 32 31.0931 31.9507 31.2931 31.8453C31.9438 31.4987 32.1918 30.6933 31.8465 30.0413C30.7411 27.9587 28.5011 26.6667 26.0011 26.6667ZM8.98114 11.172L10.2918 10.4173C10.1198 9.86 10.0011 9.28 10.0011 8.66667C10.0011 8.05333 10.1198 7.47333 10.2918 6.916L8.98114 6.16133C8.34247 5.79467 8.12247 4.97867 8.49181 4.34133C8.85714 3.70267 9.67447 3.48133 10.3118 3.852L11.6145 4.60267C12.4211 3.73333 13.4718 3.10133 14.6665 2.828V1.33333C14.6665 0.596 15.2625 0 15.9998 0C16.7371 0 17.3331 0.596 17.3331 1.33333V2.828C18.5278 3.10133 19.5798 3.732 20.3851 4.60267L21.6878 3.852C22.3265 3.48267 23.1411 3.704 23.5078 4.34133C23.8758 4.98 23.6558 5.79467 23.0185 6.16133L21.7078 6.916C21.8798 7.47333 21.9985 8.05333 21.9985 8.66667C21.9985 9.28 21.8798 9.86 21.7078 10.4173L23.0185 11.172C23.6571 11.5387 23.8771 12.3547 23.5078 12.992C23.2611 13.42 22.8131 13.66 22.3518 13.66C22.1265 13.66 21.8971 13.6027 21.6878 13.4813L20.3851 12.7307C19.5785 13.6 18.5278 14.232 17.3331 14.5053V16C17.3331 16.7373 16.7371 17.3333 15.9998 17.3333C15.2625 17.3333 14.6665 16.7373 14.6665 16V14.5053C13.4718 14.232 12.4198 13.6013 11.6145 12.7307L10.3118 13.4813C10.1025 13.6027 9.87314 13.66 9.64781 13.66C9.18647 13.66 8.73714 13.42 8.49181 12.992C8.12381 12.3533 8.34381 11.5387 8.98114 11.172ZM12.6678 8.66667C12.6678 10.5053 14.1625 12 16.0011 12C17.8398 12 19.3345 10.5053 19.3345 8.66667C19.3345 6.828 17.8398 5.33333 16.0011 5.33333C14.1625 5.33333 12.6678 6.828 12.6678 8.66667ZM1.33447 18.6667C2.07181 18.6667 2.66781 18.0707 2.66781 17.3333V13.3333C2.66781 11.8627 3.86381 10.6667 5.33447 10.6667C6.07181 10.6667 6.66781 10.0707 6.66781 9.33333C6.66781 8.596 6.07181 8 5.33447 8C2.39314 8 0.00114036 10.392 0.00114036 13.3333V17.3333C0.00114036 18.0707 0.59714 18.6667 1.33447 18.6667ZM26.6678 8C25.9305 8 25.3345 8.596 25.3345 9.33333C25.3345 10.0707 25.9305 10.6667 26.6678 10.6667C28.1385 10.6667 29.3345 11.8627 29.3345 13.3333V17.3333C29.3345 18.0707 29.9305 18.6667 30.6678 18.6667C31.4051 18.6667 32.0011 18.0707 32.0011 17.3333V13.3333C32.0011 10.392 29.6091 8 26.6678 8Z" fill="url(#paint0_linear_398_7400)"/>
</g>
<defs>
<linearGradient id="paint0_linear_398_7400" x1="16.0011" y1="0" x2="16.0011" y2="32.0006" gradientUnits="userSpaceOnUse">
<stop stop-color="#8CB9F8"/>
<stop offset="1" stop-color="#1B3B7C"/>
</linearGradient>
<clipPath id="clip0_398_7400">
<rect width="32" height="32" fill="white"/>
</clipPath>
</defs>
</svg>
