<svg width="24" height="24" viewBox="0 0 24 24" fill="none" xmlns="http://www.w3.org/2000/svg">
<path d="M8.25031 18.5234H5.51594V9.69531H8.25031V18.5234ZM8.52313 6.88266C8.52313 5.99871 7.80594 5.28125 6.9225 5.28125C6.03562 5.28125 5.32031 5.99871 5.32031 6.88266C5.32031 7.76691 6.03566 8.48438 6.9225 8.48438C7.80598 8.48438 8.52313 7.76691 8.52313 6.88266ZM18.4844 13.6666C18.4844 11.2967 17.9838 9.53906 15.2153 9.53906C13.8851 9.53906 12.9921 10.2043 12.6276 10.8962H12.625V9.69531H9.96875V18.5234H12.625V14.1402C12.625 12.9923 12.9172 11.8802 14.3401 11.8802C15.7436 11.8802 15.7891 13.1929 15.7891 14.2131V18.5234H18.4844V13.6666ZM22 19.6562V4.34375C22 3.05133 20.9487 2 19.6562 2H4.34375C3.05133 2 2 3.05133 2 4.34375V19.6562C2 20.9487 3.05133 22 4.34375 22H19.6562C20.9487 22 22 20.9487 22 19.6562ZM19.6562 3.5625C20.087 3.5625 20.4375 3.91301 20.4375 4.34375V19.6562C20.4375 20.087 20.087 20.4375 19.6562 20.4375H4.34375C3.91301 20.4375 3.5625 20.087 3.5625 19.6562V4.34375C3.5625 3.91301 3.91301 3.5625 4.34375 3.5625H19.6562Z" fill="white"/>
</svg>
