<svg width="18" height="19" viewBox="0 0 18 19" fill="none" xmlns="http://www.w3.org/2000/svg">
<g clip-path="url(#clip0_233_2517)">
<path d="M9.00528 0.531494C7.02074 0.533677 5.11809 1.32295 3.71473 2.72617C2.31138 4.12938 1.52191 6.03195 1.51953 8.0165C1.51953 9.944 3.01203 12.9605 5.95578 16.982C6.30623 17.4621 6.76507 17.8527 7.29498 18.1219C7.82489 18.3912 8.41089 18.5315 9.00528 18.5315C9.59968 18.5315 10.1857 18.3912 10.7156 18.1219C11.2455 17.8527 11.7043 17.4621 12.0548 16.982C14.9985 12.9605 16.491 9.944 16.491 8.0165C16.4887 6.03195 15.6992 4.12938 14.2958 2.72617C12.8925 1.32295 10.9898 0.533677 9.00528 0.531494ZM9.00528 11C8.41194 11 7.83192 10.824 7.33857 10.4944C6.84522 10.1648 6.46071 9.69622 6.23364 9.14805C6.00658 8.59987 5.94717 7.99667 6.06293 7.41472C6.17868 6.83278 6.4644 6.29823 6.88396 5.87867C7.30352 5.45912 7.83807 5.17339 8.42001 5.05764C9.00195 4.94188 9.60515 5.00129 10.1533 5.22836C10.7015 5.45542 11.17 5.83994 11.4997 6.33328C11.8293 6.82663 12.0053 7.40665 12.0053 7.99999C12.0053 8.79564 11.6892 9.55871 11.1266 10.1213C10.564 10.6839 9.80093 11 9.00528 11Z" fill="white"/>
</g>
<defs>
<clipPath id="clip0_233_2517">
<rect width="18" height="18" fill="white" transform="translate(0.00390625 0.5)"/>
</clipPath>
</defs>
</svg>
