<svg width="24" height="24" viewBox="0 0 24 24" fill="none" xmlns="http://www.w3.org/2000/svg">
<g clip-path="url(#clip0_222_2314)">
<path d="M20.6079 22.5909L11.1684 17.5929C10.9224 17.4624 10.6224 17.4804 10.3899 17.6379L3.17186 22.6359C3.04028 22.7271 2.94134 22.8579 2.88952 23.0093C2.83769 23.1608 2.83571 23.3248 2.88386 23.4774C2.97986 23.7879 3.27086 24.0024 3.59786 24.0024H20.2554C20.5989 24.0024 20.9004 23.7684 20.9829 23.4324C21.0669 23.0979 20.9109 22.7514 20.6079 22.5909ZM23.7669 21.1659L21.5469 11.1714C21.4929 10.9269 21.3204 10.7274 21.0879 10.6359C20.9734 10.5911 20.8496 10.575 20.7275 10.5891C20.6054 10.6032 20.4886 10.6471 20.3874 10.7169L13.1679 15.7149C12.9519 15.8649 12.8304 16.1154 12.8469 16.3749C12.8542 16.5035 12.8946 16.628 12.9643 16.7363C13.0339 16.8446 13.1304 16.933 13.2444 16.9929L22.6824 21.9909C22.7934 22.0494 22.9134 22.0794 23.0334 22.0794C23.1939 22.0794 23.3544 22.0284 23.4879 21.9249C23.6019 21.8382 23.6888 21.7207 23.7383 21.5862C23.7877 21.4517 23.7976 21.3059 23.7669 21.1659ZM18.5439 9.52894C18.4959 9.37631 18.4005 9.24295 18.2716 9.14826C18.1426 9.05357 17.9868 9.00248 17.8269 9.00244H10.9809C9.73586 11.2569 7.89386 13.4124 7.13636 14.2554C6.71036 14.7294 6.09986 15.0024 5.46236 15.0024C4.82486 15.0024 4.21436 14.7294 3.78836 14.2554C3.49586 13.9299 3.04286 13.4094 2.52386 12.7644L0.708856 20.9334C0.676611 21.0806 0.689251 21.234 0.745141 21.3738C0.801031 21.5137 0.8976 21.6336 1.02236 21.7179C1.14836 21.8034 1.29536 21.8454 1.44086 21.8454C1.59086 21.8454 1.73936 21.8019 1.86836 21.7119L18.2529 10.3674C18.5244 10.1829 18.6399 9.84244 18.5439 9.52894Z" fill="#1B3B7C"/>
<path d="M5.46094 0.00244141C2.56594 0.00244141 0.210938 2.35744 0.210938 5.25244C0.210938 7.94644 4.42294 12.7179 4.90294 13.2534C5.04544 13.4109 5.24794 13.5024 5.46094 13.5024C5.67394 13.5024 5.87644 13.4109 6.01894 13.2534C6.49894 12.7179 10.7109 7.94644 10.7109 5.25244C10.7109 2.35744 8.35594 0.00244141 5.46094 0.00244141ZM5.46094 7.50244C4.21894 7.50244 3.21094 6.49444 3.21094 5.25244C3.21094 4.01044 4.21894 3.00244 5.46094 3.00244C6.70294 3.00244 7.71094 4.01044 7.71094 5.25244C7.71094 6.49444 6.70294 7.50244 5.46094 7.50244Z" fill="#1B3B7C"/>
</g>
<defs>
<clipPath id="clip0_222_2314">
<rect width="24" height="24" fill="white" transform="translate(-0.00390625 0.00244141)"/>
</clipPath>
</defs>
</svg>
