<svg width="18" height="19" viewBox="0 0 18 19" fill="none" xmlns="http://www.w3.org/2000/svg">
<g clip-path="url(#clip0_233_2505)">
<path d="M17.9694 4.65649L11.6559 10.97C10.9519 11.6722 9.99821 12.0665 9.00391 12.0665C8.0096 12.0665 7.05588 11.6722 6.35191 10.97L0.0384062 4.65649C0.0279063 4.77499 0.00390625 4.88224 0.00390625 4.99999V14C0.00509714 14.9942 0.400568 15.9473 1.10357 16.6503C1.80657 17.3533 2.75971 17.7488 3.75391 17.75H14.2539C15.2481 17.7488 16.2012 17.3533 16.9042 16.6503C17.6072 15.9473 18.0027 14.9942 18.0039 14V4.99999C18.0039 4.88224 17.9799 4.77499 17.9694 4.65649Z" fill="white"/>
<path d="M10.596 9.9095L17.4465 3.05825C17.1146 2.50799 16.6466 2.05253 16.0875 1.7358C15.5284 1.41907 14.8971 1.25176 14.2545 1.25H3.7545C3.11192 1.25176 2.48063 1.41907 1.92152 1.7358C1.36241 2.05253 0.894359 2.50799 0.5625 3.05825L7.413 9.9095C7.83568 10.3305 8.40794 10.5669 9.0045 10.5669C9.60106 10.5669 10.1733 10.3305 10.596 9.9095Z" fill="white"/>
</g>
<defs>
<clipPath id="clip0_233_2505">
<rect width="18" height="18" fill="white" transform="translate(0.00390625 0.5)"/>
</clipPath>
</defs>
</svg>
