<svg width="32" height="32" viewBox="0 0 32 32" fill="none" xmlns="http://www.w3.org/2000/svg">
<g clip-path="url(#clip0_595_386)">
<path d="M20.0587 -7.07991e-06C20.0227 -0.00134041 11.9747 -0.00134041 11.9387 -7.07991e-06C8.2907 0.0319929 5.33203 3.01066 5.33203 6.66533V25.332C5.33203 29.008 8.3227 31.9987 11.9987 31.9987H19.9987C23.6747 31.9987 26.6654 29.008 26.6654 25.332V6.66666C26.6654 3.01066 23.7067 0.0333263 20.0587 -7.07991e-06ZM23.9987 25.332C23.9987 27.5373 22.204 29.332 19.9987 29.332H11.9987C9.79336 29.332 7.9987 27.5373 7.9987 25.332V6.66666C7.9987 4.72933 9.3827 3.11066 11.2134 2.74399L12.1387 4.59599C12.364 5.04799 12.8267 5.33333 13.332 5.33333H18.6654C19.1707 5.33333 19.632 5.04799 19.8587 4.59599L20.784 2.74399C22.6147 3.10933 23.9987 4.72933 23.9987 6.66666V25.332ZM17.332 26.6653H14.6654C13.9294 26.6653 13.332 26.068 13.332 25.332C13.332 24.596 13.9294 23.9987 14.6654 23.9987H17.332C18.068 23.9987 18.6654 24.596 18.6654 25.332C18.6654 26.068 18.068 26.6653 17.332 26.6653Z" fill="#BBBBBB"/>
</g>
<defs>
<clipPath id="clip0_595_386">
<rect width="32" height="32" fill="white"/>
</clipPath>
</defs>
</svg>
