<svg width="32" height="32" viewBox="0 0 32 32" fill="none" xmlns="http://www.w3.org/2000/svg">
<g clip-path="url(#clip0_398_6473)">
<path d="M20.0587 2.34377e-05C20.0227 -0.0013099 11.9747 -0.0013099 11.9387 2.34377e-05C8.2907 0.0320234 5.33203 3.01069 5.33203 6.66536V25.332C5.33203 29.008 8.3227 31.9987 11.9987 31.9987H19.9987C23.6747 31.9987 26.6654 29.008 26.6654 25.332V6.66669C26.6654 3.01069 23.7067 0.0333568 20.0587 2.34377e-05ZM23.9987 25.332C23.9987 27.5374 22.204 29.332 19.9987 29.332H11.9987C9.79336 29.332 7.9987 27.5374 7.9987 25.332V6.66669C7.9987 4.72936 9.3827 3.11069 11.2134 2.74402L12.1387 4.59602C12.364 5.04802 12.8267 5.33336 13.332 5.33336H18.6654C19.1707 5.33336 19.632 5.04802 19.8587 4.59602L20.784 2.74402C22.6147 3.10936 23.9987 4.72936 23.9987 6.66669V25.332ZM17.332 26.6654H14.6654C13.9294 26.6654 13.332 26.068 13.332 25.332C13.332 24.596 13.9294 23.9987 14.6654 23.9987H17.332C18.068 23.9987 18.6654 24.596 18.6654 25.332C18.6654 26.068 18.068 26.6654 17.332 26.6654Z" fill="url(#paint0_linear_398_6473)"/>
</g>
<defs>
<linearGradient id="paint0_linear_398_6473" x1="15.9987" y1="-0.000976563" x2="15.9987" y2="31.9987" gradientUnits="userSpaceOnUse">
<stop stop-color="#8CB9F8"/>
<stop offset="1" stop-color="#1B3B7C"/>
</linearGradient>
<clipPath id="clip0_398_6473">
<rect width="32" height="32" fill="white"/>
</clipPath>
</defs>
</svg>
