<svg width="1440" height="560" viewBox="0 0 1440 560" fill="none" xmlns="http://www.w3.org/2000/svg">
<path d="M1113.37 354.752C1111.37 354.96 1109.35 355.038 1107.32 354.983L1107.38 352.983C1109.32 353.036 1111.25 352.961 1113.17 352.763L1113.37 354.752ZM1095.94 351.228C1097.85 351.759 1099.74 352.168 1101.61 352.458L1101.3 354.434C1099.35 354.131 1097.39 353.706 1095.41 353.155L1095.94 351.228ZM1125.12 352.045C1123.2 352.729 1121.27 353.3 1119.33 353.75L1118.88 351.802C1120.74 351.369 1122.59 350.821 1124.44 350.161L1125.12 352.045ZM1085.1 346.99C1086.9 347.889 1088.67 348.683 1090.43 349.375L1089.7 351.236C1087.88 350.522 1086.05 349.703 1084.21 348.779L1085.1 346.99ZM1135.48 346.072L1135.99 346.936C1134.22 347.964 1132.45 348.899 1130.67 349.738L1129.82 347.931C1131.54 347.117 1133.26 346.208 1134.98 345.207L1135.48 346.072ZM1075.05 340.995C1076.7 342.135 1078.34 343.19 1079.96 344.161L1078.93 345.877C1077.27 344.883 1075.6 343.805 1073.91 342.642L1075.05 340.995ZM1145.29 339.431L1145.9 340.223C1144.29 341.467 1142.67 342.641 1141.06 343.738L1139.93 342.084C1141.51 341.01 1143.1 339.86 1144.68 338.638L1145.29 339.431ZM477.85 337.951C479.807 338.132 481.757 338.225 483.696 338.226L483.694 340.226C481.692 340.225 479.682 340.129 477.666 339.942L477.85 337.951ZM495.712 339.042C493.732 339.445 491.737 339.741 489.729 339.937L489.535 337.947C491.475 337.758 493.402 337.471 495.313 337.082L495.712 339.042ZM1065.77 333.861C1067.3 335.161 1068.82 336.391 1070.33 337.552L1069.11 339.136C1067.58 337.956 1066.03 336.706 1064.47 335.388L1065.77 333.861ZM466.307 335.91C468.221 336.404 470.134 336.823 472.042 337.163L471.691 339.132C469.732 338.783 467.769 338.353 465.807 337.847L466.307 335.91ZM1402.06 336.765C1403.96 336.891 1405.87 336.918 1407.79 336.847L1407.86 338.846C1405.87 338.92 1403.89 338.892 1401.93 338.761L1402.06 336.765ZM1419.6 337.252C1417.65 337.705 1415.7 338.064 1413.77 338.329L1413.5 336.347C1415.37 336.09 1417.25 335.743 1419.15 335.304L1419.6 337.252ZM1390.79 334.806C1392.64 335.331 1394.5 335.756 1396.37 336.082L1396.03 338.053C1394.09 337.715 1392.16 337.273 1390.24 336.729L1390.79 334.806ZM158.518 336.191L158.666 337.18C156.573 337.493 154.495 337.7 152.432 337.799L152.336 335.801C154.33 335.705 156.342 335.506 158.37 335.202L158.518 336.191ZM140.276 335.075C142.263 335.416 144.267 335.647 146.286 335.768L146.167 337.764C144.074 337.639 141.998 337.4 139.938 337.047L140.276 335.075ZM507.231 335.393C505.365 336.21 503.477 336.919 501.571 337.522L500.968 335.616C502.806 335.034 504.627 334.35 506.429 333.56L507.231 335.393ZM1154.36 331.745L1155.03 332.479C1153.54 333.862 1152.04 335.188 1150.55 336.454L1149.26 334.931C1150.73 333.683 1152.2 332.375 1153.68 331.01L1154.36 331.745ZM455.15 332.202C456.989 332.947 458.83 333.627 460.671 334.241L460.038 336.139C458.156 335.511 456.275 334.815 454.399 334.056L455.15 332.202ZM170.479 333.268L170.798 334.216C168.79 334.891 166.795 335.473 164.812 335.961L164.334 334.018C166.261 333.544 168.203 332.978 170.16 332.32L170.479 333.268ZM1430.49 332.721L1430.87 333.646C1429.01 334.403 1427.15 335.078 1425.31 335.671L1424.7 333.767C1426.49 333.189 1428.3 332.532 1430.12 331.794L1430.49 332.721ZM128.661 331.75C130.553 332.515 132.459 333.174 134.381 333.726L134.104 334.686L133.829 335.648C131.839 335.077 129.866 334.396 127.91 333.604L128.285 332.677L128.661 331.75ZM1380.13 330.611C1381.86 331.489 1383.61 332.274 1385.36 332.967L1384.63 334.826C1382.81 334.11 1381.01 333.3 1379.22 332.395L1380.13 330.611ZM517.735 329.45C516.058 330.63 514.357 331.707 512.635 332.684L511.648 330.944C513.314 330 514.96 328.958 516.585 327.814L517.735 329.45ZM182.277 329.407C180.382 330.354 178.497 331.221 176.623 332.01L175.848 330.166C177.68 329.395 179.526 328.546 181.384 327.618L182.277 329.407ZM444.495 327.171C446.243 328.112 447.998 329.001 449.757 329.833L448.901 331.641C447.11 330.793 445.324 329.89 443.547 328.933L444.495 327.171ZM1057.05 325.898C1058.49 327.306 1059.91 328.654 1061.32 329.945L1059.97 331.421C1058.54 330.114 1057.1 328.75 1055.65 327.328L1057.05 325.898ZM1441 327.636L1441.49 328.508C1439.74 329.488 1438 330.398 1436.26 331.24L1435.39 329.441C1437.09 328.617 1438.79 327.724 1440.51 326.763L1441 327.636ZM117.904 326.141C119.643 327.257 121.394 328.277 123.158 329.2L122.231 330.972C120.413 330.02 118.61 328.971 116.823 327.823L117.363 326.981L117.904 326.141ZM1370.33 324.588C1371.92 325.739 1373.51 326.809 1375.11 327.798L1374.59 328.648L1374.06 329.5C1372.42 328.484 1370.78 327.386 1369.15 326.206L1370.33 324.588ZM193.068 323.24C191.289 324.383 189.519 325.458 187.758 326.468L186.764 324.732C188.494 323.741 190.235 322.682 191.987 321.557L193.068 323.24ZM434.381 321.091C436.035 322.189 437.699 323.242 439.37 324.248L438.339 325.962C436.641 324.94 434.952 323.87 433.274 322.757L434.381 321.091ZM526.939 321.663C525.486 323.118 524.008 324.482 522.507 325.755L521.213 324.229C522.671 322.993 524.109 321.667 525.525 320.25L526.939 321.663ZM1451.43 322.247C1449.8 323.389 1448.16 324.471 1446.54 325.496L1445.47 323.805C1447.07 322.797 1448.68 321.731 1450.29 320.606L1451.43 322.247ZM108.205 318.79C109.764 320.157 111.333 321.442 112.914 322.643L111.704 324.235C110.085 323.004 108.479 321.69 106.887 320.294L108.205 318.79ZM1048.84 317.392C1050.22 318.891 1051.58 320.339 1052.92 321.737L1051.48 323.125C1050.12 321.714 1048.75 320.254 1047.37 318.743L1048.84 317.392ZM1361.46 317.207C1362.89 318.554 1364.33 319.831 1365.78 321.039L1364.5 322.575C1363.02 321.341 1361.55 320.036 1360.09 318.663L1361.46 317.207ZM203.215 316.077C201.541 317.363 199.875 318.593 198.217 319.766L197.062 318.133C198.698 316.976 200.343 315.762 201.997 314.491L203.215 316.077ZM424.808 314.161C426.369 315.386 424.942 314.574 426.526 315.722L425.354 317.342C423.748 316.178 425.153 316.976 423.572 315.735L424.808 314.161ZM1460.78 315.154C1459.24 316.417 1457.71 317.629 1456.18 318.791L1455.57 317.994L1454.97 317.198C1456.48 316.051 1457.99 314.854 1459.52 313.606L1460.78 315.154ZM534.805 312.551C533.572 314.191 532.317 315.753 531.04 317.236L529.524 315.932C530.771 314.483 531.998 312.956 533.205 311.35L534.805 312.551ZM99.5352 310.205C100.931 311.749 102.336 313.223 103.75 314.627L102.341 316.046C100.9 314.615 99.4694 313.116 98.0508 311.546L99.5352 310.205ZM783.954 313.561C785.902 313.8 787.885 313.95 789.905 314.008L789.849 316.007C787.766 315.948 785.72 315.792 783.711 315.546L783.954 313.561ZM802.086 315.269C800.016 315.572 797.98 315.782 795.979 315.904L795.856 313.908C797.801 313.789 799.781 313.585 801.797 313.291L802.086 315.269ZM1353.46 308.858C1354.75 310.343 1356.05 311.768 1357.36 313.134L1355.91 314.517C1354.58 313.128 1353.26 311.68 1351.95 310.173L1353.46 308.858ZM772.323 311.017C774.208 311.616 776.127 312.132 778.082 312.56L777.868 313.538L777.653 314.515C775.638 314.073 773.66 313.54 771.718 312.923L772.323 311.017ZM1041.08 308.542C1042.38 310.083 1043.67 311.58 1044.94 313.035L1043.44 314.352C1042.15 312.888 1040.86 311.38 1039.55 309.83L1040.32 309.185L1041.08 308.542ZM814.04 312.587C812.039 313.188 810.069 313.706 808.129 314.144L807.688 312.193C809.582 311.765 811.508 311.26 813.465 310.672L814.04 312.587ZM212.778 308.19C211.204 309.576 209.637 310.913 208.076 312.202L207.438 311.432L206.802 310.66C208.346 309.385 209.898 308.061 211.457 306.688L212.778 308.19ZM415.768 306.531C417.237 307.862 418.723 309.161 420.222 310.427L418.931 311.954C417.414 310.673 415.912 309.359 414.426 308.014L415.768 306.531ZM1469.64 307.412C1468.17 308.77 1466.72 310.086 1465.27 311.356L1464.61 310.603L1463.95 309.851C1465.38 308.594 1466.83 307.292 1468.28 305.946L1469.64 307.412ZM1179.18 306.28C1177.9 307.832 1176.64 309.352 1175.38 310.84L1173.86 309.549C1175.11 308.069 1176.36 306.557 1177.63 305.013L1179.18 306.28ZM761.307 306.439C763.081 307.353 764.886 308.196 766.723 308.961L765.953 310.807C764.065 310.02 762.212 309.155 760.392 308.218L761.307 306.439ZM825.496 308.367C823.581 309.199 821.693 309.957 819.831 310.645L819.138 308.769C820.964 308.094 822.818 307.349 824.699 306.532L825.496 308.367ZM541.42 302.589C540.384 304.348 539.326 306.039 538.25 307.664L537.417 307.111L536.583 306.559C537.639 304.965 538.678 303.303 539.697 301.573L541.42 302.589ZM91.7588 300.741C93.0122 302.409 94.2741 304.017 95.5439 305.565L93.9971 306.834C92.7086 305.263 91.4299 303.633 90.1602 301.943L90.96 301.343L91.7588 300.741ZM836.436 302.969C834.611 303.974 832.809 304.915 831.03 305.795L830.144 304.003C831.895 303.136 833.671 302.208 835.471 301.217L836.436 302.969ZM1346.2 299.809C1347.37 301.394 1348.56 302.927 1349.74 304.409L1348.18 305.66C1346.98 304.158 1345.78 302.604 1344.59 301.001L1346.2 299.809ZM1033.64 299.382C1034.87 300.955 1034.1 300.489 1035.32 301.987L1033.77 303.249C1032.54 301.742 1033.31 302.199 1032.06 300.618L1033.64 299.382ZM751.083 300.219C752.727 301.373 754.397 302.471 756.093 303.506L755.051 305.214C753.316 304.155 751.612 303.033 749.935 301.855L751.083 300.219ZM221.824 299.768C220.328 301.236 218.838 302.66 217.354 304.043L215.991 302.58C217.462 301.209 218.94 299.796 220.424 298.341L221.824 299.768ZM407.256 298.309C408.635 299.728 410.032 301.122 411.445 302.487L410.056 303.925C408.627 302.544 407.215 301.137 405.821 299.702L407.256 298.309ZM1478 299.226C1476.62 300.643 1475.24 302.023 1473.88 303.365L1472.48 301.937C1473.83 300.607 1475.19 299.238 1476.56 297.832L1478 299.226ZM1186.6 296.998C1185.37 298.572 1184.15 300.119 1182.93 301.639L1181.37 300.391C1182.58 298.876 1183.8 297.334 1185.02 295.766L1186.6 296.998ZM741.649 292.793C743.17 294.117 742.711 294.399 744.274 295.633L743.035 297.202C741.445 295.947 741.88 295.645 740.337 294.302L741.649 292.793ZM84.7744 290.698C85.901 292.443 87.035 294.136 88.1758 295.779L86.5332 296.92C85.3792 295.258 84.233 293.546 83.0947 291.783L84.7744 290.698ZM1339.58 290.253C1340.65 291.904 1341.73 293.511 1342.81 295.074L1341.16 296.211C1340.07 294.631 1338.98 293.008 1337.9 291.341L1339.58 290.253ZM1026.46 289.987C1027.65 291.589 1028.83 293.158 1030 294.693L1029.21 295.301L1028.41 295.907C1027.24 294.365 1026.05 292.789 1024.85 291.181L1026.46 289.987ZM230.479 290.881C229.047 292.416 227.621 293.913 226.2 295.373L224.767 293.978C226.177 292.529 227.594 291.042 229.016 289.517L230.479 290.881ZM399.271 289.574C400.561 291.072 401.871 292.549 403.199 294.002L401.723 295.351C400.381 293.884 399.058 292.393 397.756 290.88L399.271 289.574ZM1486.01 290.617C1484.68 292.104 1483.36 293.557 1482.04 294.976L1480.57 293.613C1481.88 292.205 1483.2 290.762 1484.51 289.285L1486.01 290.617ZM856.865 289.71C855.208 290.939 853.567 292.121 851.944 293.255L850.799 291.615C852.406 290.492 854.031 289.322 855.674 288.103L856.865 289.71ZM1193.85 287.559C1192.63 289.166 1191.43 290.749 1190.23 292.309L1188.64 291.092C1189.84 289.536 1191.04 287.956 1192.25 286.352L1193.85 287.559ZM732.896 284.534C734.313 285.97 735.747 287.377 737.199 288.75L735.825 290.204C734.355 288.814 732.904 287.39 731.472 285.939L732.896 284.534ZM79.9697 282.876C80.4888 283.763 81.009 284.639 81.5312 285.504L79.8193 286.538C79.2835 285.651 78.75 284.752 78.2178 283.842L78.1885 283.792L78.165 283.738C77.7599 282.811 77.3526 281.893 76.9443 280.982L78.7686 280.163C79.1706 281.059 79.5708 281.964 79.9697 282.876ZM550.737 280.398L551.681 280.728C551.343 281.697 551.005 282.674 550.667 283.661L550.657 283.687L550.646 283.714C550.259 284.667 549.867 285.608 549.471 286.534L547.632 285.747C548.02 284.84 548.403 283.919 548.783 282.985C549.12 282.004 549.457 281.032 549.793 280.069L550.737 280.398ZM1335 282.867C1335.5 283.705 1336 284.532 1336.5 285.351L1334.79 286.393C1334.28 285.555 1333.77 284.706 1333.26 283.848L1333.24 283.806L1333.21 283.761C1332.78 282.834 1332.35 281.915 1331.93 281.003L1333.74 280.157C1334.16 281.053 1334.58 281.957 1335 282.867ZM1020.11 281.487L1021.13 282.695L1021.15 282.724L1021.17 282.754C1021.77 283.581 1022.36 284.401 1022.95 285.213L1022.14 285.801L1021.33 286.388C1020.75 285.585 1020.16 284.774 1019.57 283.955C1018.91 283.159 1018.24 282.375 1017.58 281.602L1019.09 280.297C1019.43 280.691 1019.77 281.088 1020.11 281.487ZM238.616 281.434C238 282.256 237.384 283.087 236.768 283.929L236.741 283.965L236.711 283.998C236.016 284.787 235.323 285.567 234.631 286.339L233.143 285.004C233.822 284.247 234.501 283.481 235.183 282.707C235.794 281.873 236.405 281.049 237.017 280.234L238.616 281.434ZM393.784 282.234C394.404 283.06 393.025 281.896 393.645 282.742C394.249 283.51 394.86 284.274 395.476 285.032L393.922 286.292C393.294 285.518 392.672 284.739 392.055 283.956L392.044 283.942L392.034 283.929C391.418 283.087 392.801 284.256 392.185 283.434L393.784 282.234ZM1491.76 283.982C1491.12 284.743 1490.48 285.496 1489.84 286.241L1489.08 285.589L1488.32 284.937C1488.96 284.197 1489.6 283.449 1490.24 282.692L1491.76 283.982ZM866.37 281.814C865.647 282.545 864.923 283.284 864.199 284.032L864.155 284.078L864.106 284.117C863.295 284.768 862.489 285.408 861.686 286.036L860.453 284.461C861.233 283.85 862.017 283.229 862.805 282.597C863.519 281.858 864.235 281.129 864.949 280.407L866.37 281.814ZM1200.93 278.062C1199.74 279.677 1198.56 281.272 1197.38 282.846L1195.78 281.65C1196.95 280.079 1198.13 278.487 1199.32 276.875L1200.93 278.062ZM726.681 277.963L727.7 279.077C728.041 279.447 728.382 279.816 728.725 280.184L727.262 281.547C726.916 281.176 726.572 280.805 726.229 280.432L725.201 279.309C724.526 278.567 723.852 277.824 723.18 277.08L723.921 276.409L724.663 275.739C725.334 276.481 726.007 277.222 726.681 277.963ZM875.242 273.279C873.747 274.644 872.251 276.048 870.754 277.489L870.06 276.769L869.366 276.049C870.876 274.596 872.385 273.18 873.894 271.803L875.242 273.279ZM1010.72 271.152C1012.14 272.604 1013.55 274.105 1014.97 275.658L1013.5 277.008C1012.09 275.471 1010.69 273.985 1009.29 272.55L1010 271.851L1010.72 271.152ZM246.193 271.839C244.91 273.379 243.626 274.964 242.342 276.592L240.771 275.352C242.066 273.711 243.362 272.113 244.657 270.559L246.193 271.839ZM384.145 270.559C385.44 272.113 386.735 273.711 388.03 275.352L386.46 276.592C385.176 274.964 383.891 273.379 382.607 271.839L384.145 270.559ZM73.6914 269.419C74.5619 271.167 75.4264 272.949 76.2842 274.765L74.4756 275.619C73.6236 273.815 72.7656 272.046 71.9014 270.31L72.7959 269.864L73.6914 269.419ZM1331.23 274.773L1329.42 275.616C1328.57 273.779 1327.73 271.972 1326.91 270.197L1328.72 269.357C1329.54 271.132 1330.38 272.937 1331.23 274.773ZM555.734 269.538C555.06 271.331 554.384 273.16 553.709 275.025L551.828 274.344C552.506 272.471 553.185 270.634 553.862 268.833L555.734 269.538ZM1207.26 267.863L1208.05 268.474C1207.44 269.272 1206.81 270.078 1206.19 270.89C1205.6 271.695 1205.02 272.497 1204.43 273.294L1202.82 272.113C1203.41 271.31 1204 270.503 1204.59 269.69L1204.6 269.679L1204.6 269.668C1205.23 268.856 1205.85 268.051 1206.47 267.252L1207.26 267.863ZM720.652 271.277L719.906 271.943L719.161 272.61C717.822 271.113 716.488 269.614 715.159 268.116L716.655 266.789C717.982 268.285 719.315 269.782 720.652 271.277ZM1004.69 264.581C1006.22 265.924 1004.76 265.326 1006.29 266.786L1004.92 268.235C1003.4 266.794 1004.89 267.41 1003.37 266.085L1004.69 264.581ZM254.328 262.654C252.95 264.112 251.573 265.62 250.194 267.178L248.696 265.852C250.089 264.279 251.482 262.755 252.875 261.281L254.328 262.654ZM375.927 261.281C377.32 262.755 378.713 264.279 380.105 265.852L378.607 267.178C377.229 265.62 375.85 264.112 374.473 262.654L375.927 261.281ZM68.1543 258.891C69.1049 260.601 70.0495 262.349 70.9873 264.133L69.2168 265.062C68.2862 263.292 67.3491 261.559 66.4062 259.862L68.1543 258.891ZM1326.24 264.002L1324.43 264.842C1323.57 262.987 1322.73 261.169 1321.91 259.389L1323.72 258.549C1324.55 260.33 1325.39 262.148 1326.24 264.002ZM560.142 258.311C559.406 260.105 558.669 261.94 557.933 263.816L556.071 263.085C556.812 261.199 557.552 259.355 558.292 257.552L560.142 258.311ZM1215.33 259.06C1214.14 260.599 1212.93 262.166 1211.69 263.762L1210.11 262.539C1211.34 260.943 1212.56 259.375 1213.75 257.836L1215.33 259.06ZM894.417 257.909C892.754 259.051 891.09 260.246 889.425 261.491L888.826 260.689L888.227 259.889C889.913 258.628 891.599 257.419 893.285 256.261L894.417 257.909ZM991.949 254.809C993.603 255.999 995.259 257.256 996.914 258.579L995.665 260.141C994.035 258.838 992.407 257.602 990.781 256.433L991.949 254.809ZM263.052 254.093C261.572 255.432 260.091 256.83 258.609 258.286L257.908 257.573L257.208 256.859C258.708 255.385 260.209 253.968 261.71 252.609L263.052 254.093ZM367.092 252.609C368.593 253.968 370.094 255.385 371.594 256.859L370.191 258.286C368.71 256.83 367.23 255.432 365.75 254.093L367.092 252.609ZM62.1172 248.636C63.1575 250.303 64.1911 252.01 65.2188 253.757L63.4951 254.77C62.4762 253.038 61.4509 251.346 60.4199 249.694L62.1172 248.636ZM704.727 253.273L703.227 254.596C701.896 253.087 700.571 251.587 699.251 250.098L700.748 248.771C702.069 250.263 703.396 251.764 704.727 253.273ZM904.841 251.432C903.08 252.409 901.318 253.447 899.555 254.545L898.497 252.848C900.287 251.733 902.079 250.677 903.87 249.683L904.841 251.432ZM1222.64 249.656C1221.44 251.191 1220.22 252.759 1218.97 254.36L1217.39 253.134C1218.64 251.531 1219.86 249.962 1221.06 248.426L1222.64 249.656ZM1321.24 253.193L1319.43 254.035C1318.57 252.187 1317.73 250.383 1316.9 248.622L1318.72 247.774C1319.54 249.537 1320.38 251.344 1321.24 253.193ZM981.43 248.116C983.216 249.104 985.003 250.168 986.79 251.308L986.252 252.15L985.715 252.994C983.962 251.876 982.21 250.834 980.462 249.866L981.43 248.116ZM564.894 247.29C564.087 249.066 563.281 250.891 562.475 252.764L560.638 251.972C561.449 250.088 562.261 248.252 563.072 246.464L564.894 247.29ZM357.519 244.735C359.148 245.941 360.777 247.215 362.405 248.557L361.133 250.101C359.531 248.78 357.929 247.528 356.329 246.344L357.519 244.735ZM915.483 245.183L915.863 246.107C914.003 246.87 912.14 247.702 910.277 248.604L909.406 246.805C911.305 245.885 913.204 245.035 915.104 244.257L915.483 245.183ZM970.086 242.841C972.01 243.567 973.934 244.378 975.859 245.276L975.014 247.089C973.133 246.212 971.255 245.42 969.38 244.712L970.086 242.841ZM692.729 239.799C694.067 241.279 695.41 242.776 696.758 244.285L695.266 245.617C693.92 244.111 692.58 242.618 691.245 241.141L692.729 239.799ZM1229.99 240.295C1228.78 241.826 1227.54 243.396 1226.27 245.007L1224.7 243.771C1225.97 242.159 1227.21 240.586 1228.42 239.053L1229.99 240.295ZM55.542 238.728C56.6767 240.335 57.8052 241.984 58.9277 243.678L58.0947 244.23L57.2607 244.782C56.149 243.105 55.0313 241.472 53.9082 239.882L55.542 238.728ZM927.45 242.279C925.497 242.767 923.544 243.336 921.59 243.984L920.96 242.086C922.96 241.423 924.963 240.839 926.966 240.339L927.45 242.279ZM1313.63 237.021C1314.46 238.751 1315.31 240.532 1316.17 242.365L1314.37 243.221C1313.5 241.391 1312.65 239.613 1311.83 237.889L1313.63 237.021ZM282.678 239.708C280.944 240.679 279.209 241.731 277.474 242.862L276.381 241.187C278.152 240.032 279.925 238.957 281.699 237.963L282.678 239.708ZM347.102 237.963C348.875 238.957 350.648 240.032 352.42 241.187L351.328 242.862C349.592 241.731 347.857 240.679 346.124 239.708L346.613 238.836L347.102 237.963ZM958.049 239.397C960.078 239.794 962.109 240.282 964.14 240.865L963.588 242.788C961.612 242.221 959.637 241.746 957.665 241.36L958.049 239.397ZM939.479 240.305C937.462 240.46 935.445 240.705 933.428 241.038L933.103 239.065C935.175 238.723 937.249 238.471 939.324 238.31L939.479 240.305ZM945.59 238.107C947.676 238.134 949.763 238.254 951.852 238.471L951.748 239.465L951.646 240.46C949.618 240.249 947.591 240.132 945.565 240.106L945.59 238.107ZM293.68 234.607C291.815 235.291 289.95 236.067 288.083 236.935L287.239 235.122C289.155 234.23 291.073 233.433 292.992 232.729L293.68 234.607ZM335.81 232.729C337.729 233.433 339.646 234.23 341.562 235.122L340.719 236.935C338.852 236.067 336.986 235.291 335.121 234.607L335.466 233.669L335.81 232.729ZM684.601 230.955C685.956 232.4 687.315 233.867 688.68 235.352L687.206 236.706C685.846 235.225 684.491 233.763 683.142 232.323L684.601 230.955ZM1237.42 231.047C1236.19 232.548 1234.94 234.097 1233.66 235.694L1232.88 235.069L1232.1 234.443C1233.38 232.842 1234.64 231.288 1235.86 229.783L1237.42 231.047ZM48.3955 229.258C49.6139 230.767 50.8276 232.323 52.0352 233.924L51.2363 234.525L50.4385 235.128C49.244 233.544 48.0442 232.007 46.8398 230.515L47.6182 229.887L48.3955 229.258ZM305.368 231.53C303.396 231.846 301.423 232.265 299.449 232.787L298.938 230.853C300.974 230.314 303.013 229.882 305.052 229.556L305.368 231.53ZM323.749 229.556C325.788 229.882 327.826 230.314 329.863 230.853L329.352 232.787C327.378 232.265 325.405 231.846 323.434 231.53L323.749 229.556ZM1308.34 226.311C1309.22 228.032 1310.11 229.821 1311.03 231.678L1309.23 232.561C1308.32 230.712 1307.43 228.931 1306.56 227.22L1308.34 226.311ZM575.81 226.071C574.832 227.724 573.854 229.442 572.875 231.227L571.121 230.267C572.11 228.463 573.099 226.725 574.089 225.053L575.81 226.071ZM311.273 228.892C313.358 228.78 315.444 228.78 317.528 228.892L317.421 230.89C315.407 230.782 313.393 230.782 311.38 230.89L311.273 228.892ZM676.221 222.261C677.622 223.669 679.027 225.107 680.438 226.572L678.997 227.959C677.594 226.501 676.195 225.071 674.803 223.671L676.221 222.261ZM1244.26 221.279L1245.01 221.931C1243.78 223.374 1242.51 224.878 1241.21 226.442L1239.67 225.163C1240.98 223.592 1242.25 222.08 1243.5 220.629L1244.26 221.279ZM40.5635 220.23C41.8958 221.656 43.2247 223.131 44.5479 224.657L43.0361 225.968C41.729 224.46 40.4178 223.003 39.1025 221.596L40.5635 220.23ZM1302.67 215.776C1303.62 217.427 1304.59 219.172 1305.57 221.009L1304.69 221.48L1303.81 221.953C1302.83 220.131 1301.88 218.405 1300.94 216.773L1302.67 215.776ZM582.277 216.078C581.177 217.62 580.077 219.243 578.977 220.946L577.297 219.86C578.413 218.133 579.53 216.485 580.648 214.917L582.277 216.078ZM667.562 213.907C669.016 215.245 670.475 216.623 671.938 218.037L671.243 218.756L670.549 219.476C669.096 218.072 667.649 216.706 666.207 215.38L667.562 213.907ZM1252.89 213.103C1251.6 214.486 1250.26 215.953 1248.88 217.504L1247.38 216.174C1248.77 214.611 1250.12 213.131 1251.44 211.734L1252.89 213.103ZM32.0967 211.859C33.5452 213.179 34.9914 214.551 36.4336 215.978L35.0264 217.399C33.6038 215.991 32.1778 214.638 30.75 213.338L32.0967 211.859ZM1296.2 205.689C1297.32 207.199 1298.44 208.851 1299.58 210.645L1297.89 211.719C1296.77 209.957 1295.67 208.343 1294.59 206.878L1296.2 205.689ZM658.392 205.991C659.937 207.231 661.487 208.525 663.041 209.87L661.732 211.383C660.195 210.053 658.664 208.774 657.14 207.551L658.392 205.991ZM589.764 206.775C588.47 208.18 587.175 209.689 585.88 211.306L584.319 210.056C585.642 208.406 586.966 206.862 588.293 205.421L589.764 206.775ZM22.9229 204.213C24.4791 205.395 26.0356 206.632 27.5898 207.929L26.3086 209.465C24.7776 208.188 23.2458 206.968 21.7139 205.805L22.9229 204.213ZM1261.31 204.848C1259.94 206.06 1258.51 207.397 1257.02 208.86L1255.62 207.436C1257.12 205.951 1258.58 204.587 1259.99 203.346L1261.31 204.848ZM648.593 198.874C650.253 199.945 651.918 201.092 653.586 202.309L652.407 203.924C650.767 202.728 649.134 201.603 647.509 200.555L648.593 198.874ZM598.462 198.847C596.955 199.964 595.447 201.212 593.938 202.597L592.586 201.123C594.143 199.694 595.704 198.402 597.271 197.24L598.462 198.847ZM1287.72 196.96C1289.29 198.039 1290.83 199.398 1292.35 201.025L1290.9 202.394C1289.44 200.847 1288.01 199.588 1286.59 198.606L1287.72 196.96ZM13.1035 197.465C14.7647 198.491 16.4292 199.575 18.0947 200.72L16.9609 202.368C15.3226 201.242 13.686 200.176 12.0527 199.167L13.1035 197.465ZM1270.8 198.081C1269.24 198.879 1267.6 199.903 1265.88 201.161L1264.7 199.544C1266.49 198.237 1268.22 197.154 1269.9 196.3L1270.8 198.081ZM637.91 193.069C639.73 193.86 641.552 194.76 643.378 195.76L642.418 197.515C640.641 196.541 638.872 195.669 637.112 194.904L637.512 193.987L637.91 193.069ZM1275.73 194.22C1277.89 193.808 1279.99 193.843 1282.03 194.334L1281.56 196.279C1279.81 195.859 1278.01 195.823 1276.1 196.184L1275.73 194.22ZM2.64062 191.715C4.40477 192.569 6.17679 193.483 7.9541 194.461L6.99023 196.213C5.2433 195.252 3.502 194.354 1.76855 193.515L2.64062 191.715ZM608.677 193.192C606.911 193.849 605.145 194.666 603.378 195.653L602.402 193.907C604.255 192.872 606.114 192.011 607.98 191.317L608.677 193.192ZM626.196 189.552C628.187 189.865 630.18 190.333 632.175 190.942L631.591 192.855C629.678 192.272 627.777 191.826 625.885 191.528L626.196 189.552ZM620.073 191.084C618.138 191.098 616.209 191.278 614.286 191.635L613.922 189.669C615.963 189.29 618.009 189.099 620.059 189.084L620.073 191.084ZM-8.37305 187.077C-6.53064 187.741 -4.67418 188.464 -2.80664 189.251L-3.58301 191.094C-5.41754 190.321 -7.24096 189.611 -9.05078 188.959L-8.37305 187.077ZM-19.7998 183.623C-17.902 184.091 -15.9819 184.615 -14.043 185.201L-14.6211 187.115C-16.5261 186.54 -18.4131 186.025 -20.2783 185.565L-19.7998 183.623ZM-31.5391 181.35C-29.6054 181.626 -27.6376 181.954 -25.6406 182.34L-25.8301 183.322L-26.0205 184.304C-27.9842 183.924 -29.9195 183.601 -31.8223 183.329L-31.5391 181.35ZM-73.0244 182.932C-74.0897 182.977 -75.0841 183.004 -76 183.004V181.004C-75.1221 181.004 -74.158 180.978 -73.1094 180.934L-73.0244 182.932ZM-43.4189 180.203C-41.485 180.304 -39.5006 180.447 -37.4717 180.642L-37.6631 182.633C-39.6614 182.441 -41.6165 182.3 -43.5234 182.2L-43.4717 181.201L-43.4189 180.203ZM-61.165 182.257C-63.2688 182.36 -65.2477 182.48 -67.0918 182.595L-67.2158 180.599C-65.3713 180.484 -63.3808 180.363 -61.2627 180.26L-61.165 182.257ZM-49.3613 180.013L-49.3867 182.013C-51.4288 181.987 -53.4022 182.002 -55.2998 182.044L-55.3438 180.045C-53.4261 180.002 -51.4294 179.987 -49.3613 180.013Z" fill="#BBBBBB"/>
<path d="M414 182.939L358.253 128.693C351.999 122.436 341.861 122.436 335.608 128.693L250.69 213.67C244.437 219.927 244.437 230.073 250.69 236.33L335.608 321.307C341.861 327.564 351.999 327.564 358.253 321.307L414 266.561" stroke="#189BFA" stroke-width="3" stroke-linecap="round"/>
<path d="M415.16 265.5L444.31 236.33C450.563 230.073 450.563 219.927 444.31 213.67L414.661 184" stroke="#1B3B7C" stroke-width="3" stroke-dasharray="1 6"/>
<g filter="url(#filter0_d_512_620)">
<rect x="250" y="225" width="136" height="136" rx="16" transform="rotate(-45 250 225)" fill="white" shape-rendering="crispEdges"/>
<path d="M308.591 218.65C310.249 218.65 311.459 218.99 312.221 219.67C312.982 220.35 313.363 221.302 313.363 222.526C313.363 223.083 313.275 223.613 313.1 224.117C312.93 224.615 312.648 225.058 312.256 225.444C311.863 225.825 311.345 226.127 310.7 226.35C310.062 226.572 309.273 226.684 308.336 226.684H306.965V231.5H304.855V218.65H308.591ZM308.45 220.399H306.965V224.926H308.116C308.778 224.926 309.341 224.85 309.804 224.697C310.267 224.539 310.618 224.29 310.858 223.95C311.099 223.61 311.219 223.162 311.219 222.605C311.219 221.861 310.993 221.308 310.542 220.944C310.097 220.581 309.399 220.399 308.45 220.399ZM320.649 221.586C320.813 221.586 320.992 221.595 321.186 221.612C321.379 221.63 321.546 221.653 321.687 221.683L321.493 223.616C321.37 223.581 321.218 223.555 321.036 223.537C320.86 223.52 320.702 223.511 320.562 223.511C320.192 223.511 319.841 223.572 319.507 223.695C319.173 223.812 318.877 223.994 318.619 224.24C318.361 224.48 318.159 224.782 318.013 225.146C317.866 225.509 317.793 225.931 317.793 226.411V231.5H315.719V221.771H317.336L317.617 223.484H317.714C317.907 223.139 318.147 222.822 318.435 222.535C318.722 222.248 319.05 222.02 319.419 221.85C319.794 221.674 320.204 221.586 320.649 221.586ZM327.364 221.586C328.231 221.586 328.976 221.765 329.597 222.122C330.218 222.479 330.695 222.986 331.029 223.643C331.363 224.299 331.53 225.084 331.53 225.998V227.105H325.035C325.059 228.049 325.311 228.775 325.791 229.285C326.277 229.795 326.957 230.05 327.83 230.05C328.451 230.05 329.008 229.991 329.5 229.874C329.998 229.751 330.511 229.572 331.038 229.338V231.017C330.552 231.245 330.057 231.412 329.553 231.518C329.049 231.623 328.445 231.676 327.742 231.676C326.787 231.676 325.946 231.491 325.22 231.122C324.499 230.747 323.934 230.19 323.523 229.452C323.119 228.714 322.917 227.797 322.917 226.701C322.917 225.611 323.102 224.686 323.471 223.924C323.84 223.162 324.358 222.582 325.026 222.184C325.694 221.785 326.474 221.586 327.364 221.586ZM327.364 223.142C326.714 223.142 326.187 223.353 325.782 223.774C325.384 224.196 325.149 224.814 325.079 225.629H329.509C329.503 225.143 329.421 224.712 329.263 224.337C329.11 223.962 328.876 223.669 328.56 223.458C328.249 223.247 327.851 223.142 327.364 223.142ZM338.852 221.586C340.006 221.586 340.932 222.008 341.629 222.852C342.332 223.695 342.684 224.949 342.684 226.613C342.684 227.715 342.52 228.644 342.191 229.399C341.869 230.149 341.415 230.718 340.829 231.104C340.249 231.485 339.572 231.676 338.799 231.676C338.307 231.676 337.879 231.611 337.516 231.482C337.152 231.354 336.842 231.187 336.584 230.981C336.326 230.771 336.109 230.542 335.934 230.296H335.811C335.84 230.53 335.866 230.791 335.89 231.078C335.919 231.359 335.934 231.617 335.934 231.852V235.815H333.859V221.771H335.547L335.837 223.115H335.934C336.115 222.84 336.335 222.585 336.593 222.351C336.856 222.116 337.173 221.932 337.542 221.797C337.917 221.656 338.354 221.586 338.852 221.586ZM338.298 223.273C337.729 223.273 337.272 223.388 336.927 223.616C336.587 223.839 336.338 224.176 336.18 224.627C336.027 225.078 335.945 225.644 335.934 226.323V226.613C335.934 227.334 336.007 227.946 336.153 228.45C336.306 228.948 336.555 229.329 336.9 229.593C337.252 229.851 337.727 229.979 338.324 229.979C338.828 229.979 339.244 229.842 339.572 229.566C339.906 229.291 340.155 228.898 340.319 228.389C340.483 227.879 340.565 227.278 340.565 226.587C340.565 225.538 340.378 224.724 340.003 224.144C339.634 223.563 339.065 223.273 338.298 223.273ZM348.889 221.586C350.119 221.586 351.048 221.858 351.675 222.403C352.308 222.948 352.624 223.798 352.624 224.952V231.5H351.156L350.761 230.12H350.69C350.415 230.472 350.131 230.762 349.838 230.99C349.545 231.219 349.205 231.389 348.818 231.5C348.437 231.617 347.972 231.676 347.421 231.676C346.841 231.676 346.322 231.57 345.865 231.359C345.408 231.143 345.048 230.814 344.784 230.375C344.521 229.936 344.389 229.379 344.389 228.705C344.389 227.703 344.761 226.95 345.505 226.446C346.255 225.942 347.386 225.664 348.897 225.611L350.585 225.55V225.04C350.585 224.366 350.427 223.886 350.11 223.599C349.8 223.312 349.36 223.168 348.792 223.168C348.306 223.168 347.834 223.238 347.377 223.379C346.92 223.52 346.475 223.692 346.041 223.897L345.373 222.438C345.848 222.187 346.387 221.981 346.99 221.823C347.6 221.665 348.232 221.586 348.889 221.586ZM350.576 226.851L349.319 226.895C348.288 226.93 347.564 227.105 347.148 227.422C346.732 227.738 346.524 228.172 346.524 228.723C346.524 229.203 346.668 229.555 346.955 229.777C347.242 229.994 347.62 230.103 348.089 230.103C348.804 230.103 349.396 229.9 349.864 229.496C350.339 229.086 350.576 228.485 350.576 227.694V226.851ZM360.446 221.586C360.61 221.586 360.789 221.595 360.982 221.612C361.176 221.63 361.343 221.653 361.483 221.683L361.29 223.616C361.167 223.581 361.015 223.555 360.833 223.537C360.657 223.52 360.499 223.511 360.358 223.511C359.989 223.511 359.638 223.572 359.304 223.695C358.97 223.812 358.674 223.994 358.416 224.24C358.158 224.48 357.956 224.782 357.81 225.146C357.663 225.509 357.59 225.931 357.59 226.411V231.5H355.516V221.771H357.133L357.414 223.484H357.511C357.704 223.139 357.944 222.822 358.231 222.535C358.519 222.248 358.847 222.02 359.216 221.85C359.591 221.674 360.001 221.586 360.446 221.586ZM365.351 221.771V231.5H363.285V221.771H365.351ZM364.331 218.044C364.647 218.044 364.92 218.129 365.148 218.299C365.383 218.469 365.5 218.762 365.5 219.178C365.5 219.588 365.383 219.881 365.148 220.057C364.92 220.227 364.647 220.312 364.331 220.312C364.003 220.312 363.725 220.227 363.496 220.057C363.273 219.881 363.162 219.588 363.162 219.178C363.162 218.762 363.273 218.469 363.496 218.299C363.725 218.129 364.003 218.044 364.331 218.044ZM373.384 221.586C374.479 221.586 375.332 221.87 375.941 222.438C376.557 223.001 376.864 223.906 376.864 225.154V231.5H374.799V225.541C374.799 224.785 374.644 224.22 374.333 223.845C374.022 223.464 373.542 223.273 372.892 223.273C371.948 223.273 371.292 223.563 370.923 224.144C370.56 224.724 370.378 225.564 370.378 226.666V231.5H368.312V221.771H369.921L370.211 223.089H370.325C370.536 222.749 370.797 222.471 371.107 222.254C371.424 222.031 371.775 221.864 372.162 221.753C372.555 221.642 372.962 221.586 373.384 221.586ZM382.533 235.824C381.215 235.824 380.204 235.587 379.501 235.112C378.798 234.638 378.446 233.973 378.446 233.117C378.446 232.52 378.634 232.013 379.009 231.597C379.384 231.187 379.92 230.902 380.617 230.744C380.354 230.627 380.125 230.445 379.932 230.199C379.744 229.947 379.65 229.669 379.65 229.364C379.65 229.001 379.753 228.69 379.958 228.433C380.163 228.175 380.471 227.926 380.881 227.686C380.371 227.469 379.961 227.117 379.65 226.631C379.346 226.139 379.193 225.562 379.193 224.899C379.193 224.196 379.343 223.599 379.642 223.106C379.94 222.608 380.377 222.23 380.951 221.973C381.525 221.709 382.22 221.577 383.034 221.577C383.21 221.577 383.4 221.589 383.605 221.612C383.816 221.63 384.01 221.653 384.186 221.683C384.367 221.706 384.505 221.732 384.599 221.762H387.965V222.913L386.312 223.221C386.471 223.443 386.597 223.698 386.69 223.985C386.784 224.267 386.831 224.574 386.831 224.908C386.831 225.916 386.482 226.71 385.785 227.29C385.094 227.864 384.139 228.151 382.92 228.151C382.627 228.14 382.343 228.116 382.067 228.081C381.856 228.21 381.695 228.354 381.584 228.512C381.473 228.664 381.417 228.837 381.417 229.03C381.417 229.188 381.473 229.317 381.584 229.417C381.695 229.511 381.859 229.581 382.076 229.628C382.299 229.675 382.568 229.698 382.885 229.698H384.563C385.63 229.698 386.444 229.924 387.007 230.375C387.569 230.826 387.851 231.488 387.851 232.361C387.851 233.469 387.394 234.321 386.479 234.919C385.565 235.522 384.25 235.824 382.533 235.824ZM382.612 234.374C383.333 234.374 383.939 234.304 384.432 234.163C384.924 234.022 385.296 233.82 385.548 233.557C385.8 233.299 385.926 232.991 385.926 232.634C385.926 232.317 385.847 232.074 385.688 231.904C385.53 231.734 385.293 231.617 384.977 231.553C384.66 231.488 384.268 231.456 383.799 231.456H382.27C381.889 231.456 381.552 231.515 381.259 231.632C380.966 231.755 380.737 231.931 380.573 232.159C380.415 232.388 380.336 232.663 380.336 232.985C380.336 233.431 380.532 233.773 380.925 234.014C381.323 234.254 381.886 234.374 382.612 234.374ZM383.017 226.798C383.62 226.798 384.068 226.634 384.361 226.306C384.654 225.972 384.801 225.503 384.801 224.899C384.801 224.243 384.648 223.751 384.344 223.423C384.045 223.095 383.6 222.931 383.008 222.931C382.428 222.931 381.985 223.098 381.681 223.432C381.382 223.766 381.232 224.261 381.232 224.917C381.232 225.509 381.382 225.972 381.681 226.306C381.985 226.634 382.431 226.798 383.017 226.798Z" fill="#1B3B7C"/>
<rect x="312" y="141.485" width="48" height="48" rx="24" transform="rotate(-45 312 141.485)" fill="#1B3B7C"/>
<path d="M345.074 141.56C345.074 142.597 344.992 143.523 344.828 144.338C344.67 145.152 344.412 145.844 344.055 146.412C343.703 146.98 343.24 147.414 342.666 147.713C342.092 148.011 341.395 148.161 340.574 148.161C339.543 148.161 338.696 147.9 338.034 147.379C337.372 146.851 336.883 146.095 336.566 145.111C336.25 144.121 336.092 142.937 336.092 141.56C336.092 140.172 336.235 138.985 336.522 138.001C336.815 137.01 337.29 136.252 337.946 135.724C338.603 135.197 339.479 134.933 340.574 134.933C341.6 134.933 342.443 135.197 343.105 135.724C343.773 136.246 344.269 137.002 344.591 137.992C344.913 138.976 345.074 140.166 345.074 141.56ZM338.79 141.56C338.79 142.539 338.843 143.356 338.948 144.012C339.06 144.663 339.244 145.152 339.502 145.48C339.76 145.808 340.117 145.972 340.574 145.972C341.025 145.972 341.38 145.811 341.638 145.489C341.901 145.161 342.089 144.672 342.2 144.021C342.312 143.365 342.367 142.545 342.367 141.56C342.367 140.582 342.312 139.764 342.2 139.108C342.089 138.452 341.901 137.96 341.638 137.632C341.38 137.298 341.025 137.131 340.574 137.131C340.117 137.131 339.76 137.298 339.502 137.632C339.244 137.96 339.06 138.452 338.948 139.108C338.843 139.764 338.79 140.582 338.79 141.56ZM353.178 147.985H350.462V140.55C350.462 140.344 350.465 140.093 350.471 139.794C350.477 139.489 350.485 139.178 350.497 138.862C350.509 138.54 350.521 138.25 350.532 137.992C350.468 138.068 350.336 138.2 350.137 138.387C349.943 138.569 349.762 138.733 349.592 138.88L348.115 140.066L346.806 138.431L350.945 135.135H353.178V147.985Z" fill="white"/>
</g>
<path d="M711 182.939L655.253 128.693C648.999 122.436 638.861 122.436 632.608 128.693L547.69 213.67C541.437 219.927 541.437 230.073 547.69 236.33L632.608 321.307C638.861 327.564 648.999 327.564 655.253 321.307L711 266.561" stroke="#189BFA" stroke-width="3" stroke-linecap="round"/>
<path d="M712.16 265.5L741.31 236.33C747.563 230.073 747.563 219.927 741.31 213.67L711.661 184" stroke="#1B3B7C" stroke-width="3" stroke-dasharray="1 6"/>
<g filter="url(#filter1_d_512_620)">
<rect x="547" y="225" width="136" height="136" rx="16" transform="rotate(-45 547 225)" fill="white" shape-rendering="crispEdges"/>
<path d="M609.273 228.002C609.273 228.764 609.086 229.42 608.711 229.971C608.342 230.521 607.809 230.943 607.111 231.236C606.42 231.529 605.594 231.676 604.633 231.676C604.164 231.676 603.716 231.649 603.288 231.597C602.86 231.544 602.456 231.468 602.075 231.368C601.7 231.263 601.357 231.137 601.047 230.99V229.004C601.568 229.232 602.151 229.44 602.796 229.628C603.44 229.81 604.097 229.9 604.765 229.9C605.31 229.9 605.761 229.83 606.118 229.689C606.481 229.543 606.751 229.338 606.927 229.074C607.103 228.805 607.19 228.491 607.19 228.134C607.19 227.753 607.088 227.431 606.883 227.167C606.678 226.903 606.367 226.663 605.951 226.446C605.541 226.224 605.025 225.986 604.404 225.734C603.982 225.564 603.578 225.371 603.191 225.154C602.811 224.937 602.471 224.683 602.172 224.39C601.873 224.097 601.636 223.751 601.46 223.353C601.29 222.948 601.205 222.474 601.205 221.929C601.205 221.202 601.378 220.581 601.724 220.065C602.075 219.55 602.567 219.154 603.2 218.879C603.839 218.604 604.583 218.466 605.433 218.466C606.106 218.466 606.739 218.536 607.331 218.677C607.929 218.817 608.515 219.017 609.089 219.274L608.421 220.971C607.894 220.754 607.381 220.581 606.883 220.452C606.391 220.323 605.887 220.259 605.371 220.259C604.926 220.259 604.548 220.326 604.237 220.461C603.927 220.596 603.689 220.786 603.525 221.032C603.367 221.272 603.288 221.56 603.288 221.894C603.288 222.269 603.379 222.585 603.561 222.843C603.748 223.095 604.035 223.326 604.422 223.537C604.814 223.748 605.318 223.982 605.934 224.24C606.643 224.533 607.243 224.841 607.735 225.163C608.233 225.485 608.614 225.872 608.878 226.323C609.142 226.769 609.273 227.328 609.273 228.002ZM615.461 231.676C614.541 231.676 613.744 231.497 613.07 231.14C612.396 230.782 611.878 230.234 611.515 229.496C611.151 228.758 610.97 227.82 610.97 226.684C610.97 225.5 611.169 224.533 611.567 223.783C611.966 223.033 612.517 222.479 613.22 222.122C613.929 221.765 614.74 221.586 615.654 221.586C616.234 221.586 616.759 221.645 617.228 221.762C617.702 221.873 618.104 222.011 618.432 222.175L617.816 223.827C617.459 223.681 617.093 223.558 616.718 223.458C616.343 223.358 615.982 223.309 615.637 223.309C615.068 223.309 614.594 223.435 614.213 223.687C613.838 223.938 613.557 224.313 613.369 224.812C613.187 225.31 613.097 225.928 613.097 226.666C613.097 227.381 613.19 227.984 613.378 228.477C613.565 228.963 613.844 229.332 614.213 229.584C614.582 229.83 615.036 229.953 615.575 229.953C616.108 229.953 616.586 229.889 617.008 229.76C617.43 229.631 617.828 229.464 618.203 229.259V231.052C617.834 231.263 617.438 231.418 617.017 231.518C616.595 231.623 616.076 231.676 615.461 231.676ZM625.419 221.586C625.583 221.586 625.762 221.595 625.955 221.612C626.148 221.63 626.315 221.653 626.456 221.683L626.263 223.616C626.14 223.581 625.987 223.555 625.806 223.537C625.63 223.52 625.472 223.511 625.331 223.511C624.962 223.511 624.61 223.572 624.276 223.695C623.942 223.812 623.646 223.994 623.389 224.24C623.131 224.48 622.929 224.782 622.782 225.146C622.636 225.509 622.562 225.931 622.562 226.411V231.5H620.488V221.771H622.105L622.387 223.484H622.483C622.677 223.139 622.917 222.822 623.204 222.535C623.491 222.248 623.819 222.02 624.188 221.85C624.563 221.674 624.974 221.586 625.419 221.586ZM632.134 221.586C633.001 221.586 633.745 221.765 634.366 222.122C634.987 222.479 635.465 222.986 635.799 223.643C636.133 224.299 636.3 225.084 636.3 225.998V227.105H629.805C629.828 228.049 630.08 228.775 630.561 229.285C631.047 229.795 631.727 230.05 632.6 230.05C633.221 230.05 633.777 229.991 634.27 229.874C634.768 229.751 635.28 229.572 635.808 229.338V231.017C635.321 231.245 634.826 231.412 634.322 231.518C633.818 231.623 633.215 231.676 632.512 231.676C631.557 231.676 630.716 231.491 629.989 231.122C629.269 230.747 628.703 230.19 628.293 229.452C627.889 228.714 627.687 227.797 627.687 226.701C627.687 225.611 627.871 224.686 628.24 223.924C628.609 223.162 629.128 222.582 629.796 222.184C630.464 221.785 631.243 221.586 632.134 221.586ZM632.134 223.142C631.483 223.142 630.956 223.353 630.552 223.774C630.153 224.196 629.919 224.814 629.849 225.629H634.278C634.272 225.143 634.19 224.712 634.032 224.337C633.88 223.962 633.646 223.669 633.329 223.458C633.019 223.247 632.62 223.142 632.134 223.142ZM642.505 221.586C643.372 221.586 644.116 221.765 644.737 222.122C645.358 222.479 645.836 222.986 646.17 223.643C646.504 224.299 646.671 225.084 646.671 225.998V227.105H640.176C640.199 228.049 640.451 228.775 640.932 229.285C641.418 229.795 642.098 230.05 642.971 230.05C643.592 230.05 644.148 229.991 644.641 229.874C645.139 229.751 645.651 229.572 646.179 229.338V231.017C645.692 231.245 645.197 231.412 644.693 231.518C644.189 231.623 643.586 231.676 642.883 231.676C641.928 231.676 641.087 231.491 640.36 231.122C639.64 230.747 639.074 230.19 638.664 229.452C638.26 228.714 638.058 227.797 638.058 226.701C638.058 225.611 638.242 224.686 638.611 223.924C638.98 223.162 639.499 222.582 640.167 222.184C640.835 221.785 641.614 221.586 642.505 221.586ZM642.505 223.142C641.854 223.142 641.327 223.353 640.923 223.774C640.524 224.196 640.29 224.814 640.22 225.629H644.649C644.644 225.143 644.562 224.712 644.403 224.337C644.251 223.962 644.017 223.669 643.7 223.458C643.39 223.247 642.991 223.142 642.505 223.142ZM654.071 221.586C655.167 221.586 656.02 221.87 656.629 222.438C657.244 223.001 657.552 223.906 657.552 225.154V231.5H655.486V225.541C655.486 224.785 655.331 224.22 655.021 223.845C654.71 223.464 654.229 223.273 653.579 223.273C652.636 223.273 651.979 223.563 651.61 224.144C651.247 224.724 651.065 225.564 651.065 226.666V231.5H649V221.771H650.608L650.898 223.089H651.013C651.224 222.749 651.484 222.471 651.795 222.254C652.111 222.031 652.463 221.864 652.85 221.753C653.242 221.642 653.649 221.586 654.071 221.586ZM662.509 221.771V231.5H660.443V221.771H662.509ZM661.489 218.044C661.806 218.044 662.078 218.129 662.307 218.299C662.541 218.469 662.658 218.762 662.658 219.178C662.658 219.588 662.541 219.881 662.307 220.057C662.078 220.227 661.806 220.312 661.489 220.312C661.161 220.312 660.883 220.227 660.654 220.057C660.432 219.881 660.32 219.588 660.32 219.178C660.32 218.762 660.432 218.469 660.654 218.299C660.883 218.129 661.161 218.044 661.489 218.044ZM670.542 221.586C671.638 221.586 672.49 221.87 673.1 222.438C673.715 223.001 674.022 223.906 674.022 225.154V231.5H671.957V225.541C671.957 224.785 671.802 224.22 671.491 223.845C671.181 223.464 670.7 223.273 670.05 223.273C669.106 223.273 668.45 223.563 668.081 224.144C667.718 224.724 667.536 225.564 667.536 226.666V231.5H665.471V221.771H667.079L667.369 223.089H667.483C667.694 222.749 667.955 222.471 668.266 222.254C668.582 222.031 668.934 221.864 669.32 221.753C669.713 221.642 670.12 221.586 670.542 221.586ZM679.691 235.824C678.373 235.824 677.362 235.587 676.659 235.112C675.956 234.638 675.604 233.973 675.604 233.117C675.604 232.52 675.792 232.013 676.167 231.597C676.542 231.187 677.078 230.902 677.775 230.744C677.512 230.627 677.283 230.445 677.09 230.199C676.902 229.947 676.809 229.669 676.809 229.364C676.809 229.001 676.911 228.69 677.116 228.433C677.321 228.175 677.629 227.926 678.039 227.686C677.529 227.469 677.119 227.117 676.809 226.631C676.504 226.139 676.352 225.562 676.352 224.899C676.352 224.196 676.501 223.599 676.8 223.106C677.099 222.608 677.535 222.23 678.109 221.973C678.684 221.709 679.378 221.577 680.192 221.577C680.368 221.577 680.559 221.589 680.764 221.612C680.975 221.63 681.168 221.653 681.344 221.683C681.525 221.706 681.663 221.732 681.757 221.762H685.123V222.913L683.471 223.221C683.629 223.443 683.755 223.698 683.849 223.985C683.942 224.267 683.989 224.574 683.989 224.908C683.989 225.916 683.641 226.71 682.943 227.29C682.252 227.864 681.297 228.151 680.078 228.151C679.785 228.14 679.501 228.116 679.226 228.081C679.015 228.21 678.854 228.354 678.742 228.512C678.631 228.664 678.575 228.837 678.575 229.03C678.575 229.188 678.631 229.317 678.742 229.417C678.854 229.511 679.018 229.581 679.234 229.628C679.457 229.675 679.727 229.698 680.043 229.698H681.722C682.788 229.698 683.603 229.924 684.165 230.375C684.728 230.826 685.009 231.488 685.009 232.361C685.009 233.469 684.552 234.321 683.638 234.919C682.724 235.522 681.408 235.824 679.691 235.824ZM679.771 234.374C680.491 234.374 681.098 234.304 681.59 234.163C682.082 234.022 682.454 233.82 682.706 233.557C682.958 233.299 683.084 232.991 683.084 232.634C683.084 232.317 683.005 232.074 682.847 231.904C682.688 231.734 682.451 231.617 682.135 231.553C681.818 231.488 681.426 231.456 680.957 231.456H679.428C679.047 231.456 678.71 231.515 678.417 231.632C678.124 231.755 677.896 231.931 677.731 232.159C677.573 232.388 677.494 232.663 677.494 232.985C677.494 233.431 677.69 233.773 678.083 234.014C678.481 234.254 679.044 234.374 679.771 234.374ZM680.175 226.798C680.778 226.798 681.227 226.634 681.52 226.306C681.812 225.972 681.959 225.503 681.959 224.899C681.959 224.243 681.807 223.751 681.502 223.423C681.203 223.095 680.758 222.931 680.166 222.931C679.586 222.931 679.144 223.098 678.839 223.432C678.54 223.766 678.391 224.261 678.391 224.917C678.391 225.509 678.54 225.972 678.839 226.306C679.144 226.634 679.589 226.798 680.175 226.798Z" fill="#1B3B7C"/>
<rect x="609" y="141.485" width="48" height="48" rx="24" transform="rotate(-45 609 141.485)" fill="#1B3B7C"/>
<path d="M642.074 141.56C642.074 142.597 641.992 143.523 641.828 144.338C641.67 145.152 641.412 145.844 641.055 146.412C640.703 146.98 640.24 147.414 639.666 147.713C639.092 148.011 638.395 148.161 637.574 148.161C636.543 148.161 635.696 147.9 635.034 147.379C634.372 146.851 633.883 146.095 633.566 145.111C633.25 144.121 633.092 142.937 633.092 141.56C633.092 140.172 633.235 138.985 633.522 138.001C633.815 137.01 634.29 136.252 634.946 135.724C635.603 135.197 636.479 134.933 637.574 134.933C638.6 134.933 639.443 135.197 640.105 135.724C640.773 136.246 641.269 137.002 641.591 137.992C641.913 138.976 642.074 140.166 642.074 141.56ZM635.79 141.56C635.79 142.539 635.843 143.356 635.948 144.012C636.06 144.663 636.244 145.152 636.502 145.48C636.76 145.808 637.117 145.972 637.574 145.972C638.025 145.972 638.38 145.811 638.638 145.489C638.901 145.161 639.089 144.672 639.2 144.021C639.312 143.365 639.367 142.545 639.367 141.56C639.367 140.582 639.312 139.764 639.2 139.108C639.089 138.452 638.901 137.96 638.638 137.632C638.38 137.298 638.025 137.131 637.574 137.131C637.117 137.131 636.76 137.298 636.502 137.632C636.244 137.96 636.06 138.452 635.948 139.108C635.843 139.764 635.79 140.582 635.79 141.56ZM651.944 138.01C651.944 138.601 651.821 139.114 651.575 139.548C651.329 139.981 650.995 140.336 650.573 140.611C650.157 140.886 649.688 141.089 649.167 141.218V141.27C650.198 141.399 650.98 141.716 651.514 142.219C652.053 142.723 652.322 143.397 652.322 144.241C652.322 144.991 652.138 145.662 651.769 146.254C651.405 146.845 650.843 147.311 650.081 147.651C649.319 147.991 648.338 148.161 647.137 148.161C646.428 148.161 645.766 148.102 645.15 147.985C644.541 147.874 643.967 147.701 643.428 147.467V145.155C643.979 145.436 644.556 145.65 645.159 145.797C645.763 145.937 646.325 146.008 646.847 146.008C647.819 146.008 648.499 145.841 648.886 145.507C649.278 145.167 649.475 144.692 649.475 144.083C649.475 143.725 649.384 143.424 649.202 143.177C649.021 142.931 648.704 142.744 648.253 142.615C647.808 142.486 647.184 142.422 646.381 142.422H645.405V140.339H646.398C647.189 140.339 647.79 140.265 648.2 140.119C648.616 139.967 648.897 139.761 649.044 139.504C649.196 139.24 649.272 138.941 649.272 138.607C649.272 138.15 649.132 137.793 648.851 137.535C648.569 137.277 648.101 137.148 647.444 137.148C647.034 137.148 646.659 137.201 646.319 137.306C645.985 137.406 645.684 137.529 645.414 137.676C645.145 137.816 644.907 137.954 644.702 138.089L643.445 136.217C643.949 135.853 644.538 135.552 645.212 135.311C645.892 135.071 646.7 134.951 647.638 134.951C648.962 134.951 650.011 135.218 650.784 135.751C651.558 136.284 651.944 137.037 651.944 138.01Z" fill="white"/>
</g>
<path d="M1008 182.939L952.253 128.693C945.999 122.436 935.861 122.436 929.608 128.693L844.69 213.67C838.437 219.927 838.437 230.073 844.69 236.33L929.608 321.307C935.861 327.564 945.999 327.564 952.253 321.307L1008 266.561" stroke="#189BFA" stroke-width="3" stroke-linecap="round"/>
<path d="M1009.16 265.5L1038.31 236.33C1044.56 230.073 1044.56 219.927 1038.31 213.67L1008.66 184" stroke="#1B3B7C" stroke-width="3" stroke-dasharray="1 6"/>
<g filter="url(#filter2_d_512_620)">
<rect x="844" y="225" width="136" height="136" rx="16" transform="rotate(-45 844 225)" fill="white" shape-rendering="crispEdges"/>
<path d="M925.489 231.5H923.389V225.699H917.465V231.5H915.355V218.65H917.465V223.906H923.389V218.65H925.489V231.5ZM930.745 221.771V231.5H928.68V221.771H930.745ZM929.726 218.044C930.042 218.044 930.314 218.129 930.543 218.299C930.777 218.469 930.895 218.762 930.895 219.178C930.895 219.588 930.777 219.881 930.543 220.057C930.314 220.227 930.042 220.312 929.726 220.312C929.397 220.312 929.119 220.227 928.891 220.057C928.668 219.881 928.557 219.588 928.557 219.178C928.557 218.762 928.668 218.469 928.891 218.299C929.119 218.129 929.397 218.044 929.726 218.044ZM938.638 221.586C938.802 221.586 938.98 221.595 939.174 221.612C939.367 221.63 939.534 221.653 939.675 221.683L939.481 223.616C939.358 223.581 939.206 223.555 939.024 223.537C938.849 223.52 938.69 223.511 938.55 223.511C938.181 223.511 937.829 223.572 937.495 223.695C937.161 223.812 936.865 223.994 936.607 224.24C936.35 224.48 936.147 224.782 936.001 225.146C935.854 225.509 935.781 225.931 935.781 226.411V231.5H933.707V221.771H935.324L935.605 223.484H935.702C935.896 223.139 936.136 222.822 936.423 222.535C936.71 222.248 937.038 222.02 937.407 221.85C937.782 221.674 938.192 221.586 938.638 221.586ZM943.542 221.771V231.5H941.477V221.771H943.542ZM942.522 218.044C942.839 218.044 943.111 218.129 943.34 218.299C943.574 218.469 943.691 218.762 943.691 219.178C943.691 219.588 943.574 219.881 943.34 220.057C943.111 220.227 942.839 220.312 942.522 220.312C942.194 220.312 941.916 220.227 941.687 220.057C941.465 219.881 941.354 219.588 941.354 219.178C941.354 218.762 941.465 218.469 941.687 218.299C941.916 218.129 942.194 218.044 942.522 218.044ZM951.575 221.586C952.671 221.586 953.523 221.87 954.133 222.438C954.748 223.001 955.056 223.906 955.056 225.154V231.5H952.99V225.541C952.99 224.785 952.835 224.22 952.524 223.845C952.214 223.464 951.733 223.273 951.083 223.273C950.14 223.273 949.483 223.563 949.114 224.144C948.751 224.724 948.569 225.564 948.569 226.666V231.5H946.504V221.771H948.112L948.402 223.089H948.517C948.728 222.749 948.988 222.471 949.299 222.254C949.615 222.031 949.967 221.864 950.354 221.753C950.746 221.642 951.153 221.586 951.575 221.586ZM960.725 235.824C959.406 235.824 958.396 235.587 957.692 235.112C956.989 234.638 956.638 233.973 956.638 233.117C956.638 232.52 956.825 232.013 957.2 231.597C957.575 231.187 958.111 230.902 958.809 230.744C958.545 230.627 958.316 230.445 958.123 230.199C957.936 229.947 957.842 229.669 957.842 229.364C957.842 229.001 957.944 228.69 958.149 228.433C958.354 228.175 958.662 227.926 959.072 227.686C958.562 227.469 958.152 227.117 957.842 226.631C957.537 226.139 957.385 225.562 957.385 224.899C957.385 224.196 957.534 223.599 957.833 223.106C958.132 222.608 958.568 222.23 959.143 221.973C959.717 221.709 960.411 221.577 961.226 221.577C961.401 221.577 961.592 221.589 961.797 221.612C962.008 221.63 962.201 221.653 962.377 221.683C962.559 221.706 962.696 221.732 962.79 221.762H966.156V222.913L964.504 223.221C964.662 223.443 964.788 223.698 964.882 223.985C964.976 224.267 965.022 224.574 965.022 224.908C965.022 225.916 964.674 226.71 963.977 227.29C963.285 227.864 962.33 228.151 961.111 228.151C960.818 228.14 960.534 228.116 960.259 228.081C960.048 228.21 959.887 228.354 959.775 228.512C959.664 228.664 959.608 228.837 959.608 229.03C959.608 229.188 959.664 229.317 959.775 229.417C959.887 229.511 960.051 229.581 960.268 229.628C960.49 229.675 960.76 229.698 961.076 229.698H962.755C963.821 229.698 964.636 229.924 965.198 230.375C965.761 230.826 966.042 231.488 966.042 232.361C966.042 233.469 965.585 234.321 964.671 234.919C963.757 235.522 962.441 235.824 960.725 235.824ZM960.804 234.374C961.524 234.374 962.131 234.304 962.623 234.163C963.115 234.022 963.487 233.82 963.739 233.557C963.991 233.299 964.117 232.991 964.117 232.634C964.117 232.317 964.038 232.074 963.88 231.904C963.722 231.734 963.484 231.617 963.168 231.553C962.852 231.488 962.459 231.456 961.99 231.456H960.461C960.08 231.456 959.743 231.515 959.45 231.632C959.157 231.755 958.929 231.931 958.765 232.159C958.606 232.388 958.527 232.663 958.527 232.985C958.527 233.431 958.724 233.773 959.116 234.014C959.515 234.254 960.077 234.374 960.804 234.374ZM961.208 226.798C961.812 226.798 962.26 226.634 962.553 226.306C962.846 225.972 962.992 225.503 962.992 224.899C962.992 224.243 962.84 223.751 962.535 223.423C962.236 223.095 961.791 222.931 961.199 222.931C960.619 222.931 960.177 223.098 959.872 223.432C959.573 223.766 959.424 224.261 959.424 224.917C959.424 225.509 959.573 225.972 959.872 226.306C960.177 226.634 960.622 226.798 961.208 226.798Z" fill="#1B3B7C"/>
<rect x="906" y="141.485" width="48" height="48" rx="24" transform="rotate(-45 906 141.485)" fill="#1B3B7C"/>
<path d="M939.074 141.56C939.074 142.597 938.992 143.523 938.828 144.338C938.67 145.152 938.412 145.844 938.055 146.412C937.703 146.98 937.24 147.414 936.666 147.713C936.092 148.011 935.395 148.161 934.574 148.161C933.543 148.161 932.696 147.9 932.034 147.379C931.372 146.851 930.883 146.095 930.566 145.111C930.25 144.121 930.092 142.937 930.092 141.56C930.092 140.172 930.235 138.985 930.522 138.001C930.815 137.01 931.29 136.252 931.946 135.724C932.603 135.197 933.479 134.933 934.574 134.933C935.6 134.933 936.443 135.197 937.105 135.724C937.773 136.246 938.269 137.002 938.591 137.992C938.913 138.976 939.074 140.166 939.074 141.56ZM932.79 141.56C932.79 142.539 932.843 143.356 932.948 144.012C933.06 144.663 933.244 145.152 933.502 145.48C933.76 145.808 934.117 145.972 934.574 145.972C935.025 145.972 935.38 145.811 935.638 145.489C935.901 145.161 936.089 144.672 936.2 144.021C936.312 143.365 936.367 142.545 936.367 141.56C936.367 140.582 936.312 139.764 936.2 139.108C936.089 138.452 935.901 137.96 935.638 137.632C935.38 137.298 935.025 137.131 934.574 137.131C934.117 137.131 933.76 137.298 933.502 137.632C933.244 137.96 933.06 138.452 932.948 139.108C932.843 139.764 932.79 140.582 932.79 141.56ZM945.139 139.776C945.924 139.776 946.621 139.926 947.23 140.224C947.846 140.523 948.329 140.963 948.681 141.543C949.032 142.123 949.208 142.838 949.208 143.687C949.208 144.613 949.015 145.413 948.628 146.087C948.247 146.755 947.676 147.267 946.914 147.625C946.158 147.982 945.215 148.161 944.084 148.161C943.41 148.161 942.774 148.102 942.177 147.985C941.585 147.874 941.066 147.701 940.621 147.467V145.12C941.066 145.354 941.6 145.553 942.221 145.718C942.848 145.876 943.437 145.955 943.987 145.955C944.526 145.955 944.98 145.885 945.35 145.744C945.719 145.597 945.997 145.375 946.185 145.076C946.378 144.771 946.475 144.385 946.475 143.916C946.475 143.289 946.264 142.808 945.842 142.474C945.42 142.14 944.772 141.973 943.899 141.973C943.565 141.973 943.217 142.006 942.854 142.07C942.496 142.135 942.197 142.199 941.957 142.263L940.876 141.683L941.359 135.135H948.329V137.438H943.741L943.504 139.961C943.703 139.92 943.92 139.879 944.154 139.838C944.389 139.797 944.717 139.776 945.139 139.776Z" fill="white"/>
</g>
<path d="M566 312.939L510.253 258.693C503.999 252.436 493.861 252.436 487.608 258.693L402.69 343.67C396.437 349.927 396.437 360.073 402.69 366.33L487.608 451.307C493.861 457.564 503.999 457.564 510.253 451.307L566 396.561" stroke="#189BFA" stroke-width="3" stroke-linecap="round"/>
<path d="M567.16 395.5L596.31 366.33C602.563 360.073 602.563 349.927 596.31 343.67L566.661 314" stroke="#1B3B7C" stroke-width="3" stroke-dasharray="1 6"/>
<g filter="url(#filter3_d_512_620)">
<rect x="402" y="355" width="136" height="136" rx="16" transform="rotate(-45 402 355)" fill="white" shape-rendering="crispEdges"/>
<path d="M469.273 358.002C469.273 358.764 469.086 359.42 468.711 359.971C468.342 360.521 467.809 360.943 467.111 361.236C466.42 361.529 465.594 361.676 464.633 361.676C464.164 361.676 463.716 361.649 463.288 361.597C462.86 361.544 462.456 361.468 462.075 361.368C461.7 361.263 461.357 361.137 461.047 360.99V359.004C461.568 359.232 462.151 359.44 462.796 359.628C463.44 359.81 464.097 359.9 464.765 359.9C465.31 359.9 465.761 359.83 466.118 359.689C466.481 359.543 466.751 359.338 466.927 359.074C467.103 358.805 467.19 358.491 467.19 358.134C467.19 357.753 467.088 357.431 466.883 357.167C466.678 356.903 466.367 356.663 465.951 356.446C465.541 356.224 465.025 355.986 464.404 355.734C463.982 355.564 463.578 355.371 463.191 355.154C462.811 354.937 462.471 354.683 462.172 354.39C461.873 354.097 461.636 353.751 461.46 353.353C461.29 352.948 461.205 352.474 461.205 351.929C461.205 351.202 461.378 350.581 461.724 350.065C462.075 349.55 462.567 349.154 463.2 348.879C463.839 348.604 464.583 348.466 465.433 348.466C466.106 348.466 466.739 348.536 467.331 348.677C467.929 348.817 468.515 349.017 469.089 349.274L468.421 350.971C467.894 350.754 467.381 350.581 466.883 350.452C466.391 350.323 465.887 350.259 465.371 350.259C464.926 350.259 464.548 350.326 464.237 350.461C463.927 350.596 463.689 350.786 463.525 351.032C463.367 351.272 463.288 351.56 463.288 351.894C463.288 352.269 463.379 352.585 463.561 352.843C463.748 353.095 464.035 353.326 464.422 353.537C464.814 353.748 465.318 353.982 465.934 354.24C466.643 354.533 467.243 354.841 467.735 355.163C468.233 355.485 468.614 355.872 468.878 356.323C469.142 356.769 469.273 357.328 469.273 358.002ZM480.154 356.613C480.154 357.422 480.049 358.14 479.838 358.767C479.627 359.394 479.319 359.924 478.915 360.357C478.511 360.785 478.024 361.113 477.456 361.342C476.888 361.564 476.246 361.676 475.531 361.676C474.863 361.676 474.251 361.564 473.694 361.342C473.138 361.113 472.654 360.785 472.244 360.357C471.84 359.924 471.526 359.394 471.304 358.767C471.081 358.14 470.97 357.422 470.97 356.613C470.97 355.541 471.154 354.633 471.523 353.889C471.898 353.139 472.432 352.567 473.123 352.175C473.814 351.782 474.638 351.586 475.593 351.586C476.489 351.586 477.28 351.782 477.966 352.175C478.651 352.567 479.187 353.139 479.574 353.889C479.961 354.639 480.154 355.547 480.154 356.613ZM473.097 356.613C473.097 357.322 473.182 357.929 473.352 358.433C473.527 358.937 473.797 359.323 474.16 359.593C474.523 359.856 474.992 359.988 475.566 359.988C476.141 359.988 476.609 359.856 476.973 359.593C477.336 359.323 477.603 358.937 477.772 358.433C477.942 357.929 478.027 357.322 478.027 356.613C478.027 355.904 477.942 355.304 477.772 354.812C477.603 354.313 477.336 353.936 476.973 353.678C476.609 353.414 476.138 353.282 475.558 353.282C474.702 353.282 474.078 353.569 473.686 354.144C473.293 354.718 473.097 355.541 473.097 356.613ZM491.009 351.771V361.5H489.383L489.102 360.19H488.987C488.782 360.524 488.521 360.803 488.205 361.025C487.889 361.242 487.537 361.403 487.15 361.509C486.764 361.62 486.356 361.676 485.929 361.676C485.196 361.676 484.569 361.553 484.048 361.307C483.532 361.055 483.137 360.668 482.861 360.146C482.586 359.625 482.448 358.951 482.448 358.125V351.771H484.522V357.738C484.522 358.494 484.675 359.06 484.979 359.435C485.29 359.81 485.771 359.997 486.421 359.997C487.048 359.997 487.546 359.868 487.915 359.61C488.284 359.353 488.545 358.972 488.697 358.468C488.855 357.964 488.935 357.346 488.935 356.613V351.771H491.009ZM498.901 351.586C499.065 351.586 499.244 351.595 499.437 351.612C499.631 351.63 499.798 351.653 499.938 351.683L499.745 353.616C499.622 353.581 499.47 353.555 499.288 353.537C499.112 353.52 498.954 353.511 498.813 353.511C498.444 353.511 498.093 353.572 497.759 353.695C497.425 353.812 497.129 353.994 496.871 354.24C496.613 354.48 496.411 354.782 496.265 355.146C496.118 355.509 496.045 355.931 496.045 356.411V361.5H493.971V351.771H495.588L495.869 353.484H495.966C496.159 353.139 496.399 352.822 496.687 352.535C496.974 352.248 497.302 352.02 497.671 351.85C498.046 351.674 498.456 351.586 498.901 351.586ZM505.66 361.676C504.74 361.676 503.943 361.497 503.27 361.14C502.596 360.782 502.077 360.234 501.714 359.496C501.351 358.758 501.169 357.82 501.169 356.684C501.169 355.5 501.368 354.533 501.767 353.783C502.165 353.033 502.716 352.479 503.419 352.122C504.128 351.765 504.939 351.586 505.854 351.586C506.434 351.586 506.958 351.645 507.427 351.762C507.901 351.873 508.303 352.011 508.631 352.175L508.016 353.827C507.658 353.681 507.292 353.558 506.917 353.458C506.542 353.358 506.182 353.309 505.836 353.309C505.268 353.309 504.793 353.435 504.412 353.687C504.037 353.938 503.756 354.313 503.568 354.812C503.387 355.31 503.296 355.928 503.296 356.666C503.296 357.381 503.39 357.984 503.577 358.477C503.765 358.963 504.043 359.332 504.412 359.584C504.781 359.83 505.235 359.953 505.774 359.953C506.308 359.953 506.785 359.889 507.207 359.76C507.629 359.631 508.027 359.464 508.402 359.259V361.052C508.033 361.263 507.638 361.418 507.216 361.518C506.794 361.623 506.275 361.676 505.66 361.676ZM512.753 351.771V361.5H510.687V351.771H512.753ZM511.733 348.044C512.05 348.044 512.322 348.129 512.551 348.299C512.785 348.469 512.902 348.762 512.902 349.178C512.902 349.588 512.785 349.881 512.551 350.057C512.322 350.227 512.05 350.312 511.733 350.312C511.405 350.312 511.127 350.227 510.898 350.057C510.676 349.881 510.564 349.588 510.564 349.178C510.564 348.762 510.676 348.469 510.898 348.299C511.127 348.129 511.405 348.044 511.733 348.044ZM520.786 351.586C521.882 351.586 522.734 351.87 523.344 352.438C523.959 353.001 524.267 353.906 524.267 355.154V361.5H522.201V355.541C522.201 354.785 522.046 354.22 521.735 353.845C521.425 353.464 520.944 353.273 520.294 353.273C519.351 353.273 518.694 353.563 518.325 354.144C517.962 354.724 517.78 355.564 517.78 356.666V361.5H515.715V351.771H517.323L517.613 353.089H517.728C517.938 352.749 518.199 352.471 518.51 352.254C518.826 352.031 519.178 351.864 519.564 351.753C519.957 351.642 520.364 351.586 520.786 351.586ZM529.936 365.824C528.617 365.824 527.606 365.587 526.903 365.112C526.2 364.638 525.849 363.973 525.849 363.117C525.849 362.52 526.036 362.013 526.411 361.597C526.786 361.187 527.322 360.902 528.02 360.744C527.756 360.627 527.527 360.445 527.334 360.199C527.146 359.947 527.053 359.669 527.053 359.364C527.053 359.001 527.155 358.69 527.36 358.433C527.565 358.175 527.873 357.926 528.283 357.686C527.773 357.469 527.363 357.117 527.053 356.631C526.748 356.139 526.596 355.562 526.596 354.899C526.596 354.196 526.745 353.599 527.044 353.106C527.343 352.608 527.779 352.23 528.354 351.973C528.928 351.709 529.622 351.577 530.437 351.577C530.612 351.577 530.803 351.589 531.008 351.612C531.219 351.63 531.412 351.653 531.588 351.683C531.77 351.706 531.907 351.732 532.001 351.762H535.367V352.913L533.715 353.221C533.873 353.443 533.999 353.698 534.093 353.985C534.187 354.267 534.233 354.574 534.233 354.908C534.233 355.916 533.885 356.71 533.187 357.29C532.496 357.864 531.541 358.151 530.322 358.151C530.029 358.14 529.745 358.116 529.47 358.081C529.259 358.21 529.098 358.354 528.986 358.512C528.875 358.664 528.819 358.837 528.819 359.03C528.819 359.188 528.875 359.317 528.986 359.417C529.098 359.511 529.262 359.581 529.479 359.628C529.701 359.675 529.971 359.698 530.287 359.698H531.966C533.032 359.698 533.847 359.924 534.409 360.375C534.972 360.826 535.253 361.488 535.253 362.361C535.253 363.469 534.796 364.321 533.882 364.919C532.968 365.522 531.652 365.824 529.936 365.824ZM530.015 364.374C530.735 364.374 531.342 364.304 531.834 364.163C532.326 364.022 532.698 363.82 532.95 363.557C533.202 363.299 533.328 362.991 533.328 362.634C533.328 362.317 533.249 362.074 533.091 361.904C532.933 361.734 532.695 361.617 532.379 361.553C532.062 361.488 531.67 361.456 531.201 361.456H529.672C529.291 361.456 528.954 361.515 528.661 361.632C528.368 361.755 528.14 361.931 527.976 362.159C527.817 362.388 527.738 362.663 527.738 362.985C527.738 363.431 527.935 363.773 528.327 364.014C528.726 364.254 529.288 364.374 530.015 364.374ZM530.419 356.798C531.022 356.798 531.471 356.634 531.764 356.306C532.057 355.972 532.203 355.503 532.203 354.899C532.203 354.243 532.051 353.751 531.746 353.423C531.447 353.095 531.002 352.931 530.41 352.931C529.83 352.931 529.388 353.098 529.083 353.432C528.784 353.766 528.635 354.261 528.635 354.917C528.635 355.509 528.784 355.972 529.083 356.306C529.388 356.634 529.833 356.798 530.419 356.798Z" fill="#1B3B7C"/>
<rect x="464" y="271.485" width="48" height="48" rx="24" transform="rotate(-45 464 271.485)" fill="#1B3B7C"/>
<path d="M497.074 271.56C497.074 272.597 496.992 273.523 496.828 274.338C496.67 275.152 496.412 275.844 496.055 276.412C495.703 276.98 495.24 277.414 494.666 277.713C494.092 278.011 493.395 278.161 492.574 278.161C491.543 278.161 490.696 277.9 490.034 277.379C489.372 276.851 488.883 276.095 488.566 275.111C488.25 274.121 488.092 272.937 488.092 271.56C488.092 270.172 488.235 268.985 488.522 268.001C488.815 267.01 489.29 266.252 489.946 265.724C490.603 265.197 491.479 264.933 492.574 264.933C493.6 264.933 494.443 265.197 495.105 265.724C495.773 266.246 496.269 267.002 496.591 267.992C496.913 268.976 497.074 270.166 497.074 271.56ZM490.79 271.56C490.79 272.539 490.843 273.356 490.948 274.012C491.06 274.663 491.244 275.152 491.502 275.48C491.76 275.808 492.117 275.972 492.574 275.972C493.025 275.972 493.38 275.811 493.638 275.489C493.901 275.161 494.089 274.672 494.2 274.021C494.312 273.365 494.367 272.545 494.367 271.56C494.367 270.582 494.312 269.764 494.2 269.108C494.089 268.452 493.901 267.96 493.638 267.632C493.38 267.298 493.025 267.131 492.574 267.131C492.117 267.131 491.76 267.298 491.502 267.632C491.244 267.96 491.06 268.452 490.948 269.108C490.843 269.764 490.79 270.582 490.79 271.56ZM507.445 277.985H498.463V276.095L501.688 272.835C502.339 272.167 502.86 271.61 503.253 271.165C503.651 270.714 503.938 270.303 504.114 269.934C504.296 269.565 504.387 269.17 504.387 268.748C504.387 268.238 504.243 267.857 503.956 267.605C503.675 267.347 503.297 267.219 502.822 267.219C502.324 267.219 501.841 267.333 501.372 267.561C500.903 267.79 500.414 268.115 499.904 268.537L498.428 266.788C498.797 266.471 499.187 266.173 499.597 265.891C500.013 265.61 500.493 265.385 501.038 265.215C501.589 265.039 502.248 264.951 503.016 264.951C503.859 264.951 504.583 265.103 505.187 265.408C505.796 265.713 506.265 266.129 506.593 266.656C506.921 267.177 507.085 267.769 507.085 268.431C507.085 269.14 506.944 269.788 506.663 270.374C506.382 270.96 505.972 271.54 505.433 272.114C504.899 272.688 504.255 273.324 503.499 274.021L501.847 275.577V275.7H507.445V277.985Z" fill="white"/>
</g>
<path d="M863 312.939L807.253 258.693C800.999 252.436 790.861 252.436 784.608 258.693L699.69 343.67C693.437 349.927 693.437 360.073 699.69 366.33L784.608 451.307C790.861 457.564 800.999 457.564 807.253 451.307L863 396.561" stroke="#189BFA" stroke-width="3" stroke-linecap="round"/>
<path d="M864.16 395.5L893.31 366.33C899.563 360.073 899.563 349.927 893.31 343.67L863.661 314" stroke="#1B3B7C" stroke-width="3" stroke-dasharray="1 6"/>
<g filter="url(#filter4_d_512_620)">
<rect x="699" y="355" width="136" height="136" rx="16" transform="rotate(-45 699 355)" fill="white" shape-rendering="crispEdges"/>
<path d="M764.773 358.002C764.773 358.764 764.586 359.42 764.211 359.971C763.842 360.521 763.309 360.943 762.611 361.236C761.92 361.529 761.094 361.676 760.133 361.676C759.664 361.676 759.216 361.649 758.788 361.597C758.36 361.544 757.956 361.468 757.575 361.368C757.2 361.263 756.857 361.137 756.547 360.99V359.004C757.068 359.232 757.651 359.44 758.296 359.628C758.94 359.81 759.597 359.9 760.265 359.9C760.81 359.9 761.261 359.83 761.618 359.689C761.981 359.543 762.251 359.338 762.427 359.074C762.603 358.805 762.69 358.491 762.69 358.134C762.69 357.753 762.588 357.431 762.383 357.167C762.178 356.903 761.867 356.663 761.451 356.446C761.041 356.224 760.525 355.986 759.904 355.734C759.482 355.564 759.078 355.371 758.691 355.154C758.311 354.937 757.971 354.683 757.672 354.39C757.373 354.097 757.136 353.751 756.96 353.353C756.79 352.948 756.705 352.474 756.705 351.929C756.705 351.202 756.878 350.581 757.224 350.065C757.575 349.55 758.067 349.154 758.7 348.879C759.339 348.604 760.083 348.466 760.933 348.466C761.606 348.466 762.239 348.536 762.831 348.677C763.429 348.817 764.015 349.017 764.589 349.274L763.921 350.971C763.394 350.754 762.881 350.581 762.383 350.452C761.891 350.323 761.387 350.259 760.871 350.259C760.426 350.259 760.048 350.326 759.737 350.461C759.427 350.596 759.189 350.786 759.025 351.032C758.867 351.272 758.788 351.56 758.788 351.894C758.788 352.269 758.879 352.585 759.061 352.843C759.248 353.095 759.535 353.326 759.922 353.537C760.314 353.748 760.818 353.982 761.434 354.24C762.143 354.533 762.743 354.841 763.235 355.163C763.733 355.485 764.114 355.872 764.378 356.323C764.642 356.769 764.773 357.328 764.773 358.002ZM770.917 351.586C771.784 351.586 772.528 351.765 773.149 352.122C773.771 352.479 774.248 352.986 774.582 353.643C774.916 354.299 775.083 355.084 775.083 355.998V357.105H768.588C768.611 358.049 768.863 358.775 769.344 359.285C769.83 359.795 770.51 360.05 771.383 360.05C772.004 360.05 772.561 359.991 773.053 359.874C773.551 359.751 774.063 359.572 774.591 359.338V361.017C774.104 361.245 773.609 361.412 773.105 361.518C772.602 361.623 771.998 361.676 771.295 361.676C770.34 361.676 769.499 361.491 768.772 361.122C768.052 360.747 767.486 360.19 767.076 359.452C766.672 358.714 766.47 357.797 766.47 356.701C766.47 355.611 766.654 354.686 767.023 353.924C767.393 353.162 767.911 352.582 768.579 352.184C769.247 351.785 770.026 351.586 770.917 351.586ZM770.917 353.142C770.267 353.142 769.739 353.353 769.335 353.774C768.937 354.196 768.702 354.814 768.632 355.629H773.062C773.056 355.143 772.974 354.712 772.815 354.337C772.663 353.962 772.429 353.669 772.112 353.458C771.802 353.247 771.403 353.142 770.917 353.142ZM779.486 361.5H777.412V347.824H779.486V361.5ZM786.315 351.586C787.183 351.586 787.927 351.765 788.548 352.122C789.169 352.479 789.646 352.986 789.98 353.643C790.314 354.299 790.481 355.084 790.481 355.998V357.105H783.986C784.01 358.049 784.262 358.775 784.742 359.285C785.229 359.795 785.908 360.05 786.781 360.05C787.402 360.05 787.959 359.991 788.451 359.874C788.949 359.751 789.462 359.572 789.989 359.338V361.017C789.503 361.245 789.008 361.412 788.504 361.518C788 361.623 787.396 361.676 786.693 361.676C785.738 361.676 784.897 361.491 784.171 361.122C783.45 360.747 782.885 360.19 782.475 359.452C782.07 358.714 781.868 357.797 781.868 356.701C781.868 355.611 782.053 354.686 782.422 353.924C782.791 353.162 783.31 352.582 783.978 352.184C784.646 351.785 785.425 351.586 786.315 351.586ZM786.315 353.142C785.665 353.142 785.138 353.353 784.733 353.774C784.335 354.196 784.101 354.814 784.03 355.629H788.46C788.454 355.143 788.372 354.712 788.214 354.337C788.062 353.962 787.827 353.669 787.511 353.458C787.2 353.247 786.802 353.142 786.315 353.142ZM796.73 361.676C795.811 361.676 795.014 361.497 794.34 361.14C793.666 360.782 793.147 360.234 792.784 359.496C792.421 358.758 792.239 357.82 792.239 356.684C792.239 355.5 792.438 354.533 792.837 353.783C793.235 353.033 793.786 352.479 794.489 352.122C795.198 351.765 796.01 351.586 796.924 351.586C797.504 351.586 798.028 351.645 798.497 351.762C798.972 351.873 799.373 352.011 799.701 352.175L799.086 353.827C798.729 353.681 798.362 353.558 797.987 353.458C797.612 353.358 797.252 353.309 796.906 353.309C796.338 353.309 795.863 353.435 795.482 353.687C795.107 353.938 794.826 354.313 794.639 354.812C794.457 355.31 794.366 355.928 794.366 356.666C794.366 357.381 794.46 357.984 794.647 358.477C794.835 358.963 795.113 359.332 795.482 359.584C795.852 359.83 796.306 359.953 796.845 359.953C797.378 359.953 797.855 359.889 798.277 359.76C798.699 359.631 799.098 359.464 799.473 359.259V361.052C799.104 361.263 798.708 361.418 798.286 361.518C797.864 361.623 797.346 361.676 796.73 361.676ZM805.379 360.006C805.648 360.006 805.915 359.982 806.179 359.936C806.442 359.883 806.683 359.821 806.899 359.751V361.315C806.671 361.415 806.375 361.5 806.012 361.57C805.648 361.641 805.271 361.676 804.878 361.676C804.327 361.676 803.832 361.585 803.393 361.403C802.953 361.216 802.604 360.896 802.347 360.445C802.089 359.994 801.96 359.37 801.96 358.573V353.344H800.633V352.421L802.057 351.691L802.733 349.608H804.034V351.771H806.82V353.344H804.034V358.547C804.034 359.039 804.157 359.405 804.403 359.646C804.649 359.886 804.975 360.006 805.379 360.006ZM810.942 351.771V361.5H808.877V351.771H810.942ZM809.923 348.044C810.239 348.044 810.512 348.129 810.74 348.299C810.975 348.469 811.092 348.762 811.092 349.178C811.092 349.588 810.975 349.881 810.74 350.057C810.512 350.227 810.239 350.312 809.923 350.312C809.595 350.312 809.316 350.227 809.088 350.057C808.865 349.881 808.754 349.588 808.754 349.178C808.754 348.762 808.865 348.469 809.088 348.299C809.316 348.129 809.595 348.044 809.923 348.044ZM818.976 351.586C820.071 351.586 820.924 351.87 821.533 352.438C822.148 353.001 822.456 353.906 822.456 355.154V361.5H820.391V355.541C820.391 354.785 820.235 354.22 819.925 353.845C819.614 353.464 819.134 353.273 818.483 353.273C817.54 353.273 816.884 353.563 816.515 354.144C816.151 354.724 815.97 355.564 815.97 356.666V361.5H813.904V351.771H815.513L815.803 353.089H815.917C816.128 352.749 816.389 352.471 816.699 352.254C817.016 352.031 817.367 351.864 817.754 351.753C818.146 351.642 818.554 351.586 818.976 351.586ZM828.125 365.824C826.807 365.824 825.796 365.587 825.093 365.112C824.39 364.638 824.038 363.973 824.038 363.117C824.038 362.52 824.226 362.013 824.601 361.597C824.976 361.187 825.512 360.902 826.209 360.744C825.945 360.627 825.717 360.445 825.523 360.199C825.336 359.947 825.242 359.669 825.242 359.364C825.242 359.001 825.345 358.69 825.55 358.433C825.755 358.175 826.062 357.926 826.473 357.686C825.963 357.469 825.553 357.117 825.242 356.631C824.937 356.139 824.785 355.562 824.785 354.899C824.785 354.196 824.935 353.599 825.233 353.106C825.532 352.608 825.969 352.23 826.543 351.973C827.117 351.709 827.812 351.577 828.626 351.577C828.802 351.577 828.992 351.589 829.197 351.612C829.408 351.63 829.602 351.653 829.777 351.683C829.959 351.706 830.097 351.732 830.19 351.762H833.557V352.913L831.904 353.221C832.062 353.443 832.188 353.698 832.282 353.985C832.376 354.267 832.423 354.574 832.423 354.908C832.423 355.916 832.074 356.71 831.377 357.29C830.686 357.864 829.73 358.151 828.512 358.151C828.219 358.14 827.935 358.116 827.659 358.081C827.448 358.21 827.287 358.354 827.176 358.512C827.064 358.664 827.009 358.837 827.009 359.03C827.009 359.188 827.064 359.317 827.176 359.417C827.287 359.511 827.451 359.581 827.668 359.628C827.891 359.675 828.16 359.698 828.477 359.698H830.155C831.222 359.698 832.036 359.924 832.599 360.375C833.161 360.826 833.442 361.488 833.442 362.361C833.442 363.469 832.985 364.321 832.071 364.919C831.157 365.522 829.842 365.824 828.125 365.824ZM828.204 364.374C828.925 364.374 829.531 364.304 830.023 364.163C830.516 364.022 830.888 363.82 831.14 363.557C831.392 363.299 831.518 362.991 831.518 362.634C831.518 362.317 831.438 362.074 831.28 361.904C831.122 361.734 830.885 361.617 830.568 361.553C830.252 361.488 829.859 361.456 829.391 361.456H827.861C827.48 361.456 827.144 361.515 826.851 361.632C826.558 361.755 826.329 361.931 826.165 362.159C826.007 362.388 825.928 362.663 825.928 362.985C825.928 363.431 826.124 363.773 826.517 364.014C826.915 364.254 827.478 364.374 828.204 364.374ZM828.608 356.798C829.212 356.798 829.66 356.634 829.953 356.306C830.246 355.972 830.393 355.503 830.393 354.899C830.393 354.243 830.24 353.751 829.936 353.423C829.637 353.095 829.191 352.931 828.6 352.931C828.02 352.931 827.577 353.098 827.272 353.432C826.974 353.766 826.824 354.261 826.824 354.917C826.824 355.509 826.974 355.972 827.272 356.306C827.577 356.634 828.022 356.798 828.608 356.798Z" fill="#1B3B7C"/>
<rect x="761" y="271.485" width="48" height="48" rx="24" transform="rotate(-45 761 271.485)" fill="#1B3B7C"/>
<path d="M794.074 271.56C794.074 272.597 793.992 273.523 793.828 274.338C793.67 275.152 793.412 275.844 793.055 276.412C792.703 276.98 792.24 277.414 791.666 277.713C791.092 278.011 790.395 278.161 789.574 278.161C788.543 278.161 787.696 277.9 787.034 277.379C786.372 276.851 785.883 276.095 785.566 275.111C785.25 274.121 785.092 272.937 785.092 271.56C785.092 270.172 785.235 268.985 785.522 268.001C785.815 267.01 786.29 266.252 786.946 265.724C787.603 265.197 788.479 264.933 789.574 264.933C790.6 264.933 791.443 265.197 792.105 265.724C792.773 266.246 793.269 267.002 793.591 267.992C793.913 268.976 794.074 270.166 794.074 271.56ZM787.79 271.56C787.79 272.539 787.843 273.356 787.948 274.012C788.06 274.663 788.244 275.152 788.502 275.48C788.76 275.808 789.117 275.972 789.574 275.972C790.025 275.972 790.38 275.811 790.638 275.489C790.901 275.161 791.089 274.672 791.2 274.021C791.312 273.365 791.367 272.545 791.367 271.56C791.367 270.582 791.312 269.764 791.2 269.108C791.089 268.452 790.901 267.96 790.638 267.632C790.38 267.298 790.025 267.131 789.574 267.131C789.117 267.131 788.76 267.298 788.502 267.632C788.244 267.96 788.06 268.452 787.948 269.108C787.843 269.764 787.79 270.582 787.79 271.56ZM804.735 275.322H803.188V277.985H800.534V275.322H795.05V273.432L800.684 265.135H803.188V273.213H804.735V275.322ZM800.534 273.213V271.033C800.534 270.828 800.537 270.585 800.543 270.303C800.555 270.022 800.566 269.741 800.578 269.46C800.59 269.178 800.602 268.929 800.613 268.713C800.631 268.49 800.643 268.335 800.648 268.247H800.578C800.467 268.487 800.35 268.721 800.227 268.95C800.104 269.173 799.96 269.407 799.796 269.653L797.44 273.213H800.534Z" fill="white"/>
</g>
<path d="M1160 312.939L1104.25 258.693C1098 252.436 1087.86 252.436 1081.61 258.693L996.69 343.67C990.437 349.927 990.437 360.073 996.69 366.33L1081.61 451.307C1087.86 457.564 1098 457.564 1104.25 451.307L1160 396.561" stroke="#189BFA" stroke-width="3" stroke-linecap="round"/>
<path d="M1161.16 395.5L1190.31 366.33C1196.56 360.073 1196.56 349.927 1190.31 343.67L1160.66 314" stroke="#1B3B7C" stroke-width="3" stroke-dasharray="1 6"/>
<g filter="url(#filter5_d_512_620)">
<rect x="996" y="355" width="136" height="136" rx="16" transform="rotate(-45 996 355)" fill="white" shape-rendering="crispEdges"/>
<path d="M1053.26 355.058C1053.26 356.048 1053.14 356.95 1052.89 357.765C1052.64 358.573 1052.27 359.271 1051.77 359.856C1051.27 360.437 1050.65 360.885 1049.9 361.201C1049.15 361.518 1048.27 361.676 1047.26 361.676C1046.24 361.676 1045.34 361.518 1044.59 361.201C1043.84 360.885 1043.21 360.434 1042.72 359.848C1042.22 359.262 1041.86 358.562 1041.61 357.747C1041.36 356.933 1041.24 356.03 1041.24 355.04C1041.24 353.716 1041.46 352.562 1041.89 351.577C1042.33 350.587 1043 349.819 1043.89 349.274C1044.78 348.724 1045.91 348.448 1047.28 348.448C1048.61 348.448 1049.72 348.721 1050.61 349.266C1051.49 349.811 1052.16 350.578 1052.6 351.568C1053.04 352.553 1053.26 353.716 1053.26 355.058ZM1043.46 355.058C1043.46 356.048 1043.59 356.906 1043.86 357.633C1044.13 358.354 1044.54 358.91 1045.1 359.303C1045.66 359.689 1046.38 359.883 1047.26 359.883C1048.15 359.883 1048.87 359.689 1049.42 359.303C1049.98 358.91 1050.39 358.354 1050.65 357.633C1050.92 356.906 1051.05 356.048 1051.05 355.058C1051.05 353.552 1050.75 352.374 1050.14 351.524C1049.55 350.669 1048.59 350.241 1047.28 350.241C1046.4 350.241 1045.68 350.435 1045.11 350.821C1044.54 351.208 1044.13 351.762 1043.86 352.482C1043.59 353.197 1043.46 354.056 1043.46 355.058ZM1060.88 351.586C1061.98 351.586 1062.83 351.87 1063.44 352.438C1064.06 353.001 1064.36 353.906 1064.36 355.154V361.5H1062.3V355.541C1062.3 354.785 1062.14 354.22 1061.83 353.845C1061.52 353.464 1061.04 353.273 1060.39 353.273C1059.45 353.273 1058.79 353.563 1058.42 354.144C1058.06 354.724 1057.88 355.564 1057.88 356.666V361.5H1055.81V351.771H1057.42L1057.71 353.089H1057.83C1058.04 352.749 1058.3 352.471 1058.61 352.254C1058.92 352.031 1059.28 351.864 1059.66 351.753C1060.05 351.642 1060.46 351.586 1060.88 351.586ZM1069.32 347.824V351.12C1069.32 351.501 1069.31 351.876 1069.29 352.245C1069.27 352.608 1069.25 352.893 1069.23 353.098H1069.32C1069.58 352.676 1069.95 352.321 1070.42 352.034C1070.89 351.741 1071.5 351.595 1072.24 351.595C1073.39 351.595 1074.32 352.02 1075.03 352.869C1075.73 353.713 1076.08 354.964 1076.08 356.622C1076.08 357.724 1075.92 358.649 1075.6 359.399C1075.27 360.149 1074.82 360.718 1074.23 361.104C1073.65 361.485 1072.97 361.676 1072.19 361.676C1071.45 361.676 1070.85 361.541 1070.39 361.271C1069.94 360.996 1069.59 360.677 1069.33 360.313H1069.18L1068.8 361.5H1067.26V347.824H1069.32ZM1071.69 353.273C1071.11 353.273 1070.64 353.391 1070.3 353.625C1069.96 353.859 1069.71 354.211 1069.56 354.68C1069.41 355.143 1069.33 355.731 1069.32 356.446V356.631C1069.32 357.715 1069.49 358.544 1069.83 359.118C1070.18 359.692 1070.8 359.979 1071.71 359.979C1072.43 359.979 1072.99 359.689 1073.37 359.109C1073.76 358.523 1073.95 357.686 1073.95 356.596C1073.95 355.494 1073.76 354.665 1073.37 354.108C1072.99 353.552 1072.43 353.273 1071.69 353.273ZM1087.08 356.613C1087.08 357.422 1086.98 358.14 1086.77 358.767C1086.56 359.394 1086.25 359.924 1085.84 360.357C1085.44 360.785 1084.95 361.113 1084.39 361.342C1083.82 361.564 1083.18 361.676 1082.46 361.676C1081.79 361.676 1081.18 361.564 1080.62 361.342C1080.07 361.113 1079.58 360.785 1079.17 360.357C1078.77 359.924 1078.46 359.394 1078.23 358.767C1078.01 358.14 1077.9 357.422 1077.9 356.613C1077.9 355.541 1078.08 354.633 1078.45 353.889C1078.83 353.139 1079.36 352.567 1080.05 352.175C1080.74 351.782 1081.57 351.586 1082.52 351.586C1083.42 351.586 1084.21 351.782 1084.9 352.175C1085.58 352.567 1086.12 353.139 1086.5 353.889C1086.89 354.639 1087.08 355.547 1087.08 356.613ZM1080.03 356.613C1080.03 357.322 1080.11 357.929 1080.28 358.433C1080.46 358.937 1080.73 359.323 1081.09 359.593C1081.45 359.856 1081.92 359.988 1082.5 359.988C1083.07 359.988 1083.54 359.856 1083.9 359.593C1084.27 359.323 1084.53 358.937 1084.7 358.433C1084.87 357.929 1084.96 357.322 1084.96 356.613C1084.96 355.904 1084.87 355.304 1084.7 354.812C1084.53 354.313 1084.27 353.936 1083.9 353.678C1083.54 353.414 1083.07 353.282 1082.49 353.282C1081.63 353.282 1081.01 353.569 1080.62 354.144C1080.22 354.718 1080.03 355.541 1080.03 356.613ZM1093.27 351.586C1094.5 351.586 1095.43 351.858 1096.06 352.403C1096.69 352.948 1097.01 353.798 1097.01 354.952V361.5H1095.54L1095.14 360.12H1095.07C1094.8 360.472 1094.51 360.762 1094.22 360.99C1093.93 361.219 1093.59 361.389 1093.2 361.5C1092.82 361.617 1092.35 361.676 1091.8 361.676C1091.22 361.676 1090.71 361.57 1090.25 361.359C1089.79 361.143 1089.43 360.814 1089.17 360.375C1088.9 359.936 1088.77 359.379 1088.77 358.705C1088.77 357.703 1089.14 356.95 1089.89 356.446C1090.64 355.942 1091.77 355.664 1093.28 355.611L1094.97 355.55V355.04C1094.97 354.366 1094.81 353.886 1094.49 353.599C1094.18 353.312 1093.74 353.168 1093.17 353.168C1092.69 353.168 1092.22 353.238 1091.76 353.379C1091.3 353.52 1090.86 353.692 1090.42 353.897L1089.76 352.438C1090.23 352.187 1090.77 351.981 1091.37 351.823C1091.98 351.665 1092.62 351.586 1093.27 351.586ZM1094.96 356.851L1093.7 356.895C1092.67 356.93 1091.95 357.105 1091.53 357.422C1091.12 357.738 1090.91 358.172 1090.91 358.723C1090.91 359.203 1091.05 359.555 1091.34 359.777C1091.62 359.994 1092 360.103 1092.47 360.103C1093.19 360.103 1093.78 359.9 1094.25 359.496C1094.72 359.086 1094.96 358.485 1094.96 357.694V356.851ZM1104.83 351.586C1104.99 351.586 1105.17 351.595 1105.37 351.612C1105.56 351.63 1105.73 351.653 1105.87 351.683L1105.67 353.616C1105.55 353.581 1105.4 353.555 1105.22 353.537C1105.04 353.52 1104.88 353.511 1104.74 353.511C1104.37 353.511 1104.02 353.572 1103.69 353.695C1103.35 353.812 1103.06 353.994 1102.8 354.24C1102.54 354.48 1102.34 354.782 1102.19 355.146C1102.05 355.509 1101.97 355.931 1101.97 356.411V361.5H1099.9V351.771H1101.52L1101.8 353.484H1101.89C1102.09 353.139 1102.33 352.822 1102.61 352.535C1102.9 352.248 1103.23 352.02 1103.6 351.85C1103.97 351.674 1104.38 351.586 1104.83 351.586ZM1110.94 361.676C1109.78 361.676 1108.85 361.254 1108.14 360.41C1107.45 359.561 1107.1 358.31 1107.1 356.657C1107.1 354.987 1107.45 353.725 1108.16 352.869C1108.87 352.014 1109.82 351.586 1110.98 351.586C1111.47 351.586 1111.9 351.653 1112.27 351.788C1112.64 351.917 1112.96 352.093 1113.22 352.315C1113.49 352.538 1113.72 352.787 1113.91 353.062H1114C1113.98 352.881 1113.94 352.62 1113.9 352.28C1113.86 351.935 1113.85 351.615 1113.85 351.322V347.824H1115.92V361.5H1114.3L1113.93 360.173H1113.85C1113.67 360.454 1113.45 360.709 1113.18 360.937C1112.92 361.16 1112.6 361.339 1112.23 361.474C1111.87 361.608 1111.44 361.676 1110.94 361.676ZM1111.52 359.997C1112.4 359.997 1113.03 359.742 1113.39 359.232C1113.75 358.723 1113.94 357.958 1113.95 356.938V356.666C1113.95 355.576 1113.78 354.741 1113.42 354.161C1113.07 353.575 1112.43 353.282 1111.5 353.282C1110.76 353.282 1110.19 353.584 1109.79 354.187C1109.41 354.785 1109.21 355.62 1109.21 356.692C1109.21 357.765 1109.41 358.585 1109.79 359.153C1110.19 359.716 1110.76 359.997 1111.52 359.997ZM1120.95 351.771V361.5H1118.88V351.771H1120.95ZM1119.93 348.044C1120.25 348.044 1120.52 348.129 1120.75 348.299C1120.98 348.469 1121.1 348.762 1121.1 349.178C1121.1 349.588 1120.98 349.881 1120.75 350.057C1120.52 350.227 1120.25 350.312 1119.93 350.312C1119.6 350.312 1119.32 350.227 1119.09 350.057C1118.87 349.881 1118.76 349.588 1118.76 349.178C1118.76 348.762 1118.87 348.469 1119.09 348.299C1119.32 348.129 1119.6 348.044 1119.93 348.044ZM1128.98 351.586C1130.08 351.586 1130.93 351.87 1131.54 352.438C1132.15 353.001 1132.46 353.906 1132.46 355.154V361.5H1130.4V355.541C1130.4 354.785 1130.24 354.22 1129.93 353.845C1129.62 353.464 1129.14 353.273 1128.49 353.273C1127.55 353.273 1126.89 353.563 1126.52 354.144C1126.16 354.724 1125.98 355.564 1125.98 356.666V361.5H1123.91V351.771H1125.52L1125.81 353.089H1125.92C1126.13 352.749 1126.39 352.471 1126.71 352.254C1127.02 352.031 1127.37 351.864 1127.76 351.753C1128.15 351.642 1128.56 351.586 1128.98 351.586ZM1138.13 365.824C1136.81 365.824 1135.8 365.587 1135.1 365.112C1134.4 364.638 1134.04 363.973 1134.04 363.117C1134.04 362.52 1134.23 362.013 1134.61 361.597C1134.98 361.187 1135.52 360.902 1136.21 360.744C1135.95 360.627 1135.72 360.445 1135.53 360.199C1135.34 359.947 1135.25 359.669 1135.25 359.364C1135.25 359.001 1135.35 358.69 1135.56 358.433C1135.76 358.175 1136.07 357.926 1136.48 357.686C1135.97 357.469 1135.56 357.117 1135.25 356.631C1134.94 356.139 1134.79 355.562 1134.79 354.899C1134.79 354.196 1134.94 353.599 1135.24 353.106C1135.54 352.608 1135.97 352.23 1136.55 351.973C1137.12 351.709 1137.82 351.577 1138.63 351.577C1138.81 351.577 1139 351.589 1139.2 351.612C1139.41 351.63 1139.61 351.653 1139.78 351.683C1139.96 351.706 1140.1 351.732 1140.2 351.762H1143.56V352.913L1141.91 353.221C1142.07 353.443 1142.19 353.698 1142.29 353.985C1142.38 354.267 1142.43 354.574 1142.43 354.908C1142.43 355.916 1142.08 356.71 1141.38 357.29C1140.69 357.864 1139.74 358.151 1138.52 358.151C1138.22 358.14 1137.94 358.116 1137.67 358.081C1137.45 358.21 1137.29 358.354 1137.18 358.512C1137.07 358.664 1137.01 358.837 1137.01 359.03C1137.01 359.188 1137.07 359.317 1137.18 359.417C1137.29 359.511 1137.46 359.581 1137.67 359.628C1137.9 359.675 1138.17 359.698 1138.48 359.698H1140.16C1141.23 359.698 1142.04 359.924 1142.6 360.375C1143.17 360.826 1143.45 361.488 1143.45 362.361C1143.45 363.469 1142.99 364.321 1142.08 364.919C1141.16 365.522 1139.85 365.824 1138.13 365.824ZM1138.21 364.374C1138.93 364.374 1139.54 364.304 1140.03 364.163C1140.52 364.022 1140.89 363.82 1141.15 363.557C1141.4 363.299 1141.52 362.991 1141.52 362.634C1141.52 362.317 1141.44 362.074 1141.29 361.904C1141.13 361.734 1140.89 361.617 1140.57 361.553C1140.26 361.488 1139.87 361.456 1139.4 361.456H1137.87C1137.49 361.456 1137.15 361.515 1136.86 361.632C1136.56 361.755 1136.33 361.931 1136.17 362.159C1136.01 362.388 1135.93 362.663 1135.93 362.985C1135.93 363.431 1136.13 363.773 1136.52 364.014C1136.92 364.254 1137.48 364.374 1138.21 364.374ZM1138.61 356.798C1139.22 356.798 1139.67 356.634 1139.96 356.306C1140.25 355.972 1140.4 355.503 1140.4 354.899C1140.4 354.243 1140.25 353.751 1139.94 353.423C1139.64 353.095 1139.2 352.931 1138.61 352.931C1138.03 352.931 1137.58 353.098 1137.28 353.432C1136.98 353.766 1136.83 354.261 1136.83 354.917C1136.83 355.509 1136.98 355.972 1137.28 356.306C1137.58 356.634 1138.03 356.798 1138.61 356.798Z" fill="#1B3B7C"/>
<rect x="1058" y="271.485" width="48" height="48" rx="24" transform="rotate(-45 1058 271.485)" fill="#1B3B7C"/>
<path d="M1091.07 271.56C1091.07 272.597 1090.99 273.523 1090.83 274.338C1090.67 275.152 1090.41 275.844 1090.05 276.412C1089.7 276.98 1089.24 277.414 1088.67 277.713C1088.09 278.011 1087.39 278.161 1086.57 278.161C1085.54 278.161 1084.7 277.9 1084.03 277.379C1083.37 276.851 1082.88 276.095 1082.57 275.111C1082.25 274.121 1082.09 272.937 1082.09 271.56C1082.09 270.172 1082.24 268.985 1082.52 268.001C1082.82 267.01 1083.29 266.252 1083.95 265.724C1084.6 265.197 1085.48 264.933 1086.57 264.933C1087.6 264.933 1088.44 265.197 1089.11 265.724C1089.77 266.246 1090.27 267.002 1090.59 267.992C1090.91 268.976 1091.07 270.166 1091.07 271.56ZM1084.79 271.56C1084.79 272.539 1084.84 273.356 1084.95 274.012C1085.06 274.663 1085.24 275.152 1085.5 275.48C1085.76 275.808 1086.12 275.972 1086.57 275.972C1087.03 275.972 1087.38 275.811 1087.64 275.489C1087.9 275.161 1088.09 274.672 1088.2 274.021C1088.31 273.365 1088.37 272.545 1088.37 271.56C1088.37 270.582 1088.31 269.764 1088.2 269.108C1088.09 268.452 1087.9 267.96 1087.64 267.632C1087.38 267.298 1087.03 267.131 1086.57 267.131C1086.12 267.131 1085.76 267.298 1085.5 267.632C1085.24 267.96 1085.06 268.452 1084.95 269.108C1084.84 269.764 1084.79 270.582 1084.79 271.56ZM1092.37 272.527C1092.37 271.789 1092.43 271.059 1092.53 270.339C1092.64 269.612 1092.83 268.929 1093.1 268.291C1093.37 267.646 1093.75 267.078 1094.24 266.586C1094.72 266.088 1095.34 265.698 1096.09 265.417C1096.84 265.13 1097.75 264.986 1098.82 264.986C1099.07 264.986 1099.36 264.998 1099.7 265.021C1100.04 265.039 1100.32 265.071 1100.54 265.118V267.289C1100.31 267.236 1100.05 267.195 1099.78 267.166C1099.52 267.131 1099.26 267.113 1098.99 267.113C1097.93 267.113 1097.1 267.283 1096.51 267.623C1095.93 267.963 1095.52 268.434 1095.28 269.038C1095.05 269.635 1094.91 270.333 1094.87 271.13H1094.99C1095.15 270.843 1095.35 270.588 1095.6 270.365C1095.85 270.142 1096.16 269.967 1096.51 269.838C1096.87 269.703 1097.29 269.635 1097.77 269.635C1098.52 269.635 1099.17 269.797 1099.72 270.119C1100.27 270.435 1100.7 270.895 1101 271.499C1101.3 272.102 1101.45 272.838 1101.45 273.705C1101.45 274.631 1101.27 275.427 1100.91 276.095C1100.55 276.763 1100.04 277.276 1099.39 277.634C1098.74 277.985 1097.96 278.161 1097.07 278.161C1096.41 278.161 1095.8 278.05 1095.23 277.827C1094.66 277.598 1094.17 277.253 1093.74 276.79C1093.31 276.327 1092.98 275.744 1092.74 275.041C1092.5 274.332 1092.37 273.494 1092.37 272.527ZM1097.02 275.99C1097.55 275.99 1097.98 275.808 1098.32 275.445C1098.65 275.082 1098.82 274.513 1098.82 273.74C1098.82 273.113 1098.67 272.621 1098.38 272.263C1098.09 271.9 1097.65 271.719 1097.07 271.719C1096.67 271.719 1096.32 271.809 1096.01 271.991C1095.71 272.167 1095.48 272.392 1095.32 272.668C1095.16 272.937 1095.07 273.216 1095.07 273.503C1095.07 273.802 1095.11 274.097 1095.2 274.39C1095.28 274.683 1095.4 274.95 1095.57 275.19C1095.73 275.43 1095.93 275.624 1096.17 275.77C1096.42 275.917 1096.7 275.99 1097.02 275.99Z" fill="white"/>
</g>
<rect x="1111.02" y="193.061" width="85.3" height="85.3" rx="8.86782" transform="rotate(-45 1111.02 193.061)" fill="#8CB9F8" fill-opacity="0.06"/>
<rect x="1174.2" y="278.666" width="102.074" height="102.074" rx="10.6116" transform="rotate(-45 1174.2 278.666)" fill="#8CB9F8" fill-opacity="0.06"/>
<rect x="1388.14" y="309.459" width="85.3" height="85.3" rx="8.86782" transform="rotate(-45 1388.14 309.459)" fill="#8CB9F8" fill-opacity="0.06"/>
<rect x="1268.76" y="214.633" width="134.118" height="134.118" rx="8.86782" transform="rotate(-45 1268.76 214.633)" fill="#8CB9F8" fill-opacity="0.06"/>
<rect x="1174.17" y="108.566" width="117.696" height="117.696" rx="8.86782" transform="rotate(-45 1174.17 108.566)" fill="#8CB9F8" fill-opacity="0.06"/>
<rect x="1290.77" y="332.525" width="60.3407" height="60.3407" rx="8.86782" transform="rotate(-45 1290.77 332.525)" fill="#8CB9F8" fill-opacity="0.06"/>
<rect x="1399.36" y="132.822" width="60.3407" height="60.3407" rx="8.86782" transform="rotate(-45 1399.36 132.822)" fill="#8CB9F8" fill-opacity="0.06"/>
<rect x="1303.66" y="59.9022" width="84.714" height="84.714" rx="12.4498" transform="rotate(-45 1303.66 59.9022)" fill="#8CB9F8" fill-opacity="0.06"/>
<rect width="85.3" height="85.3" rx="8.86782" transform="matrix(-0.707107 -0.707107 -0.707107 0.707107 333.711 377.061)" fill="#8CB9F8" fill-opacity="0.06"/>
<rect width="102.074" height="102.074" rx="10.6116" transform="matrix(-0.707107 -0.707107 -0.707107 0.707107 270.531 462.667)" fill="#8CB9F8" fill-opacity="0.06"/>
<rect width="85.3" height="85.3" rx="8.86782" transform="matrix(-0.707107 -0.707107 -0.707107 0.707107 56.5938 493.461)" fill="#8CB9F8" fill-opacity="0.06"/>
<rect width="134.118" height="134.118" rx="8.86782" transform="matrix(-0.707107 -0.707107 -0.707107 0.707107 175.977 398.633)" fill="#8CB9F8" fill-opacity="0.06"/>
<rect width="117.696" height="117.696" rx="8.86782" transform="matrix(-0.707107 -0.707107 -0.707107 0.707107 270.562 292.567)" fill="#8CB9F8" fill-opacity="0.06"/>
<rect width="60.3407" height="60.3407" rx="8.86782" transform="matrix(-0.707107 -0.707107 -0.707107 0.707107 153.957 516.526)" fill="#8CB9F8" fill-opacity="0.06"/>
<rect width="60.3407" height="60.3407" rx="8.86782" transform="matrix(-0.707107 -0.707107 -0.707107 0.707107 45.375 316.822)" fill="#8CB9F8" fill-opacity="0.06"/>
<rect width="84.714" height="84.714" rx="12.4498" transform="matrix(-0.707107 -0.707107 -0.707107 0.707107 141.066 243.903)" fill="#8CB9F8" fill-opacity="0.06"/>
<defs>
<filter id="filter0_d_512_620" x="241" y="102.544" width="210.332" height="231.622" filterUnits="userSpaceOnUse" color-interpolation-filters="sRGB">
<feFlood flood-opacity="0" result="BackgroundImageFix"/>
<feColorMatrix in="SourceAlpha" type="matrix" values="0 0 0 0 0 0 0 0 0 0 0 0 0 0 0 0 0 0 127 0" result="hardAlpha"/>
<feOffset dy="4"/>
<feGaussianBlur stdDeviation="4.5"/>
<feComposite in2="hardAlpha" operator="out"/>
<feColorMatrix type="matrix" values="0 0 0 0 0 0 0 0 0 0 0 0 0 0 0 0 0 0 0.19 0"/>
<feBlend mode="normal" in2="BackgroundImageFix" result="effect1_dropShadow_512_620"/>
<feBlend mode="normal" in="SourceGraphic" in2="effect1_dropShadow_512_620" result="shape"/>
</filter>
<filter id="filter1_d_512_620" x="538" y="102.544" width="210.332" height="231.622" filterUnits="userSpaceOnUse" color-interpolation-filters="sRGB">
<feFlood flood-opacity="0" result="BackgroundImageFix"/>
<feColorMatrix in="SourceAlpha" type="matrix" values="0 0 0 0 0 0 0 0 0 0 0 0 0 0 0 0 0 0 127 0" result="hardAlpha"/>
<feOffset dy="4"/>
<feGaussianBlur stdDeviation="4.5"/>
<feComposite in2="hardAlpha" operator="out"/>
<feColorMatrix type="matrix" values="0 0 0 0 0 0 0 0 0 0 0 0 0 0 0 0 0 0 0.19 0"/>
<feBlend mode="normal" in2="BackgroundImageFix" result="effect1_dropShadow_512_620"/>
<feBlend mode="normal" in="SourceGraphic" in2="effect1_dropShadow_512_620" result="shape"/>
</filter>
<filter id="filter2_d_512_620" x="835" y="102.544" width="210.332" height="231.622" filterUnits="userSpaceOnUse" color-interpolation-filters="sRGB">
<feFlood flood-opacity="0" result="BackgroundImageFix"/>
<feColorMatrix in="SourceAlpha" type="matrix" values="0 0 0 0 0 0 0 0 0 0 0 0 0 0 0 0 0 0 127 0" result="hardAlpha"/>
<feOffset dy="4"/>
<feGaussianBlur stdDeviation="4.5"/>
<feComposite in2="hardAlpha" operator="out"/>
<feColorMatrix type="matrix" values="0 0 0 0 0 0 0 0 0 0 0 0 0 0 0 0 0 0 0.19 0"/>
<feBlend mode="normal" in2="BackgroundImageFix" result="effect1_dropShadow_512_620"/>
<feBlend mode="normal" in="SourceGraphic" in2="effect1_dropShadow_512_620" result="shape"/>
</filter>
<filter id="filter3_d_512_620" x="393" y="232.544" width="210.332" height="231.623" filterUnits="userSpaceOnUse" color-interpolation-filters="sRGB">
<feFlood flood-opacity="0" result="BackgroundImageFix"/>
<feColorMatrix in="SourceAlpha" type="matrix" values="0 0 0 0 0 0 0 0 0 0 0 0 0 0 0 0 0 0 127 0" result="hardAlpha"/>
<feOffset dy="4"/>
<feGaussianBlur stdDeviation="4.5"/>
<feComposite in2="hardAlpha" operator="out"/>
<feColorMatrix type="matrix" values="0 0 0 0 0 0 0 0 0 0 0 0 0 0 0 0 0 0 0.19 0"/>
<feBlend mode="normal" in2="BackgroundImageFix" result="effect1_dropShadow_512_620"/>
<feBlend mode="normal" in="SourceGraphic" in2="effect1_dropShadow_512_620" result="shape"/>
</filter>
<filter id="filter4_d_512_620" x="690" y="232.544" width="210.332" height="231.623" filterUnits="userSpaceOnUse" color-interpolation-filters="sRGB">
<feFlood flood-opacity="0" result="BackgroundImageFix"/>
<feColorMatrix in="SourceAlpha" type="matrix" values="0 0 0 0 0 0 0 0 0 0 0 0 0 0 0 0 0 0 127 0" result="hardAlpha"/>
<feOffset dy="4"/>
<feGaussianBlur stdDeviation="4.5"/>
<feComposite in2="hardAlpha" operator="out"/>
<feColorMatrix type="matrix" values="0 0 0 0 0 0 0 0 0 0 0 0 0 0 0 0 0 0 0.19 0"/>
<feBlend mode="normal" in2="BackgroundImageFix" result="effect1_dropShadow_512_620"/>
<feBlend mode="normal" in="SourceGraphic" in2="effect1_dropShadow_512_620" result="shape"/>
</filter>
<filter id="filter5_d_512_620" x="987" y="232.544" width="210.332" height="231.623" filterUnits="userSpaceOnUse" color-interpolation-filters="sRGB">
<feFlood flood-opacity="0" result="BackgroundImageFix"/>
<feColorMatrix in="SourceAlpha" type="matrix" values="0 0 0 0 0 0 0 0 0 0 0 0 0 0 0 0 0 0 127 0" result="hardAlpha"/>
<feOffset dy="4"/>
<feGaussianBlur stdDeviation="4.5"/>
<feComposite in2="hardAlpha" operator="out"/>
<feColorMatrix type="matrix" values="0 0 0 0 0 0 0 0 0 0 0 0 0 0 0 0 0 0 0.19 0"/>
<feBlend mode="normal" in2="BackgroundImageFix" result="effect1_dropShadow_512_620"/>
<feBlend mode="normal" in="SourceGraphic" in2="effect1_dropShadow_512_620" result="shape"/>
</filter>
</defs>
</svg>
