<svg width="24" height="24" viewBox="0 0 24 24" fill="none" xmlns="http://www.w3.org/2000/svg">
<g clip-path="url(#clip0_222_2321)">
<path d="M8.47069 6.54663H4.80691L3.00781 12.4827C5.92197 15.767 9.76847 18.6765 11.2911 19.7728C11.516 19.9368 11.8206 19.9133 12.0173 19.7166C12.1251 19.6088 12.1813 19.4683 12.1813 19.3183C12.1813 19.1637 12.1251 19.0232 12.0173 18.9154L11.0335 17.9315L9.90903 16.8071C9.86565 16.7637 9.83124 16.7122 9.80777 16.6556C9.7843 16.5989 9.77221 16.5381 9.77221 16.4768C9.77221 16.4155 9.7843 16.3547 9.80777 16.298C9.83124 16.2414 9.86565 16.1899 9.90903 16.1465C9.9524 16.1031 10.0039 16.0687 10.0606 16.0452C10.1172 16.0218 10.178 16.0097 10.2393 16.0097C10.3007 16.0097 10.3614 16.0218 10.4181 16.0452C10.4748 16.0687 10.5263 16.1031 10.5696 16.1465L13.1886 18.7655C13.4744 19.0466 13.9383 19.0466 14.2194 18.7655C14.5005 18.4844 14.5052 18.0252 14.2287 17.7394L11.9143 15.3453C11.7362 15.1579 11.7409 14.8628 11.9283 14.68C11.9726 14.6375 12.0248 14.6041 12.082 14.5818C12.1392 14.5595 12.2002 14.5487 12.2615 14.55C12.3229 14.5513 12.3834 14.5647 12.4396 14.5894C12.4958 14.6142 12.5465 14.6497 12.5889 14.6941L12.9591 15.0736L14.9034 17.0882L15.4234 17.6223C15.7092 17.9175 16.1731 17.9362 16.4823 17.6598C16.6416 17.5192 16.7353 17.3225 16.74 17.1069C16.74 16.8914 16.6603 16.69 16.5057 16.54L14.7722 14.8581L13.629 13.7524C13.5845 13.71 13.5488 13.6591 13.5242 13.6027C13.4995 13.5463 13.4864 13.4856 13.4855 13.424C13.4847 13.3625 13.4961 13.3014 13.5191 13.2444C13.5421 13.1873 13.5763 13.1355 13.6197 13.0918C13.6621 13.0472 13.713 13.0116 13.7694 12.9869C13.8257 12.9623 13.8865 12.9492 13.948 12.9483C14.0095 12.9474 14.0706 12.9588 14.1277 12.9819C14.1847 13.0049 14.2366 13.0391 14.2803 13.0824L17.6348 16.3292C17.9206 16.601 18.3563 16.601 18.6328 16.3245C18.778 16.1887 18.853 16.0013 18.8483 15.8045C18.8436 15.6077 18.764 15.425 18.614 15.2891L12.261 9.47485C11.2068 9.67631 10.2838 10.6649 10.2745 10.6742C10.251 10.7024 10.2182 10.7305 10.1855 10.7492C8.44258 11.8783 7.41653 10.9647 7.37437 10.9272C6.45139 10.0886 6.8918 8.76739 7.29472 8.11615C7.63348 7.55514 8.02743 7.02935 8.47069 6.54663Z" fill="#1B3B7C"/>
<path d="M13.0583 5.55805C12.5616 5.36128 12.0229 5.34722 11.545 5.52526C10.622 5.8579 9.28205 6.66843 8.09202 8.60808C8.08265 8.62214 7.42673 9.70909 8.00769 10.2338C8.02174 10.2479 8.56054 10.6695 9.63343 9.9902C9.87238 9.74189 11.0156 8.64088 12.3742 8.51438C12.5054 8.50032 12.6366 8.54718 12.735 8.63619L19.2473 14.6004C19.252 14.6004 19.252 14.6004 19.252 14.6051C19.7815 14.4739 20.1563 14.0241 20.3249 13.7758L18.0292 7.53519L13.0583 5.55805ZM22.9064 5.5112C22.0256 5.57211 20.2172 5.75952 19.0787 6.2374C18.8257 6.34516 18.6992 6.64969 18.7976 6.91206L21.5712 14.4458C21.6508 14.6519 21.8523 14.7972 22.0772 14.7972H22.9392C23.2063 14.7972 23.4218 14.5816 23.4218 14.3146V5.98909C23.4218 5.70798 23.1876 5.48778 22.9064 5.5112ZM0.478664 13.5978H1.29388C1.53282 13.5978 1.73897 13.4478 1.80924 13.2183L4.08154 5.70329C4.16119 5.44561 4.03937 5.16919 3.79574 5.05674C2.75382 4.59723 1.63514 4.33663 0.497404 4.28838C0.220981 4.27901 -0.00390625 4.49453 -0.00390625 4.77095L-0.00390625 13.1152C-0.00390625 13.3822 0.21161 13.5978 0.478664 13.5978Z" fill="#1B3B7C"/>
</g>
<defs>
<clipPath id="clip0_222_2321">
<rect width="24" height="24" fill="white" transform="translate(-0.00390625 0.00244141)"/>
</clipPath>
</defs>
</svg>
