<svg width="18" height="19" viewBox="0 0 18 19" fill="none" xmlns="http://www.w3.org/2000/svg">
<g clip-path="url(#clip0_233_2501)">
<path d="M0.00492477 5.18001C0.00492477 10.91 7.60242 18.5 13.3249 18.5C14.5774 18.5 15.7474 18.0275 16.6099 17.165L17.3599 16.3025C18.2299 15.4325 18.2299 13.9625 17.3224 13.055C17.2999 13.0325 15.4924 11.645 15.4924 11.645C14.5924 10.79 13.1749 10.79 12.2824 11.645L11.1874 12.5225C8.78743 11.5025 7.08492 9.79251 5.98992 7.31001L6.85993 6.21501C7.72243 5.32251 7.72243 3.89751 6.85993 3.00501C6.85993 3.00501 5.47242 1.19751 5.44992 1.17501C4.54243 0.26751 3.07242 0.26751 2.16492 1.17501L1.37742 1.85751C0.477425 2.75001 0.00492477 3.92001 0.00492477 5.17251V5.18001Z" fill="white"/>
</g>
<defs>
<clipPath id="clip0_233_2501">
<rect width="18" height="18" fill="white" transform="matrix(-1 0 0 1 18.0039 0.5)"/>
</clipPath>
</defs>
</svg>
