<svg width="24" height="24" viewBox="0 0 24 24" fill="none" xmlns="http://www.w3.org/2000/svg">
<g clip-path="url(#clip0_222_2291)">
<path d="M23.698 20.1268L23.6553 20.0692C22.7759 19.051 21.6955 18.3053 20.6506 17.5848C20.2241 17.2904 19.4661 16.816 18.9298 16.4345C20.1743 14.6772 20.841 12.5761 20.8372 10.4228C20.8372 4.66791 16.1717 0.00244141 10.4164 0.00244141C4.66109 0.00244141 -0.00390625 4.66791 -0.00390625 10.4228C-0.00390625 16.1776 4.66156 20.8435 10.4164 20.8435C12.567 20.8468 14.6655 20.1816 16.4216 18.9399C16.8036 19.4757 17.2775 20.2323 17.5723 20.6588C18.2947 21.7056 19.0414 22.7837 20.0586 23.6621L20.1163 23.7043C20.4406 23.9026 20.8142 24.0059 21.1944 24.0024C21.7691 24.0007 22.3227 23.7859 22.7483 23.3996L23.3773 22.772L23.3923 22.7565C24.0622 22.0234 24.1906 20.9176 23.698 20.1268ZM10.4164 18.1248C8.63424 18.125 6.90715 17.5072 5.52942 16.3767C4.15168 15.2463 3.20855 13.6731 2.86074 11.9252C2.51292 10.1773 2.78193 8.36287 3.62193 6.79109C4.46194 5.21932 5.82096 3.98743 7.46743 3.30535C9.1139 2.62326 10.9459 2.53318 12.6514 3.05046C14.3568 3.56773 15.8301 4.66036 16.8203 6.14215C17.8104 7.62394 18.2561 9.40322 18.0815 11.1768C17.9068 12.9504 17.1225 14.6085 15.8623 15.8687C15.1489 16.5862 14.3002 17.155 13.3654 17.5422C12.4306 17.9295 11.4282 18.1275 10.4164 18.1248Z" fill="#1B3B7C"/>
<path d="M10.4141 11.3843C12.1033 11.3843 13.4727 10.0149 13.4727 8.32568C13.4727 6.63647 12.1033 5.26709 10.4141 5.26709C8.72485 5.26709 7.35547 6.63647 7.35547 8.32568C7.35547 10.0149 8.72485 11.3843 10.4141 11.3843Z" fill="#1B3B7C"/>
<path d="M15.4539 13.906C15.408 13.477 15.216 13.0768 14.9102 12.7726C14.6031 12.4648 14.2004 12.2707 13.7683 12.2222C13.1359 12.1552 11.5652 12.1187 10.5869 12.1187C9.60859 12.1187 7.68344 12.1552 7.05063 12.2222C6.61866 12.2707 6.21602 12.4646 5.90875 12.7721C5.60302 13.0764 5.41121 13.4766 5.36547 13.9055V13.9187C5.35047 14.064 5.34156 14.1901 5.33594 14.2979C5.50912 14.5244 5.69703 14.7392 5.89844 14.941C7.09677 16.1391 8.72193 16.8122 10.4165 16.8122C12.111 16.8122 13.7362 16.1391 14.9345 14.941C15.1328 14.7424 15.318 14.5311 15.4891 14.3087C15.482 14.1985 15.4717 14.0691 15.4563 13.9191L15.4539 13.906Z" fill="#1B3B7C"/>
</g>
<defs>
<clipPath id="clip0_222_2291">
<rect width="24" height="24" fill="white" transform="translate(-0.00390625 0.00244141)"/>
</clipPath>
</defs>
</svg>
