<svg width="32" height="32" viewBox="0 0 32 32" fill="none" xmlns="http://www.w3.org/2000/svg">
<g clip-path="url(#clip0_398_7709)">
<path d="M24.776 2.85317L16.4226 0.0678328C16.1491 -0.023262 15.8535 -0.023262 15.58 0.0678328L7.22664 2.85317C5.89851 3.29434 4.74319 4.14284 3.92483 5.27811C3.10647 6.41338 2.66669 7.77768 2.66797 9.17717V15.9998C2.66797 26.0838 14.9346 31.6532 15.46 31.8852C15.6304 31.9609 15.8148 32 16.0013 32C16.1878 32 16.3722 31.9609 16.5426 31.8852C17.068 31.6532 29.3346 26.0838 29.3346 15.9998V9.17717C29.3359 7.77768 28.8961 6.41338 28.0778 5.27811C27.2594 4.14284 26.1041 3.29434 24.776 2.85317ZM26.668 15.9998C26.668 23.2732 18.2426 28.0438 16.0013 29.1852C13.7573 28.0478 5.33464 23.2918 5.33464 15.9998V9.17717C5.33472 8.33754 5.599 7.51922 6.09006 6.83816C6.58111 6.15709 7.27403 5.64782 8.07064 5.3825L16.0013 2.7385L23.932 5.3825C24.7286 5.64782 25.4215 6.15709 25.9126 6.83816C26.4036 7.51922 26.6679 8.33754 26.668 9.17717V15.9998Z" fill="url(#paint0_linear_398_7709)"/>
<path d="M20.401 11.0668L14.817 16.6668L11.825 13.5468C11.705 13.4155 11.5598 13.3096 11.3982 13.2352C11.2365 13.1609 11.0616 13.1197 10.8838 13.114C10.706 13.1083 10.5288 13.1382 10.3628 13.2021C10.1967 13.2659 10.0451 13.3623 9.91685 13.4857C9.78863 13.609 9.68638 13.7567 9.61614 13.9202C9.54589 14.0837 9.50907 14.2595 9.50784 14.4374C9.50662 14.6153 9.54101 14.7917 9.60899 14.9561C9.67698 15.1205 9.77718 15.2697 9.90369 15.3948L12.9784 18.5948C13.2077 18.8424 13.4848 19.041 13.793 19.1785C14.1013 19.316 14.4342 19.3896 14.7717 19.3948H14.8157C15.1464 19.3959 15.4741 19.3312 15.7797 19.2047C16.0852 19.0781 16.3626 18.8921 16.5957 18.6574L22.2917 12.9614C22.4161 12.8373 22.5148 12.6899 22.5823 12.5276C22.6497 12.3653 22.6845 12.1913 22.6847 12.0155C22.6849 11.8398 22.6504 11.6657 22.5833 11.5033C22.5163 11.3408 22.4178 11.1932 22.2937 11.0688C22.1695 10.9444 22.0221 10.8456 21.8598 10.7782C21.6975 10.7108 21.5235 10.676 21.3478 10.6758C21.172 10.6756 20.998 10.71 20.8355 10.7771C20.6731 10.8442 20.5254 10.9426 20.401 11.0668Z" fill="url(#paint1_linear_398_7709)"/>
</g>
<defs>
<linearGradient id="paint0_linear_398_7709" x1="16.0013" y1="-0.000488281" x2="16.0013" y2="32" gradientUnits="userSpaceOnUse">
<stop stop-color="#8CB9F8"/>
<stop offset="1" stop-color="#1B3B7C"/>
</linearGradient>
<linearGradient id="paint1_linear_398_7709" x1="16.0962" y1="10.6758" x2="16.0962" y2="19.3948" gradientUnits="userSpaceOnUse">
<stop stop-color="#8CB9F8"/>
<stop offset="1" stop-color="#1B3B7C"/>
</linearGradient>
<clipPath id="clip0_398_7709">
<rect width="32" height="32" fill="white"/>
</clipPath>
</defs>
</svg>
