<svg width="33" height="32" viewBox="0 0 33 32" fill="none" xmlns="http://www.w3.org/2000/svg">
<g clip-path="url(#clip0_222_1828)">
<path d="M25.9973 2.66667C25.9973 1.19333 27.1907 0 28.664 0C30.1373 0 31.3307 1.19333 31.3307 2.66667C31.3307 4.14 30.1373 5.33333 28.664 5.33333C27.1907 5.33333 25.9973 4.14 25.9973 2.66667ZM4.66399 5.33333C6.13733 5.33333 7.33066 4.14 7.33066 2.66667C7.33066 1.19333 6.13733 0 4.66399 0C3.19066 0 1.99733 1.19333 1.99733 2.66667C1.99733 4.14 3.19066 5.33333 4.66399 5.33333ZM32.6227 9.49467C32.1213 7.85733 30.5987 6.66667 28.7973 6.66667H27.2387C27.2933 7.104 27.3307 7.548 27.3307 8C27.3307 8.92267 27.2013 9.81333 26.9813 10.6667H31.7853C32.3907 10.6667 32.7987 10.0747 32.6227 9.49467ZM5.99733 8C5.99733 7.548 6.03466 7.104 6.08933 6.66667H4.55066C2.70799 6.66667 1.15466 7.91333 0.691995 9.61067C0.545328 10.148 0.997328 10.6667 1.55466 10.6667H6.34666C6.12666 9.81333 5.99733 8.92267 5.99733 8ZM16.664 8C17.768 8 18.664 7.104 18.664 6C18.664 4.896 17.768 4 16.664 4C15.56 4 14.664 4.896 14.664 6C14.664 7.104 15.56 8 16.664 8ZM29.996 30.5893C30.0387 31.324 29.4773 31.9547 28.7427 31.9987C28.716 31.9987 28.6893 32 28.664 32C27.9627 32 27.376 31.4533 27.3333 30.744C27.2427 29.1667 26.2253 27.788 24.7453 27.2333L18.9053 25.264C18.364 25.0813 17.9987 24.572 17.9987 24V17.476C17.9987 16.76 17.516 16.12 16.8987 16.0187C16.4933 15.9533 16.1053 16.0587 15.8013 16.3173C15.5027 16.5707 15.3307 16.9413 15.3307 17.3333V27.2733C15.3307 28.084 14.8773 28.8067 14.1453 29.16C13.4133 29.5133 12.5667 29.4147 11.932 28.912C11.932 28.912 9.58399 27.0387 9.57066 27.0253C9.03466 26.528 8.19199 26.5533 7.69066 27.0893C7.18799 27.6267 7.21599 28.4733 7.75199 28.9773L8.50933 29.708C9.37333 30.54 8.78399 32.0013 7.58399 32.0013C7.23866 32.0013 6.90666 31.868 6.65866 31.628L5.91466 30.9107C4.31999 29.4173 4.23466 26.8813 5.74133 25.2707C7.21199 23.696 9.66133 23.5907 11.276 24.9933C11.2867 25.0013 12.6627 26.088 12.6627 26.088V17.3373C12.6627 16.5813 12.8947 15.8627 13.2853 15.236C10.4947 13.9347 8.66266 11.14 8.66266 8.004C8.66266 3.592 12.2507 0.004 16.6627 0.004C21.0747 0.004 24.6627 3.592 24.6627 8.004C24.6627 11.168 22.8293 13.956 20.02 15.2507C20.4227 15.9013 20.6627 16.6667 20.6627 17.48V23.0467L25.6373 24.724C28.1467 25.6653 29.8413 27.9627 29.9947 30.592L29.996 30.5893ZM11.3307 8C11.3307 9.48 11.944 10.8467 12.9587 11.8293C13.5507 10.3667 14.9787 9.33333 16.6533 9.33333H16.6747C18.348 9.33333 19.7747 10.3707 20.3667 11.8333C21.3827 10.8533 21.9973 9.49067 21.9973 8C21.9973 5.05867 19.6053 2.66667 16.664 2.66667C13.7227 2.66667 11.3307 5.05867 11.3307 8Z" fill="#8CB9F8"/>
</g>
<defs>
<clipPath id="clip0_222_1828">
<rect width="32" height="32" fill="white" transform="translate(0.664062)"/>
</clipPath>
</defs>
</svg>
