<svg width="32" height="32" viewBox="0 0 32 32" fill="none" xmlns="http://www.w3.org/2000/svg">
<g clip-path="url(#clip0_398_7091)">
<path d="M32 29.3335C32 30.8069 30.8067 32.0002 29.3333 32.0002C28.3493 32.0002 27.4987 31.4602 27.036 30.6669H25.3333C23.128 30.6669 21.3333 28.8722 21.3333 26.6669V20.0002C21.3333 19.2629 21.9307 18.6669 22.6667 18.6669C23.4027 18.6669 24 19.2629 24 20.0002V26.6669C24 27.4029 24.5987 28.0002 25.3333 28.0002H27.036C27.4973 27.2069 28.348 26.6669 29.3333 26.6669C30.8067 26.6669 32 27.8602 32 29.3335ZM17.3333 27.0362V20.0002C17.3333 19.2629 16.736 18.6669 16 18.6669C15.264 18.6669 14.6667 19.2629 14.6667 20.0002V27.0362C13.8733 27.4975 13.3333 28.3482 13.3333 29.3335C13.3333 30.8069 14.5267 32.0002 16 32.0002C17.4733 32.0002 18.6667 30.8069 18.6667 29.3335C18.6667 28.3495 18.1267 27.4989 17.3333 27.0362ZM9.33333 18.6669C8.59733 18.6669 8 19.2629 8 20.0002V26.6669C8 27.4029 7.40133 28.0002 6.66667 28.0002H4.964C4.50267 27.2069 3.652 26.6669 2.66667 26.6669C1.19333 26.6669 0 27.8602 0 29.3335C0 30.8069 1.19333 32.0002 2.66667 32.0002C3.65067 32.0002 4.50133 31.4602 4.964 30.6669H6.66667C8.872 30.6669 10.6667 28.8722 10.6667 26.6669V20.0002C10.6667 19.2629 10.0693 18.6669 9.33333 18.6669ZM28 15.2722C28 16.5775 27.6173 17.8375 26.8933 18.9149C26.4827 19.5269 26.6453 20.3549 27.256 20.7655C27.868 21.1789 28.6973 21.0122 29.1067 20.4029C30.1267 18.8829 30.6653 17.1095 30.6653 15.2722C30.6653 10.8935 27.5533 7.09485 23.264 6.24019C22.9 6.16685 22.6027 5.94019 22.4507 5.61619C20.548 1.60152 16.1427 -0.639814 11.732 0.169519C7.716 0.904186 4.56667 4.11085 3.896 8.14819C3.69867 9.34019 3.712 10.5322 3.936 11.6935C4 12.0255 3.85467 12.4002 3.556 12.6722C2.14267 13.9562 1.33333 15.7869 1.33333 17.6962C1.33333 19.3695 1.94667 20.9775 3.06267 22.2229C3.32667 22.5175 3.69067 22.6669 4.05733 22.6669C4.37333 22.6669 4.692 22.5549 4.94667 22.3269C5.496 21.8362 5.54133 20.9922 5.05067 20.4442C4.37333 19.6895 4.00133 18.7122 4.00133 17.6962C4.00133 16.5375 4.49333 15.4255 5.352 14.6469C6.33467 13.7522 6.796 12.4269 6.55733 11.1855C6.392 10.3375 6.384 9.46285 6.52933 8.58552C7.00933 5.69885 9.34667 3.31619 12.2147 2.79085C15.4813 2.19752 18.6333 3.78552 20.044 6.75885C20.5627 7.85085 21.5467 8.61619 22.7453 8.85352C25.7907 9.46152 28.0013 12.1602 28.0013 15.2709L28 15.2722Z" fill="url(#paint0_linear_398_7091)"/>
</g>
<defs>
<linearGradient id="paint0_linear_398_7091" x1="16" y1="0.00537109" x2="16" y2="32.0002" gradientUnits="userSpaceOnUse">
<stop stop-color="#8CB9F8"/>
<stop offset="1" stop-color="#1B3B7C"/>
</linearGradient>
<clipPath id="clip0_398_7091">
<rect width="32" height="32" fill="white"/>
</clipPath>
</defs>
</svg>
