<svg width="32" height="32" viewBox="0 0 32 32" fill="none" xmlns="http://www.w3.org/2000/svg">
<g clip-path="url(#clip0_222_1803)">
<path d="M13.333 2.66667C13.333 1.19333 14.5263 0 15.9996 0C17.473 0 18.6663 1.19333 18.6663 2.66667C18.6663 4.14 17.473 5.33333 15.9996 5.33333C14.5263 5.33333 13.333 4.14 13.333 2.66667ZM12.469 11.9733C13.1983 12.1093 13.8943 11.652 14.0423 10.932C14.2303 10.0053 15.0543 9.33333 16.001 9.33333C16.9476 9.33333 17.7716 10.0053 17.9596 10.932C18.089 11.564 18.645 12 19.265 12C19.3516 12 19.4423 11.9907 19.5316 11.9733C20.253 11.8267 20.7196 11.1227 20.573 10.4C20.133 8.236 18.2103 6.66533 15.9996 6.66533C13.789 6.66533 11.8663 8.236 11.4263 10.4C11.281 11.1227 11.7463 11.8253 12.4676 11.9733H12.469ZM27.333 8C28.8063 8 29.9996 6.80667 29.9996 5.33333C29.9996 3.86 28.8063 2.66667 27.333 2.66667C25.8596 2.66667 24.6663 3.86 24.6663 5.33333C24.6663 6.80667 25.8596 8 27.333 8ZM6.62498 13.5987C6.75431 14.2307 7.31031 14.6667 7.93031 14.6667C8.01698 14.6667 8.10764 14.6573 8.19698 14.64C8.91831 14.4933 9.38498 13.7893 9.23831 13.0667C8.79831 10.9027 6.87565 9.332 4.66498 9.332C2.45431 9.332 0.532978 10.904 0.0929782 13.068C-0.0523551 13.7907 0.412978 14.4933 1.13431 14.6413C1.86364 14.78 2.55964 14.32 2.70764 13.6C2.89564 12.6733 3.71965 12.0013 4.66631 12.0013C5.61298 12.0013 6.43698 12.672 6.62498 13.5987ZM4.66631 8C6.13965 8 7.33298 6.80667 7.33298 5.33333C7.33298 3.86 6.13965 2.66667 4.66631 2.66667C3.19298 2.66667 1.99964 3.86 1.99964 5.33333C1.99964 6.80667 3.19298 8 4.66631 8ZM31.9063 13.068C31.4663 10.904 29.5436 9.33333 27.333 9.33333C25.1223 9.33333 23.1996 10.904 22.7596 13.068C22.6143 13.7907 23.0796 14.4933 23.801 14.6413C24.5303 14.78 25.2263 14.32 25.3743 13.6C25.5623 12.6733 26.3863 12.0013 27.333 12.0013C28.2796 12.0013 29.1036 12.6733 29.2916 13.6C29.421 14.232 29.977 14.668 30.597 14.668C30.6836 14.668 30.7743 14.6587 30.8636 14.6413C31.585 14.4947 32.053 13.7907 31.9063 13.068ZM26.3503 24.736L20.009 22.3587V16.144C20.009 14.1227 18.5743 12.364 16.6716 12.0547C15.4996 11.8653 14.3143 12.1907 13.4196 12.9533C12.5236 13.7147 12.009 14.8253 12.009 16.0013V26.0853L10.6556 25.008C10.6463 25 10.633 24.9987 10.6236 24.992C9.00898 23.5893 6.55831 23.6933 5.08765 25.2693C3.58098 26.88 3.66631 29.416 5.26098 30.9093L6.00498 31.6267C6.25298 31.8667 6.58498 32 6.93031 32C8.13031 32 8.71965 30.54 7.85565 29.7067L7.09831 28.976C6.56098 28.472 6.53298 27.6253 7.03698 27.088C7.53698 26.552 8.38098 26.5267 8.91698 27.024C8.93031 27.036 8.94765 27.0387 8.96098 27.0507C8.97565 27.0627 11.2796 28.9093 11.2796 28.9093C11.9143 29.4147 12.7623 29.5093 13.493 29.1587C14.2236 28.8053 14.6783 28.0827 14.6783 27.272V16C14.6783 15.608 14.8503 15.2373 15.149 14.9827C15.453 14.7267 15.8423 14.6173 16.245 14.6853C16.8623 14.7853 17.345 15.4253 17.345 16.1427V23.2813C17.345 23.8373 17.6903 24.3347 18.209 24.5307L25.4156 27.232C26.8956 27.7867 27.9116 29.164 28.0036 30.744C28.045 31.452 28.633 31.9987 29.333 31.9987C29.3596 31.9987 29.385 31.9987 29.413 31.996C30.1476 31.9533 30.709 31.3227 30.665 30.5867C30.5116 27.956 28.817 25.6587 26.3516 24.7333L26.3503 24.736Z" fill="#8CB9F8"/>
</g>
<defs>
<clipPath id="clip0_222_1803">
<rect width="32" height="32" fill="white"/>
</clipPath>
</defs>
</svg>
