<svg width="33" height="32" viewBox="0 0 33 32" fill="none" xmlns="http://www.w3.org/2000/svg">
<g clip-path="url(#clip0_222_1797)">
<path d="M4.16803 6.624C4.88537 6.81067 5.60936 6.37867 5.7907 5.66533C6.24536 3.9 7.8387 2.66667 9.66537 2.66667H15.6854C15.9027 2.66667 16.1187 2.67733 16.332 2.69733V9.33333C16.332 11.5387 18.1267 13.3333 20.332 13.3333H28.332C29.0694 13.3333 29.6654 12.736 29.6654 12C29.6654 10.8187 28.3054 8.50667 27.156 7.35733L22.2854 2.73333C20.5214 0.970667 18.1774 0 15.6854 0H9.66537C6.62136 0 3.9667 2.056 3.20936 5.00133C3.02536 5.71467 3.4547 6.44133 4.16803 6.624ZM18.9987 3.548C19.512 3.84267 19.9894 4.20933 20.424 4.64267L25.2947 9.26533C25.6814 9.652 26.0507 10.176 26.3467 10.6653H20.3307C19.5947 10.6653 18.9974 10.0667 18.9974 9.332V3.548H18.9987ZM21.6654 14.6667C22.4027 14.6667 22.9987 15.264 22.9987 16C22.9987 16.736 22.4027 17.3333 21.6654 17.3333H16.332C15.596 17.3333 14.9987 16.736 14.9987 16C14.9987 15.264 15.596 14.6667 16.332 14.6667H21.6654ZM6.33336 22.6667C10.816 21.44 12.4254 17.724 12.332 15.652V11.6267C12.332 10.604 11.68 9.70133 10.708 9.37867L6.7507 8.06667C6.4787 7.97733 6.18536 7.97733 5.91203 8.06667L1.95736 9.37867C0.985365 9.7 0.332031 10.6027 0.332031 11.6267V15.6813C0.392031 18.424 2.20803 20.7253 5.7267 22.5213C5.91736 22.6187 6.12403 22.6667 6.33336 22.6667ZM2.9987 15.652V11.844L6.33203 10.7387L9.66537 11.844V15.6253C9.62936 17.4387 8.55603 18.8253 6.38803 19.852C4.1427 18.596 3.03203 17.2107 2.9987 15.652ZM31.16 17.172C29.6 15.612 27.064 15.612 25.504 17.172L17.8947 24.7813C16.8867 25.788 16.332 27.128 16.332 28.552V30.6667C16.332 31.4027 16.9294 32 17.6654 32H19.78C21.204 32 22.544 31.444 23.5507 30.4373L31.16 22.828C31.9147 22.072 32.332 21.068 32.332 19.9987C32.332 18.9293 31.9147 17.9267 31.16 17.172ZM29.2747 20.9427L21.6654 28.552C21.1614 29.056 20.492 29.3333 19.78 29.3333H18.9987V28.552C18.9987 27.8507 19.284 27.1627 19.78 26.6667L27.3894 19.0573C27.9107 18.5373 28.7534 18.5373 29.2747 19.0573C29.5267 19.308 29.6654 19.6427 29.6654 20C29.6654 20.3573 29.5267 20.6907 29.2747 20.9427ZM13.6654 30.6667C13.6654 31.4027 13.068 32 12.332 32H9.66537C5.98936 32 2.9987 29.0093 2.9987 25.3333C2.9987 24.5973 3.59603 24 4.33203 24C5.06803 24 5.66536 24.5973 5.66536 25.3333C5.66536 27.5387 7.46003 29.3333 9.66537 29.3333H12.332C13.068 29.3333 13.6654 29.9307 13.6654 30.6667ZM16.332 22.6667H14.332C13.596 22.6667 12.9987 22.0693 12.9987 21.3333C12.9987 20.5973 13.596 20 14.332 20H16.332C17.068 20 17.6654 20.5973 17.6654 21.3333C17.6654 22.0693 17.068 22.6667 16.332 22.6667Z" fill="#8CB9F8"/>
</g>
<defs>
<clipPath id="clip0_222_1797">
<rect width="32" height="32" fill="white" transform="translate(0.332031)"/>
</clipPath>
</defs>
</svg>
