<svg width="32" height="32" viewBox="0 0 32 32" fill="none" xmlns="http://www.w3.org/2000/svg">
<path d="M17.524 23.3135L19.112 20.6668L17.524 18.0202C17.1453 17.3882 17.3493 16.5695 17.9813 16.1908C18.6133 15.8108 19.432 16.0162 19.8107 16.6482L20.668 18.0762L21.5253 16.6482C21.904 16.0162 22.7227 15.8108 23.3547 16.1908C23.9867 16.5695 24.1907 17.3882 23.812 18.0202L22.224 20.6668L23.812 23.3135C24.1907 23.9455 23.9867 24.7642 23.3547 25.1428C23.14 25.2722 22.904 25.3335 22.6693 25.3335C22.216 25.3335 21.7747 25.1028 21.5253 24.6868L20.668 23.2588L19.8107 24.6868C19.56 25.1028 19.1187 25.3335 18.6667 25.3335C18.4333 25.3335 18.196 25.2722 17.9813 25.1428C17.3493 24.7642 17.1453 23.9455 17.524 23.3135ZM12 25.3335C14.2053 25.3335 16 23.5388 16 21.3335V17.3335C16 16.5975 15.4027 16.0002 14.6667 16.0002C13.9307 16.0002 13.3333 16.5975 13.3333 17.3335V21.3335C13.3333 22.0695 12.7347 22.6668 12 22.6668C11.2653 22.6668 10.6667 22.0695 10.6667 21.3335V17.3335C10.6667 16.5975 10.0693 16.0002 9.33333 16.0002C8.59733 16.0002 8 16.5975 8 17.3335V21.3335C8 23.5388 9.79467 25.3335 12 25.3335ZM6 5.3335C4.896 5.3335 4 6.2295 4 7.3335C4 8.4375 4.896 9.3335 6 9.3335C7.104 9.3335 8 8.4375 8 7.3335C8 6.2295 7.104 5.3335 6 5.3335ZM32 8.00016V24.0002C32 27.6762 29.0093 30.6668 25.3333 30.6668H6.66667C2.99067 30.6668 0 27.6762 0 24.0002V8.00016C0 4.32416 2.99067 1.3335 6.66667 1.3335H25.3333C29.0093 1.3335 32 4.32416 32 8.00016ZM29.3333 13.3335H2.66667V24.0002C2.66667 26.2055 4.46133 28.0002 6.66667 28.0002H25.3333C27.5387 28.0002 29.3333 26.2055 29.3333 24.0002V13.3335ZM29.3333 8.00016C29.3333 5.79483 27.5387 4.00016 25.3333 4.00016H6.66667C4.46133 4.00016 2.66667 5.79483 2.66667 8.00016V10.6668H29.3333V8.00016ZM11.3333 5.3335C10.2293 5.3335 9.33333 6.2295 9.33333 7.3335C9.33333 8.4375 10.2293 9.3335 11.3333 9.3335C12.4373 9.3335 13.3333 8.4375 13.3333 7.3335C13.3333 6.2295 12.4373 5.3335 11.3333 5.3335Z" fill="#BBBBBB"/>
</svg>
