<svg width="157" height="135" viewBox="0 0 157 135" fill="none" xmlns="http://www.w3.org/2000/svg">
<path d="M13.5729 21.973C11.5591 18.5688 12.6771 14.1757 16.0884 12.1547C19.4854 10.1408 23.8858 11.2588 25.9068 14.6702L30.1566 21.8368C32.1704 25.241 31.0524 29.6342 27.6411 31.6552C24.2943 33.6547 19.8509 32.5797 17.8228 29.1397L13.5729 21.973ZM136.861 102.297C126.183 116.286 103.429 139.75 70.9994 139.75C37.7103 139.75 15.3789 116.58 5.03028 102.763C-2.29404 92.9875 -2.27971 79.4282 5.06612 69.789C15.7516 55.771 38.5273 32.25 70.9994 32.25C103.995 32.25 126.441 55.4628 136.89 69.3017C144.257 79.0627 144.243 92.6292 136.861 102.297ZM125.452 77.9375C116.615 66.2272 97.7884 46.5833 70.9994 46.5833C44.7049 46.5833 25.5484 66.5712 16.4683 78.4822C12.9351 83.119 12.9494 89.4257 16.5041 94.17C25.2474 105.837 43.9524 125.417 70.9994 125.417C97.2581 125.417 116.393 105.486 125.466 93.6038C129.021 88.9527 129.014 82.6603 125.452 77.9375ZM99.6661 86C99.6661 101.81 86.8091 114.667 70.9994 114.667C55.1898 114.667 42.3328 101.81 42.3328 86C42.3328 70.1903 55.1898 57.3333 70.9994 57.3333C86.8091 57.3333 99.6661 70.1903 99.6661 86ZM85.3327 86C85.3327 78.0952 78.9042 71.6667 70.9994 71.6667C63.0946 71.6667 56.6661 78.0952 56.6661 86C56.6661 93.9048 63.0946 100.333 70.9994 100.333C78.9042 100.333 85.3327 93.9048 85.3327 86ZM70.9994 21.5C74.9554 21.5 78.1661 18.2893 78.1661 14.3333V7.16667C78.1661 3.21067 74.9554 0 70.9994 0C67.0434 0 63.8327 3.21067 63.8327 7.16667V14.3333C63.8327 18.2893 67.0434 21.5 70.9994 21.5ZM114.358 31.6552C117.705 33.6547 122.148 32.5797 124.176 29.1397L128.426 21.973C130.44 18.5688 129.322 14.1757 125.91 12.1547C122.513 10.1408 118.113 11.2588 116.092 14.6702L111.842 21.8368C109.828 25.241 110.946 29.6342 114.358 31.6552ZM124.176 142.86C122.155 139.449 117.762 138.331 114.358 140.345C110.954 142.359 109.828 146.759 111.842 150.163L116.092 157.33C118.12 160.763 122.564 161.838 125.91 159.845C129.315 157.824 130.44 153.431 128.426 150.027L124.176 142.86ZM70.9994 150.5C67.0434 150.5 63.8327 153.711 63.8327 157.667V164.833C63.8327 168.789 67.0434 172 70.9994 172C74.9554 172 78.1661 168.789 78.1661 164.833V157.667C78.1661 153.711 74.9554 150.5 70.9994 150.5ZM27.6411 140.345C24.2369 138.324 19.8438 139.449 17.8228 142.86L13.5729 150.027C11.5591 153.431 12.6771 157.824 16.0884 159.845C19.4353 161.845 23.8786 160.77 25.9068 157.33L30.1566 150.163C32.1704 146.759 31.0524 142.366 27.6411 140.345Z" fill="#8CB9F8" fill-opacity="0.25"/>
</svg>
