<?xml version="1.0" encoding="UTF-8"?>
<svg version="1.1" xmlns="http://www.w3.org/2000/svg" width="496" height="468">
<path d="M0 0 C163.68 0 327.36 0 496 0 C496 154.44 496 308.88 496 468 C332.32 468 168.64 468 0 468 C0 313.56 0 159.12 0 0 Z " fill="#FEFEFE" transform="translate(0,0)"/>
<path d="M0 0 C3.21692798 0.71099441 4.48614016 1.84475981 6.87838745 4.09890747 C7.75307678 4.92062439 8.62776611 5.74234131 9.52896118 6.58895874 C10.5552084 7.58217877 11.57923747 8.57769371 12.60153198 9.57498169 C13.18100838 10.13866203 13.76048477 10.70234238 14.35752106 11.28310394 C19.3089807 16.1143433 24.21161179 20.99406412 29.10934448 25.87966919 C30.27055628 27.03663992 30.27055628 27.03663992 31.4552269 28.2169838 C35.53630397 32.28317607 39.61458112 36.35215098 43.69039917 40.4236145 C47.90270442 44.63039005 52.12424174 48.82777547 56.3479023 53.02314568 C59.59898876 56.2556711 62.84340868 59.49482401 66.08599472 62.73587418 C67.64091079 64.28775826 69.19833386 65.83713458 70.75827408 67.38396835 C72.92682352 69.53556347 75.08582258 71.69630852 77.24264526 73.85964966 C77.89083725 74.49862686 78.53902924 75.13760406 79.2068634 75.79594421 C83.60153198 80.23259657 83.60153198 80.23259657 83.60153198 83.57498169 C84.92153198 83.90498169 86.24153198 84.23498169 87.60153198 84.57498169 C87.60153198 85.56498169 87.60153198 86.55498169 87.60153198 87.57498169 C86.94153198 87.57498169 86.28153198 87.57498169 85.60153198 87.57498169 C85.93153198 88.89498169 86.26153198 90.21498169 86.60153198 91.57498169 C87.26153198 91.57498169 87.92153198 91.57498169 88.60153198 91.57498169 C88.27153198 92.56498169 87.94153198 93.55498169 87.60153198 94.57498169 C86.61153198 94.57498169 85.62153198 94.57498169 84.60153198 94.57498169 C85.19965698 95.46185669 85.79778198 96.34873169 86.41403198 97.26248169 C88.60153198 100.57498169 88.60153198 100.57498169 90.03903198 103.38748169 C91.44464919 105.82610198 91.44464919 105.82610198 94.28903198 106.38748169 C95.43371948 106.48029419 95.43371948 106.48029419 96.60153198 106.57498169 C96.60153198 104.59498169 96.60153198 102.61498169 96.60153198 100.57498169 C98.91153198 100.57498169 101.22153198 100.57498169 103.60153198 100.57498169 C103.98371965 102.23112826 104.315483 103.89955193 104.60153198 105.57498169 C104.27153198 105.90498169 103.94153198 106.23498169 103.60153198 106.57498169 C105.30309448 107.03904419 105.30309448 107.03904419 107.03903198 107.51248169 C110.60153198 108.57498169 110.60153198 108.57498169 111.60153198 109.57498169 C112.20241486 114.46788515 112.19865866 117.32166827 109.14450073 121.27420044 C105.29568017 126.15878226 100.9146797 130.48095456 96.47653198 134.82498169 C95.67860229 135.61388794 94.88067261 136.40279419 94.05856323 137.21560669 C92.57895489 138.67792412 91.09728369 140.13815982 89.61276245 141.5954895 C88.20562928 142.98041736 86.8263737 144.39398336 85.46920776 145.82791138 C83.60153198 147.57498169 83.60153198 147.57498169 81.60153198 147.57498169 C81.27153198 148.56498169 80.94153198 149.55498169 80.60153198 150.57498169 C78.9718843 152.30192177 77.31712145 153.93737356 75.60153198 155.57498169 C74.40091427 156.77019121 73.20318467 157.96830631 72.00778198 159.16873169 C45.75778198 185.41873169 45.75778198 185.41873169 44.12350464 187.05081177 C42.79579483 188.38043838 41.47537148 189.717333 40.15621948 191.05545044 C37.54983223 193.62596998 34.87846994 196.10861733 32.18405151 198.58596802 C26.92707411 203.42398701 21.80329039 208.21751793 17.20700073 213.69998169 C6.99182967 225.63010848 6.99182967 225.63010848 0.60153198 227.57498169 C-5.32784607 227.79458828 -7.83566251 225.58614884 -11.98001099 221.84759521 C-17.01004561 217.12089361 -21.89167447 212.2465873 -26.77346802 207.36795044 C-27.9502356 206.19440146 -29.12707604 205.02092553 -30.3039856 203.84751892 C-32.75310171 201.40435226 -35.20018147 198.95916682 -37.64602661 196.51272583 C-40.78617394 193.37247604 -43.93319534 190.23921125 -47.0819397 187.10758495 C-49.50617599 184.6944285 -51.92589293 182.27678012 -54.34432983 179.85781288 C-55.50379296 178.69953192 -56.66488281 177.54287703 -57.8276062 176.38786888 C-59.44322676 174.78198533 -61.05246021 173.16996395 -62.66018677 171.55618286 C-63.57759644 170.64019821 -64.4950061 169.72421356 -65.44021606 168.7804718 C-67.39846802 166.57498169 -67.39846802 166.57498169 -67.39846802 164.57498169 C-67.98825943 164.31083466 -68.57805084 164.04668762 -69.18571472 163.77453613 C-71.48410655 162.52855623 -72.97156807 161.23734699 -74.80252075 159.3821106 C-75.44676498 158.73448761 -76.09100922 158.08686462 -76.754776 157.4196167 C-77.4402803 156.72065277 -78.12578461 156.02168884 -78.83206177 155.30154419 C-79.54701309 154.5813913 -80.26196442 153.8612384 -80.99858093 153.1192627 C-83.28251033 150.8175328 -85.55965188 148.50923913 -87.83596802 146.19998169 C-90.10954695 143.89872022 -92.38458623 141.59895271 -94.66264343 139.30212402 C-96.0789755 137.87360856 -97.492626 136.44242797 -98.9032135 135.00823975 C-102.25581463 131.62181768 -105.61868341 128.49154692 -109.39846802 125.57498169 C-113.54364005 121.52401811 -115.23410125 118.60335689 -115.60940552 112.76638794 C-115.27071172 109.24773569 -113.71008574 107.15078429 -111.39846802 104.57498169 C-110.73846802 104.57498169 -110.07846802 104.57498169 -109.39846802 104.57498169 C-109.01174927 103.70099731 -109.01174927 103.70099731 -108.61721802 102.80935669 C-107.30012785 100.39469139 -105.84758418 98.75757991 -103.89846802 96.82498169 C-103.29003052 96.21138794 -102.68159302 95.59779419 -102.05471802 94.96560669 C-100.39846802 93.57498169 -100.39846802 93.57498169 -98.39846802 93.57498169 C-98.14113357 92.99274652 -97.88379911 92.41051136 -97.61866665 91.81063271 C-96.28956511 89.37544951 -94.83577348 87.76336928 -92.87528992 85.80456543 C-92.14484467 85.06992569 -91.41439941 84.33528595 -90.66181946 83.5783844 C-89.86020889 82.78239334 -89.05859833 81.98640228 -88.23269653 81.16629028 C-87.38866272 80.32035812 -86.54462891 79.47442596 -85.67501831 78.6028595 C-83.36256476 76.28733734 -81.04570268 73.97634157 -78.7266438 71.66743803 C-76.2997486 69.24933546 -73.87813608 66.82595313 -71.45582581 64.40325928 C-67.38794386 60.3363134 -63.31621031 56.27325646 -59.24197388 52.212677 C-54.53187896 47.51831225 -49.8270357 42.8187367 -45.12516648 38.11613405 C-40.11830078 33.10859284 -35.10763466 28.10486782 -30.09584308 23.10225725 C-28.65222707 21.66077221 -27.20932273 20.21857803 -25.76657295 18.77622604 C-23.07810118 16.08991654 -20.38636554 13.40692272 -17.69363403 10.72488403 C-16.8940477 9.92484451 -16.09446136 9.12480499 -15.27064514 8.30052185 C-14.53738007 7.57152176 -13.80411499 6.84252167 -13.04862976 6.09143066 C-12.41242486 5.45690161 -11.77621996 4.82237255 -11.12073612 4.16861534 C-7.48912408 0.80824471 -4.83881782 -0.23307494 0 0 Z " fill="#D8E3ED" transform="translate(316.3984680175781,153.42501831054688)"/>
<path d="M0 0 C3.9233567 2.13903593 6.74481211 5.04097091 9.81347656 8.25830078 C10.70134354 9.13623795 11.58921051 10.01417511 12.50398254 10.91871643 C14.91481779 13.31599966 17.2931818 15.73837581 19.66073704 18.17795801 C22.15127359 20.73154782 24.6770178 23.24987484 27.19842529 25.7729187 C31.42292056 30.0103273 35.62208858 34.27153259 39.80517578 38.54980469 C44.63707191 43.49137164 49.49949168 48.40108378 54.38119721 53.29342091 C59.58978195 58.51348759 64.77904049 63.75241082 69.96087933 68.99901724 C71.45122879 70.50589526 72.94472058 72.00960116 74.43878937 73.51279068 C77.22126433 76.31509865 79.98143437 79.13875084 82.73925781 81.96533203 C83.56615616 82.79467758 84.3930545 83.62402313 85.24501038 84.47850037 C85.99328598 85.25243637 86.74156158 86.02637238 87.51251221 86.82376099 C88.16577106 87.48929552 88.81902992 88.15483006 89.4920845 88.8405323 C91.36657682 91.52497027 91.66808783 93.77659832 92 97 C74.33333333 97 56.66666667 97 39 97 C39 96.01 39 95.02 39 94 C38.34 94 37.68 94 37 94 C36.67 94.99 36.34 95.98 36 97 C32.7 97 29.4 97 26 97 C25.67 96.01 25.34 95.02 25 94 C24.34 94 23.68 94 23 94 C23.33 94.99 23.66 95.98 24 97 C13.77 97 3.54 97 -7 97 C-7 96.34 -7 95.68 -7 95 C-7.33 95.66 -7.66 96.32 -8 97 C-27.47 97 -46.94 97 -67 97 C-67 97.66 -67 98.32 -67 99 C-67.66 99 -68.32 99 -69 99 C-67.13497412 101.62799102 -65.69589209 102.86365751 -62.5078125 103.48828125 C-60.0035728 103.72593573 -57.51346021 103.9040664 -55 104 C-55 102.35 -55 100.7 -55 99 C-54.34 99 -53.68 99 -53 99 C-53 100.65 -53 102.3 -53 104 C-49.04 104 -45.08 104 -41 104 C-40.67 104.66 -40.34 105.32 -40 106 C-39.67 105.34 -39.34 104.68 -39 104 C-28.77 104 -18.54 104 -8 104 C-8 104.66 -8 105.32 -8 106 C-7.01 106 -6.02 106 -5 106 C-5 105.34 -5 104.68 -5 104 C0.28 104 5.56 104 11 104 C11.33 104.66 11.66 105.32 12 106 C12.33 105.34 12.66 104.68 13 104 C16.3 104 19.6 104 23 104 C23 104.66 23 105.32 23 106 C23.66 106 24.32 106 25 106 C25 105.34 25 104.68 25 104 C46.12 104 67.24 104 89 104 C87.05130712 107.89738576 84.8754406 110.41541293 81.84375 113.421875 C81.08934631 114.17914886 81.08934631 114.17914886 80.31970215 114.95172119 C79.25970014 116.01307997 78.19718512 117.07193419 77.13232422 118.12841797 C75.49859954 119.75139124 73.87586706 121.38481068 72.25390625 123.01953125 C71.22199524 124.05012146 70.18946441 125.08009152 69.15625 126.109375 C68.66974976 126.59992371 68.18324951 127.09047241 67.68200684 127.59588623 C64.22994349 131 64.22994349 131 62 131 C62 130.34 62 129.68 62 129 C61.34 129 60.68 129 60 129 C60 129.99 60 130.98 60 132 C52.74 132 45.48 132 38 132 C37.67 131.34 37.34 130.68 37 130 C36.34 130 35.68 130 35 130 C34.67 130.66 34.34 131.32 34 132 C33.01 132 32.02 132 31 132 C30.67 131.67 30.34 131.34 30 131 C29.67 131.33 29.34 131.66 29 132 C26.3337397 132.08855161 23.69352886 132.11524673 21.02734375 132.09765625 C20.22970108 132.0962413 19.43205841 132.09482635 18.61024475 132.09336853 C16.05262565 132.08775316 13.49509282 132.07519812 10.9375 132.0625 C9.20768355 132.05748698 7.47786574 132.05292373 5.74804688 132.04882812 C1.49866447 132.03777875 -2.75065312 132.02050386 -7 132 C-7 131.01 -7 130.02 -7 129 C-7.66 129 -8.32 129 -9 129 C-9 129.99 -9 130.98 -9 132 C-19.89 132 -30.78 132 -42 132 C-42 131.34 -42 130.68 -42 130 C-42.66 130 -43.32 130 -44 130 C-44 130.66 -44 131.32 -44 132 C-45.65 132 -47.3 132 -49 132 C-49 131.01 -49 130.02 -49 129 C-49.66 129 -50.32 129 -51 129 C-51 129.99 -51 130.98 -51 132 C-54.3 132 -57.6 132 -61 132 C-60.01 131.34 -59.02 130.68 -58 130 C-59.65 129.67 -61.3 129.34 -63 129 C-63 132.3 -63 135.6 -63 139 C-28.68 139 5.64 139 41 139 C41 139.99 41 140.98 41 142 C41.66 142 42.32 142 43 142 C43 141.01 43 140.02 43 139 C44.98 139 46.96 139 49 139 C49 139.99 49 140.98 49 142 C49.66 142 50.32 142 51 142 C51 141.01 51 140.02 51 139 C51.99 139 52.98 139 54 139 C52.57261076 142.2433327 50.83306134 144.4287002 48.34814453 146.94238281 C47.60041779 147.70286926 46.85269104 148.46335571 46.08230591 149.24688721 C44.86980667 150.46272491 44.86980667 150.46272491 43.6328125 151.703125 C42.80167938 152.54091492 41.97054626 153.37870483 41.11422729 154.24188232 C39.35663293 156.00959616 37.59631815 157.77460871 35.83349609 159.53710938 C33.13183432 162.2431546 30.44656526 164.96478333 27.76171875 167.6875 C26.05306462 169.40202015 24.34346095 171.11559465 22.6328125 172.828125 C21.82852814 173.6467804 21.02424377 174.46543579 20.19558716 175.30889893 C19.44155609 176.05677673 18.68752502 176.80465454 17.91064453 177.57519531 C17.25049347 178.23819641 16.59034241 178.90119751 15.91018677 179.58428955 C14 181 14 181 10 181 C9.9175 181.78375 9.835 182.5675 9.75 183.375 C9.5025 184.24125 9.255 185.1075 9 186 C7.0625 187.0625 7.0625 187.0625 5 188 C4.71125 188.61875 4.4225 189.2375 4.125 189.875 C2.38819939 193.15562338 0.26483561 194.30712228 -3 196 C-7.37734519 196.77662576 -9.47804419 196.98337638 -13.21875 194.56640625 C-18.50152545 190.11624214 -18.50152545 190.11624214 -19.9140625 186.953125 C-20.86753967 184.83302979 -20.86753967 184.83302979 -23.08686829 183.84275818 C-27.16172201 181.26513012 -30.30660616 177.97155773 -33.69604492 174.56274414 C-34.45434097 173.80795273 -35.21263702 173.05316132 -35.99391174 172.27549744 C-38.49447968 169.78371906 -40.98767616 167.28471136 -43.48046875 164.78515625 C-45.21701799 163.04995431 -46.95386402 161.31504936 -48.69099426 159.58042908 C-52.32810231 155.94626842 -55.96157105 152.30851763 -59.5925293 148.66821289 C-64.24980947 143.99953004 -68.91602117 139.33989373 -73.58498669 134.68290043 C-77.17189617 131.1032126 -80.75403501 127.51878148 -84.33474159 123.93288994 C-86.05369508 122.21260125 -87.77413836 120.49379987 -89.49608421 118.77650642 C-91.89963834 116.37802331 -94.29670121 113.9732362 -96.69213867 111.56665039 C-97.4064505 110.85638702 -98.12076233 110.14612366 -98.85671997 109.41433716 C-99.50854752 108.75686996 -100.16037506 108.09940277 -100.83195496 107.42201233 C-101.68224667 106.57058954 -101.68224667 106.57058954 -102.549716 105.70196629 C-104.82088151 103.03666272 -105.8751311 100.68677896 -106.5 97.25 C-105.18183038 88.68189745 -96.12150125 81.81788023 -90.25 76 C-89.38761719 75.12988281 -88.52523437 74.25976562 -87.63671875 73.36328125 C-86.40115234 72.13158203 -86.40115234 72.13158203 -85.140625 70.875 C-84.39329102 70.12992187 -83.64595703 69.38484375 -82.87597656 68.6171875 C-81 67 -81 67 -79 67 C-79 66.34 -79 65.68 -79 65 C-77.90135751 63.83269235 -76.78948729 62.67585019 -75.625 61.57421875 C-74.39880347 60.38634086 -73.21853824 59.15079054 -72.0625 57.89453125 C-71.381875 57.16621094 -70.70125 56.43789062 -70 55.6875 C-69.360625 54.99011719 -68.72125 54.29273438 -68.0625 53.57421875 C-65.52875834 51.64032124 -64.11300495 51.68113317 -61 52 C-60.814375 51.0409375 -60.814375 51.0409375 -60.625 50.0625 C-60.41875 49.381875 -60.2125 48.70125 -60 48 C-59.34 47.67 -58.68 47.34 -58 47 C-58 48.65 -58 50.3 -58 52 C-57.34 52 -56.68 52 -56 52 C-56 50.02 -56 48.04 -56 46 C-55.34 46 -54.68 46 -54 46 C-54 47.98 -54 49.96 -54 52 C-53.34 52 -52.68 52 -52 52 C-52.495 49.03 -52.495 49.03 -53 46 C-54.65 45.67 -56.3 45.34 -58 45 C-54.49925018 40.82556637 -51.02049157 36.6854506 -47 33 C-46.34 33 -45.68 33 -45 33 C-44.72704102 32.40205124 -44.45408203 31.80410248 -44.17285156 31.18803406 C-43.03279278 29.06117716 -41.93251327 27.68462382 -40.234375 25.99145508 C-39.68040039 25.43440384 -39.12642578 24.8773526 -38.55566406 24.30342102 C-37.95979492 23.7147374 -37.36392578 23.12605377 -36.75 22.51953125 C-36.13608398 21.90607346 -35.52216797 21.29261566 -34.88964844 20.66056824 C-33.59416262 19.36809762 -32.29625309 18.07805241 -30.99609375 16.7902832 C-29.00201121 14.81449276 -27.01608257 12.83078134 -25.03125 10.84570312 C-23.77130493 9.59067221 -22.5109038 8.33609895 -21.25 7.08203125 C-20.65413086 6.48727493 -20.05826172 5.89251862 -19.44433594 5.27973938 C-13.38883953 -0.70601886 -8.44986403 -1.32691043 0 0 Z " fill="#D7DFE7" transform="translate(189,38)"/>
<path d="M0 0 C1.15048828 0.02320313 1.15048828 0.02320313 2.32421875 0.046875 C4.3125 0.25 4.3125 0.25 6.3125 1.25 C6.3125 1.91 6.3125 2.57 6.3125 3.25 C6.90648024 3.35669856 7.50046047 3.46339712 8.11244011 3.57332897 C10.62011365 4.34461254 11.67061931 5.23330833 13.51345825 7.07673645 C14.12188568 7.67814957 14.73031311 8.27956268 15.35717773 8.89920044 C16.34077271 9.89426102 16.34077271 9.89426102 17.34423828 10.90942383 C18.04386688 11.60540176 18.74349548 12.3013797 19.46432495 13.01844788 C21.77795553 15.32396423 24.0805403 17.64017656 26.3828125 19.95703125 C27.98605106 21.56078834 29.58980775 23.16402761 31.19406128 24.76676941 C34.55615954 28.12895744 37.91302381 31.49625967 41.26611328 34.86743164 C45.56637027 39.19036652 49.8776009 43.50215252 54.19258308 47.8103838 C57.5060534 51.12051378 60.8145176 54.43560986 64.12139511 57.75232506 C65.70930361 59.3440854 67.29856603 60.93449627 68.88919449 62.52353859 C71.11095797 64.74493155 73.32611497 66.97270575 75.53955078 69.20239258 C76.19932922 69.8596936 76.85910767 70.51699463 77.53887939 71.19421387 C78.14166718 71.80408646 78.74445496 72.41395905 79.36550903 73.04231262 C79.88942293 73.56827939 80.41333683 74.09424616 80.95312691 74.63615131 C84.00386132 78.25798535 84.56321398 81.33421389 84.7734375 86.0546875 C83.41009725 92.54788426 77.40752294 97.4184831 72.87890625 101.87890625 C72.16395493 102.59102768 71.4490036 103.30314911 70.71238708 104.03684998 C68.43793613 106.30016558 66.15662645 108.55642044 63.875 110.8125 C62.34524096 112.33221721 60.81593938 113.85239506 59.28710938 115.37304688 C56.47621203 118.16765983 53.66272237 120.95960281 50.84594727 123.74829102 C46.53512043 128.0179351 42.24798172 132.31008481 37.985672 136.62812805 C35.78213287 138.85852463 33.57316806 141.08351634 31.36401367 143.30834961 C30.19753189 144.48498468 29.03283729 145.663394 27.86987305 146.84350586 C26.18481942 148.55268913 24.49350093 150.25544429 22.80078125 151.95703125 C22.27994461 152.48819046 21.75910797 153.01934967 21.2224884 153.56660461 C19.95655856 154.83292938 18.63876653 156.04701461 17.3125 157.25 C16.6525 157.25 15.9925 157.25 15.3125 157.25 C15.3125 157.91 15.3125 158.57 15.3125 159.25 C14.6525 159.25 13.9925 159.25 13.3125 159.25 C13.085625 159.86875 12.85875 160.4875 12.625 161.125 C10.93320165 163.86410209 9.32005839 164.30024472 6.3125 165.25 C6.3125 164.59 6.3125 163.93 6.3125 163.25 C5.6525 163.25 4.9925 163.25 4.3125 163.25 C4.3125 164.57 4.3125 165.89 4.3125 167.25 C-0.45146428 168.41194251 -4.27017637 168.41630841 -8.6875 166.25 C-11.79902064 163.7631421 -14.50808355 160.94577747 -17.25 158.0625 C-17.97896484 157.31935547 -18.70792969 156.57621094 -19.45898438 155.81054688 C-23.26212192 151.90471435 -26.87716101 147.89347798 -30.3894043 143.72631836 C-32.05266522 141.83469925 -33.86827465 140.22288561 -35.8125 138.625 C-38.85111131 136.045047 -41.19518496 133.3653938 -43.6875 130.25 C-44.88962272 129.16422229 -46.11089724 128.09949836 -47.34423828 127.04931641 C-51.44400719 123.49883087 -55.33273794 119.78195768 -59.1796875 115.9609375 C-59.85170197 115.29462311 -60.52371643 114.62830872 -61.21609497 113.94180298 C-62.62069608 112.54656656 -64.02391257 111.14993493 -65.42578125 109.75195312 C-67.57107838 107.61646082 -69.72681423 105.4918685 -71.8828125 103.3671875 C-73.2532598 102.00326262 -74.62307431 100.63870156 -75.9921875 99.2734375 C-76.95618973 98.32795547 -76.95618973 98.32795547 -77.93966675 97.3633728 C-82.1944058 93.08716155 -84.39252401 89.95394662 -85.0625 83.8125 C-84.3064578 76.63009909 -78.69989712 71.97266266 -73.79516602 67.09887695 C-73.11010986 66.41031616 -72.42505371 65.72175537 -71.71923828 65.0123291 C-69.46494853 62.74927338 -67.2034652 60.49356922 -64.94140625 58.23828125 C-63.36697123 56.66249827 -61.79283315 55.08641856 -60.21897888 53.51005554 C-56.92453734 50.21266982 -53.6265166 46.91891761 -50.32592773 43.62768555 C-46.09792392 39.41108511 -41.87897458 35.18555721 -37.66265965 30.95727253 C-34.41577716 27.70316046 -31.16414301 24.45383014 -27.91105461 21.20592308 C-26.35347658 19.64967802 -24.79737957 18.0919492 -23.24279976 16.53270912 C-21.06974824 14.35457344 -18.89037945 12.18296044 -16.70922852 10.01293945 C-16.06958664 9.36924911 -15.42994476 8.72555878 -14.7709198 8.06236267 C-6.41206441 -0.21772714 -6.41206441 -0.21772714 0 0 Z " fill="#D0D6DA" transform="translate(168.6875,262.75)"/>
<path d="M0 0 C4.67950449 2.26209742 7.96638771 5.7235411 11.55078125 9.390625 C12.16841843 10.01346375 12.7860556 10.63630249 13.42240906 11.27801514 C15.39061255 13.26395858 17.35199724 15.25645642 19.3125 17.25 C29.35794311 27.55440417 29.35794311 27.55440417 39.99438477 37.23242188 C44.26027992 40.99201785 48.24618119 45.06023836 52.26538086 49.08007812 C53.82193265 50.63441925 55.3863559 52.18054678 56.95117188 53.7265625 C57.95361321 54.7260731 58.95558347 55.72605643 59.95703125 56.7265625 C60.85397705 57.61939941 61.75092285 58.51223633 62.67504883 59.43212891 C65.68329668 62.75469017 67.77142115 65.46525627 68.4375 69.9375 C67.52273618 76.34084677 62.5189439 80.77293971 58.1015625 85.15722656 C57.52218933 85.74010437 56.94281616 86.32298218 56.34588623 86.92352295 C54.44389814 88.83425972 52.53475231 90.73765081 50.625 92.640625 C49.29479219 93.97218106 47.96488131 95.30403381 46.63525391 96.63616943 C43.85447601 99.41988898 41.0701302 102.1999762 38.28320312 104.97753906 C34.71199811 108.53732796 31.1498767 112.10605026 27.59036255 115.67752457 C24.84878305 118.42632957 22.1024598 121.17035517 19.35467529 123.91295624 C18.03909506 125.22720305 16.72499686 126.54293514 15.41241455 127.86017609 C13.57921821 129.69845132 11.73973321 131.53019388 9.8984375 133.36035156 C9.35805847 133.90477905 8.81767944 134.44920654 8.26092529 135.01013184 C4.69580487 138.5354042 2.12169298 140.72325744 -2.875 141.375 C-9.6473948 140.56231262 -14.31336675 134.97175958 -18.90234375 130.328125 C-19.5431337 129.68687683 -20.18392365 129.04562866 -20.84413147 128.38494873 C-22.19363244 127.03243931 -23.54071495 125.67751294 -24.88549805 124.3203125 C-26.92254341 122.26509005 -28.96739686 120.21790386 -31.01367188 118.171875 C-32.33120004 116.84942729 -33.64827211 115.52652499 -34.96484375 114.203125 C-35.86673683 113.29956268 -35.86673683 113.29956268 -36.78684998 112.37774658 C-40.48209742 108.64190329 -43.98033509 104.78017765 -47.41856384 100.80703735 C-49.31611556 98.63878869 -51.29656062 96.57409067 -53.33203125 94.53515625 C-54.06744141 93.79845703 -54.80285156 93.06175781 -55.56054688 92.30273438 C-56.30369141 91.56345703 -57.04683594 90.82417969 -57.8125 90.0625 C-58.57498047 89.29615234 -59.33746094 88.52980469 -60.12304688 87.74023438 C-61.21649414 86.6487207 -61.21649414 86.6487207 -62.33203125 85.53515625 C-62.98921143 84.879104 -63.6463916 84.22305176 -64.32348633 83.54711914 C-65.93380588 81.91729521 -65.93380588 81.91729521 -68 81 C-68 80.34 -68 79.68 -68 79 C-68.66 79 -69.32 79 -70 79 C-72.60222388 76.01226147 -73.27874398 73.55115313 -73.125 69.6875 C-71.3500478 59.48365456 -59.49558622 51.34883416 -52.390625 44.2578125 C-51.17455713 43.04106981 -49.95863763 41.82417881 -48.74285889 40.60714722 C-46.20958682 38.07240934 -43.67453616 35.53946781 -41.13818359 33.0078125 C-37.88766878 29.76302493 -34.64170554 26.51372683 -31.39703751 23.26309395 C-28.8938738 20.75632038 -26.38833792 18.25192878 -23.88207245 15.74825668 C-22.68363813 14.55048887 -21.48594462 13.35197934 -20.28900909 12.15271378 C-18.62118598 10.48235387 -16.95019606 8.81522803 -15.27832031 7.14892578 C-14.78581284 6.65439407 -14.29330536 6.15986237 -13.78587341 5.65034485 C-9.17574681 1.06867739 -6.61894207 -0.57059845 0 0 Z " fill="#D0D8DE" transform="translate(423,315)"/>
<path d="M0 0 C6.75933134 4.88383468 12.53589309 11.39018054 18.40625 17.2734375 C19.38116139 18.24767377 20.35622106 19.22176169 21.3314209 20.19570923 C23.35668724 22.21951328 25.38016358 24.24508505 27.40234375 26.27197266 C29.99937897 28.87475807 32.60095087 31.47295579 35.20383453 34.06989098 C37.20954628 36.0720027 39.21288713 38.07647303 41.21549988 40.08168411 C42.17488649 41.04173879 43.1350192 42.00104846 44.09590149 42.95960617 C45.42897608 44.29015773 46.75852945 45.62423443 48.08789062 46.95849609 C48.84541626 47.71681732 49.60294189 48.47513855 50.38342285 49.25643921 C52 51 52 51 52 52 C50.35 52 48.7 52 47 52 C47.495 54.97 47.495 54.97 48 58 C50.31 58.33 52.62 58.66 55 59 C55.33 57.68 55.66 56.36 56 55 C56.33 56.32 56.66 57.64 57 59 C57.556875 59.04125 58.11375 59.0825 58.6875 59.125 C62.2517498 60.47363506 63.816026 62.96670278 66 66 C66 66.99 66 67.98 66 69 C60.39 69 54.78 69 49 69 C49 68.01 49 67.02 49 66 C48.34 66 47.68 66 47 66 C47 69.63 47 73.26 47 77 C52.61 77 58.22 77 64 77 C54.78571429 87.92857143 54.78571429 87.92857143 49 92 C49 89.69 49 87.38 49 85 C48.01 85.495 48.01 85.495 47 86 C47.36399902 87.09707275 47.72799805 88.19414551 48.10302734 89.32446289 C48.48604341 92.53771837 48.16275572 93.75166671 46.36553955 96.49386597 C43.79829945 99.3795836 41.11361693 102.11226265 38.3515625 104.80859375 C37.33897154 105.82471129 36.32779205 106.84223718 35.31796265 107.86109924 C33.19829726 109.98950883 31.06351791 112.10109532 28.91650391 114.2019043 C26.17586967 116.88576781 23.47485399 119.6057741 20.78396034 122.33940029 C18.70178234 124.44670412 16.60059127 126.53418991 14.49320602 128.61625862 C13.49004345 129.6116107 12.49256384 130.61272647 11.50114822 131.61977959 C2.2373662 140.9882124 2.2373662 140.9882124 -4.83120728 141.5191803 C-10.73016725 140.10704729 -15.03971639 135.24638532 -19.1730957 131.06982422 C-19.7575798 130.48723846 -20.3420639 129.90465271 -20.94425964 129.30441284 C-22.85967645 127.39267729 -24.76783786 125.47387937 -26.67578125 123.5546875 C-28.00965984 122.21961592 -29.34390928 120.88491476 -30.67851257 119.55056763 C-33.46627701 116.76124313 -36.25066106 113.96860288 -39.0324707 111.17333984 C-42.60302692 107.58573675 -46.18018853 104.00480959 -49.75965595 100.42609978 C-52.51108311 97.67440122 -55.25990044 94.92010834 -58.00783348 92.16492081 C-59.32657942 90.84298826 -60.64593582 89.52166441 -61.96590614 88.20095444 C-63.80443108 86.36026914 -65.63963021 84.51633397 -67.47387695 82.67138672 C-68.02189972 82.12381714 -68.56992249 81.57624756 -69.134552 81.01208496 C-72.49839504 77.61940733 -74.16725359 75.64991099 -74.5 70.875 C-74.38885598 67.0948808 -73.83863295 65.27357963 -71.26611328 62.50537109 C-70.62659729 61.81401062 -69.9870813 61.12265015 -69.32818604 60.41033936 C-64.33943372 55.2455519 -59.31161183 50.12454159 -54.2421875 45.0390625 C-53.33444265 44.12707659 -53.33444265 44.12707659 -52.40835953 43.19666672 C-49.21519359 39.98861082 -46.01924256 36.78336203 -42.82080078 33.58056641 C-39.52440282 30.27865197 -36.23740988 26.96753554 -32.95245171 23.65424538 C-30.41471493 21.09789288 -27.87030273 18.54826531 -25.32400894 16.00043869 C-24.10870197 14.78210991 -22.89589076 13.56128615 -21.68566513 12.3379097 C-19.9965022 10.6316847 -18.29812041 8.93518365 -16.59716797 7.24072266 C-16.10250031 6.73684021 -15.60783264 6.23295776 -15.09817505 5.71380615 C-10.68456378 1.35272205 -6.27727396 -1.10775423 0 0 Z " fill="#D4DAE0" transform="translate(79,170)"/>
<path d="M0 0 C1.06347656 -0.08636719 2.12695312 -0.17273438 3.22265625 -0.26171875 C13.15551059 2.2763292 21.38805796 13.9752046 28.5625 21.14453125 C29.64193901 22.22074736 30.72144886 23.29689242 31.80102539 24.37297058 C34.04147361 26.60748786 36.27990414 28.84400367 38.51708984 31.08178711 C41.38121799 33.94601778 44.25222252 36.80325063 47.12493896 39.65886402 C49.34681734 41.86963435 51.56414654 44.08492406 53.7802124 46.30151939 C54.83754112 47.35767082 55.89648547 48.41220745 56.95709229 49.46506691 C58.43321988 50.93139737 59.90287797 52.4039272 61.37109375 53.87817383 C62.20697021 54.71262527 63.04284668 55.54707672 63.90405273 56.40681458 C67.35863169 60.28142102 68.29268323 63.27464356 68.5 68.4375 C68.59474609 69.91476563 68.59474609 69.91476563 68.69140625 71.421875 C66.59675775 80.49506747 55.54820605 88.25769671 49.0546875 94.7734375 C48.21313803 95.61922804 48.21313803 95.61922804 47.35458755 96.48210526 C44.3948354 99.45673752 41.43230713 102.42857 38.46728516 105.39794922 C35.41302125 108.4577314 32.36817265 111.52671 29.32534599 114.59786034 C26.9729039 116.96892285 24.61378372 119.33325393 22.25278091 121.69578934 C21.12678748 122.824803 20.0032879 123.95630972 18.88238144 125.09037399 C17.31775022 126.672079 15.74390681 128.2440273 14.16748047 129.81396484 C13.27592255 130.7091684 12.38436462 131.60437195 11.46578979 132.52670288 C7.8898069 135.58290852 5.15216137 136.57707624 0.5 137 C-7.10653765 136.33275985 -11.38446734 131.78431872 -16.4375 126.5625 C-17.07816406 125.91667969 -17.71882813 125.27085937 -18.37890625 124.60546875 C-23.0625 119.84198428 -23.0625 119.84198428 -23.0625 118.6875 C-20.4225 118.6875 -17.7825 118.6875 -15.0625 118.6875 C-15.248125 117.883125 -15.43375 117.07875 -15.625 116.25 C-15.769375 115.404375 -15.91375 114.55875 -16.0625 113.6875 C-15.7325 113.3575 -15.4025 113.0275 -15.0625 112.6875 C-16.48393311 112.87179565 -16.48393311 112.87179565 -17.93408203 113.05981445 C-24.78078063 113.52601017 -30.06366088 112.87743433 -35.53808594 108.48193359 C-40.27797343 104.20884041 -44.60388557 99.55306676 -48.9375 94.875 C-50.48223883 93.27207006 -52.03039469 91.67242575 -53.58203125 90.07617188 C-56.39803445 87.15198443 -59.20558123 84.221522 -61.96826172 81.24682617 C-62.79522049 80.35866463 -62.79522049 80.35866463 -63.6388855 79.45256042 C-67.27420851 74.94532566 -67.82960489 70.67911875 -67.65628052 64.98193359 C-66.96202636 61.1300487 -65.93024207 59.80343675 -63.23779297 57.015625 C-62.41784851 56.15565918 -61.59790405 55.29569336 -60.75311279 54.40966797 C-59.86521057 53.51135254 -58.97730835 52.61303711 -58.0625 51.6875 C-57.17701477 50.77758301 -56.29152954 49.86766602 -55.37921143 48.93017578 C-52.46180792 45.9548622 -49.52005984 43.00565213 -46.5703125 40.0625 C-45.49162498 38.98313687 -44.41308578 37.9036255 -43.33468628 36.82397461 C-41.09583449 34.58366239 -38.85521904 32.345134 -36.61328125 30.10791016 C-33.74171314 27.24208703 -30.87472417 24.37173107 -28.00900459 21.50006104 C-25.79236174 19.27980876 -23.57334803 17.06193838 -21.35360336 14.8447876 C-20.29472378 13.78657372 -19.23658275 12.72762028 -18.17920303 11.66790771 C-16.70797446 10.19414111 -15.23358183 8.7236147 -13.75830078 7.25390625 C-12.92162872 6.41802979 -12.08495667 5.58215332 -11.22293091 4.72094727 C-7.49008246 1.20750444 -5.05354709 0.27104841 0 0 Z M-12.0625 108.6875 C-11.0625 111.6875 -11.0625 111.6875 -11.0625 111.6875 Z " fill="#D7DFE6" transform="translate(314.0625,6.3125)"/>
<path d="M0 0 C3.77585775 2.02386793 6.44571111 4.77960614 9.37036133 7.87866211 C10.21106674 8.71586288 11.05177216 9.55306366 11.91795349 10.41563416 C14.19793389 12.69887573 16.44659473 15.00815507 18.68402314 17.33297038 C21.03629565 19.76325655 23.42548515 22.15671291 25.81071472 24.55458069 C29.80333801 28.57835004 33.77193353 32.62451657 37.72387695 36.68823242 C43.30475741 42.42695197 48.92520998 48.12559455 54.55536234 53.81592929 C62.50017581 61.8490665 70.42468679 69.90209562 78.31176758 77.99194336 C79.48737747 79.19279572 79.48737747 79.19279572 80.68673706 80.41790771 C81.39156723 81.14289963 82.0963974 81.86789154 82.82258606 82.61485291 C83.43989499 83.24812469 84.05720392 83.88139647 84.69321918 84.5338583 C86 86 86 86 86 87 C82.04 87 78.08 87 74 87 C73.67 87.99 73.34 88.98 73 90 C73 89.01 73 88.02 73 87 C70.69 87 68.38 87 66 87 C65.67 87.99 65.34 88.98 65 90 C65 89.01 65 88.02 65 87 C10.55 87 -43.9 87 -100 87 C-95.83899192 82.14549058 -91.74462765 77.56229389 -87.25 73.0625 C-86.38568359 72.17981445 -86.38568359 72.17981445 -85.50390625 71.27929688 C-84.04211829 69.81239777 -82.52517091 68.40088212 -81 67 C-80.34 67 -79.68 67 -79 67 C-79 66.34 -79 65.68 -79 65 C-77.90135751 63.83269235 -76.78948729 62.67585019 -75.625 61.57421875 C-74.39880347 60.38634086 -73.21853824 59.15079054 -72.0625 57.89453125 C-71.381875 57.16621094 -70.70125 56.43789062 -70 55.6875 C-69.360625 54.99011719 -68.72125 54.29273438 -68.0625 53.57421875 C-65.52875834 51.64032124 -64.11300495 51.68113317 -61 52 C-60.814375 51.0409375 -60.814375 51.0409375 -60.625 50.0625 C-60.41875 49.381875 -60.2125 48.70125 -60 48 C-59.34 47.67 -58.68 47.34 -58 47 C-58 48.65 -58 50.3 -58 52 C-57.34 52 -56.68 52 -56 52 C-56 50.02 -56 48.04 -56 46 C-55.34 46 -54.68 46 -54 46 C-54 47.98 -54 49.96 -54 52 C-53.34 52 -52.68 52 -52 52 C-52.495 49.03 -52.495 49.03 -53 46 C-54.65 45.67 -56.3 45.34 -58 45 C-54.49925018 40.82556637 -51.02049157 36.6854506 -47 33 C-46.34 33 -45.68 33 -45 33 C-44.72704102 32.40205124 -44.45408203 31.80410248 -44.17285156 31.18803406 C-43.03279278 29.06117716 -41.93251327 27.68462382 -40.234375 25.99145508 C-39.68040039 25.43440384 -39.12642578 24.8773526 -38.55566406 24.30342102 C-37.95979492 23.7147374 -37.36392578 23.12605377 -36.75 22.51953125 C-36.13608398 21.90607346 -35.52216797 21.29261566 -34.88964844 20.66056824 C-33.59416262 19.36809762 -32.29625309 18.07805241 -30.99609375 16.7902832 C-29.00201121 14.81449276 -27.01608257 12.83078134 -25.03125 10.84570312 C-23.77130493 9.59067221 -22.5109038 8.33609895 -21.25 7.08203125 C-20.65413086 6.48727493 -20.05826172 5.89251862 -19.44433594 5.27973938 C-13.38231775 -0.71246553 -8.45510151 -1.28088508 0 0 Z " fill="#D7E1E9" transform="translate(189,38)"/>
<path d="M0 0 C3.21636171 0.71069946 4.48603759 1.84337988 6.87838745 4.09657288 C7.75307678 4.91827972 8.62776611 5.73998657 9.52896118 6.58659363 C10.55534289 7.58041896 11.57936118 8.57668854 12.60153198 9.57484436 C13.18100838 10.13951794 13.76048477 10.70419151 14.35752106 11.28597641 C19.30928295 16.12769758 24.21116356 21.01886556 29.10934448 25.91468811 C30.68681772 27.48894334 32.26436411 29.06312526 33.84197998 30.63723755 C37.12655626 33.91586162 40.40909552 37.1965096 43.69039917 40.47840881 C47.90440403 44.69251611 52.12529554 48.89965407 56.3479023 53.10513973 C59.59737052 56.34353109 62.84232589 59.58641484 66.08599472 62.83061409 C67.64179195 64.38522859 69.19921712 65.93821564 70.75827408 67.48956108 C72.9244778 69.64603443 75.08433394 71.80866937 77.24264526 73.97303772 C77.89083725 74.6156102 78.53902924 75.25818268 79.2068634 75.92022705 C83.60153198 80.34651632 83.60153198 80.34651632 83.60153198 82.57484436 C82.61153198 82.90484436 81.62153198 83.23484436 80.60153198 83.57484436 C78.93442852 85.07470045 78.93442852 85.07470045 77.60153198 86.57484436 C77.60153198 85.91484436 77.60153198 85.25484436 77.60153198 84.57484436 C76.98664917 84.65863342 76.37176636 84.74242249 75.73825073 84.82875061 C74.93000854 84.93058655 74.12176636 85.03242249 73.28903198 85.13734436 C72.08827026 85.29396545 72.08827026 85.29396545 70.86325073 85.45375061 C68.60153198 85.57484436 68.60153198 85.57484436 65.60153198 84.57484436 C61.68975091 84.33429974 57.76990573 84.38594023 53.85153198 84.38734436 C52.70096313 84.38452454 51.55039429 84.38170471 50.36495972 84.37879944 C41.41727311 84.41986355 32.60462334 85.02544648 23.72555542 86.12684631 C22.82997925 86.22699036 21.93440308 86.3271344 21.01168823 86.43031311 C19.83811768 86.57956238 19.83811768 86.57956238 18.64083862 86.73182678 C16.60153198 86.57484436 16.60153198 86.57484436 14.82589722 85.27137756 C13.60153198 83.57484436 13.60153198 83.57484436 13.60153198 80.57484436 C11.95153198 80.24484436 10.30153198 79.91484436 8.60153198 79.57484436 C8.60153198 78.25484436 8.60153198 76.93484436 8.60153198 75.57484436 C7.94153198 75.57484436 7.28153198 75.57484436 6.60153198 75.57484436 C6.10653198 77.05984436 6.10653198 77.05984436 5.60153198 78.57484436 C0.41451741 78.26047984 -2.99320392 75.27451169 -6.39846802 71.57484436 C-6.39846802 70.91484436 -6.39846802 70.25484436 -6.39846802 69.57484436 C-14.48374349 68.67354496 -22.45520905 68.45042294 -30.58596802 68.51234436 C-31.72872192 68.51685608 -32.87147583 68.5213678 -34.04885864 68.52601624 C-36.83211912 68.53766168 -39.61526374 68.55401439 -42.39846802 68.57484436 C-42.06846802 67.91484436 -41.73846802 67.25484436 -41.39846802 66.57484436 C-55.25846802 66.07984436 -55.25846802 66.07984436 -69.39846802 65.57484436 C-69.39846802 66.56484436 -69.39846802 67.55484436 -69.39846802 68.57484436 C-71.04846802 68.57484436 -72.69846802 68.57484436 -74.39846802 68.57484436 C-70.55874711 63.9872994 -66.58652032 59.61717597 -62.34890747 55.39588928 C-61.77738953 54.82261902 -61.20587158 54.24934875 -60.61703491 53.65870667 C-58.75109196 51.78840722 -56.88156878 49.92173636 -55.01174927 48.05531311 C-53.70457098 46.74746038 -52.39754111 45.4394593 -51.09065247 44.13131714 C-48.36309169 41.40228813 -45.63374551 38.67506098 -42.90310669 35.94911194 C-39.40258385 32.45430858 -35.9066002 28.95500422 -32.41192341 25.45435619 C-29.71917607 22.75799893 -27.02405606 20.06402342 -24.32820702 17.37076759 C-23.03766663 16.08089411 -21.74786818 14.79027787 -20.45882607 13.49890709 C-18.66157266 11.69911766 -16.86115117 9.90255876 -15.05984497 8.10682678 C-14.52836349 7.57332108 -13.99688202 7.03981537 -13.44929504 6.49014282 C-9.132426 2.19802089 -6.17956074 -0.29801879 0 0 Z " fill="#D2D4D6" transform="translate(316.3984680175781,153.42515563964844)"/>
<path d="M0 0 C7.28897791 1.54454394 12.22302098 9.06255177 16.8125 14.50390625 C19.73127662 17.71395372 23.02224227 20.48201425 26.27734375 23.34375 C29.08796031 25.93606624 31.50507563 28.72980979 33.9609375 31.65234375 C36.41919149 34.37695483 39.16811947 36.69152324 41.9921875 39.02734375 C45.11370501 41.86182516 46.05466067 44.16363713 46.25390625 48.2578125 C46.31707031 49.06605469 46.38023437 49.87429688 46.4453125 50.70703125 C44.50847137 58.06301335 36.17247651 64.23785227 30.89453125 69.5 C30.17908142 70.21640656 29.46363159 70.93281311 28.72650146 71.67092896 C27.22856307 73.16954252 25.72938254 74.66691548 24.22900391 76.16308594 C21.93014608 78.45654623 19.6367277 80.75534993 17.34375 83.0546875 C15.88183129 84.51594609 14.41960277 85.97689481 12.95703125 87.4375 C12.27263977 88.12391571 11.58824829 88.81033142 10.88311768 89.51754761 C9.92632111 90.46961594 9.92632111 90.46961594 8.95019531 91.44091797 C8.39172913 91.99858856 7.83326294 92.55625916 7.25787354 93.13082886 C4.30201513 95.84707442 2.07254459 96.97295901 -1.87109375 97.2578125 C-6.37944457 97.06601283 -8.3932124 96.10817983 -11.6484375 93.015625 C-12.51331787 92.19892334 -13.37819824 91.38222168 -14.26928711 90.54077148 C-15.28399643 89.55226552 -16.29696259 88.56196841 -17.30859375 87.5703125 C-17.89544952 86.99926788 -18.4823053 86.42822327 -19.08694458 85.83987427 C-23.15274997 81.87740083 -27.18353902 77.88113924 -31.19775391 73.86645508 C-33.32696258 71.73946279 -35.46409234 69.62063931 -37.6015625 67.50195312 C-38.96272729 66.14371775 -40.32342189 64.78501097 -41.68359375 63.42578125 C-42.31998779 62.79657272 -42.95638184 62.1673642 -43.61206055 61.51908875 C-44.20027588 60.92779678 -44.78849121 60.33650482 -45.39453125 59.72729492 C-46.16869385 58.95526985 -46.16869385 58.95526985 -46.95849609 58.16764832 C-50.23251195 54.29407461 -50.80486641 50.75612128 -50.69140625 45.8125 C-50.05425443 42.08061078 -47.95390241 40.15683652 -45.30859375 37.5703125 C-44.52484375 36.7453125 -43.74109375 35.9203125 -42.93359375 35.0703125 C-40.97289274 33.20297821 -39.01352973 31.48025948 -36.93359375 29.7578125 C-34.41154611 27.62641394 -32.22999269 25.41383295 -30.09765625 22.89453125 C-26.27011742 18.46732097 -22.20702643 14.32052634 -18.05859375 10.1953125 C-16.99898438 9.12990234 -16.99898438 9.12990234 -15.91796875 8.04296875 C-15.23734375 7.36363281 -14.55671875 6.68429687 -13.85546875 5.984375 C-13.24541992 5.3754541 -12.63537109 4.7665332 -12.00683594 4.13916016 C-8.06142469 0.49436248 -5.20047523 -0.10597766 0 0 Z " fill="#D4E1E9" transform="translate(279.30859375,365.4296875)"/>
<path d="M0 0 C5.88751082 4.3677302 11.01809251 9.87032728 16.18359375 15.05078125 C16.92456802 15.7907988 17.6655423 16.53081635 18.42897034 17.29325867 C19.97885859 18.8424716 21.52750558 20.39292727 23.07495117 21.94458008 C25.45182249 24.32685505 27.83404646 26.70368497 30.21679688 29.08007812 C31.72688365 30.5908249 33.23666062 32.10188141 34.74609375 33.61328125 C35.45954453 34.32470779 36.1729953 35.03613434 36.9080658 35.76911926 C37.5628743 36.42707993 38.2176828 37.08504059 38.89233398 37.76293945 C39.46999008 38.34139114 40.04764618 38.91984283 40.64280701 39.51582336 C43.41266504 42.54483883 43.53535637 45.49772687 43.4491272 49.46641541 C42.91624123 52.47249406 42.04027926 53.56952555 39.97021484 55.77954102 C39.01341827 56.81402878 39.01341827 56.81402878 38.03729248 57.86941528 C37.36498596 58.57250824 36.69267944 59.2756012 36 60 C35.36620422 60.67578094 34.73240845 61.35156189 34.07940674 62.04782104 C29.78530992 66.59205746 25.39969857 71.04786155 21.01269531 75.50219727 C19.4163687 77.13035248 17.82815976 78.76650522 16.24804688 80.41040039 C13.94746504 82.80223356 11.6216857 85.16679896 9.2890625 87.52734375 C8.59189117 88.2626683 7.89471985 88.99799286 7.17642212 89.75559998 C3.10767553 93.8085903 -0.04651926 96.12883536 -5.92269897 96.27294922 C-12.76112127 95.37440731 -17.98410562 88.28940867 -22.609375 83.62109375 C-23.41739563 82.8126149 -24.22541626 82.00413605 -25.05792236 81.17115784 C-26.75795099 79.46811804 -28.45555851 77.76265839 -30.15087891 76.05493164 C-32.74978136 73.43772018 -35.35664964 70.82865178 -37.96484375 68.22070312 C-39.61766109 66.56297205 -41.27002085 64.9047846 -42.921875 63.24609375 C-44.0921524 62.07414711 -44.0921524 62.07414711 -45.28607178 60.87852478 C-46.00732239 60.15089432 -46.728573 59.42326385 -47.47167969 58.67358398 C-48.10644226 58.03500961 -48.74120483 57.39643524 -49.39520264 56.73851013 C-52.82796134 53.01973172 -53.65716226 50.41969532 -53.47872925 45.50527954 C-52.91118908 42.53523589 -52.00782687 41.40412632 -49.96142578 39.20849609 C-49.32424622 38.51834412 -48.68706665 37.82819214 -48.03057861 37.11712646 C-47.36048767 36.41847473 -46.69039673 35.719823 -46 35 C-45.37003113 34.33921448 -44.74006226 33.67842896 -44.09100342 32.99761963 C-42.09545987 30.93193285 -40.07937228 28.88868366 -38.0546875 26.8515625 C-37.32178497 26.1129599 -36.58888245 25.3743573 -35.83377075 24.6133728 C-34.29730358 23.06753106 -32.75943379 21.52308225 -31.22021484 19.97998047 C-28.86744205 17.61741058 -26.52554647 15.2443835 -24.18359375 12.87109375 C-22.68295022 11.36392734 -21.18167035 9.8573942 -19.6796875 8.3515625 C-18.98374481 7.64327301 -18.28780212 6.93498352 -17.57077026 6.20523071 C-12.03558947 0.69530576 -8.05561327 -2.32110891 0 0 Z " fill="#D0D3D5" transform="translate(417,118)"/>
<path d="M0 0 C0.66 0 1.32 0 2 0 C2 0.99 2 1.98 2 3 C2.33 2.34 2.66 1.68 3 1 C6.33537489 2.11179163 7.63707344 3.47411298 10 6 C10.33 5.01 10.66 4.02 11 3 C11.66 3 12.32 3 13 3 C12.34 5.31 11.68 7.62 11 10 C6.6773129 10.60669293 2.74906656 11.05171549 -1.62109375 10.75 C-9.19205857 10.1191562 -9.19205857 10.1191562 -15.96484375 13 C-18.74641431 15.72062723 -18.74641431 15.72062723 -22 20 C-14.74 20 -7.48 20 0 20 C0.33 19.34 0.66 18.68 1 18 C1.66 18 2.32 18 3 18 C3 18.99 3 19.98 3 21 C11.58 21 20.16 21 29 21 C29.495 19.515 29.495 19.515 30 18 C30 18.99 30 19.98 30 21 C37.59 21 45.18 21 53 21 C53 20.01 53 19.02 53 18 C53.66 18 54.32 18 55 18 C55 18.99 55 19.98 55 21 C61.6 21 68.2 21 75 21 C75 20.01 75 19.02 75 18 C77 19 79 20 81 21 C81 20.01 81 19.02 81 18 C81.66 18 82.32 18 83 18 C83 18.99 83 19.98 83 21 C84.63582031 20.87431641 84.63582031 20.87431641 86.3046875 20.74609375 C97.30786376 19.97737196 108.00700886 20.15538484 119 21 C119 20.01 119 19.02 119 18 C120.32 18 121.64 18 123 18 C123 18.99 123 19.98 123 21 C123.99 21 124.98 21 126 21 C126 20.01 126 19.02 126 18 C126.99 18 127.98 18 129 18 C129 18.99 129 19.98 129 21 C130.27875 20.814375 131.5575 20.62875 132.875 20.4375 C137.98242441 19.91469278 143.0387715 19.44699277 148 21 C150.57774389 23.1370163 152.07038158 25.20713124 154 28 C150.04 28 146.08 28 142 28 C141.67 28.99 141.34 29.98 141 31 C141 30.01 141 29.02 141 28 C138.69 28 136.38 28 134 28 C133.67 28.99 133.34 29.98 133 31 C133 30.01 133 29.02 133 28 C78.55 28 24.1 28 -32 28 C-27.83899192 23.14549058 -23.74462765 18.56229389 -19.25 14.0625 C-18.67378906 13.47404297 -18.09757812 12.88558594 -17.50390625 12.27929688 C-16.04211829 10.81239777 -14.52517091 9.40088212 -13 8 C-12.34 8 -11.68 8 -11 8 C-11 7.34 -11 6.68 -11 6 C-8.875 3.8125 -8.875 3.8125 -6 2 C-2.6875 2.25 -2.6875 2.25 0 3 C0 2.01 0 1.02 0 0 Z " fill="#E5F2F8" transform="translate(121,97)"/>
<path d="M0 0 C4.86098634 3.95661679 9.35937539 8.22106081 13.8125 12.625 C14.67524536 13.46840942 14.67524536 13.46840942 15.55541992 14.32885742 C20.25779524 19.02011109 22.1556815 21.95030279 22.4609375 28.8046875 C21.09759725 35.29788426 15.09502294 40.1684831 10.56640625 44.62890625 C9.85145493 45.34102768 9.1365036 46.05314911 8.39988708 46.78684998 C6.12543613 49.05016558 3.84412645 51.30642044 1.5625 53.5625 C0.03274096 55.08221721 -1.49656062 56.60239506 -3.02539062 58.12304688 C-5.83628797 60.91765983 -8.64977763 63.70960281 -11.46655273 66.49829102 C-15.72292049 70.71353292 -19.95581158 74.95148596 -24.171875 79.20703125 C-25.69786157 80.74224227 -27.22390454 82.27739723 -28.75 83.8125 C-29.52988281 84.60076172 -30.30976563 85.38902344 -31.11328125 86.20117188 C-31.85449219 86.94560547 -32.59570312 87.69003906 -33.359375 88.45703125 C-34.03452148 89.13741455 -34.70966797 89.81779785 -35.40527344 90.51879883 C-37 92 -37 92 -38 92 C-38.4113369 83.77326203 -38.4113369 83.77326203 -35 80 C-33.74357309 78.99590988 -32.44959951 78.03727282 -31.125 77.125 C-28.44312625 75.19326644 -26.32585931 73.37056291 -24.3125 70.75 C-22 68 -22 68 -17 66 C-16.01 58.74 -15.02 51.48 -14 44 C-13.34 44 -12.68 44 -12 44 C-11.82476807 43.34008057 -11.64953613 42.68016113 -11.46899414 42.00024414 C-9.34837891 34.10811478 -6.9729465 26.31115714 -4.51757812 18.51757812 C-2.62257441 12.39494086 -1.11936699 6.31143467 0 0 Z " fill="#DBE7F0" transform="translate(231,320)"/>
<path d="M0 0 C0.99 0.99 1.98 1.98 3 3 C3.33 2.01 3.66 1.02 4 0 C4 0.99 4 1.98 4 3 C12.58 2.67 21.16 2.34 30 2 C30 1.34 30 0.68 30 0 C30.66 0 31.32 0 32 0 C32.495 0.99 32.495 0.99 33 2 C36.3 2 39.6 2 43 2 C43.33 1.34 43.66 0.68 44 0 C44.66 0 45.32 0 46 0 C46 0.99 46 1.98 46 3 C46.55461914 2.96970703 47.10923828 2.93941406 47.68066406 2.90820312 C50.203717 2.77102333 52.72685607 2.63549539 55.25 2.5 C56.12269531 2.45230469 56.99539062 2.40460938 57.89453125 2.35546875 C58.73886719 2.31035156 59.58320313 2.26523438 60.453125 2.21875 C61.22817383 2.17685547 62.00322266 2.13496094 62.80175781 2.09179688 C66.15670622 1.95169685 68.79112137 1.93037379 72 3 C72.33 2.34 72.66 1.68 73 1 C73 1.66 73 2.32 73 3 C81.58 3 90.16 3 99 3 C99.33 2.34 99.66 1.68 100 1 C99.39497194 7.41329746 99.39497194 7.41329746 97.84550476 9.71492004 C95.13486578 11.60241873 93.06297776 11.31963213 89.78442383 11.2487793 C88.5033223 11.22853195 87.22222076 11.20828461 85.90229797 11.18742371 C84.503867 11.15001383 83.10544489 11.112271 81.70703125 11.07421875 C80.27644855 11.04618247 78.84583889 11.01949239 77.41520691 10.99409485 C73.65177341 10.92366363 69.88898445 10.83494269 66.1260376 10.74243164 C62.28541866 10.65124164 58.44447188 10.57732017 54.60351562 10.50195312 C47.06858261 10.35155276 39.53424696 10.18183267 32 10 C32 10.66 32 11.32 32 12 C31.34 12 30.68 12 30 12 C30 11.34 30 10.68 30 10 C26.7 10 23.4 10 20 10 C19.67 10.99 19.34 11.98 19 13 C17.35 13 15.7 13 14 13 C15.32 12.67 16.64 12.34 18 12 C18 11.34 18 10.68 18 10 C12.72 10 7.44 10 2 10 C2 10.66 2 11.32 2 12 C1.01 12 0.02 12 -1 12 C-1 11.34 -1 10.68 -1 10 C-11.23 10 -21.46 10 -32 10 C-32.33 10.99 -32.66 11.98 -33 13 C-34.65 13 -36.3 13 -38 13 C-36.68 12.67 -35.36 12.34 -34 12 C-34 11.34 -34 10.68 -34 10 C-37.96 10 -41.92 10 -46 10 C-46 8.35 -46 6.7 -46 5 C-46.66 5 -47.32 5 -48 5 C-48 6.65 -48 8.3 -48 10 C-49.58246707 10.08153933 -51.16616273 10.13943557 -52.75 10.1875 C-53.63171875 10.22230469 -54.5134375 10.25710937 -55.421875 10.29296875 C-58.47610949 9.94589665 -59.80564299 9.11745198 -62 7 C-62 6.34 -62 5.68 -62 5 C-61.34 5 -60.68 5 -60 5 C-60 4.34 -60 3.68 -60 3 C-40.53 3 -21.06 3 -1 3 C-0.67 2.01 -0.34 1.02 0 0 Z " fill="#E6F3F9" transform="translate(182,132)"/>
<path d="M0 0 C1.98 0 3.96 0 6 0 C5.67 0.66 5.34 1.32 5 2 C7.31 2.33 9.62 2.66 12 3 C12 2.01 12 1.02 12 0 C12.66 0 13.32 0 14 0 C14 0.99 14 1.98 14 3 C15.65 3 17.3 3 19 3 C19 2.34 19 1.68 19 1 C19.66 1 20.32 1 21 1 C21 1.66 21 2.32 21 3 C21.70640625 2.91621094 22.4128125 2.83242187 23.140625 2.74609375 C33.49857448 1.7181063 43.63471052 2.32827137 54 3 C54 2.01 54 1.02 54 0 C54.66 0 55.32 0 56 0 C56 0.99 56 1.98 56 3 C56.84570557 2.8928064 56.84570557 2.8928064 57.70849609 2.78344727 C65.02851922 1.94480143 72.26360458 1.88415655 79.625 1.9375 C81.41744141 1.94426758 81.41744141 1.94426758 83.24609375 1.95117188 C86.16411647 1.96284397 89.08203037 1.97921674 92 2 C92.33 1.34 92.66 0.68 93 0 C93.99 0.495 93.99 0.495 95 1 C94.67 1.66 94.34 2.32 94 3 C94.99 3 95.98 3 97 3 C97.33 2.01 97.66 1.02 98 0 C98.99 0.33 99.98 0.66 101 1 C101 1.66 101 2.32 101 3 C108.26 3 115.52 3 123 3 C123 2.01 123 1.02 123 0 C123.66 0 124.32 0 125 0 C125.495 1.485 125.495 1.485 126 3 C125.34 3 124.68 3 124 3 C123.773125 3.5775 123.54625 4.155 123.3125 4.75 C121.63315609 7.62887527 119.77209171 9.17447619 117 11 C116.01 10.67 115.02 10.34 114 10 C114 10.99 114 11.98 114 13 C113.34 13 112.68 13 112 13 C112 12.01 112 11.02 112 10 C110.02 10 108.04 10 106 10 C106 10.99 106 11.98 106 13 C105.34 13 104.68 13 104 13 C104 12.01 104 11.02 104 10 C103.1600499 10.07359238 102.32009979 10.14718475 101.45469666 10.2230072 C90.30562199 11.0930817 79.24219589 11.0412766 68.06640625 10.87890625 C66.09244912 10.85454199 64.11848545 10.83070186 62.14451599 10.80735779 C57.00060465 10.74514309 51.85681202 10.67590625 46.7130127 10.60510254 C41.44349478 10.53384593 36.17389407 10.46937456 30.90429688 10.40429688 C20.60277355 10.27609427 10.30136303 10.14045766 0 10 C0 6.7 0 3.4 0 0 Z " fill="#E6F3F8" transform="translate(126,167)"/>
<path d="M0 0 C0.66 0 1.32 0 2 0 C2 0.99 2 1.98 2 3 C8.6 3 15.2 3 22 3 C22 2.34 22 1.68 22 1 C22.99 1 23.98 1 25 1 C25 1.66 25 2.32 25 3 C25.99 3 26.98 3 28 3 C28 2.34 28 1.68 28 1 C28.66 1 29.32 1 30 1 C30 1.66 30 2.32 30 3 C34.94788314 3.07404737 39.89544524 3.12855246 44.84375 3.16479492 C46.5277264 3.17990003 48.21166335 3.20038546 49.89550781 3.22631836 C52.31324993 3.26262721 54.73047292 3.27970847 57.1484375 3.29296875 C58.28132706 3.31619453 58.28132706 3.31619453 59.43710327 3.33988953 C61.78408081 3.3756231 61.78408081 3.3756231 65 3 C65.66 2.01 66.32 1.02 67 0 C67.99 0 68.98 0 70 0 C70 0.99 70 1.98 70 3 C70.99 3 71.98 3 73 3 C73 2.34 73 1.68 73 1 C73.99 1 74.98 1 76 1 C76 1.66 76 2.32 76 3 C82.27 3 88.54 3 95 3 C95.33 2.01 95.66 1.02 96 0 C96.99 0 97.98 0 99 0 C99 0.99 99 1.98 99 3 C99.928125 3.103125 100.85625 3.20625 101.8125 3.3125 C105.03254358 4.0070192 106.02579865 4.47740939 108 7 C102.89296577 11.66928844 98.38157043 11.35199549 91.6328125 11.140625 C90.32957031 11.07101563 90.32957031 11.07101563 89 11 C88.67 11.66 88.34 12.32 88 13 C85.69 12.34 83.38 11.68 81 11 C80.67 11.66 80.34 12.32 80 13 C79.505 11.515 79.505 11.515 79 10 C78.01 10 77.02 10 76 10 C76 9.34 76 8.68 76 8 C74.68 8 73.36 8 72 8 C72 8.66 72 9.32 72 10 C56.02184738 10.81135502 40.08076006 11.16005243 24.08251953 11.13037109 C20.55106548 11.12488515 17.01973209 11.13042383 13.48828125 11.13671875 C11.23437472 11.13605991 8.98046826 11.13478279 6.7265625 11.1328125 C5.14882553 11.13584885 5.14882553 11.13584885 3.53921509 11.13894653 C2.57575165 11.13579437 1.61228821 11.13264221 0.61962891 11.12939453 C-0.22731537 11.12859894 -1.07425964 11.12780334 -1.9468689 11.12698364 C-4 11 -4 11 -6 10 C-7.09036928 7.0262656 -7.03864166 6.11592499 -6 3 C-4.02 3 -2.04 3 0 3 C0 2.01 0 1.02 0 0 Z " fill="#E4F1F7" transform="translate(144,97)"/>
<path d="M0 0 C0.66 0 1.32 0 2 0 C2 0.66 2 1.32 2 2 C6.18108567 1.88130373 10.36195788 1.75702727 14.54272461 1.62768555 C15.96357775 1.58450196 17.38447726 1.54281592 18.80541992 1.50268555 C20.8534947 1.44457905 22.90133965 1.38100362 24.94921875 1.31640625 C26.79519653 1.26141968 26.79519653 1.26141968 28.6784668 1.20532227 C31.55826984 1.02730577 34.19587088 0.65390895 37 0 C37 0.66 37 1.32 37 2 C38.14339844 1.98839844 39.28679687 1.97679687 40.46484375 1.96484375 C41.95572754 1.95546712 43.44661309 1.94636679 44.9375 1.9375 C45.69224609 1.92912109 46.44699219 1.92074219 47.22460938 1.91210938 C49.14994313 1.90347559 51.07535581 1.94775667 53 2 C53.495 2.495 53.495 2.495 54 3 C55.70563778 3.15740605 57.41727244 3.25093392 59.12890625 3.31640625 C60.68061523 3.37924805 60.68061523 3.37924805 62.26367188 3.44335938 C63.35228516 3.48267578 64.44089844 3.52199219 65.5625 3.5625 C66.65498047 3.60568359 67.74746094 3.64886719 68.87304688 3.69335938 C71.58189564 3.79982068 74.29083992 3.90183516 77 4 C74 6 74 6 72 6 C72 7.98 72 9.96 72 12 C66.06 12 60.12 12 54 12 C54 12.99 54 13.98 54 15 C53.34 15 52.68 15 52 15 C52 14.01 52 13.02 52 12 C51.35377686 12.03552979 50.70755371 12.07105957 50.04174805 12.10766602 C32.95618224 13.0064325 16.08380268 12.89032817 -1 12 C-1 11.67 -1 11.34 -1 11 C-7.27 10.67 -13.54 10.34 -20 10 C-17.94302242 5.88604483 -16.183361 2.97283502 -12 1 C-7.9641112 0.5830268 -4.041709 0.7057008 0 1 C0 0.67 0 0.34 0 0 Z " fill="#E0F2F9" transform="translate(238,237)"/>
<path d="M0 0 C1.54010742 0.03383789 1.54010742 0.03383789 3.11132812 0.06835938 C5.6382179 0.12712425 8.16210255 0.20922151 10.6875 0.3125 C10.6875 0.6425 10.6875 0.9725 10.6875 1.3125 C28.03030454 2.00554862 45.32886947 2.47933587 62.6875 2.3125 C62.6875 3.3025 62.6875 4.2925 62.6875 5.3125 C63.3475 5.3125 64.0075 5.3125 64.6875 5.3125 C64.6875 4.6525 64.6875 3.9925 64.6875 3.3125 C74.2575 3.3125 83.8275 3.3125 93.6875 3.3125 C93.0275 5.2925 92.3675 7.2725 91.6875 9.3125 C62.6475 9.6425 33.6075 9.9725 3.6875 10.3125 C3.6875 11.3025 3.6875 12.2925 3.6875 13.3125 C-0.6025 13.3125 -4.8925 13.3125 -9.3125 13.3125 C-9.3125 12.6525 -9.3125 11.9925 -9.3125 11.3125 C-8.6525 10.9825 -7.9925 10.6525 -7.3125 10.3125 C-7.3125 9.3225 -7.3125 8.3325 -7.3125 7.3125 C-8.6325 7.3125 -9.9525 7.3125 -11.3125 7.3125 C-11.3125 7.9725 -11.3125 8.6325 -11.3125 9.3125 C-12.6325 9.3125 -13.9525 9.3125 -15.3125 9.3125 C-16.125 7.625 -16.125 7.625 -16.3125 5.3125 C-12.04102688 -0.9823025 -7.12170948 -0.29616834 0 0 Z " fill="#D4DCE2" transform="translate(227.3125,246.6875)"/>
<path d="M0 0 C1.40428247 0.01507889 2.80858066 0.02876161 4.21289062 0.04101562 C7.62150115 0.07615594 11.0292927 0.12535877 14.4375 0.1875 C9.66171076 5.93228995 4.54370915 11.232051 -0.75 16.5 C-1.55630859 17.31017578 -2.36261719 18.12035156 -3.19335938 18.95507812 C-3.96873047 19.72916016 -4.74410156 20.50324219 -5.54296875 21.30078125 C-6.24317139 21.99985596 -6.94337402 22.69893066 -7.66479492 23.41918945 C-11.68715483 27.16728579 -14.51472517 27.83608331 -19.84375 27.7890625 C-24.91288495 26.66744356 -28.13489344 22.89660082 -31.5625 19.1875 C-28.49562102 7.43113057 -28.49562102 7.43113057 -24.5625 3.1875 C-17.00152572 -0.92733112 -8.32406217 -0.15638968 0 0 Z " fill="#E5E6E7" transform="translate(294.5625,434.8125)"/>
<path d="M0 0 C-2.91100579 2.96056456 -5.82861694 5.91441186 -8.75244141 8.86230469 C-9.74548045 9.86538097 -10.73671447 10.87024767 -11.72607422 11.87695312 C-13.15117426 13.32640161 -14.58271168 14.76921773 -16.015625 16.2109375 C-16.87446289 17.08024902 -17.73330078 17.94956055 -18.61816406 18.84521484 C-21.68686962 21.62139312 -23.78512018 22.84153742 -27.875 23.375 C-35.27785765 22.48665708 -40.40197609 15.87095561 -45.375 10.8125 C-46.11105469 10.07580078 -46.84710938 9.33910156 -47.60546875 8.58007812 C-53 3.14050904 -53 3.14050904 -53 2 C-45.93466835 1.54620728 -38.868804 1.10156232 -31.80249023 0.66333008 C-29.39773462 0.5131039 -26.99310976 0.36076928 -24.58862305 0.20629883 C-21.13622574 -0.01512736 -17.68343209 -0.22901371 -14.23046875 -0.44140625 C-12.61316109 -0.54758018 -12.61316109 -0.54758018 -10.96318054 -0.65589905 C-9.96236954 -0.71603683 -8.96155853 -0.77617462 -7.93041992 -0.83813477 C-7.04883713 -0.89365005 -6.16725433 -0.94916534 -5.25895691 -1.00636292 C-3 -1 -3 -1 0 0 Z " fill="#E3E4E5" transform="translate(448,433)"/>
<path d="M0 0 C1.15048828 0.02320313 1.15048828 0.02320313 2.32421875 0.046875 C4.3125 0.25 4.3125 0.25 6.3125 1.25 C6.3125 1.91 6.3125 2.57 6.3125 3.25 C6.90579102 3.35505859 7.49908203 3.46011719 8.11035156 3.56835938 C10.63969268 4.35127738 11.70371543 5.28019712 13.546875 7.15625 C14.12050781 7.73503906 14.69414062 8.31382812 15.28515625 8.91015625 C16.16494141 9.82087891 16.16494141 9.82087891 17.0625 10.75 C17.66449219 11.35714844 18.26648438 11.96429688 18.88671875 12.58984375 C23.3125 17.09591128 23.3125 17.09591128 23.3125 18.25 C19.3525 18.25 15.3925 18.25 11.3125 18.25 C10.8175 19.735 10.8175 19.735 10.3125 21.25 C10.3125 20.26 10.3125 19.27 10.3125 18.25 C7.74659443 18.28316682 5.18917934 18.35046519 2.625 18.4375 C1.5431543 18.44620117 1.5431543 18.44620117 0.43945312 18.45507812 C-4.35473732 18.63820234 -4.35473732 18.63820234 -8 21.6875 C-12.09519118 25.59221718 -16.52360212 25.51240757 -22 26.0625 C-23.02673828 26.18302734 -24.05347656 26.30355469 -25.11132812 26.42773438 C-27.63518481 26.72120608 -30.15955833 26.9945656 -32.6875 27.25 C-28.08179917 21.73191786 -23.20402481 16.58346064 -18.125 11.5 C-17.38314453 10.74589844 -16.64128906 9.99179687 -15.87695312 9.21484375 C-15.15314453 8.48910156 -14.42933594 7.76335937 -13.68359375 7.015625 C-13.03575928 6.36368164 -12.3879248 5.71173828 -11.72045898 5.04003906 C-8.02812485 1.78890494 -4.98106378 -0.16913629 0 0 Z " fill="#E5F1F6" transform="translate(168.6875,262.75)"/>
<path d="M0 0 C9.57 0 19.14 0 29 0 C28.67 0.66 28.34 1.32 28 2 C28.88260498 1.98952637 29.76520996 1.97905273 30.67456055 1.96826172 C33.96397538 1.93408036 37.25320013 1.9090529 40.54272461 1.89013672 C41.96365343 1.88010854 43.38456178 1.86648259 44.80541992 1.84912109 C46.85340444 1.82473179 48.90111498 1.8134851 50.94921875 1.8046875 C52.17987061 1.79421387 53.41052246 1.78374023 54.6784668 1.77294922 C60.83554932 2.19383027 63.96519272 4.38879168 68 9 C68 9.66 68 10.32 68 11 C60.41 11 52.82 11 45 11 C45 11.99 45 12.98 45 14 C44.34 14 43.68 14 43 14 C43 13.01 43 12.02 43 11 C41.50835327 11.00870117 41.50835327 11.00870117 39.98657227 11.01757812 C28.62880071 11.06240202 17.29003757 10.82457605 5.9375 10.5 C4.18425066 10.45160986 2.43099545 10.40343179 0.67773438 10.35546875 C-3.54824836 10.23941109 -7.7741425 10.12052814 -12 10 C-11.08140363 8.83362682 -10.14904472 7.67808287 -9.2109375 6.52734375 C-8.69321777 5.88273193 -8.17549805 5.23812012 -7.64208984 4.57397461 C-6 3 -6 3 -2.625 2.5625 C-1.75875 2.706875 -0.8925 2.85125 0 3 C0 2.01 0 1.02 0 0 Z " fill="#DCEFF8" transform="translate(247,219)"/>
<path d="M0 0 C3.78580423 2.03850997 7.05061257 4.10122513 9 8 C9.54628869 12.83855693 9.53269168 14.99169075 7.25 19.3125 C2.73889553 24.70076368 2.73889553 24.70076368 -1.04296875 25.3515625 C-5.21318274 25.61700326 -8.10645472 25.4017412 -11.4375 22.75 C-14.81439385 19.12601636 -15.82874435 17.54130086 -16.375 12.625 C-15.92515417 8.27649031 -14.79790424 6.32723747 -12 3 C-8.07324125 -0.18385844 -4.98824428 -0.6125914 0 0 Z " fill="#1F3F7E" transform="translate(39,132)"/>
<path d="M0 0 C3.78580423 2.03850997 7.05061257 4.10122513 9 8 C9.50996055 13.35458577 9.48241808 16.67699824 6 21 C3.1372419 23.94227916 1.66748974 24.91504676 -2.4375 25.4375 C-7.8293038 24.77534866 -10.80892075 23.3791444 -14.375 19.25 C-16.30540652 15.38918695 -16.60938288 13.26568014 -16 9 C-12.32317126 1.9187002 -8.0382172 -0.98714948 0 0 Z " fill="#8EBAF8" transform="translate(421,67)"/>
<path d="M0 0 C9.24 0 18.48 0 28 0 C28 9.24 28 18.48 28 28 C23.7154194 24.32750234 19.68519905 20.81271048 15.72265625 16.85546875 C14.33530273 15.47004883 14.33530273 15.47004883 12.91992188 14.05664062 C12.45126709 13.58589111 11.9826123 13.1151416 11.49975586 12.63012695 C10.04460429 11.16953741 8.58408143 9.71446797 7.12304688 8.25976562 C5.74922852 6.88401367 5.74922852 6.88401367 4.34765625 5.48046875 C3.51242432 4.64410889 2.67719238 3.80774902 1.81665039 2.94604492 C0 1 0 1 0 0 Z " fill="#CAD9E7" transform="translate(211,281)"/>
<path d="M0 0 C3.70390021 2.02666238 5.65363011 3.48044516 8 7 C8.48256365 11.26264558 8.26873267 13.49132744 6.25 17.3125 C3.04340948 21.14259424 1.50448865 21.83587397 -3.4375 22.375 C-7.62750939 21.93394638 -9.093893 20.98913863 -12 18 C-14.51959805 14.52055507 -14.44144127 11.19369206 -14 7 C-10.24882221 1.17920688 -6.92075169 -0.70380526 0 0 Z " fill="#8EBAF8" transform="translate(210,430)"/>
<path d="M0 0 C37.65815055 -0.20638953 37.65815055 -0.20638953 55 1 C54.34 3.97 53.68 6.94 53 10 C52.505 9.01 52.505 9.01 52 8 C51.15554825 8.00333092 51.15554825 8.00333092 50.29403687 8.00672913 C44.42145422 8.02889554 38.54888352 8.04395397 32.67626953 8.05493164 C30.48616045 8.0599526 28.29605471 8.06677066 26.10595703 8.07543945 C22.95344212 8.08760304 19.80097164 8.09325077 16.6484375 8.09765625 C15.1855983 8.10539818 15.1855983 8.10539818 13.69320679 8.11329651 C9.01119181 8.11368069 4.60498316 7.97426071 0 7 C1.32 6.34 2.64 5.68 4 5 C4 4.34 4 3.68 4 3 C2.68 2.67 1.36 2.34 0 2 C0 1.34 0 0.68 0 0 Z " fill="#D3DCE2" transform="translate(170,343)"/>
<path d="M0 0 C1.32 0 2.64 0 4 0 C4.495 1.98 4.495 1.98 5 4 C6.65 4 8.3 4 10 4 C10 3.01 10 2.02 10 1 C10.99 1.33 11.98 1.66 13 2 C13 5.63 13 9.26 13 13 C8.545 12.01 8.545 12.01 4 11 C4 11.66 4 12.32 4 13 C-1.94 12.01 -1.94 12.01 -8 11 C-8 11.99 -8 12.98 -8 14 C-8.66 14 -9.32 14 -10 14 C-10 13.01 -10 12.02 -10 11 C-11.98 11 -13.96 11 -16 11 C-16 11.99 -16 12.98 -16 14 C-16.66 14 -17.32 14 -18 14 C-18 13.01 -18 12.02 -18 11 C-18.99 10.67 -19.98 10.34 -21 10 C-21 9.34 -21 8.68 -21 8 C-22.32 8 -23.64 8 -25 8 C-25 8.99 -25 9.98 -25 11 C-28.3 11 -31.6 11 -35 11 C-34.67 10.34 -34.34 9.68 -34 9 C-33.34 9 -32.68 9 -32 9 C-31.731875 8.38125 -31.46375 7.7625 -31.1875 7.125 C-30 5 -30 5 -27 3 C-26.34 3 -25.68 3 -25 3 C-24.67 2.34 -24.34 1.68 -24 1 C-23.01 1 -22.02 1 -21 1 C-21 1.99 -21 2.98 -21 4 C-17.87392559 3.91932999 -14.74983249 3.8064771 -11.625 3.6875 C-10.73554688 3.66494141 -9.84609375 3.64238281 -8.9296875 3.61914062 C-8.07890625 3.58369141 -7.228125 3.54824219 -6.3515625 3.51171875 C-5.17327881 3.47244263 -5.17327881 3.47244263 -3.97119141 3.43237305 C-1.59959844 3.15110403 -1.59959844 3.15110403 0 0 Z " fill="#E3F0F6" transform="translate(176,62)"/>
<path d="M0 0 C0.58984375 1.859375 0.58984375 1.859375 1 4 C-0.4375 6.25 -0.4375 6.25 -2 8 C-2.495 7.01 -2.495 7.01 -3 6 C-11.91 14.91 -20.82 23.82 -30 33 C-26.535 33.495 -26.535 33.495 -23 34 C-22.67 33.34 -22.34 32.68 -22 32 C-21.34 32 -20.68 32 -20 32 C-20 32.66 -20 33.32 -20 34 C-16.7 34 -13.4 34 -10 34 C-9.505 33.01 -9.505 33.01 -9 32 C-8.505 34.475 -8.505 34.475 -8 37 C-8.99 36.67 -9.98 36.34 -11 36 C-11 38.31 -11 40.62 -11 43 C-11.88260498 42.99887207 -12.76520996 42.99774414 -13.67456055 42.99658203 C-16.96496744 43.00653657 -20.25286901 43.04317215 -23.54272461 43.09765625 C-24.96352731 43.11577007 -26.38450554 43.12339307 -27.80541992 43.12011719 C-35.77889813 42.77250778 -35.77889813 42.77250778 -43.00244141 45.35839844 C-44.52359266 47.12976503 -44.52359266 47.12976503 -46 50 C-46.99 50.495 -46.99 50.495 -48 51 C-48 51.99 -48 52.98 -48 54 C-49.65 54 -51.3 54 -53 54 C-47.75179943 47.63491433 -41.97528548 41.84677025 -36.1328125 36.03515625 C-35.08741675 34.99162921 -34.04224425 33.94787848 -32.99728394 32.90391541 C-30.2672716 30.17769255 -27.53426807 27.45448819 -24.80059814 24.73193359 C-22.00324846 21.94487541 -19.20878299 19.15492854 -16.4140625 16.36523438 C-10.94550306 10.90734919 -5.47377555 5.45265441 0 0 Z " fill="#CED8DE" transform="translate(295,168)"/>
<path d="M0 0 C9.9 0 19.8 0 30 0 C30 3.3 30 6.6 30 10 C20.76 10 11.52 10 2 10 C0 6 0 6 0 0 Z " fill="#D6DDE3" transform="translate(201,264)"/>
<path d="M0 0 C10.23 0 20.46 0 31 0 C30.01 1.32 29.02 2.64 28 4 C27.34 4 26.68 4 26 4 C25.79375 4.5775 25.5875 5.155 25.375 5.75 C23.39828244 8.98462874 21.35785899 10.25888793 18 12 C13.63782457 12.77393435 11.53183668 12.96548861 7.78125 10.6015625 C3.64797489 7.17214221 2.06652927 5.16632319 0 0 Z " fill="#E5F2F8" transform="translate(168,222)"/>
<path d="M0 0 C1.19109375 -0.00386719 1.19109375 -0.00386719 2.40625 -0.0078125 C4.5 0.125 4.5 0.125 6.5 1.125 C6.5 1.785 6.5 2.445 6.5 3.125 C7.82 3.455 9.14 3.785 10.5 4.125 C12.48 6.435 14.46 8.745 16.5 11.125 C6.27 11.125 -3.96 11.125 -14.5 11.125 C-13.46644694 6.99078775 -13.15424704 6.43789418 -10.0625 3.9375 C-9.44503906 3.42832031 -8.82757813 2.91914063 -8.19140625 2.39453125 C-5.3290336 0.24609912 -3.52736405 -0.01145248 0 0 Z " fill="#D5DBE1" transform="translate(168.5,262.875)"/>
<path d="M0 0 C0.66 0.33 1.32 0.66 2 1 C-1.96 4.96 -5.92 8.92 -10 13 C-7.03 13.495 -7.03 13.495 -4 14 C-4 13.01 -4 12.02 -4 11 C-3.34 11 -2.68 11 -2 11 C-2 13.64 -2 16.28 -2 19 C-0.68 19 0.64 19 2 19 C2.33 17.35 2.66 15.7 3 14 C6.96 14 10.92 14 15 14 C15 16.31 15 18.62 15 21 C3.45 21 -8.1 21 -20 21 C-13.25 13.125 -13.25 13.125 -10.3515625 10.25390625 C-9.73925781 9.64482422 -9.12695312 9.03574219 -8.49609375 8.40820312 C-7.87863281 7.79912109 -7.26117188 7.19003906 -6.625 6.5625 C-5.98433594 5.92634766 -5.34367187 5.29019531 -4.68359375 4.63476562 C-3.12469121 3.08749668 -1.56348584 1.54263508 0 0 Z " fill="#D3DBE0" transform="translate(130,295)"/>
<path d="M0 0 C11.88 0 23.76 0 36 0 C37 5 37 5 36 7 C31.83945848 7.3423182 27.67973998 7.62924117 23.51220703 7.86669922 C22.09713421 7.95495942 20.68289706 8.0579562 19.27001953 8.17626953 C17.22994553 8.34447859 15.19266082 8.4582799 13.1484375 8.5625 C11.92302246 8.64628906 10.69760742 8.73007812 9.43505859 8.81640625 C6 8 6 8 0 0 Z " fill="#DFEFF5" transform="translate(204,274)"/>
<path d="M0 0 C1.65 0 3.3 0 5 0 C5.33 0.99 5.66 1.98 6 3 C13.59 3 21.18 3 29 3 C29.33 2.34 29.66 1.68 30 1 C30 1.66 30 2.32 30 3 C30.66 3.33 31.32 3.66 32 4 C32 5.98 32 7.96 32 10 C23.09 10 14.18 10 5 10 C4.67 8.68 4.34 7.36 4 6 C3.01 6 2.02 6 1 6 C0.67 7.32 0.34 8.64 0 10 C0 6.7 0 3.4 0 0 Z " fill="#DEEBF0" transform="translate(163,306)"/>
<path d="M0 0 C1.18529297 -0.05414063 2.37058594 -0.10828125 3.59179688 -0.1640625 C12.223564 -0.29961465 12.223564 -0.29961465 15.48291016 2.09375 C16.97189611 3.82995225 18.19969275 5.50537584 19.3125 7.5 C14.77352295 7.52465392 10.23458457 7.54283789 5.69555664 7.55493164 C4.15030234 7.5599714 2.60505284 7.5668032 1.05981445 7.57543945 C-1.15675029 7.58752076 -3.37325218 7.59323173 -5.58984375 7.59765625 C-6.63204323 7.60539818 -6.63204323 7.60539818 -7.69529724 7.61329651 C-9.3597933 7.61349277 -11.02415499 7.56189129 -12.6875 7.5 C-13.6875 6.5 -13.6875 6.5 -13.8125 4 C-13.50865387 -2.07692265 -4.67415976 0.09003197 0 0 Z " fill="#D6E0E6" transform="translate(207.6875,308.5)"/>
<path d="M0 0 C4.0743356 0.84881992 5.54405875 2.30225596 8 5.625 C8.625 8.625 8.625 8.625 8 11.625 C5.54405875 14.94774404 4.0743356 16.40118008 0 17.25 C-4.0743356 16.40118008 -5.54405875 14.94774404 -8 11.625 C-8.625 8.625 -8.625 8.625 -8 5.625 C-5.54405875 2.30225596 -4.0743356 0.84881992 0 0 Z " fill="#254482" transform="translate(450,291.375)"/>
<path d="M0 0 C2.39591038 -0.02712351 4.79150957 -0.0468982 7.1875 -0.0625 C7.86103516 -0.07087891 8.53457031 -0.07925781 9.22851562 -0.08789062 C13.05323378 -0.10654779 16.20288716 0.24057743 20 1 C20 6.61 20 12.22 20 18 C15.85297935 16.96324484 14.9754782 16.34485233 12.109375 13.4375 C11.04589844 12.36628906 11.04589844 12.36628906 9.9609375 11.2734375 C9.23132813 10.52320313 8.50171875 9.77296875 7.75 9 C7.00492188 8.24976563 6.25984375 7.49953125 5.4921875 6.7265625 C0 1.15390339 0 1.15390339 0 0 Z " fill="#CBCDD0" transform="translate(211,281)"/>
<path d="M0 0 C2 2 2 2 2.125 5.625 C2.08375 6.73875 2.0425 7.8525 2 9 C2.99 9.33 3.98 9.66 5 10 C5 11.65 5 13.3 5 15 C-2.26 15.99 -9.52 16.98 -17 18 C-13.13609192 13.49210724 -9.33926648 9.20232971 -5.125 5.0625 C-4.62742188 4.56943359 -4.12984375 4.07636719 -3.6171875 3.56835938 C-2.41379715 2.37654008 -1.20724635 1.18791322 0 0 Z " fill="#E3EAF3" transform="translate(153,272)"/>
<path d="M0 0 C0.66 0 1.32 0 2 0 C2 0.99 2 1.98 2 3 C7.61 3 13.22 3 19 3 C19.33 2.34 19.66 1.68 20 1 C20.19546065 5.30013434 19.9955516 7.00889681 18 11 C12.06 11 6.12 11 0 11 C0 7.37 0 3.74 0 0 Z " fill="#DDE8EF" transform="translate(126,236)"/>
<path d="M0 0 C11.88 0 23.76 0 36 0 C32 5 32 5 28.9609375 5.55859375 C27.77757813 5.51863281 26.59421875 5.47867187 25.375 5.4375 C24.06144531 5.39496094 22.74789062 5.35242188 21.39453125 5.30859375 C13.89945113 4.84047275 6.44626653 3.95530567 -1 3 C-0.67 2.01 -0.34 1.02 0 0 Z " fill="#DFE7F0" transform="translate(67,287)"/>
<path d="M0 0 C5.28 0 10.56 0 16 0 C16 0.33 16 0.66 16 1 C17.27875 1.0825 18.5575 1.165 19.875 1.25 C22.0859375 1.51171875 22.0859375 1.51171875 24 2 C25.5 4.0625 25.5 4.0625 26 6 C24.33992853 8.43081895 23.53053234 9.61312338 21 11 C16.92359406 11.1484257 13.02037613 10.6476204 9 10 C9 8.02 9 6.04 9 4 C9.66 3.67 10.32 3.34 11 3 C7.37 2.67 3.74 2.34 0 2 C0 1.34 0 0.68 0 0 Z " fill="#D7ECF7" transform="translate(301,239)"/>
<path d="M0 0 C0.98396507 0.00424484 0.98396507 0.00424484 1.98780823 0.00857544 C4.05587034 0.01965266 6.12347798 0.04473187 8.19140625 0.0703125 C9.6048114 0.08035848 11.01822342 0.08948148 12.43164062 0.09765625 C15.87254019 0.11955066 19.31317877 0.15399199 22.75390625 0.1953125 C18.63848213 5.03870304 18.63848213 5.03870304 14.72705078 5.73120117 C13.62474121 5.6922876 12.52243164 5.65337402 11.38671875 5.61328125 C10.17113281 5.58814453 8.95554687 5.56300781 7.703125 5.53710938 C6.44113281 5.48619141 5.17914063 5.43527344 3.87890625 5.3828125 C-6.88284929 4.83192212 -6.88284929 4.83192212 -17.24609375 7.1953125 C-16.18359375 4.8203125 -16.18359375 4.8203125 -14.24609375 2.1953125 C-9.39939849 0.43321739 -5.13212723 -0.04405259 0 0 Z " fill="#EEF1F4" transform="translate(286.24609375,434.8046875)"/>
<path d="M0 0 C4.29 0 8.58 0 13 0 C13 3.3 13 6.6 13 10 C8.71 10 4.42 10 0 10 C0 6.7 0 3.4 0 0 Z " fill="#CCD0D4" transform="translate(218,264)"/>
<path d="M0 0 C0.66 0 1.32 0 2 0 C2 0.66 2 1.32 2 2 C5.3 2 8.6 2 12 2 C12.33 1.34 12.66 0.68 13 0 C13.33 1.65 13.66 3.3 14 5 C13.01 4.67 12.02 4.34 11 4 C11 6.31 11 8.62 11 11 C7.37 11 3.74 11 0 11 C0 8.69 0 6.38 0 4 C-2.31 4 -4.62 4 -7 4 C-7 3.67 -7 3.34 -7 3 C-5.5459375 2.814375 -5.5459375 2.814375 -4.0625 2.625 C-2.5465625 2.315625 -2.5465625 2.315625 -1 2 C-0.67 1.34 -0.34 0.68 0 0 Z " fill="#D8E6EC" transform="translate(273,200)"/>
<path d="M0 0 C0.66 0 1.32 0 2 0 C2 2.64 2 5.28 2 8 C3.32 8 4.64 8 6 8 C6.33 6.35 6.66 4.7 7 3 C10.96 3 14.92 3 19 3 C19 5.31 19 7.62 19 10 C12.73 10 6.46 10 0 10 C0 6.7 0 3.4 0 0 Z " fill="#D6E2E7" transform="translate(126,306)"/>
<path d="M0 0 C0.66 0 1.32 0 2 0 C2.33 1.32 2.66 2.64 3 4 C3.598125 4.061875 4.19625 4.12375 4.8125 4.1875 C7 5 7 5 8.3125 7.5625 C9.1478125 8.7690625 9.1478125 8.7690625 10 10 C13.62599422 10.41725678 13.62599422 10.41725678 17 10 C16 12 16 12 13.7421875 13.0625 C6.23044821 15.51865454 6.23044821 15.51865454 2.78515625 14.06640625 C-1.02765169 10.96295793 -2.95532577 7.87514639 -4 3 C-3.01 2.67 -2.02 2.34 -1 2 C-0.67 1.34 -0.34 0.68 0 0 Z " fill="#E3E3E5" transform="translate(323,229)"/>
<path d="M0 0 C0.66 0 1.32 0 2 0 C2 0.99 2 1.98 2 3 C3.32 3.33 4.64 3.66 6 4 C6 5.32 6 6.64 6 8 C6.33 8.66 6.66 9.32 7 10 C0.73 10 -5.54 10 -12 10 C-6 3 -6 3 -2.625 2.5625 C-1.75875 2.706875 -0.8925 2.85125 0 3 C0 2.01 0 1.02 0 0 Z " fill="#E3F4FB" transform="translate(247,219)"/>
<path d="M0 0 C5.94 0 11.88 0 18 0 C17.01 1.32 16.02 2.64 15 4 C14.34 4 13.68 4 13 4 C12.34 5.32 11.68 6.64 11 8 C7.37 7.67 3.74 7.34 0 7 C0 4.69 0 2.38 0 0 Z " fill="#E5F2F8" transform="translate(181,222)"/>
<path d="M0 0 C0.66 0.33 1.32 0.66 2 1 C2 1.66 2 2.32 2 3 C3.32 3 4.64 3 6 3 C5.67 5.31 5.34 7.62 5 10 C1.98509443 11.00496852 -0.04181692 11.10335303 -3.1875 11.0625 C-4.53908203 11.04896484 -4.53908203 11.04896484 -5.91796875 11.03515625 C-6.60503906 11.02355469 -7.29210937 11.01195312 -8 11 C-7.1875 8.5625 -7.1875 8.5625 -6 6 C-5.01 5.67 -4.02 5.34 -3 5 C-1.8499169 3.03327085 -1.8499169 3.03327085 -1 1 C-0.67 0.67 -0.34 0.34 0 0 Z M6 1 C6.66 1 7.32 1 8 1 C7.67 1.99 7.34 2.98 7 4 C6.67 3.01 6.34 2.02 6 1 Z " fill="#E1EDF3" transform="translate(210,253)"/>
<path d="M0 0 C4.29 0 8.58 0 13 0 C13.04241723 2.33294775 13.04092937 4.66702567 13 7 C12 8 12 8 9.71484375 8.09765625 C8.34005859 8.08025391 8.34005859 8.08025391 6.9375 8.0625 C6.01839844 8.05347656 5.09929687 8.04445313 4.15234375 8.03515625 C3.44207031 8.02355469 2.73179687 8.01195312 2 8 C2 7.01 2 6.02 2 5 C1.34 5 0.68 5 0 5 C0 3.35 0 1.7 0 0 Z " fill="#CCD0D4" transform="translate(218,249)"/>
<path d="M0 0 C0.66 0 1.32 0 2 0 C2 0.99 2 1.98 2 3 C2.33 2.34 2.66 1.68 3 1 C6.33537489 2.11179163 7.63707344 3.47411298 10 6 C10.33 5.01 10.66 4.02 11 3 C11.66 3 12.32 3 13 3 C12.34 5.31 11.68 7.62 11 10 C6.6835078 10.76173392 3.25566547 11.16063604 -1 10 C-0.67 8.35 -0.34 6.7 0 5 C-3.0745356 5.7763932 -3.0745356 5.7763932 -5 8 C-5 6.68 -5 5.36 -5 4 C-3.35 3.67 -1.7 3.34 0 3 C0 2.01 0 1.02 0 0 Z " fill="#E6F3F9" transform="translate(121,97)"/>
<path d="M0 0 C1.98 0 3.96 0 6 0 C7 4.75 7 4.75 7 7 C7.99 7.33 8.98 7.66 10 8 C10.33 8.99 10.66 9.98 11 11 C8.69 11.66 6.38 12.32 4 13 C4 12.34 4 11.68 4 11 C2.35 10.67 0.7 10.34 -1 10 C-1 6.58900832 -0.50854594 3.36911686 0 0 Z " fill="#ECEFF1" transform="translate(267,262)"/>
<path d="M0 0 C5.94 0 11.88 0 18 0 C17.01 0.66 16.02 1.32 15 2 C14.74969023 4.58380177 14.74969023 4.58380177 15 7 C11.915704 7.87731086 9.19948514 8.41099077 6 8 C3.27561657 5.58382964 1.90418709 3.17364515 0 0 Z " fill="#E5F2F8" transform="translate(284,118)"/>
<path d="M0 0 C2.33294775 -0.04241723 4.66702567 -0.04092937 7 0 C7.33 0.33 7.66 0.66 8 1 C7.71269945 3.33944736 7.38063221 5.6739143 7 8 C7.99 8 8.98 8 10 8 C10 8.66 10 9.32 10 10 C8.54263913 10.19491452 7.08405407 10.38069358 5.625 10.5625 C4.81289062 10.66691406 4.00078125 10.77132813 3.1640625 10.87890625 C1 11 1 11 -1 10 C-0.649375 9.46375 -0.29875 8.9275 0.0625 8.375 C1.28924249 5.26725237 0.72856431 3.20568297 0 0 Z " fill="#F0F1F0" transform="translate(250,262)"/>
<path d="M0 0 C0.19406478 1.64507218 0.38007935 3.29109594 0.5625 4.9375 C0.66691406 5.85402344 0.77132812 6.77054687 0.87890625 7.71484375 C0.91886719 8.46894531 0.95882812 9.22304688 1 10 C0 11 0 11 -2.28515625 11.09765625 C-3.65994141 11.08025391 -3.65994141 11.08025391 -5.0625 11.0625 C-5.98160156 11.05347656 -6.90070313 11.04445313 -7.84765625 11.03515625 C-8.55792969 11.02355469 -9.26820312 11.01195312 -10 11 C-9.72712269 6.36108575 -7.70642674 4.2649533 -4.5703125 1.13671875 C-3 0 -3 0 0 0 Z " fill="#CBD0D2" transform="translate(95,333)"/>
<path d="M0 0 C2 2 2 2 2.125 5.625 C2.08375 6.73875 2.0425 7.8525 2 9 C2.99 9.33 3.98 9.66 5 10 C3.43883181 10.33951619 1.87598662 10.67132544 0.3125 11 C-0.99267578 11.2784375 -0.99267578 11.2784375 -2.32421875 11.5625 C-4.93712964 11.98972047 -7.35813038 12.07616201 -10 12 C-8.52278578 8.54798361 -6.56205999 6.35038064 -3.875 3.75 C-3.15054688 3.04359375 -2.42609375 2.3371875 -1.6796875 1.609375 C-1.12539062 1.07828125 -0.57109375 0.5471875 0 0 Z " fill="#DEEAF0" transform="translate(153,272)"/>
<path d="M0 0 C0.99 0.33 1.98 0.66 3 1 C4.33106622 1.34227417 5.66400079 1.67751743 7 2 C7 2.99 7 3.98 7 5 C6.34 5 5.68 5 5 5 C5.33 6.32 5.66 7.64 6 9 C6.66 9 7.32 9 8 9 C7.67 9.99 7.34 10.98 7 12 C4.9375 12.6875 4.9375 12.6875 3 13 C2.34 11.68 1.68 10.36 1 9 C0.34 9 -0.32 9 -1 9 C-2.1875 6.75 -2.1875 6.75 -3 4 C-1.625 1.6875 -1.625 1.6875 0 0 Z " fill="#F1F6F7" transform="translate(397,236)"/>
<path d="M0 0 C5.94 0 11.88 0 18 0 C17 3 17 3 15.4375 4.1875 C11.97614059 5.34128647 8.5356483 5.94152273 5 5 C3.35 3.35 1.7 1.7 0 0 Z " fill="#D7DEE5" transform="translate(173,229)"/>
<path d="M0 0 C0.33 1.32 0.66 2.64 1 4 C-0.4375 6.25 -0.4375 6.25 -2 8 C-2.33 7.34 -2.66 6.68 -3 6 C-10.92 13.92 -18.84 21.84 -27 30 C-27.66 29.67 -28.32 29.34 -29 29 C-19.43 19.43 -9.86 9.86 0 0 Z " fill="#DDE1E5" transform="translate(295,168)"/>
<path d="M0 0 C3.63 0 7.26 0 11 0 C10.01 0.495 10.01 0.495 9 1 C9 2.98 9 4.96 9 7 C2.84765625 7.09765625 2.84765625 7.09765625 1 7 C0 6 0 6 -0.0625 2.9375 C-0.041875 1.968125 -0.02125 0.99875 0 0 Z " fill="#D8E7EC" transform="translate(158,344)"/>
<path d="M0 0 C3.96 0 7.92 0 12 0 C12 2.31 12 4.62 12 7 C9.375 7.4375 9.375 7.4375 6 7 C3.61930063 4.86058773 1.93656143 2.58208191 0 0 Z " fill="#DCE8F0" transform="translate(114,170)"/>
<path d="M0 0 C4.12494151 -0.05784708 8.24977944 -0.09354407 12.375 -0.125 C13.550625 -0.14175781 14.72625 -0.15851563 15.9375 -0.17578125 C17.61972656 -0.18544922 17.61972656 -0.18544922 19.3359375 -0.1953125 C20.37282715 -0.20578613 21.4097168 -0.21625977 22.47802734 -0.22705078 C25 0 25 0 27 2 C23.79217914 2.95376567 20.91812604 3.11621181 17.578125 3.09765625 C16.55332031 3.09443359 15.52851563 3.09121094 14.47265625 3.08789062 C13.40917969 3.07951172 12.34570312 3.07113281 11.25 3.0625 C10.17105469 3.05798828 9.09210938 3.05347656 7.98046875 3.04882812 C5.32025617 3.03705727 2.66015635 3.02061399 0 3 C0 2.01 0 1.02 0 0 Z " fill="#D1E6F3" transform="translate(240,246)"/>
<path d="M0 0 C-0.33 2.31 -0.66 4.62 -1 7 C-1.33 7 -1.66 7 -2 7 C-2.12375 6.195625 -2.2475 5.39125 -2.375 4.5625 C-2.58125 3.716875 -2.7875 2.87125 -3 2 C-3.66 1.67 -4.32 1.34 -5 1 C-5 2.98 -5 4.96 -5 7 C-6.98 7 -8.96 7 -11 7 C-11 4.69 -11 2.38 -11 0 C-7.18243176 -1.37432457 -3.92744671 -0.67975039 0 0 Z " fill="#E3F4FB" transform="translate(284,222)"/>
<path d="M0 0 C1.64574566 -0.02688151 3.29161413 -0.04634123 4.9375 -0.0625 C5.85402344 -0.07410156 6.77054688 -0.08570313 7.71484375 -0.09765625 C10 0 10 0 11 1 C11.04080783 2.99958364 11.04254356 5.00045254 11 7 C10.34 7 9.68 7 9 7 C9 5.02 9 3.04 9 1 C8.01 1.495 8.01 1.495 7 2 C6.34444881 4.52733235 6.34444881 4.52733235 6 7 C4.02 7 2.04 7 0 7 C0 4.69 0 2.38 0 0 Z " fill="#DDEBF0" transform="translate(147,309)"/>
<path d="M0 0 C0.33 0 0.66 0 1 0 C1 1.98 1 3.96 1 6 C-0.98 6 -2.96 6 -5 6 C-4.67 6.99 -4.34 7.98 -4 9 C-4.99 9 -5.98 9 -7 9 C-7 7.35 -7 5.7 -7 4 C-7.66 4 -8.32 4 -9 4 C-9 5.65 -9 7.3 -9 9 C-9.66 9 -10.32 9 -11 9 C-11 6.69 -11 4.38 -11 2 C-7.37 2 -3.74 2 0 2 C0 1.34 0 0.68 0 0 Z " fill="#E6F3F8" transform="translate(145,237)"/>
<path d="M0 0 C2.31 0 4.62 0 7 0 C7.625 2.375 7.625 2.375 8 5 C6 7 6 7 3.8359375 7.1953125 C2.61777344 7.16050781 2.61777344 7.16050781 1.375 7.125 C0.55773437 7.10695313 -0.25953125 7.08890625 -1.1015625 7.0703125 C-1.72804688 7.04710937 -2.35453125 7.02390625 -3 7 C-2.01 6.67 -1.02 6.34 0 6 C0 4.02 0 2.04 0 0 Z " fill="#ECEBE5" transform="translate(413,254)"/>
<path d="M0 0 C2.33944736 0.28730055 4.6739143 0.61936779 7 1 C6.6875 3.875 6.6875 3.875 6 7 C2.77208445 9.1519437 1.71599191 9.20086443 -2 9 C-1.67 8.34 -1.34 7.68 -1 7 C-1 5.989375 -1 4.97875 -1 3.9375 C-1 1 -1 1 0 0 Z " fill="#EFF0ED" transform="translate(285,261)"/>
<path d="M0 0 C0.66 0 1.32 0 2 0 C2 3.3 2 6.6 2 10 C0.00045254 10.04254356 -2.00041636 10.04080783 -4 10 C-5 9 -5 9 -5.0625 6.4375 C-5.041875 5.633125 -5.02125 4.82875 -5 4 C-3.35 3.67 -1.7 3.34 0 3 C0 2.01 0 1.02 0 0 Z " fill="#DAE8ED" transform="translate(126,358)"/>
<path d="M0 0 C2.375 -0.125 2.375 -0.125 5 0 C5.66 0.66 6.32 1.32 7 2 C7.33 1.34 7.66 0.68 8 0 C8.66 0 9.32 0 10 0 C8.125 5.875 8.125 5.875 7 7 C4.66702567 7.04092937 2.33294775 7.04241723 0 7 C0 4.69 0 2.38 0 0 Z " fill="#D6E0E5" transform="translate(129,361)"/>
<path d="M0 0 C1.32 0 2.64 0 4 0 C4 0.99 4 1.98 4 3 C5.65 3.33 7.3 3.66 9 4 C9 5.98 9 7.96 9 10 C8.34 10 7.68 10 7 10 C7 8.02 7 6.04 7 4 C6.01 4 5.02 4 4 4 C4 5.98 4 7.96 4 10 C3.34 10 2.68 10 2 10 C1.67 8.02 1.34 6.04 1 4 C0.01 5.98 -0.98 7.96 -2 10 C-3.39195915 5.82412255 -1.82323219 3.86525224 0 0 Z " fill="#DBECF1" transform="translate(125,341)"/>
<path d="M0 0 C2.875 -0.1875 2.875 -0.1875 6 0 C6.66 0.99 7.32 1.98 8 3 C8.99 3 9.98 3 11 3 C9.02 4.65 7.04 6.3 5 8 C5 7.34 5 6.68 5 6 C3.02 6 1.04 6 -1 6 C-0.67 4.02 -0.34 2.04 0 0 Z " fill="#EDEEEC" transform="translate(251,278)"/>
<path d="M0 0 C4.29 0 8.58 0 13 0 C13 1.32 13 2.64 13 4 C8.71 4 4.42 4 0 4 C0 2.68 0 1.36 0 0 Z " fill="#CFD7DC" transform="translate(218,264)"/>
<path d="M0 0 C0.66 0 1.32 0 2 0 C2 2.64 2 5.28 2 8 C3.32 8 4.64 8 6 8 C6.33 6.35 6.66 4.7 7 3 C8.65 3 10.3 3 12 3 C11.67 3.99 11.34 4.98 11 6 C11 5.34 11 4.68 11 4 C10.01 4 9.02 4 8 4 C8.27617533 5.94074861 8.27617533 5.94074861 9 8 C9.99 8.66 10.98 9.32 12 10 C8.04 10 4.08 10 0 10 C0 6.7 0 3.4 0 0 Z " fill="#E0EEF4" transform="translate(126,306)"/>
<path d="M0 0 C5.94 0 11.88 0 18 0 C17.01 1.485 17.01 1.485 16 3 C13.2114711 3.22107787 10.65346819 3.28107535 7.875 3.1875 C7.12089844 3.17396484 6.36679687 3.16042969 5.58984375 3.14648438 C3.72625873 3.11109985 1.86304022 3.05729167 0 3 C0 2.01 0 1.02 0 0 Z " fill="#CDE2F0" transform="translate(258,219)"/>
<path d="M0 0 C2 2 2 2 2.125 5.125 C2.08375 6.07375 2.0425 7.0225 2 8 C0.02 8 -1.96 8 -4 8 C-5.0625 5.625 -5.0625 5.625 -6 3 C-5.67 2.34 -5.34 1.68 -5 1 C-2.5625 0.25 -2.5625 0.25 0 0 Z " fill="#E2EFF5" transform="translate(131,221)"/>
<path d="M0 0 C0.33 0 0.66 0 1 0 C1 3.3 1 6.6 1 10 C-0.65 10 -2.3 10 -4 10 C-4.66 9.34 -5.32 8.68 -6 8 C-5.625 5.375 -5.625 5.375 -5 3 C-3.35 3 -1.7 3 0 3 C0 2.01 0 1.02 0 0 Z " fill="#DAE9EE" transform="translate(155,341)"/>
<path d="M0 0 C-0.66 2.31 -1.32 4.62 -2 7 C-7.75 5.125 -7.75 5.125 -10 4 C-9 1 -9 1 -7.25 -0.25 C-4.47275102 -1.17574966 -2.78428335 -0.77341204 0 0 Z " fill="#CED8DE" transform="translate(124,344)"/>
<path d="M0 0 C0.66 0.66 1.32 1.32 2 2 C1.49210937 2.42410156 0.98421875 2.84820312 0.4609375 3.28515625 C-3.67532691 6.8095014 -7.36993885 10.37707466 -10.7734375 14.6171875 C-12 16 -12 16 -14 17 C-14 17.99 -14 18.98 -14 20 C-15.65 20 -17.3 20 -19 20 C-13.17371096 12.84198775 -6.5617015 6.47408234 0 0 Z " fill="#D2DFE9" transform="translate(261,202)"/>
<path d="M0 0 C0 1.98 0 3.96 0 6 C-0.804375 6.12375 -1.60875 6.2475 -2.4375 6.375 C-3.7059375 6.684375 -3.7059375 6.684375 -5 7 C-5.33 7.66 -5.66 8.32 -6 9 C-6 6.03 -6 3.06 -6 0 C-3.50907189 -1.24546405 -2.58919267 -0.7767578 0 0 Z " fill="#E2EFF5" transform="translate(135,153)"/>
<path d="M0 0 C4.24846075 0.47205119 6.26819288 2.88877522 9 6 C9 6.66 9 7.32 9 8 C5.7 8 2.4 8 -1 8 C-0.67 5.36 -0.34 2.72 0 0 Z " fill="#DDEEF7" transform="translate(306,222)"/>
<path d="M0 0 C2.6875 0.4375 2.6875 0.4375 3.6875 1.4375 C3.72830783 3.43708364 3.73004356 5.43795254 3.6875 7.4375 C3.0275 7.4375 2.3675 7.4375 1.6875 7.4375 C1.6875 5.4575 1.6875 3.4775 1.6875 1.4375 C1.0275 1.4375 0.3675 1.4375 -0.3125 1.4375 C-0.3125 3.4175 -0.3125 5.3975 -0.3125 7.4375 C-0.9725 7.4375 -1.6325 7.4375 -2.3125 7.4375 C-2.6425 6.1175 -2.9725 4.7975 -3.3125 3.4375 C-3.9725 4.7575 -4.6325 6.0775 -5.3125 7.4375 C-6.6325 7.1075 -7.9525 6.7775 -9.3125 6.4375 C-4.1605 0.5495 -4.1605 0.5495 0 0 Z " fill="#E6F3F8" transform="translate(133.3125,82.5625)"/>
<path d="M0 0 C3 0.125 3 0.125 4 1.125 C4.04080783 3.12458364 4.04254356 5.12545254 4 7.125 C0.74456771 6.77620368 -0.01873107 6.10366739 -2.25 3.5625 C-3.11625 2.3559375 -3.11625 2.3559375 -4 1.125 C-3 0.125 -3 0.125 0 0 Z " fill="#E1EDF3" transform="translate(136,186.875)"/>
<path d="M0 0 C2.97 0.495 2.97 0.495 6 1 C5.67 2.65 5.34 4.3 5 6 C4.34 6 3.68 6 3 6 C2.67 5.01 2.34 4.02 2 3 C2 4.32 2 5.64 2 7 C0.02 6.34 -1.96 5.68 -4 5 C-2.68 4.67 -1.36 4.34 0 4 C0 2.68 0 1.36 0 0 Z " fill="#D8E3E9" transform="translate(176,309)"/>
<path d="M0 0 C1.65 0 3.3 0 5 0 C5 2.31 5 4.62 5 7 C3.35 7 1.7 7 0 7 C-0.93423645 3.98968256 -1.04449911 3.13349732 0 0 Z " fill="#DBEBF0" transform="translate(143,344)"/>
<path d="M0 0 C3.3 0 6.6 0 10 0 C9.67 0.66 9.34 1.32 9 2 C8.34 2 7.68 2 7 2 C7 3.98 7 5.96 7 8 C4.35247996 5.42215154 2.05567935 3.08351902 0 0 Z " fill="#E9F5F9" transform="translate(204,274)"/>
<path d="M0 0 C1.65 0 3.3 0 5 0 C5.144375 0.61875 5.28875 1.2375 5.4375 1.875 C5.93152225 4.03258322 5.93152225 4.03258322 7 6 C4.69 6.33 2.38 6.66 0 7 C0 4.69 0 2.38 0 0 Z " fill="#DEECF4" transform="translate(151,135)"/>
<path d="M0 0 C0.33 0.66 0.66 1.32 1 2 C2.65 2 4.3 2 6 2 C5.67 3.98 5.34 5.96 5 8 C3.35 8.33 1.7 8.66 0 9 C0 6.03 0 3.06 0 0 Z " fill="#E7F4F9" transform="translate(210,255)"/>
<path d="M0 0 C2.0625 0.4375 2.0625 0.4375 4 1 C4 2.98 4 4.96 4 7 C2.02 7 0.04 7 -2 7 C-1.125 1.125 -1.125 1.125 0 0 Z " fill="#E9F6FB" transform="translate(177,100)"/>
<path d="M0 0 C0.66 0 1.32 0 2 0 C2 0.99 2 1.98 2 3 C3.32 3.33 4.64 3.66 6 4 C6 5.98 6 7.96 6 10 C5.67 10 5.34 10 5 10 C5 8.35 5 6.7 5 5 C4.01 5 3.02 5 2 5 C2 6.65 2 8.3 2 10 C1.34 10 0.68 10 0 10 C0 6.7 0 3.4 0 0 Z " fill="#E7F4F9" transform="translate(126,236)"/>
<path d="M0 0 C0.99 0.33 1.98 0.66 3 1 C4.33106622 1.34227417 5.66400079 1.67751743 7 2 C7 2.99 7 3.98 7 5 C5.02 5 3.04 5 1 5 C0.67 5.66 0.34 6.32 0 7 C0 6.01 0 5.02 0 4 C-0.66 3.67 -1.32 3.34 -2 3 C-1.34 2.01 -0.68 1.02 0 0 Z " fill="#EAEAE6" transform="translate(397,236)"/>
<path d="M0 0 C1.65 0 3.3 0 5 0 C5 2.31 5 4.62 5 7 C3.35 7 1.7 7 0 7 C0.185625 6.21625 0.37125 5.4325 0.5625 4.625 C1.25962266 2.02910225 1.25962266 2.02910225 0 0 Z " fill="#E0EFF4" transform="translate(140,309)"/>
<path d="M0 0 C4.62 0 9.24 0 14 0 C10.59568053 2.26954631 8.83475798 2.36549949 4.8125 2.625 C3.72582031 2.69976562 2.63914063 2.77453125 1.51953125 2.8515625 C0.68808594 2.90054687 -0.14335937 2.94953125 -1 3 C-0.67 2.01 -0.34 1.02 0 0 Z " fill="#D8DEE4" transform="translate(144,281)"/>
<path d="M0 0 C3.3 0 6.6 0 10 0 C9.01 0.495 9.01 0.495 8 1 C8 2.98 8 4.96 8 7 C7.01 7 6.02 7 5 7 C5 5.35 5 3.7 5 2 C4.01 2.33 3.02 2.66 2 3 C2 2.34 2 1.68 2 1 C1.34 0.67 0.68 0.34 0 0 Z " fill="#DBEFF8" transform="translate(255,239)"/>
<path d="M0 0 C1.65 0.33 3.3 0.66 5 1 C5 3 5 3 3.375 4.75 C1 6 1 6 -2.25 5.1875 C-3.1575 4.795625 -4.065 4.40375 -5 4 C-5 3.67 -5 3.34 -5 3 C-3.35 3 -1.7 3 0 3 C0 2.01 0 1.02 0 0 Z " fill="#E0EDF4" transform="translate(190,171)"/>
<path d="M0 0 C3.63 0 7.26 0 11 0 C11 0.66 11 1.32 11 2 C9.54263913 2.19491452 8.08405407 2.38069358 6.625 2.5625 C5.81289062 2.66691406 5.00078125 2.77132813 4.1640625 2.87890625 C2 3 2 3 0 2 C0 1.34 0 0.68 0 0 Z " fill="#E6EAEE" transform="translate(249,270)"/>
<path d="M0 0 C0.33 0 0.66 0 1 0 C1 2.31 1 4.62 1 7 C-1.31 7 -3.62 7 -6 7 C-5.02433888 5.83040013 -4.044375 4.66438823 -3.0625 3.5 C-2.51722656 2.8503125 -1.97195312 2.200625 -1.41015625 1.53125 C-0.71212891 0.77328125 -0.71212891 0.77328125 0 0 Z " fill="#E6F4F9" transform="translate(224,239)"/>
<path d="M0 0 C1.98 0 3.96 0 6 0 C6 2.31 6 4.62 6 7 C3.03 6.505 3.03 6.505 0 6 C0 5.01 0 4.02 0 3 C0.66 2.67 1.32 2.34 2 2 C1.34 1.34 0.68 0.68 0 0 Z " fill="#DEEBF2" transform="translate(128,170)"/>
<path d="M0 0 C1.2065625 0.0309375 1.2065625 0.0309375 2.4375 0.0625 C2.1075 1.0525 1.7775 2.0425 1.4375 3.0625 C1.1075 2.7325 0.7775 2.4025 0.4375 2.0625 C-0.5525 2.5575 -0.5525 2.5575 -1.5625 3.0625 C-1.5625 3.7225 -1.5625 4.3825 -1.5625 5.0625 C-0.2425 5.0625 1.0775 5.0625 2.4375 5.0625 C2.4375 5.7225 2.4375 6.3825 2.4375 7.0625 C0.7875 6.7325 -0.8625 6.4025 -2.5625 6.0625 C-2.94468767 4.40635343 -3.27645102 2.73792976 -3.5625 1.0625 C-2.5625 0.0625 -2.5625 0.0625 0 0 Z " fill="#DCEDF2" transform="translate(138.5625,343.9375)"/>
<path d="M0 0 C2.64 0 5.28 0 8 0 C7.34 1.98 6.68 3.96 6 6 C3.97945196 4.35830472 1.97956942 2.69088222 0 1 C0 0.67 0 0.34 0 0 Z " fill="#D4D9DE" transform="translate(211,281)"/>
<path d="M0 0 C0.66 0 1.32 0 2 0 C2.66 0.99 3.32 1.98 4 3 C6.05003955 4.19232613 6.05003955 4.19232613 8 5 C6.625 6.5 6.625 6.5 5 8 C4.34 8 3.68 8 3 8 C3 7.01 3 6.02 3 5 C1.68 4.67 0.36 4.34 -1 4 C-0.67 2.68 -0.34 1.36 0 0 Z " fill="#CFDCE5" transform="translate(287,206)"/>
<path d="M0 0 C1.32 0 2.64 0 4 0 C4.33 1.98 4.66 3.96 5 6 C3.02 5.34 1.04 4.68 -1 4 C-0.67 2.68 -0.34 1.36 0 0 Z " fill="#E0EDF4" transform="translate(163,171)"/>
<path d="M0 0 C2.31 0.33 4.62 0.66 7 1 C6.67 1.99 6.34 2.98 6 4 C4.125 4.875 4.125 4.875 2 5 C0.25 3.5625 0.25 3.5625 -1 2 C-0.67 1.34 -0.34 0.68 0 0 Z " fill="#EEEEEA" transform="translate(302,261)"/>
<path d="M0 0 C0.66 0 1.32 0 2 0 C2.66 0.66 3.32 1.32 4 2 C4.33 1.34 4.66 0.68 5 0 C5.66 0 6.32 0 7 0 C6.1875 2.9375 6.1875 2.9375 5 6 C4.01 6.33 3.02 6.66 2 7 C1.34 4.69 0.68 2.38 0 0 Z " fill="#DDEDF2" transform="translate(132,361)"/>
<path d="M0 0 C2.4375 1.125 2.4375 1.125 5 3 C5.8125 6.1875 5.8125 6.1875 6 9 C5.34 7.68 4.68 6.36 4 5 C3.01 5 2.02 5 1 5 C0.67 6.32 0.34 7.64 0 9 C0 6.03 0 3.06 0 0 Z " fill="#E2F2F7" transform="translate(163,307)"/>
<path d="M0 0 C0.66 0.99 1.32 1.98 2 3 C1.67 3.99 1.34 4.98 1 6 C-0.65 5.67 -2.3 5.34 -4 5 C-4 4.01 -4 3.02 -4 2 C-2.68 1.34 -1.36 0.68 0 0 Z " fill="#EFF0ED" transform="translate(272,262)"/>
<path d="M0 0 C2.02054804 1.64169528 4.02043058 3.30911778 6 5 C6 5.33 6 5.66 6 6 C3.36 6 0.72 6 -2 6 C-1.34 4.02 -0.68 2.04 0 0 Z " fill="#E0EEF5" transform="translate(269,119)"/>
<path d="M0 0 C1.32 0 2.64 0 4 0 C4 1.98 4 3.96 4 6 C1.525 5.01 1.525 5.01 -1 4 C-0.67 2.68 -0.34 1.36 0 0 Z " fill="#E1EFF6" transform="translate(170,119)"/>
<path d="M0 0 C0 0.33 0 0.66 0 1 C-1.65 1.33 -3.3 1.66 -5 2 C-5.15149298 5.62885324 -5.15149298 5.62885324 -4 9 C-5.65 9 -7.3 9 -9 9 C-8.835 8.05125 -8.67 7.1025 -8.5 6.125 C-7.9473365 3.19831099 -7.9473365 3.19831099 -8 1 C-5.29120665 -0.35439668 -2.99066732 -0.06501451 0 0 Z " fill="#D9EDF7" transform="translate(305,221)"/>
<path d="M0 0 C1.98 0.66 3.96 1.32 6 2 C6 2.99 6 3.98 6 5 C5.01 5.66 4.02 6.32 3 7 C2.01 6.67 1.02 6.34 0 6 C0.99 5.34 1.98 4.68 3 4 C2.01 3.34 1.02 2.68 0 2 C0 1.34 0 0.68 0 0 Z " fill="#E2EFF6" transform="translate(137,152)"/>
<path d="M0 0 C0.66 0 1.32 0 2 0 C3.06546953 3.1964086 3.07427838 5.65747276 3 9 C2.01 9 1.02 9 0 9 C-1.125 2.25 -1.125 2.25 0 0 Z " fill="#E9F6FA" transform="translate(145,168)"/>
<path d="M0 0 C1.32 0 2.64 0 4 0 C4 0.66 4 1.32 4 2 C5.32 1.67 6.64 1.34 8 1 C7.67 2.32 7.34 3.64 7 5 C7 4.34 7 3.68 7 3 C4.03 3 1.06 3 -2 3 C-1.34 2.67 -0.68 2.34 0 2 C0 1.34 0 0.68 0 0 Z " fill="#DEEAF2" transform="translate(216,105)"/>
<path d="M0 0 C1.98 0.66 3.96 1.32 6 2 C6 2.99 6 3.98 6 5 C4.02 5.66 2.04 6.32 0 7 C0 6.34 0 5.68 0 5 C0.99 4.34 1.98 3.68 3 3 C2.01 2.01 1.02 1.02 0 0 Z " fill="#DAE9EE" transform="translate(140,361)"/>
<path d="M0 0 C0 0.66 0 1.32 0 2 C-0.99 2.33 -1.98 2.66 -3 3 C-3.33 3.66 -3.66 4.32 -4 5 C-3.01 5.33 -2.02 5.66 -1 6 C-1.99 6.495 -1.99 6.495 -3 7 C-5.125 6.0625 -5.125 6.0625 -7 5 C-6 2 -6 2 -4.0625 0.8125 C-2 0 -2 0 0 0 Z " fill="#DAEAF0" transform="translate(121,343)"/>
<path d="M0 0 C0.66 0 1.32 0 2 0 C2 0.66 2 1.32 2 2 C2.66 2.33 3.32 2.66 4 3 C3.34 3 2.68 3 2 3 C2 4.65 2 6.3 2 8 C1.34 8 0.68 8 0 8 C-0.38063221 5.6739143 -0.71269945 3.33944736 -1 1 C-0.67 0.67 -0.34 0.34 0 0 Z " fill="#E6F3F8" transform="translate(126,255)"/>
<path d="M0 0 C0.99 0.495 0.99 0.495 2 1 C2 1.99 2 2.98 2 4 C3.32 4 4.64 4 6 4 C6 4.66 6 5.32 6 6 C5.195625 6.12375 4.39125 6.2475 3.5625 6.375 C2.2940625 6.684375 2.2940625 6.684375 1 7 C0.67 7.66 0.34 8.32 0 9 C0 6.03 0 3.06 0 0 Z " fill="#EAF7FB" transform="translate(232,101)"/>
<path d="M0 0 C1.98 0.66 3.96 1.32 6 2 C6 2.99 6 3.98 6 5 C4.02 5.66 2.04 6.32 0 7 C0.99 5.68 1.98 4.36 3 3 C2.01 2.67 1.02 2.34 0 2 C0 1.34 0 0.68 0 0 Z " fill="#E6F4F9" transform="translate(245,100)"/>
<path d="M0 0 C0.33 0.66 0.66 1.32 1 2 C1.66 2.33 2.32 2.66 3 3 C3 4.98 3 6.96 3 9 C2.01 9 1.02 9 0 9 C-1.125 2.25 -1.125 2.25 0 0 Z " fill="#E6F3F8" transform="translate(192,307)"/>
<path d="M0 0 C0.66 0.66 1.32 1.32 2 2 C-0.31 2.66 -2.62 3.32 -5 4 C-5 3.34 -5 2.68 -5 2 C-6.32 1.67 -7.64 1.34 -9 1 C-7.54364629 0.77825067 -6.08477044 0.57301302 -4.625 0.375 C-3.40683594 0.20097656 -3.40683594 0.20097656 -2.1640625 0.0234375 C-1.44992187 0.01570313 -0.73578125 0.00796875 0 0 Z " fill="#F2F6F8" transform="translate(276,271)"/>
<path d="M0 0 C0.66 0.33 1.32 0.66 2 1 C2 2.98 2 4.96 2 7 C1.01 7 0.02 7 -1 7 C-1.04254356 5.00045254 -1.04080783 2.99958364 -1 1 C-0.67 0.67 -0.34 0.34 0 0 Z " fill="#D9EDF8" transform="translate(280,242)"/>
<path d="M0 0 C0.66 0 1.32 0 2 0 C2 1.65 2 3.3 2 5 C0.35 5 -1.3 5 -3 5 C-1.125 1.125 -1.125 1.125 0 0 Z " fill="#D0D6DB" transform="translate(229,234)"/>
<path d="M0 0 C0.99 0 1.98 0 3 0 C3 1.65 3 3.3 3 5 C1.68 5 0.36 5 -1 5 C-0.67 3.35 -0.34 1.7 0 0 Z " fill="#D9EEF8" transform="translate(293,223)"/>
<path d="M0 0 C1.98 0.66 3.96 1.32 6 2 C6 2.99 6 3.98 6 5 C4.02 5.66 2.04 6.32 0 7 C0.99 5.68 1.98 4.36 3 3 C2.01 2.01 1.02 1.02 0 0 Z " fill="#E3F1F7" transform="translate(142,187)"/>
<path d="M0 0 C-2.35968744 2.09749995 -3.54616994 2.96905704 -6.75 3.1875 C-7.86375 3.0946875 -7.86375 3.0946875 -9 3 C-9 2.01 -9 1.02 -9 0 C-5.67465243 -1.10844919 -3.37817425 -0.84454356 0 0 Z " fill="#D1DEE3" transform="translate(146,345)"/>
<path d="M0 0 C1.65 0 3.3 0 5 0 C5.33 1.65 5.66 3.3 6 5 C5.34 4.01 4.68 3.02 4 2 C1.87635519 1.77390663 1.87635519 1.77390663 0.375 3.5 C-0.07875 3.995 -0.5325 4.49 -1 5 C-0.67 3.35 -0.34 1.7 0 0 Z " fill="#EAF9FD" transform="translate(300,241)"/>
<path d="M0 0 C0.99 0 1.98 0 3 0 C3 1.98 3 3.96 3 6 C2.01 6 1.02 6 0 6 C0 4.02 0 2.04 0 0 Z " fill="#D9EEF8" transform="translate(284,243)"/>
<path d="M0 0 C1.32 0.33 2.64 0.66 4 1 C3.67 2.32 3.34 3.64 3 5 C2.01 5 1.02 5 0 5 C0 3.35 0 1.7 0 0 Z " fill="#D9EEF8" transform="translate(301,223)"/>
<path d="M0 0 C2.0625 0.4375 2.0625 0.4375 4 1 C3.2575 1.680625 3.2575 1.680625 2.5 2.375 C0.77390663 3.87635519 0.77390663 3.87635519 1 6 C1.99 6.33 2.98 6.66 4 7 C2.35 6.67 0.7 6.34 -1 6 C-1.042721 4.33388095 -1.04063832 2.66617115 -1 1 C-0.67 0.67 -0.34 0.34 0 0 Z " fill="#EDF9FC" transform="translate(220,135)"/>
<path d="M0 0 C0.99 0 1.98 0 3 0 C3 1.98 3 3.96 3 6 C2.01 6 1.02 6 0 6 C0 4.02 0 2.04 0 0 Z " fill="#DEECF4" transform="translate(124,119)"/>
<path d="M0 0 C0.66 0 1.32 0 2 0 C2 1.98 2 3.96 2 6 C1.01 6 0.02 6 -1 6 C-1.042721 4.33388095 -1.04063832 2.66617115 -1 1 C-0.67 0.67 -0.34 0.34 0 0 Z " fill="#D3DEE3" transform="translate(154,310)"/>
<path d="M0 0 C2.5 1.375 2.5 1.375 5 3 C5 3.66 5 4.32 5 5 C3.35 5 1.7 5 0 5 C0 3.35 0 1.7 0 0 Z " fill="#D6E7F1" transform="translate(310,225)"/>
<path d="M0 0 C0.66 0 1.32 0 2 0 C2 1.98 2 3.96 2 6 C1.01 6 0.02 6 -1 6 C-1.042721 4.33388095 -1.04063832 2.66617115 -1 1 C-0.67 0.67 -0.34 0.34 0 0 Z " fill="#D9EDF8" transform="translate(242,223)"/>
<path d="M0 0 C0.99 0 1.98 0 3 0 C2.67 1.65 2.34 3.3 2 5 C1.01 4.67 0.02 4.34 -1 4 C-0.67 2.68 -0.34 1.36 0 0 Z " fill="#E2F0F6" transform="translate(264,119)"/>
<path d="M0 0 C0.66 0 1.32 0 2 0 C2 1.98 2 3.96 2 6 C1.01 6 0.02 6 -1 6 C-1.042721 4.33388095 -1.04063832 2.66617115 -1 1 C-0.67 0.67 -0.34 0.34 0 0 Z " fill="#E4F2F8" transform="translate(215,119)"/>
</svg>
