<?xml version="1.0" encoding="UTF-8"?>
<svg version="1.1" xmlns="http://www.w3.org/2000/svg" width="496" height="468">
<path d="M0 0 C163.68 0 327.36 0 496 0 C496 154.44 496 308.88 496 468 C332.32 468 168.64 468 0 468 C0 313.56 0 159.12 0 0 Z " fill="#FBFBFB" transform="translate(0,0)"/>
<path d="M0 0 C0.87714157 0.88602402 1.75428314 1.77204803 2.65800476 2.68492126 C3.14641342 3.17274582 3.63482208 3.66057037 4.13803101 4.16317749 C5.74379445 5.77171902 7.33493858 7.3939429 8.92631531 9.01670837 C10.03930571 10.13716212 11.15318482 11.25673372 12.26791382 12.37545776 C15.19486574 15.31765849 18.10960517 18.27167373 21.0219574 21.22831726 C23.99776323 24.24509176 26.98497071 27.25052911 29.97123718 30.25694275 C35.82555059 36.15411375 41.66701003 42.06381568 47.50053406 47.98155212 C46.3159155 50.97734243 45.10866522 53.87379761 43.59037781 56.71592712 C43.24039734 57.37205994 42.89041687 58.02819275 42.52983093 58.70420837 C41.98939148 59.70774353 41.98939148 59.70774353 41.43803406 60.73155212 C41.0738739 61.41604431 40.70971375 62.1005365 40.33451843 62.80577087 C37.6332133 67.84887289 37.6332133 67.84887289 36.50053406 68.98155212 C35.11893291 69.07433542 33.73265368 69.09902255 32.34794617 69.09507751 C31.46710861 69.09500198 30.58627106 69.09492645 29.67874146 69.09484863 C28.72145645 69.08968735 27.76417145 69.08452606 26.77787781 69.07920837 C25.80266678 69.07779343 24.82745575 69.07637848 23.82269287 69.07492065 C20.69444263 69.06930345 17.56626283 69.05674805 14.43803406 69.04405212 C12.32280071 69.03903934 10.20756625 69.03447605 8.09233093 69.03038025 C2.8950411 69.01932844 -2.30220739 69.00257359 -7.49946594 68.98155212 C-7.21863365 71.51395638 -6.92818783 74.04465171 -6.63227844 76.57530212 C-6.55469299 77.28396423 -6.47710754 77.99262634 -6.39717102 78.72276306 C-5.66859307 84.84704151 -3.96892117 90.32338287 -1.49946594 95.98155212 C-2.40696594 96.66217712 -3.31446594 97.34280212 -4.24946594 98.04405212 C-6.68767072 100.04727201 -8.16396095 101.87656658 -9.62446594 104.66905212 C-11.49946594 107.98155212 -11.49946594 107.98155212 -13.52290344 108.75498962 C-15.85684819 109.89719049 -15.85684819 109.89719049 -16.40571594 113.13389587 C-16.60165344 114.38299744 -16.79759094 115.632099 -16.99946594 116.91905212 C-18.00918023 123.34269498 -18.00918023 123.34269498 -20.04634094 125.99717712 C-23.91796703 127.55075956 -27.2451095 126.60212079 -31.24946594 125.79405212 C-32.40962219 125.5842572 -32.40962219 125.5842572 -33.59321594 125.370224 C-37.33220412 124.67700555 -41.00837252 123.86517324 -44.68305969 122.88780212 C-48.19168483 122.05463833 -51.21888291 121.68303299 -54.81196594 121.66905212 C-56.32210266 121.64391541 -56.32210266 121.64391541 -57.86274719 121.61827087 C-60.50385517 121.78578383 -60.50385517 121.78578383 -62.37446594 123.23936462 C-63.82806132 125.49041858 -63.65681054 126.56355029 -63.18696594 129.16905212 C-62.84665344 131.05623962 -62.84665344 131.05623962 -62.49946594 132.98155212 C-60.87627615 133.34392475 -59.25083014 133.69620369 -57.62446594 134.04405212 C-56.71954407 134.24127869 -55.81462219 134.43850525 -54.88227844 134.64170837 C-52.48932469 135.21357369 -52.48932469 135.21357369 -50.49946594 133.98155212 C-50.82946594 136.95155212 -51.15946594 139.92155212 -51.49946594 142.98155212 C-67.35383487 140.0786395 -67.35383487 140.0786395 -73.12446594 136.23155212 C-75.1332818 132.94439891 -74.33951597 130.62176892 -73.49946594 126.98155212 C-74.48946594 126.98155212 -75.47946594 126.98155212 -76.49946594 126.98155212 C-76.82946594 128.30155212 -77.15946594 129.62155212 -77.49946594 130.98155212 C-79.80946594 128.67155212 -82.11946594 126.36155212 -84.49946594 123.98155212 C-83.01446594 123.48655212 -83.01446594 123.48655212 -81.49946594 122.98155212 C-81.49946594 121.66155212 -81.49946594 120.34155212 -81.49946594 118.98155212 C-83.04839539 119.38845276 -83.04839539 119.38845276 -84.62861633 119.80357361 C-88.49946594 119.98155212 -88.49946594 119.98155212 -91.49726868 117.89195251 C-92.49661916 116.89134392 -93.47438732 115.86885554 -94.43305969 114.82920837 C-94.95586014 114.29508835 -95.47866058 113.76096832 -96.01730347 113.21066284 C-97.67695619 111.50635258 -99.3066041 109.77635666 -100.93696594 108.04405212 C-102.05944297 106.88143461 -103.18377388 105.72060393 -104.31001282 104.56163025 C-107.06174406 101.72186266 -109.78689679 98.85873044 -112.49946594 95.98155212 C-112.0779425 95.49944275 -111.65641907 95.01733337 -111.22212219 94.52061462 C-110.67427063 93.888974 -110.12641907 93.25733337 -109.56196594 92.60655212 C-109.0166925 91.98006775 -108.47141907 91.35358337 -107.90962219 90.70811462 C-106.42987971 89.02522878 -106.42987971 89.02522878 -105.49946594 86.98155212 C-86.67942038 87.94510565 -86.67942038 87.94510565 -77.49946594 88.98155212 C-77.49946594 89.64155212 -77.49946594 90.30155212 -77.49946594 90.98155212 C-76.75180969 90.93514587 -76.00415344 90.88873962 -75.23384094 90.84092712 C-67.21790148 90.54714924 -67.21790148 90.54714924 -63.81196594 92.60655212 C-62.17150278 95.57500927 -62.19570738 97.64020792 -62.49946594 100.98155212 C-59.39393681 98.91119937 -58.7274139 98.34428438 -57.49946594 94.98155212 C-57.13295053 91.7871376 -57.13295053 91.7871376 -57.08540344 88.24717712 C-57.04673157 86.95166931 -57.00805969 85.6561615 -56.96821594 84.32139587 C-56.93676327 82.95811928 -56.90551587 81.59483795 -56.87446594 80.23155212 C-56.83626125 78.85262184 -56.79720807 77.47371479 -56.75727844 76.09483337 C-56.6629859 72.72387494 -56.57738374 69.35292234 -56.49946594 65.98155212 C-57.14705872 65.99170349 -57.79465149 66.00185486 -58.46186829 66.01231384 C-65.72441135 66.07553371 -72.88792808 65.69639158 -80.12446594 65.10655212 C-81.19180969 65.02791931 -82.25915344 64.9492865 -83.35884094 64.86827087 C-89.57854531 64.37161143 -95.44436854 63.49215294 -101.49946594 61.98155212 C-96.11309737 55.46918719 -90.22703348 49.47329886 -84.29243469 43.46592712 C-83.75754236 42.92446297 -83.22265003 42.38299881 -82.67154884 41.82512665 C-79.84411483 38.96530733 -77.01275275 36.1094333 -74.1789093 33.25596619 C-71.84801761 30.90721919 -69.52595677 28.55023905 -67.21113586 26.18565369 C-64.39707871 23.31121225 -61.56839433 20.45195429 -58.72883034 17.60271454 C-57.65646681 16.52183774 -56.58921069 15.4358668 -55.52744102 14.3445816 C-49.77218406 8.43792401 -44.85825145 3.50649663 -36.49946594 1.98155212 C-35.30998352 1.71246033 -34.1205011 1.44336853 -32.89497375 1.16612244 C-29.18126346 0.5118773 -25.46734308 -0.138236 -21.74946594 -0.76844788 C-20.43558881 -1.00370619 -19.12178611 -1.23938064 -17.80805969 -1.47547913 C-16.55638 -1.69075256 -15.30470032 -1.906026 -14.01509094 -2.12782288 C-12.88361633 -2.32343811 -11.75214172 -2.51905334 -10.58638 -2.72059631 C-6.08479364 -3.15494742 -3.58737203 -2.89698825 0 0 Z " fill="#E3DDDD" transform="translate(333.4994659423828,51.01844787597656)"/>
<path d="M0 0 C4.78286112 2.03674337 8.18319334 4.75562081 11.79003906 8.41772461 C12.33390259 8.95793747 12.87776611 9.49815033 13.43811035 10.05473328 C15.22140946 11.82997199 16.99368491 13.61577263 18.765625 15.40234375 C20.00728087 16.64451865 21.24945614 17.88617455 22.49212646 19.12733459 C25.08902419 21.72432184 27.68069407 24.32638104 30.26855469 26.93237305 C33.5844992 30.27103928 36.91144074 33.59848163 40.24213028 36.92243099 C42.80585096 39.48280987 45.36455722 42.0481515 47.92168427 44.61511421 C49.14675412 45.84403 50.37317142 47.07160409 51.60095978 48.29780388 C53.31481042 50.01128344 55.02201423 51.73111918 56.72753906 53.45288086 C57.2345636 53.95742798 57.74158813 54.4619751 58.26397705 54.98181152 C62.09707195 58.87327401 63.83046025 61.30460254 64.375 66.75 C64.00565464 76.47054869 56.81479435 82.95996415 50.3659668 89.43017578 C48.80965832 91.0028716 47.29135745 92.60700768 45.77148438 94.21484375 C37.54584307 102.67639892 37.54584307 102.67639892 32.26171875 102.8125 C30.08740234 102.51538086 30.08740234 102.51538086 28 102 C26.98993896 101.77679077 26.98993896 101.77679077 25.95947266 101.54907227 C24.62777282 101.22808097 23.30176516 100.88245201 21.98291016 100.51220703 C18.59770052 99.63777095 15.15799662 99.30777143 11.6875 98.9375 C10.5744751 98.81181641 10.5744751 98.81181641 9.43896484 98.68359375 C5.3384466 98.2274857 1.23717414 97.83725745 -2.875 97.5 C-17.78020134 96.21979866 -17.78020134 96.21979866 -20 94 C-21.53413912 93.83744095 -23.07345545 93.72348316 -24.61328125 93.62890625 C-31.26503458 93.07110047 -37.69867581 91.8327676 -44.20776367 90.37329102 C-45.53014421 90.08220096 -46.85547957 89.80423093 -48.18334961 89.53930664 C-59.00156316 87.37885475 -64.73394223 84.13245804 -71 75.125 C-72.41249657 70.71094821 -73.1377484 66.53813768 -72 62 C-67.70962975 55.06817141 -61.72144248 49.46124318 -55.96484375 43.76953125 C-54.99846552 42.80689488 -54.03253655 41.84380731 -53.06703186 40.8802948 C-50.54335168 38.36418613 -48.01372954 35.85413797 -45.48272705 33.34539795 C-42.91389318 30.79706037 -40.35073161 28.24303166 -37.78710938 25.68945312 C-33.23156185 21.15312278 -28.67054596 16.62233699 -24.10722351 12.09382629 C-22.39653307 10.39401201 -20.68908588 8.69115318 -18.98535156 6.984375 C-13.17206465 1.17394755 -8.47246139 -1.57139933 0 0 Z " fill="#D0D3D6" transform="translate(185,7)"/>
<path d="M0 0 C1.87426758 1.26832581 1.87426758 1.26832581 3.70703125 2.96313477 C4.39925781 3.60010284 5.09148437 4.23707092 5.8046875 4.89334106 C9.68881231 8.6206128 13.51807621 12.39629528 17.3125 16.21484375 C18.59398926 17.49845543 18.59398926 17.49845543 19.90136719 18.80799866 C22.60328862 21.51547381 25.30169359 24.22642254 28 26.9375 C29.84221577 28.78473675 31.68466143 30.63174427 33.52734375 32.47851562 C38.02089061 36.98303003 42.5115632 41.49039405 47 46 C44.21079846 48.87350383 41.53624977 51.51562515 38.1875 53.71875 C37.50429688 54.17636719 36.82109375 54.63398438 36.1171875 55.10546875 C34.70572917 56.03515625 33.29427083 56.96484375 31.8828125 57.89453125 C24.39667989 62.72816565 24.39667989 62.72816565 19.92578125 70.171875 C19.72339844 71.35265625 19.52101563 72.5334375 19.3125 73.75 C19.1993042 74.3881665 19.0861084 75.02633301 18.96948242 75.68383789 C17.65423082 83.40849418 16.81056829 91.20900835 16 99 C14.62908203 98.83564453 14.62908203 98.83564453 13.23046875 98.66796875 C8.48805415 98.10270019 3.74421724 97.54991435 -1 97 C-2.59062256 96.8153418 -2.59062256 96.8153418 -4.21337891 96.62695312 C-7.6834558 96.22627212 -11.15403602 95.83042119 -14.625 95.4375 C-16.36958496 95.23979004 -16.36958496 95.23979004 -18.14941406 95.03808594 C-25.58889236 94.21428644 -32.99353199 93.59130979 -40.47265625 93.30859375 C-43 93 -43 93 -45 91 C-44.34 91 -43.68 91 -43 91 C-43 89.35 -43 87.7 -43 86 C-41.02 85.505 -41.02 85.505 -39 85 C-38.67 83.68 -38.34 82.36 -38 81 C-38.804375 81.020625 -39.60875 81.04125 -40.4375 81.0625 C-43 81 -43 81 -44 80 C-44.04092937 77.66702567 -44.04241723 75.33294775 -44 73 C-43.18378174 73.39324463 -43.18378174 73.39324463 -42.35107422 73.79443359 C-39.86080524 74.99164775 -37.36794069 76.18335973 -34.875 77.375 C-34.0190625 77.7875 -33.163125 78.2 -32.28125 78.625 C-24.00499756 82.67853719 -24.00499756 82.67853719 -15 84 C-16.15113281 83.5771875 -17.30226563 83.154375 -18.48828125 82.71875 C-22.78088912 81.10795858 -26.98891293 79.34014629 -31.1875 77.5 C-31.87263672 77.20480469 -32.55777344 76.90960938 -33.26367188 76.60546875 C-37.01608905 74.96581774 -40.53586575 73.20628356 -44 71 C-43.85769192 69.58297487 -43.71099254 68.1663904 -43.5625 66.75 C-43.48128906 65.96109375 -43.40007812 65.1721875 -43.31640625 64.359375 C-43 62 -43 62 -42.4765625 59.93359375 C-41.26227719 55.00678041 -41.70416745 50.15369362 -42.94799805 45.30297852 C-44.20605938 40.13106075 -45.44711904 34.88645535 -42.96157837 29.92874146 C-39.31801703 24.84276571 -34.64337326 20.77268964 -30 16.625 C-28.64037746 15.33509338 -27.28486216 14.04084304 -25.93359375 12.7421875 C-10.21936096 -2.1306923 -10.21936096 -2.1306923 0 0 Z " fill="#F4EBE7" transform="translate(332,263)"/>
<path d="M0 0 C4.4616435 2.17532867 7.59457299 5.35721119 11 8.875 C11.50789063 9.39191406 12.01578125 9.90882813 12.5390625 10.44140625 C13.54555165 11.46596059 14.55014799 12.49237821 15.55273438 13.52075195 C17.68360686 15.69871355 19.84363206 17.84732447 22 20 C22.825 20.845625 23.65 21.69125 24.5 22.5625 C26.89390968 24.99456247 26.89390968 24.99456247 29.375 26.8125 C33.01784224 29.84820187 35.95406948 33.37818739 39 37 C39.51433594 37.61101562 40.02867188 38.22203125 40.55859375 38.8515625 C41.7113735 40.22967314 42.85661797 41.61408239 44 43 C42 46 42 46 39.375 46.6875 C38.199375 46.8421875 38.199375 46.8421875 37 47 C38.98 47.33 40.96 47.66 43 48 C44.11491267 51.34473801 43.80511271 53.60063522 43 57 C42.84313725 59.06004902 42.84313725 59.06004902 44 60.875 C45 63 45 63 45 67 C38.82389942 69.50171163 33.75962051 71.39762474 27 71 C24.9935269 71.29185063 22.99005807 71.61169599 21 72 C20.34 71.01 19.68 70.02 19 69 C18.731875 69.639375 18.46375 70.27875 18.1875 70.9375 C17 73 17 73 14 74 C7.52786312 74.88554576 1.12699717 75.08649762 -5.39453125 74.83984375 C-8.08459431 74.88461232 -8.08459431 74.88461232 -10.80078125 75.99609375 C-14.77428015 77.24296703 -18.24610504 77.22206263 -22.375 77.125 C-23.11105469 77.11597656 -23.84710938 77.10695313 -24.60546875 77.09765625 C-26.4037888 77.07430144 -28.20193911 77.03843836 -30 77 C-31.21392633 74.57214734 -31.18819573 72.8728367 -31.28125 70.16015625 C-31.31863281 69.17853516 -31.35601562 68.19691406 -31.39453125 67.18554688 C-31.42933594 66.15494141 -31.46414062 65.12433594 -31.5 64.0625 C-31.73995452 57.19713462 -32.10945238 50.3859288 -32.76416016 43.54711914 C-34.26426329 27.34569467 -34.26426329 27.34569467 -31.73046875 22.64453125 C-30.125 21 -30.125 21 -27 19 C-26.34 19 -25.68 19 -25 19 C-24.60361328 18.11574341 -24.60361328 18.11574341 -24.19921875 17.21362305 C-22.95647658 14.91966066 -21.65829818 13.41436609 -19.8125 11.58203125 C-19.19632813 10.96779297 -18.58015625 10.35355469 -17.9453125 9.72070312 C-16.98238281 8.77614258 -16.98238281 8.77614258 -16 7.8125 C-15.03707031 6.85053711 -15.03707031 6.85053711 -14.0546875 5.86914062 C-9.23241983 1.09227087 -7.12326479 -0.48293321 0 0 Z " fill="#E5E8EA" transform="translate(78,315)"/>
<path d="M0 0 C7.44306428 -0.02351654 14.88612456 -0.0411099 22.32921791 -0.05181217 C25.7880144 -0.0569573 29.24678488 -0.06389562 32.70556641 -0.07543945 C45.91518113 -0.11824167 59.12022729 -0.15939276 72.3203125 0.41015625 C73.58423325 0.46235573 73.58423325 0.46235573 74.87368774 0.51560974 C95.05912076 1.52956038 95.05912076 1.52956038 102 5 C102 7.31 102 9.62 102 12 C102.763125 12.144375 103.52625 12.28875 104.3125 12.4375 C107 13 107 13 110 14 C109.67 14.99 109.34 15.98 109 17 C106.36 17 103.72 17 101 17 C100.11910016 19.64269953 99.84605012 21.33380625 99.75390625 24.0546875 C99.70459961 25.22451172 99.70459961 25.22451172 99.65429688 26.41796875 C99.59339573 28.04804623 99.53606845 29.67826139 99.48242188 31.30859375 C99.44826172 32.09105469 99.41410156 32.87351562 99.37890625 33.6796875 C99.34132202 34.74292236 99.34132202 34.74292236 99.30297852 35.82763672 C98.58662693 40.96389489 96.40880091 43.9686769 92.7890625 47.57421875 C91.95632813 48.40630859 91.12359375 49.23839844 90.265625 50.09570312 C89.39421875 50.95099609 88.5228125 51.80628906 87.625 52.6875 C86.76132812 53.55439453 85.89765625 54.42128906 85.0078125 55.31445312 C76.01644398 64.22950602 76.01644398 64.22950602 69.75 64.5 C59.09438355 64.00973221 50.83121416 52.10596608 43.75 44.98046875 C42.4838454 43.71312037 41.21731907 42.44614328 39.95043945 41.17951965 C37.31166405 38.53918825 34.67625879 35.89555537 32.04345703 33.24926758 C28.66121543 29.84992378 25.27231417 26.45731407 21.88113403 23.06688976 C19.27300971 20.45849444 16.6674921 17.84750881 14.06286621 15.2356205 C12.81307226 13.98263734 11.5626655 12.73026513 10.31164551 11.47850609 C8.57371461 9.73842071 6.83910774 7.99509243 5.10546875 6.25073242 C4.58504501 5.73076187 4.06462128 5.21079132 3.52842712 4.67506409 C0 1.11448478 0 1.11448478 0 0 Z " fill="#CBD3D7" transform="translate(257,367)"/>
<path d="M0 0 C1.32 0.66 2.64 1.32 4 2 C4 5.3 4 8.6 4 12 C-2.28571429 14.42857143 -2.28571429 14.42857143 -6 13 C-6 13.66 -6 14.32 -6 15 C-1.38492226 16.04214691 -1.38492226 16.04214691 3 15 C3.66 15.33 4.32 15.66 5 16 C5 18.97 5 21.94 5 25 C4.34 25.33 3.68 25.66 3 26 C3.495 26.33 3.99 26.66 4.5 27 C6.88179561 30.17572747 6.19168226 33.10246066 6 37 C4.02 37.99 4.02 37.99 2 39 C3.98 39.66 5.96 40.32 8 41 C3.78876078 46.02506765 -0.60032268 50.75487571 -5.25 55.375 C-6.18585938 56.31666016 -6.18585938 56.31666016 -7.140625 57.27734375 C-7.73875 57.87417969 -8.336875 58.47101563 -8.953125 59.0859375 C-9.49098633 59.6226709 -10.02884766 60.1594043 -10.58300781 60.71240234 C-12.78894825 62.71690439 -14.11658098 63.01632134 -17.125 63.4375 C-24.88401423 62.56148226 -30.58658015 55.71675038 -35.90625 50.359375 C-36.51641968 49.75111877 -37.12658936 49.14286255 -37.75524902 48.51617432 C-39.02809033 47.24468162 -40.29845957 45.97070966 -41.56640625 44.69433594 C-43.51598293 42.73392828 -45.47616539 40.78457423 -47.4375 38.8359375 C-48.6777261 37.59439175 -49.91733272 36.3522268 -51.15625 35.109375 C-51.74361938 34.52605408 -52.33098877 33.94273315 -52.93615723 33.34173584 C-57 29.22998411 -57 29.22998411 -57 27 C-57.5775 26.7525 -58.155 26.505 -58.75 26.25 C-62.48597363 24.17445909 -64.64391315 22.06826056 -66 18 C-66.57142857 10.91428571 -66.57142857 10.91428571 -64.125 7 C-62 5 -62 5 -60 5 C-59.34 5.66 -58.68 6.32 -58 7 C-57.34 6.01 -56.68 5.02 -56 4 C-53.8359375 3.70703125 -53.8359375 3.70703125 -51.375 3.8125 C-50.55773438 3.83957031 -49.74046875 3.86664063 -48.8984375 3.89453125 C-48.27195312 3.92933594 -47.64546875 3.96414062 -47 4 C-47 5.98 -47 7.96 -47 10 C-46.34 10 -45.68 10 -45 10 C-45.020625 9.030625 -45.04125 8.06125 -45.0625 7.0625 C-45 4 -45 4 -44 3 C-36.49681529 1.66878981 -36.49681529 1.66878981 -33 4 C-32.67 3.34 -32.34 2.68 -32 2 C-30.0390625 1.5859375 -30.0390625 1.5859375 -27.625 1.375 C-26.83351562 1.30023438 -26.04203125 1.22546875 -25.2265625 1.1484375 C-23.48753275 1.03250218 -21.74288998 1 -20 1 C-19.34 0.67 -18.68 0.34 -18 0 C-15.43212365 -0.06940206 -12.88037682 0.00278193 -10.3125 0.0625 C-0.87527352 -0.19256018 -0.87527352 -0.19256018 0 0 Z " fill="#E1E4E6" transform="translate(101,151)"/>
<path d="M0 0 C0.99 0 1.98 0 3 0 C2.97172119 0.92135742 2.97172119 0.92135742 2.94287109 1.86132812 C2.79337637 10.84415406 3.81390238 19.65433613 4.86914062 28.56054688 C5.10237113 30.54964279 5.32094587 32.54044008 5.5390625 34.53125 C5.67521973 35.70236328 5.81137695 36.87347656 5.95166016 38.08007812 C6 41 6 41 4 44 C4.82828356 46.43099487 4.82828356 46.43099487 6 49 C7.06177163 55.61103089 7.12526622 62.31913481 7 69 C6.79420664 71.9429245 6.79420664 71.9429245 7.984375 74.1796875 C9.30323048 77.8420477 9.29195909 81.28574351 9.25 85.125 C9.26160156 86.19814453 9.26160156 86.19814453 9.2734375 87.29296875 C9.25933736 91.06475618 9.14079147 92.78881279 7 96 C7.66 96 8.32 96 9 96 C9.33 97.32 9.66 98.64 10 100 C6.43918358 98.48461602 4.15353526 96.40138177 1.4309082 93.67382812 C0.53350418 92.77950073 -0.36389984 91.88517334 -1.28849792 90.96374512 C-2.25891947 89.9864267 -3.22915536 89.00892391 -4.19921875 88.03125 C-5.19965224 87.02962385 -6.20045628 86.02836769 -7.20161438 85.02746582 C-9.29515833 82.93236007 -11.38530618 80.83394406 -13.47290039 78.73291016 C-16.15121095 76.0375773 -18.83609022 73.34890711 -21.52330303 70.6624527 C-23.58846655 68.59701758 -25.65101597 66.52898897 -27.71268654 64.46006775 C-28.70208477 63.46748438 -29.69209245 62.47550813 -30.68271446 61.48414612 C-32.064029 60.10066827 -33.44165245 58.71350805 -34.8190918 57.32617188 C-35.60422653 56.53722534 -36.38936127 55.74827881 -37.19828796 54.9354248 C-40.54902839 51.33601157 -40.33581614 48.21600417 -40.28125 43.46875 C-39.88001079 39.94676139 -38.54535061 38.40776409 -36 36 C-35.195625 35.175 -34.39125 34.35 -33.5625 33.5 C-32.716875 32.675 -31.87125 31.85 -31 31 C-29.7934375 29.7625 -29.7934375 29.7625 -28.5625 28.5 C-25.82874288 25.83291988 -22.93322554 23.44435462 -20 21 C-18.31288577 19.3540349 -16.6454378 17.68762851 -15 16 C-14.175 15.195625 -13.35 14.39125 -12.5 13.5625 C-10.63018995 11.6459447 -8.97758153 9.76763118 -7.3125 7.6875 C-6.549375 6.800625 -5.78625 5.91375 -5 5 C-4.34 5 -3.68 5 -3 5 C-2.690625 4.360625 -2.38125 3.72125 -2.0625 3.0625 C-1 1 -1 1 0 0 Z " fill="#E2EAEB" transform="translate(108,221)"/>
<path d="M0 0 C4.77636699 3.98534941 9.2858377 8.14481945 13.66967773 12.55615234 C14.29492844 13.18125702 14.92017914 13.80636169 15.56437683 14.45040894 C17.60649851 16.49322079 19.64506673 18.53953907 21.68359375 20.5859375 C23.10826572 22.01247683 24.53316032 23.43879384 25.95826721 24.86489868 C29.69060687 28.60103845 33.41993237 32.34017262 37.14862061 36.07995605 C40.96118329 39.90278697 44.77661322 43.72275387 48.59179688 47.54296875 C56.06399371 55.02585867 63.53300678 62.51191776 71 70 C69.63016497 73.16115776 69.0109362 73.9927092 66 76 C63.41114829 76.29991069 60.90850918 76.50865225 58.3125 76.625 C57.61060547 76.66367188 56.90871094 76.70234375 56.18554688 76.7421875 C54.45745345 76.8362334 52.72876325 76.9191968 51 77 C51.56545837 73.04179141 52.80902348 70.3340947 55 67 C53.82308594 66.95101562 52.64617187 66.90203125 51.43359375 66.8515625 C41.92374387 66.43159378 32.4269381 65.87928266 22.9375 65.125 C22.01187256 65.05877441 21.08624512 64.99254883 20.13256836 64.92431641 C4.37628769 63.60272191 4.37628769 63.60272191 -0.62139893 59.75009155 C-2.4514943 57.42684191 -2.37442055 56.02750084 -2.37231445 53.08886719 C-2.37854324 52.09062927 -2.38477203 51.09239136 -2.39118958 50.06390381 C-2.38197983 48.9857843 -2.37277008 47.90766479 -2.36328125 46.796875 C-2.36377975 45.68572327 -2.36427826 44.57457153 -2.36479187 43.42974854 C-2.3624495 41.07603165 -2.3527115 38.72231235 -2.33618164 36.36865234 C-2.31268383 32.77809018 -2.31560811 29.18827528 -2.32226562 25.59765625 C-2.31668556 23.30989143 -2.30957363 21.02212973 -2.30078125 18.734375 C-2.30169266 17.66435242 -2.30260406 16.59432983 -2.30354309 15.49188232 C-2.25119341 9.94032758 -1.85988877 5.24415515 0 0 Z " fill="#F0F6F7" transform="translate(194,163)"/>
<path d="M0 0 C5.21174335 8.52830729 8.50501296 17.68003457 12 27 C12.55792653 28.46900358 13.11649901 29.93776203 13.67578125 31.40625 C16.26370957 38.22452164 18.76778888 45.05534317 21 52 C19.47048974 53.52951026 18.06639586 53.3539351 15.9375 53.5 C11.95183029 53.41254329 10.12517763 52.70340089 7.21875 49.98999023 C6.52966553 49.35221649 5.84058105 48.71444275 5.13061523 48.05734253 C4.42751221 47.37841949 3.72440918 46.69949646 3 46 C2.32203369 45.34581085 1.64406738 44.6916217 0.94555664 44.01760864 C-1.19971027 41.91539279 -3.32120988 39.79152699 -5.4375 37.66015625 C-6.20304199 36.89319931 -6.96858398 36.12624237 -7.75732422 35.33604431 C-10.17393197 32.91389119 -12.58701726 30.48826388 -15 28.0625 C-16.64950686 26.40797107 -18.29924429 24.75367198 -19.94921875 23.09960938 C-23.96881371 19.06905798 -27.98553169 15.03565728 -32 11 C-27.87801683 6.87801683 -21.35738437 5.21257614 -16 3 C-15.20078125 2.65066406 -14.4015625 2.30132812 -13.578125 1.94140625 C-8.81621106 -0.04907378 -5.06604841 -0.27139545 0 0 Z " fill="#C9CED3" transform="translate(203,409)"/>
<path d="M0 0 C18.82004556 0.96355353 18.82004556 0.96355353 28 2 C28 2.66 28 3.32 28 4 C28.74765625 3.95359375 29.4953125 3.9071875 30.265625 3.859375 C38.2708621 3.56598935 38.2708621 3.56598935 41.625 5.5625 C43.38829012 8.68833249 43.72671902 11.44734731 44 15 C43.34 15.33 42.68 15.66 42 16 C41.505 14.515 41.505 14.515 41 13 C40.91363281 13.78761719 40.82726562 14.57523438 40.73828125 15.38671875 C39.69558929 23.46997296 38.29539573 31.94090004 34 39 C31.33203125 39.859375 31.33203125 39.859375 29 40 C28.67 41.32 28.34 42.64 28 44 C24.535 40.535 24.535 40.535 21 37 C22.485 36.505 22.485 36.505 24 36 C24 34.68 24 33.36 24 32 C22.96738037 32.27126709 21.93476074 32.54253418 20.87084961 32.82202148 C17 33 17 33 14.00219727 30.91040039 C13.00284678 29.90979179 12.02507863 28.88730341 11.06640625 27.84765625 C10.5436058 27.31353622 10.02080536 26.7794162 9.48216248 26.22911072 C7.82250975 24.52480045 6.19286184 22.79480454 4.5625 21.0625 C3.44002298 19.89988249 2.31569206 18.73905181 1.18945312 17.58007812 C-1.56227812 14.74031053 -4.28743085 11.87717832 -7 9 C-6.57847656 8.51789063 -6.15695313 8.03578125 -5.72265625 7.5390625 C-5.17480469 6.90742188 -4.62695312 6.27578125 -4.0625 5.625 C-3.51722656 4.99851563 -2.97195312 4.37203125 -2.41015625 3.7265625 C-0.93041376 2.04367666 -0.93041376 2.04367666 0 0 Z " fill="#D8E0E3" transform="translate(228,138)"/>
<path d="M0 0 C2.93230193 1.32120828 4.98664899 2.74638197 7.234375 5.0390625 C7.80800781 5.61914062 8.38164062 6.19921875 8.97265625 6.796875 C9.85244141 7.70179687 9.85244141 7.70179687 10.75 8.625 C11.35199219 9.23601562 11.95398438 9.84703125 12.57421875 10.4765625 C14.05405305 11.97988624 15.52764676 13.48934856 17 15 C15.34788061 19.4633173 13.18875815 23.56966733 10.9375 27.75 C10.57333984 28.43449219 10.20917969 29.11898437 9.83398438 29.82421875 C7.13267924 34.86732076 7.13267924 34.86732076 6 36 C4.29664348 36.10024195 2.58911491 36.13081415 0.8828125 36.1328125 C-0.72811279 36.13571289 -0.72811279 36.13571289 -2.37158203 36.13867188 C-4.10577393 36.1319043 -4.10577393 36.1319043 -5.875 36.125 C-7.04272949 36.12306641 -8.21045898 36.12113281 -9.41357422 36.11914062 C-19.29977848 36.07047341 -29.13779923 35.6654015 -39 35 C-40.125 27.375 -40.125 27.375 -39 24 C-38.05125 23.9175 -37.1025 23.835 -36.125 23.75 C-25.79067393 22.2029452 -16.82383093 16.24689336 -8 11 C-7.07445312 10.51015625 -6.14890625 10.0203125 -5.1953125 9.515625 C-2.6713565 7.77310734 -2.086994 6.70034917 -1.1875 3.8125 C-0.795625 2.554375 -0.40375 1.29625 0 0 Z " fill="#D3D9DC" transform="translate(364,84)"/>
<path d="M0 0 C0 15.51 0 31.02 0 47 C-7.0228125 46.566875 -7.0228125 46.566875 -14.1875 46.125 C-16.35928833 45.99569092 -16.35928833 45.99569092 -18.57495117 45.86376953 C-26.8075879 45.33458054 -34.87203242 44.41378584 -43 43 C-41.55662966 39.69805109 -39.76269557 37.50982507 -37.22460938 34.96582031 C-36.45040649 34.18531311 -35.67620361 33.40480591 -34.87854004 32.60064697 C-34.04205933 31.76821472 -33.20557861 30.93578247 -32.34375 30.078125 C-31.48567749 29.21813904 -30.62760498 28.35815308 -29.74353027 27.47210693 C-27.93027533 25.65749174 -26.11449519 23.84539684 -24.29638672 22.03564453 C-21.50385862 19.25384379 -18.72217542 16.46151855 -15.94140625 13.66796875 C-14.18032867 11.90821228 -12.41863106 10.14907605 -10.65625 8.390625 C-9.40152893 7.12983124 -9.40152893 7.12983124 -8.12145996 5.84356689 C-7.34725708 5.07566833 -6.5730542 4.30776978 -5.77539062 3.51660156 C-5.09303345 2.83583557 -4.41067627 2.15506958 -3.7076416 1.45367432 C-2 0 -2 0 0 0 Z " fill="#C9D0D4" transform="translate(277,69)"/>
<path d="M0 0 C7 0 7 0 9.51219177 1.67041016 C10.66135826 2.84289307 10.66135826 2.84289307 11.83374023 4.0390625 C12.7141246 4.91997559 13.59450897 5.80088867 14.50157166 6.70849609 C15.43762929 7.68029472 16.37329432 8.65247163 17.30859375 9.625 C18.28354042 10.61301244 19.26005166 11.59948322 20.23805237 12.58447266 C22.8003161 15.17338494 25.34085905 17.78262277 27.87738037 20.39672852 C30.47246819 23.06359471 33.0876404 25.71060335 35.70117188 28.359375 C40.82059709 33.55373494 45.91722905 38.76974102 51 44 C49.63016497 47.16115776 49.0109362 47.9927092 46 50 C43.41114829 50.29991069 40.90850918 50.50865225 38.3125 50.625 C37.61060547 50.66367188 36.90871094 50.70234375 36.18554688 50.7421875 C34.45745345 50.8362334 32.72876325 50.9191968 31 51 C31.56545837 47.04179141 32.80902348 44.3340947 35 41 C33.71867187 40.93941406 32.43734375 40.87882812 31.1171875 40.81640625 C1.38797565 39.38797565 1.38797565 39.38797565 0 38 C-0.07179964 36.48071962 -0.08392007 34.95832518 -0.0625 33.4375 C-0.05347656 32.61121094 -0.04445312 31.78492188 -0.03515625 30.93359375 C-0.02355469 30.29550781 -0.01195312 29.65742188 0 29 C2.31243792 28.97314588 4.6249627 28.95367159 6.9375 28.9375 C8.22527344 28.92589844 9.51304687 28.91429687 10.83984375 28.90234375 C14 29 14 29 15 30 C16.34747084 30.23075082 17.70377565 30.41153063 19.0625 30.5625 C20.361875 30.706875 21.66125 30.85125 23 31 C23.33 28.03 23.66 25.06 24 22 C23.14535156 22.01160156 22.29070312 22.02320313 21.41015625 22.03515625 C20.30542969 22.04417969 19.20070312 22.05320313 18.0625 22.0625 C16.96035156 22.07410156 15.85820312 22.08570313 14.72265625 22.09765625 C12 22 12 22 11 21 C9.15400312 20.60545777 7.29774178 20.25823134 5.4375 19.9375 C3.643125 19.628125 1.84875 19.31875 0 19 C0 12.73 0 6.46 0 0 Z " fill="#D8E0E3" transform="translate(214,189)"/>
<path d="M0 0 C4.4616435 2.17532867 7.59457299 5.35721119 11 8.875 C11.50789063 9.39191406 12.01578125 9.90882813 12.5390625 10.44140625 C13.54617076 11.46659081 14.55014161 12.49486792 15.55078125 13.52636719 C16.92353371 14.92224554 18.33583285 16.27890816 19.75 17.6328125 C21.74497741 19.73169499 22.91873104 21.34597619 24 24 C23.07767578 24.07347656 23.07767578 24.07347656 22.13671875 24.1484375 C21.32847656 24.22320312 20.52023438 24.29796875 19.6875 24.375 C18.88699219 24.44460938 18.08648437 24.51421875 17.26171875 24.5859375 C14.72775559 24.89564426 14.72775559 24.89564426 12 27 C9.66015625 26.94140625 9.66015625 26.94140625 7.0625 26.5625 C3.64742115 26.07315989 1.30857327 26.08500379 -2 27 C-3.41534778 27.06456879 -4.83337689 27.08611039 -6.25 27.0625 C-8.10625 27.0315625 -8.10625 27.0315625 -10 27 C-10 26.01 -10 25.02 -10 24 C-10.66 24 -11.32 24 -12 24 C-12.33 25.32 -12.66 26.64 -13 28 C-16.3 28 -19.6 28 -23 28 C-23.94060834 22.54447161 -24.35376258 19.18985356 -22 14 C-20.01395734 11.53303542 -17.79246233 9.36807426 -15.5 7.1875 C-14.90574219 6.60291016 -14.31148437 6.01832031 -13.69921875 5.41601562 C-9.03786933 0.87567189 -6.82415145 -0.46265434 0 0 Z " fill="#DFE2E4" transform="translate(78,315)"/>
<path d="M0 0 C3.3 0 6.6 0 10 0 C10.125 6.75 10.125 6.75 9 9 C6.41682273 9.39465208 3.85811719 9.50806152 1.25 9.65625 C0.5075 9.7696875 -0.235 9.883125 -1 10 C-2.20244106 12.40488211 -2.06862279 13.89050031 -2 16.5625 C-1.96214574 18.04118221 -1.95370827 19.52155788 -2 21 C-3 22 -3 22 -5.06640625 22.09765625 C-5.89011719 22.08605469 -6.71382812 22.07445312 -7.5625 22.0625 C-8.38878906 22.05347656 -9.21507813 22.04445313 -10.06640625 22.03515625 C-11.02353516 22.01775391 -11.02353516 22.01775391 -12 22 C-12.33 21.34 -12.66 20.68 -13 20 C-13.66 20.99 -14.32 21.98 -15 23 C-17.3125 23.58203125 -17.3125 23.58203125 -20 23.8125 C-20.886875 23.90144531 -21.77375 23.99039062 -22.6875 24.08203125 C-25 24 -25 24 -27 22 C-27.33 22.66 -27.66 23.32 -28 24 C-30.25 24.44921875 -30.25 24.44921875 -33 24.6875 C-33.9075 24.77386719 -34.815 24.86023438 -35.75 24.94921875 C-36.86375 24.97435547 -36.86375 24.97435547 -38 25 C-39 24 -39 24 -39.0625 20.4375 C-39.041875 19.303125 -39.02125 18.16875 -39 17 C-37.02 16.34 -35.04 15.68 -33 15 C-34.98 14.34 -36.96 13.68 -39 13 C-39 10.03 -39 7.06 -39 4 C-38.19175781 4.01160156 -37.38351563 4.02320313 -36.55078125 4.03515625 C-35.48214844 4.04417969 -34.41351563 4.05320312 -33.3125 4.0625 C-31.72888672 4.07990234 -31.72888672 4.07990234 -30.11328125 4.09765625 C-27.2673522 4.0083862 -24.77406747 3.58943086 -22 3 C-20.88625 3.020625 -19.7725 3.04125 -18.625 3.0625 C-14.74263051 2.99556259 -11.71225041 2.07992739 -8 1 C-4.5625 0.875 -4.5625 0.875 -2 1 C-2 1.99 -2 2.98 -2 4 C-1.34 4 -0.68 4 0 4 C0 2.68 0 1.36 0 0 Z " fill="#E0E3E6" transform="translate(95,342)"/>
<path d="M0 0 C1.73488738 1.46198375 3.46012621 2.93279272 5.171875 4.421875 C6.58883434 5.64506212 8.03830192 6.83064153 9.5 8 C11 10 11 10 10.75 13.25 C10.5025 14.1575 10.255 15.065 10 16 C10.66 16 11.32 16 12 16 C12 17.32 12 18.64 12 20 C10.02 20 8.04 20 6 20 C6 21.65 6 23.3 6 25 C7.98 25.33 9.96 25.66 12 26 C12 32.6 12 39.2 12 46 C10.35 46 8.7 46 7 46 C7 48.64 7 51.28 7 54 C8.65 54.33 10.3 54.66 12 55 C10.79618552 57.49361571 9.54571278 59.68143083 8 62 C1.53936891 61.3905065 1.53936891 61.3905065 -0.7071991 59.76397705 C-2.42018881 57.42666855 -2.37438155 55.97307413 -2.37231445 53.08886719 C-2.37854324 52.09062927 -2.38477203 51.09239136 -2.39118958 50.06390381 C-2.38197983 48.9857843 -2.37277008 47.90766479 -2.36328125 46.796875 C-2.36377975 45.68572327 -2.36427826 44.57457153 -2.36479187 43.42974854 C-2.3624495 41.07603165 -2.3527115 38.72231235 -2.33618164 36.36865234 C-2.31268383 32.77809018 -2.31560811 29.18827528 -2.32226562 25.59765625 C-2.31668556 23.30989143 -2.30957363 21.02212973 -2.30078125 18.734375 C-2.30169266 17.66435242 -2.30260406 16.59432983 -2.30354309 15.49188232 C-2.25119341 9.94032758 -1.85988877 5.24415515 0 0 Z " fill="#D7DCDF" transform="translate(194,163)"/>
<path d="M0 0 C1.46009773 11.99264741 2.45789059 23.93093265 3 36 C-3.0546875 36.1953125 -3.0546875 36.1953125 -5 36 C-8.106467 32.893533 -8.69089782 29.16532512 -10 25 C-13.63 25 -17.26 25 -21 25 C-21.61403509 14.80701754 -21.61403509 14.80701754 -18.8125 11.125 C-17.884375 10.42375 -16.95625 9.7225 -16 9 C-15.175 8.13375 -14.35 7.2675 -13.5 6.375 C-9.50810142 2.58269635 -5.63068094 0 0 0 Z " fill="#CFD5D9" transform="translate(109,228)"/>
<path d="M0 0 C4.30619632 2.23590963 7.26400997 4.40473228 9 9 C9.29550708 13.83557036 8.65509528 17.69161116 5.5625 21.5 C1.80505347 25.16580149 -0.5856788 25.40503261 -5.67578125 25.34765625 C-9.69373153 24.74665192 -11.28247364 22.98265089 -14 20 C-16.07398081 16.32339766 -16.51233197 13.1840444 -16 9 C-12.26055342 1.9366009 -8.07493992 -0.99165929 0 0 Z " fill="#1E3E7E" transform="translate(449,132)"/>
<path d="M0 0 C4.30619632 2.23590963 7.26400997 4.40473228 9 9 C9.19923841 13.55757856 8.59308006 17.00447276 6.25 20.9375 C3.29399063 23.64717526 1.15786939 24.96491269 -2.921875 25.03125 C-7.69465198 24.67239459 -10.62133818 23.57740664 -14 20 C-16.03969799 16.30911793 -16.51184637 13.18007873 -16 9 C-12.26055342 1.9366009 -8.07493992 -0.99165929 0 0 Z " fill="#8DB9F8" transform="translate(67,67)"/>
<path d="M0 0 C4.16582596 2.08291298 6.91033305 4.61340361 10.125 7.875 C10.66253906 8.40480469 11.20007813 8.93460937 11.75390625 9.48046875 C17.67870575 15.43481838 17.67870575 15.43481838 18.2578125 20.05834961 C17.80850735 27.35377676 14.21677457 30.78045665 9 35.5625 C8.24976563 36.28501953 7.49953125 37.00753906 6.7265625 37.75195312 C1.2252986 43 1.2252986 43 0 43 C0 28.81 0 14.62 0 0 Z " fill="#D2D7DA" transform="translate(249,393)"/>
<path d="M0 0 C0.87269531 0.02578125 1.74539062 0.0515625 2.64453125 0.078125 C7.62659094 0.37157965 12.5948959 0.77201748 17.5625 1.25 C17.5625 1.91 17.5625 2.57 17.5625 3.25 C13.1075 3.745 13.1075 3.745 8.5625 4.25 C8.70283111 6.22956441 8.8499123 8.20865141 9 10.1875 C9.08121094 11.28964844 9.16242188 12.39179688 9.24609375 13.52734375 C9.26668084 16.16109903 9.26668084 16.16109903 10.5625 17.25 C13.56581018 17.39193337 16.55467134 17.29236378 19.5625 17.25 C20.2225 13.95 20.8825 10.65 21.5625 7.25 C21.8925 7.25 22.2225 7.25 22.5625 7.25 C23.0575 13.685 23.0575 13.685 23.5625 20.25 C22.5725 20.91 21.5825 21.57 20.5625 22.25 C19.9025 21.92 19.2425 21.59 18.5625 21.25 C17.02226004 21.18049459 15.47915012 21.16547643 13.9375 21.1875 C13.12023437 21.19652344 12.30296875 21.20554688 11.4609375 21.21484375 C10.83445313 21.22644531 10.20796875 21.23804688 9.5625 21.25 C9.5625 22.57 9.5625 23.89 9.5625 25.25 C11.8725 25.91 14.1825 26.57 16.5625 27.25 C16.5625 27.58 16.5625 27.91 16.5625 28.25 C13.4149915 28.76977205 11.61571835 28.97194325 8.5625 28.25 C4.96166438 25.66171217 2.06080423 22.50223227 -0.9375 19.25 C-1.75992188 18.39148438 -2.58234375 17.53296875 -3.4296875 16.6484375 C-5.45154641 14.53253864 -7.45239355 12.40032017 -9.4375 10.25 C-6.86802525 -0.22555091 -6.86802525 -0.22555091 0 0 Z " fill="#CFD7DB" transform="translate(233.4375,139.75)"/>
<path d="M0 0 C3.70390021 2.02666238 5.65363011 3.48044516 8 7 C8.48692434 11.30116499 8.28241006 13.48387126 6.1875 17.3125 C4 20 4 20 1 22 C-3.86202761 22.3550919 -7.20438191 21.6464397 -11 18.5625 C-14.15604307 14.51881981 -14.43686714 12.15503224 -14 7 C-10.24882221 1.17920688 -6.92075169 -0.70380526 0 0 Z " fill="#8EBAF8" transform="translate(277,430)"/>
<path d="M0 0 C5.27002208 4.39168507 10.35302051 8.9426379 15 14 C15 14.33 15 14.66 15 15 C13.02 15 11.04 15 9 15 C9 21.6 9 28.2 9 35 C5 36 5 36 1 35 C1 28.4 1 21.8 1 15 C-1.97 14.505 -1.97 14.505 -5 14 C-5 12.35 -5 10.7 -5 9 C-3.02 9 -1.04 9 1 9 C1 7.68 1 6.36 1 5 C0.34 5 -0.32 5 -1 5 C-0.67 3.35 -0.34 1.7 0 0 Z " fill="#D5FDFE" transform="translate(205,174)"/>
<path d="M0 0 C2.9485616 2.43029907 5.5658211 5.05438457 8 8 C8 8.33 8 8.66 8 9 C7.14003418 9.11275269 7.14003418 9.11275269 6.26269531 9.2277832 C-8.42877635 11.13034577 -8.42877635 11.13034577 -22.8203125 14.546875 C-25 15 -25 15 -28 14 C-25.80856094 11.69166021 -23.59416275 9.40667438 -21.375 7.125 C-20.75753906 6.47402344 -20.14007813 5.82304688 -19.50390625 5.15234375 C-13.74492715 -0.72787701 -8.09373617 -4.01677985 0 0 Z " fill="#EAE2E1" transform="translate(320,38)"/>
<path d="M0 0 C8.0862069 6.93103448 8.0862069 6.93103448 11.3125 10.125 C11.96863281 10.76695312 12.62476563 11.40890625 13.30078125 12.0703125 C15.93420373 15.06091182 16.9480287 17.13381174 17.1875 21.125 C17 24 17 24 16 26 C14.68 26 13.36 26 12 26 C12 22.7 12 19.4 12 16 C11.34 16 10.68 16 10 16 C10 18.31 10 20.62 10 23 C9.01 22.67 8.02 22.34 7 22 C7 20.35 7 18.7 7 17 C6.34 17 5.68 17 5 17 C5 18.32 5 19.64 5 21 C3.68 20.67 2.36 20.34 1 20 C1 20.66 1 21.32 1 22 C2.32 22.66 3.64 23.32 5 24 C4.34 24 3.68 24 3 24 C2.67 24.66 2.34 25.32 2 26 C2 25.01 2 24.02 2 23 C1.34 23 0.68 23 0 23 C0 15.41 0 7.82 0 0 Z " fill="#CDD3D7" transform="translate(250,393)"/>
<path d="M0 0 C0.33 0 0.66 0 1 0 C1.66 8.91 2.32 17.82 3 27 C2.34 25.68 1.68 24.36 1 23 C-0.05978933 21.71387324 -0.05978933 21.71387324 -2.50390625 21.90234375 C-3.51324219 21.91394531 -4.52257812 21.92554688 -5.5625 21.9375 C-6.57441406 21.94652344 -7.58632812 21.95554688 -8.62890625 21.96484375 C-9.41136719 21.97644531 -10.19382812 21.98804688 -11 22 C-11.78553616 12.03241895 -11.78553616 12.03241895 -8.8125 8.125 C-7.884375 7.42375 -6.95625 6.7225 -6 6 C-5.0925 5.0925 -4.185 4.185 -3.25 3.25 C-1.625 1.625 -1.625 1.625 0 0 Z " fill="#E0E4E5" transform="translate(99,231)"/>
<path d="M0 0 C4.14822958 0.8642145 5.60540961 2.14195943 8 5.625 C8.32575603 8.5118724 7.96988093 10.89277446 7 13.625 C4.79003464 16.2442182 3.42877241 16.55201746 0.0625 17.125 C-4.11411135 16.44310427 -5.50915752 14.99496335 -8 11.625 C-8.625 8.625 -8.625 8.625 -8 5.625 C-5.54405875 2.30225596 -4.0743356 0.84881992 0 0 Z " fill="#254381" transform="translate(31,291.375)"/>
<path d="M0 0 C1 1 1 1 1.09765625 2.84765625 C1.06510417 4.8984375 1.03255208 6.94921875 1 9 C-4.20173095 9.86809439 -9.16978816 10.12515348 -14.4375 10.0625 C-15.16904297 10.05798828 -15.90058594 10.05347656 -16.65429688 10.04882812 C-18.43623419 10.03718148 -20.21812863 10.01925191 -22 10 C-22 7.69 -22 5.38 -22 3 C-14.46772223 0.78462419 -7.87486688 -0.49582495 0 0 Z " fill="#CDD4D8" transform="translate(94,378)"/>
<path d="M0 0 C0 3 0 3 0 3 Z M-2 3 C-0.77618944 6.67143168 -1.40368842 8.19003607 -2.4375 11.875 C-3.64001908 16.03888557 -3.64001908 16.03888557 -3.91015625 20.3203125 C-4.02264269 23.67534294 -5.05195105 26.32695689 -6.16259766 29.47607422 C-7.63956401 33.9276422 -8.63550717 38.49538912 -9.6875 43.0625 C-9.91244141 44.02349609 -10.13738281 44.98449219 -10.36914062 45.97460938 C-10.91652639 48.31555702 -11.46007241 50.65732308 -12 53 C-12.99 52.67 -13.98 52.34 -15 52 C-14.52209564 47.69886073 -13.67522754 43.77605792 -12.4375 39.625 C-10.95240727 34.37284278 -9.44040951 28.11918098 -12 23 C-11.37867808 20.49991895 -10.68399266 18.12610144 -9.875 15.6875 C-9.67390625 15.02298828 -9.4728125 14.35847656 -9.265625 13.67382812 C-7.7069283 8.92731498 -5.76900119 6.28042696 -2 3 Z " fill="#EAE1E0" transform="translate(381,210)"/>
<path d="M0 0 C2.97 0 5.94 0 9 0 C9.90238747 2.70716242 10.11851302 4.23776768 10.09765625 7.01171875 C10.09443359 7.76904297 10.09121094 8.52636719 10.08789062 9.30664062 C10.07951172 10.09232422 10.07113281 10.87800781 10.0625 11.6875 C10.05798828 12.48478516 10.05347656 13.28207031 10.04882812 14.10351562 C10.0370585 16.06904257 10.01912348 18.03453085 10 20 C6.55886077 20.31283084 4.60638595 20.38150109 1.640625 18.515625 C-0.65453146 14.9963851 -0.43593217 11.79760032 -0.25 7.75 C-0.23195313 7.00492187 -0.21390625 6.25984375 -0.1953125 5.4921875 C-0.14835649 3.66090299 -0.07661652 1.83028351 0 0 Z " fill="#CED5D8" transform="translate(105,294)"/>
<path d="M0 0 C0 6.93 0 13.86 0 21 C-3.3 21 -6.6 21 -10 21 C-10.91436875 15.69666123 -11.52688483 11.9484828 -9 7 C-3.09330629 0 -3.09330629 0 0 0 Z " fill="#CFD5D9" transform="translate(65,322)"/>
<path d="M0 0 C2.97 0 5.94 0 9 0 C9.95891957 3.83567829 10.10177189 6.82281141 10.0625 10.75 C10.05347656 11.92046875 10.04445313 13.0909375 10.03515625 14.296875 C10.02355469 15.18890625 10.01195313 16.0809375 10 17 C7.03 17.66 4.06 18.32 1 19 C0.15976812 14.64667264 -0.10770995 10.55557481 -0.0625 6.125 C-0.05347656 4.97257813 -0.04445313 3.82015625 -0.03515625 2.6328125 C-0.02355469 1.76398438 -0.01195313 0.89515625 0 0 Z " fill="#CED4D8" transform="translate(82,153)"/>
<path d="M0 0 C8.86189258 7.59590793 8.86189258 7.59590793 9.375 12.8125 C9.2506804 18.01479704 6.6957762 21.04333515 3.375 24.875 C2 26 2 26 0 26 C0 17.42 0 8.84 0 0 Z " fill="#E9E4E1" transform="translate(285,254)"/>
<path d="M0 0 C1.02104551 0.97850195 2.0206121 1.97980427 3 3 C3 3.33 3 3.66 3 4 C-0.3 4.33 -3.6 4.66 -7 5 C-6.505 7.475 -6.505 7.475 -6 10 C-8.475 9.505 -8.475 9.505 -11 9 C-10.34 8.67 -9.68 8.34 -9 8 C-9 7.34 -9 6.68 -9 6 C-14.94 6.495 -14.94 6.495 -21 7 C-21.33 7.99 -21.66 8.98 -22 10 C-22 9.34 -22 8.68 -22 8 C-27.94 8.495 -27.94 8.495 -34 9 C-34.33 10.32 -34.66 11.64 -35 13 C-35 11.68 -35 10.36 -35 9 C-37.97 8.505 -37.97 8.505 -41 8 C-40.360625 7.566875 -39.72125 7.13375 -39.0625 6.6875 C-36.73253997 5.08760823 -36.73253997 5.08760823 -36 2 C-35.34 2 -34.68 2 -34 2 C-34 2.99 -34 3.98 -34 5 C-33.09378906 4.84402344 -32.18757813 4.68804687 -31.25390625 4.52734375 C-20.07728713 2.74145011 -20.07728713 2.74145011 -14.75 3.5 C-12.89375 3.7475 -12.89375 3.7475 -11 4 C-10.34 3.34 -9.68 2.68 -9 2 C-6.8359375 1.8046875 -6.8359375 1.8046875 -4.375 1.875 C-3.14910156 1.90207031 -3.14910156 1.90207031 -1.8984375 1.9296875 C-0.95871094 1.96449219 -0.95871094 1.96449219 0 2 C0 1.34 0 0.68 0 0 Z " fill="#ECEEEF" transform="translate(102,337)"/>
<path d="M0 0 C0.19389096 2.4788213 0.38040123 4.95780931 0.5625 7.4375 C0.61857422 8.14455078 0.67464844 8.85160156 0.73242188 9.58007812 C0.86190993 11.38427837 0.93521608 13.19231952 1 15 C0 16 0 16 -1.84765625 16.09765625 C-3.8984375 16.06510417 -5.94921875 16.03255208 -8 16 C-9.44207941 13.11584117 -9.09394887 10.58278472 -9.0625 7.375 C-9.05347656 6.18648437 -9.04445312 4.99796875 -9.03515625 3.7734375 C-9.02355469 2.85820312 -9.01195312 1.94296875 -9 1 C-6.04335481 -0.4783226 -3.25770263 -0.06032783 0 0 Z " fill="#D1D7DA" transform="translate(66,155)"/>
<path d="M0 0 C0 1.32 0 2.64 0 4 C0.57234375 3.78988281 1.1446875 3.57976562 1.734375 3.36328125 C4.6829547 2.89049175 5.7547371 3.61178769 8.25 5.1875 C8.95640625 5.61417969 9.6628125 6.04085937 10.390625 6.48046875 C10.92171875 6.98191406 11.4528125 7.48335937 12 8 C12 9.32 12 10.64 12 12 C5.32790056 10.52338783 -1.34143539 9.03659183 -8 7.5 C-9.42892578 7.18095703 -9.42892578 7.18095703 -10.88671875 6.85546875 C-11.79035156 6.64535156 -12.69398438 6.43523437 -13.625 6.21875 C-14.44226563 6.03248047 -15.25953125 5.84621094 -16.1015625 5.65429688 C-18 5 -18 5 -19 3 C-17.989375 3.061875 -16.97875 3.12375 -15.9375 3.1875 C-10.13441648 2.91116269 -5.87165208 -0.53378655 0 0 Z " fill="#DCE2E5" transform="translate(432,214)"/>
<path d="M0 0 C4.05445642 -0.43132515 5.54970958 -0.30019361 9 2 C9.328125 4.56640625 9.328125 4.56640625 9.25 7.5625 C9.23453125 8.55378906 9.2190625 9.54507813 9.203125 10.56640625 C9 13 9 13 8 14 C6.48071962 14.07179964 4.95832518 14.08392007 3.4375 14.0625 C2.61121094 14.05347656 1.78492188 14.04445312 0.93359375 14.03515625 C0.29550781 14.02355469 -0.34257812 14.01195312 -1 14 C-2.03139845 10.24570964 -2.21296253 6.904313 -2 3 C-1.34 2.01 -0.68 1.02 0 0 Z " fill="#E5F0F1" transform="translate(245,144)"/>
<path d="M0 0 C0.12117188 0.92941406 0.24234375 1.85882813 0.3671875 2.81640625 C1.14262138 14.4016923 1.14262138 14.4016923 7.125 23.4375 C8.07375 23.953125 9.0225 24.46875 10 25 C9.67 25.99 9.34 26.98 9 28 C6.83125748 27.49396008 5.00032373 27.00016187 3 26 C3 25.34 3 24.68 3 24 C1.68 24 0.36 24 -1 24 C-3.97134381 17.17738652 -6.18518989 11.36546523 -4 4 C-1.65853659 0 -1.65853659 0 0 0 Z " fill="#D7E0E4" transform="translate(433,181)"/>
<path d="M0 0 C8.75 -0.125 8.75 -0.125 11 1 C11 4.3 11 7.6 11 11 C6.03349218 13.07900327 5.35444029 13.14177612 0 11 C0 7.37 0 3.74 0 0 Z " fill="#CFD6D9" transform="translate(94,152)"/>
<path d="M0 0 C2.97 0 5.94 0 9 0 C8.98839844 0.78246094 8.97679688 1.56492188 8.96484375 2.37109375 C8.95582031 3.38300781 8.94679688 4.39492187 8.9375 5.4375 C8.92589844 6.44683594 8.91429688 7.45617187 8.90234375 8.49609375 C8.71387324 10.94021067 8.71387324 10.94021067 10 12 C10.04063832 13.66617115 10.042721 15.33388095 10 17 C5.86856601 15.41098693 2.38898672 12.72400871 0 9 C-0.50803727 5.82217504 -0.29496938 3.24466316 0 0 Z " fill="#CFD5D9" transform="translate(59,186)"/>
<path d="M0 0 C1.65 0 3.3 0 5 0 C5.268125 0.639375 5.53625 1.27875 5.8125 1.9375 C6.88667752 4.33131686 6.88667752 4.33131686 10 5 C11 8 11 8 10 13 C6.37 13.66 2.74 14.32 -1 15 C-0.67 10.05 -0.34 5.1 0 0 Z " fill="#CDD5D8" transform="translate(194,185)"/>
<path d="M0 0 C5.40839975 3.16589254 9.04174791 7.17514834 13 12 C12.34 13.32 11.68 14.64 11 16 C7.37 16 3.74 16 0 16 C-0.1953125 9.9453125 -0.1953125 9.9453125 0 8 C0.66 7.34 1.32 6.68 2 6 C1.34 5.67 0.68 5.34 0 5 C0 3.35 0 1.7 0 0 Z " fill="#D9DDE0" transform="translate(109,345)"/>
<path d="M0 0 C4.55749966 0.79260864 6.89589209 4.13455245 9.875 7.5 C9.545 8.49 9.215 9.48 8.875 10.5 C6.37109375 11.66796875 6.37109375 11.66796875 3.3125 12.6875 C2.30058594 13.03167969 1.28867188 13.37585938 0.24609375 13.73046875 C-0.53636719 13.98441406 -1.31882813 14.23835937 -2.125 14.5 C-3.125 13.5 -3.125 13.5 -3.22265625 11.43359375 C-3.21105469 10.60988281 -3.19945312 9.78617188 -3.1875 8.9375 C-3.17847656 8.11121094 -3.16945312 7.28492188 -3.16015625 6.43359375 C-3.14855469 5.79550781 -3.13695312 5.15742188 -3.125 4.5 C-2.465 4.17 -1.805 3.84 -1.125 3.5 C-1.785 2.84 -2.445 2.18 -3.125 1.5 C-2.125 0.5 -2.125 0.5 0 0 Z " fill="#CDD4D8" transform="translate(220.125,190.5)"/>
<path d="M0 0 C2.97 0 5.94 0 9 0 C10.04449911 3.13349732 9.93423645 3.98968256 9 7 C9.66 7 10.32 7 11 7 C11 8.32 11 9.64 11 11 C5.06 11.495 5.06 11.495 -1 12 C-1.08159574 7.83861737 -0.98248524 4.0527516 0 0 Z " fill="#CDD5D9" transform="translate(195,172)"/>
<path d="M0 0 C1 1 1 1 1.09765625 3.06640625 C1.08605469 3.89011719 1.07445313 4.71382813 1.0625 5.5625 C1.05347656 6.38878906 1.04445313 7.21507812 1.03515625 8.06640625 C1.02355469 8.70449219 1.01195313 9.34257812 1 10 C-1.75078884 10.91692961 -3.35948913 11.10886083 -6.1875 11.0625 C-8.0746875 11.0315625 -8.0746875 11.0315625 -10 11 C-10.08096803 9.54257537 -10.13917774 8.08387193 -10.1875 6.625 C-10.22230469 5.81289063 -10.25710937 5.00078125 -10.29296875 4.1640625 C-10.19628906 3.44992187 -10.09960938 2.73578125 -10 2 C-6.34346173 -0.43769218 -4.30999899 -0.23944439 0 0 Z " fill="#D7E1E4" transform="translate(114,280)"/>
<path d="M0 0 C2.97 0.495 2.97 0.495 6 1 C6 7.6 6 14.2 6 21 C4.35 21 2.7 21 1 21 C1 23.64 1 26.28 1 29 C2.65 29.33 4.3 29.66 6 30 C4.79618552 32.49361571 3.54571278 34.68143083 2 37 C-1.375 36.6875 -1.375 36.6875 -5 36 C-5.66 35.01 -6.32 34.02 -7 33 C-2.25 30 -2.25 30 0 30 C0 26.7 0 23.4 0 20 C1.32 19.67 2.64 19.34 4 19 C4 13.39 4 7.78 4 2 C2.68 1.67 1.36 1.34 0 1 C0 0.67 0 0.34 0 0 Z " fill="#D7E0E2" transform="translate(200,188)"/>
<path d="M0 0 C0.99 0 1.98 0 3 0 C3.875 2.5 3.875 2.5 4 6 C0.16808294 13.36091578 -7.12568058 21.29789385 -15 24 C-14.67 22.68 -14.34 21.36 -14 20 C-13.01 20 -12.02 20 -11 20 C-11 19.01 -11 18.02 -11 17 C-10.34 16.67 -9.68 16.34 -9 16 C-7.96531125 14.28224375 -6.99519407 12.52520397 -6.0625 10.75 C-5.04799964 8.82997374 -4.02720171 6.91326121 -3 5 C-2.50371094 4.05640625 -2.00742187 3.1128125 -1.49609375 2.140625 C-1.00238281 1.43421875 -0.50867188 0.7278125 0 0 Z " fill="#E7E2E1" transform="translate(340,200)"/>
<path d="M0 0 C2.64 0 5.28 0 8 0 C8.02687279 1.81242052 8.04633715 3.62495233 8.0625 5.4375 C8.07410156 6.44683594 8.08570313 7.45617187 8.09765625 8.49609375 C8 11 8 11 7 12 C4.32941149 12.14115161 1.67567762 12.04247107 -1 12 C-1.92470553 7.28400182 -2.22923777 4.32734391 0 0 Z " fill="#ECF0F2" transform="translate(259,146)"/>
<path d="M0 0 C1.37478516 0.01740234 1.37478516 0.01740234 2.77734375 0.03515625 C3.69644531 0.04417969 4.61554688 0.05320312 5.5625 0.0625 C6.27277344 0.07410156 6.98304687 0.08570313 7.71484375 0.09765625 C8.69075958 3.48083112 8.5734103 5.66339005 7.71484375 9.09765625 C4.22100096 10.26227051 1.37828986 10.23333944 -2.28515625 10.09765625 C-3.28515625 9.09765625 -3.28515625 9.09765625 -3.41796875 7.28515625 C-3.41539063 6.56328125 -3.4128125 5.84140625 -3.41015625 5.09765625 C-3.41273437 4.37578125 -3.4153125 3.65390625 -3.41796875 2.91015625 C-3.21558021 0.14814788 -2.76566638 0.11819087 0 0 Z " fill="#CDD4D7" transform="translate(113.28515625,362.90234375)"/>
<path d="M0 0 C1.3356774 4.00703221 0.06987961 6.67161992 -1.25 10.5 C-1.46785156 11.17675781 -1.68570312 11.85351562 -1.91015625 12.55078125 C-4.09270223 19.02183863 -4.09270223 19.02183863 -7 21 C-7.99 21 -8.98 21 -10 21 C-10.99 21.66 -11.98 22.32 -13 23 C-16 25 -16 25 -19 25 C-19.99 24.67 -20.98 24.34 -22 24 C-20.80375 23.484375 -19.6075 22.96875 -18.375 22.4375 C-10.24295814 18.29989419 -7.01909911 11.54138141 -3.296875 3.4765625 C-2 1 -2 1 0 0 Z " fill="#EEE5E3" transform="translate(328,178)"/>
<path d="M0 0 C5.27002208 4.39168507 10.35302051 8.9426379 15 14 C15 14.33 15 14.66 15 15 C13.02 15 11.04 15 9 15 C9 13.35 9 11.7 9 10 C6.69 10 4.38 10 2 10 C1.67 11.65 1.34 13.3 1 15 C-1.97 14.505 -1.97 14.505 -5 14 C-5 12.35 -5 10.7 -5 9 C-3.02 9 -1.04 9 1 9 C1 7.68 1 6.36 1 5 C0.34 5 -0.32 5 -1 5 C-0.67 3.35 -0.34 1.7 0 0 Z " fill="#D9FEFE" transform="translate(205,174)"/>
<path d="M0 0 C2.05078125 0.03255208 4.1015625 0.06510417 6.15234375 0.09765625 C7.77885897 3.35068669 7.26687531 6.48991227 7.15234375 10.09765625 C6.15234375 11.09765625 6.15234375 11.09765625 4.0859375 11.1953125 C3.26222656 11.18371094 2.43851562 11.17210937 1.58984375 11.16015625 C0.76355469 11.15113281 -0.06273438 11.14210938 -0.9140625 11.1328125 C-1.55214844 11.12121094 -2.19023438 11.10960937 -2.84765625 11.09765625 C-2.87453776 9.45191059 -2.89399748 7.80604212 -2.91015625 6.16015625 C-2.92175781 5.24363281 -2.93335937 4.32710938 -2.9453125 3.3828125 C-2.82618856 0.59531224 -2.79215837 0.14757708 0 0 Z " fill="#D0D7DA" transform="translate(79.84765625,262.90234375)"/>
<path d="M0 0 C1.23556641 0.01740234 1.23556641 0.01740234 2.49609375 0.03515625 C3.32238281 0.04417969 4.14867188 0.05320313 5 0.0625 C5.63808594 0.07410156 6.27617188 0.08570313 6.93359375 0.09765625 C6.96047526 1.74340191 6.97993498 3.38927038 6.99609375 5.03515625 C7.00769531 5.95167969 7.01929687 6.86820312 7.03125 7.8125 C6.93359375 10.09765625 6.93359375 10.09765625 5.93359375 11.09765625 C2.49609375 11.28515625 2.49609375 11.28515625 -1.06640625 11.09765625 C-3.06640625 9.09765625 -3.06640625 9.09765625 -3.296875 7.1875 C-3.15636381 0.14916653 -3.15636381 0.14916653 0 0 Z " fill="#D2DADD" transform="translate(92.06640625,254.90234375)"/>
<path d="M0 0 C1.43655854 -0.08131463 2.8744483 -0.13933559 4.3125 -0.1875 C5.51326172 -0.23970703 5.51326172 -0.23970703 6.73828125 -0.29296875 C9.47851584 0.06198392 10.29171079 0.89366282 12 3 C10.515 5.475 10.515 5.475 9 8 C9.33 8.33 9.66 8.66 10 9 C10.04080783 10.99958364 10.04254356 13.00045254 10 15 C8.68 14.67 7.36 14.34 6 14 C6.99 14 7.98 14 9 14 C9 12.68 9 11.36 9 10 C6.69 10.33 4.38 10.66 2 11 C1.34 10.01 0.68 9.02 0 8 C0.66 7.67 1.32 7.34 2 7 C1.01 6.34 0.02 5.68 -1 5 C-0.67 3.35 -0.34 1.7 0 0 Z " fill="#E0E6E9" transform="translate(243,160)"/>
<path d="M0 0 C2.63941582 1.31970791 2.72024435 2.39366242 3.734375 5.12890625 C4.05833252 5.99161133 4.38229004 6.85431641 4.71606445 7.74316406 C5.05726318 8.67354492 5.39846191 9.60392578 5.75 10.5625 C6.10344482 11.50963867 6.45688965 12.45677734 6.82104492 13.43261719 C7.5421897 15.36630772 8.26053213 17.30104566 8.97607422 19.23681641 C9.89163138 21.7075546 10.8187082 24.17336269 11.75390625 26.63671875 C14.31187459 33.38009833 16.79241232 40.13194945 19 47 C18.01 47.495 18.01 47.495 17 48 C15.01889437 45.02834156 14.37436559 42.64326457 13.57128906 39.2109375 C12.62174922 35.53613715 11.24309726 32.03568337 9.875 28.5 C8.92625 26.025 7.9775 23.55 7 21 C-1.91 20.67 -10.82 20.34 -20 20 C-20 19.67 -20 19.34 -20 19 C-11.42 19 -2.84 19 6 19 C4.02884288 13.49412103 4.02884288 13.49412103 2.05078125 7.99072266 C1.80714844 7.3054248 1.56351563 6.62012695 1.3125 5.9140625 C1.06113281 5.2123291 0.80976563 4.5105957 0.55078125 3.78759766 C0 2 0 2 0 0 Z " fill="#D4E0E2" transform="translate(205,414)"/>
<path d="M0 0 C2.26937643 0.0035626 4.53733692 0.15238854 6.80078125 0.31640625 C6.47078125 3.94640625 6.14078125 7.57640625 5.80078125 11.31640625 C-0.13921875 10.32640625 -0.13921875 10.32640625 -6.19921875 9.31640625 C-4.01451124 0.57757622 -4.01451124 0.57757622 0 0 Z " fill="#D8FEFE" transform="translate(208.19921875,216.68359375)"/>
<path d="M0 0 C3.3 0 6.6 0 10 0 C10.09765625 6.93359375 10.09765625 6.93359375 10 9 C9 10 9 10 6.93359375 10.09765625 C3.46679688 10.04882812 3.46679688 10.04882812 0 10 C0 6.7 0 3.4 0 0 Z " fill="#CFD5D9" transform="translate(88,243)"/>
<path d="M0 0 C0.99 0 1.98 0 3 0 C2.98259766 0.61206299 2.96519531 1.22412598 2.94726562 1.85473633 C2.81880343 10.20095563 3.61364136 18.40193046 4.5 26.6875 C4.64504539 28.08262894 4.78957994 29.47781108 4.93359375 30.87304688 C5.284065 34.24925324 5.63964186 37.62483708 6 41 C5.01 41.495 5.01 41.495 4 42 C2.73916001 39.47832001 2.6890799 37.43175365 2.46484375 34.6171875 C2.37783203 33.53179687 2.29082031 32.44640625 2.20117188 31.328125 C2.11416016 30.18859375 2.02714844 29.0490625 1.9375 27.875 C1.84662109 26.75867188 1.75574219 25.64234375 1.66210938 24.4921875 C1.20330724 18.6415979 0.89239293 12.8681724 1 7 C-1.97 7.66 -4.94 8.32 -8 9 C-6.625 7 -6.625 7 -5 5 C-4.34 5 -3.68 5 -3 5 C-2.690625 4.360625 -2.38125 3.72125 -2.0625 3.0625 C-1 1 -1 1 0 0 Z " fill="#E0E4E6" transform="translate(108,221)"/>
<path d="M0 0 C0.8146875 0.00257813 1.629375 0.00515625 2.46875 0.0078125 C3.2834375 0.00523437 4.098125 0.00265625 4.9375 0 C6.96875 0.1328125 6.96875 0.1328125 7.96875 1.1328125 C8.09375 4.6328125 8.09375 4.6328125 7.96875 8.1328125 C6.96875 9.1328125 6.96875 9.1328125 4.68359375 9.23046875 C3.30880859 9.21306641 3.30880859 9.21306641 1.90625 9.1953125 C0.98714844 9.18628906 0.06804688 9.17726563 -0.87890625 9.16796875 C-1.58917969 9.15636719 -2.29945312 9.14476562 -3.03125 9.1328125 C-3.12890625 2.98046875 -3.12890625 2.98046875 -3.03125 1.1328125 C-2.03125 0.1328125 -2.03125 0.1328125 0 0 Z " fill="#CFD5D9" transform="translate(60.03125,368.8671875)"/>
<path d="M0 0 C4.66351166 2.81979775 7.75091112 5.60417387 11 10 C11 10.66 11 11.32 11 12 C10.07767578 12.07347656 10.07767578 12.07347656 9.13671875 12.1484375 C8.32847656 12.22320312 7.52023438 12.29796875 6.6875 12.375 C5.48673828 12.47941406 5.48673828 12.47941406 4.26171875 12.5859375 C1.72775559 12.89564426 1.72775559 12.89564426 -1 15 C-3.73990408 14.96856707 -6.28417854 14.44521663 -9 14 C-9 13.67 -9 13.34 -9 13 C-6.03 13 -3.06 13 0 13 C0 10.36 0 7.72 0 5 C-1.65 5 -3.3 5 -5 5 C-5 4.67 -5 4.34 -5 4 C-3.35 4 -1.7 4 0 4 C0 2.68 0 1.36 0 0 Z " fill="#DFE3E5" transform="translate(91,327)"/>
<path d="M0 0 C3.3 0.33 6.6 0.66 10 1 C10 4.3 10 7.6 10 11 C6.53058454 10.54177532 3.32604951 10.10868317 0 9 C0 6.03 0 3.06 0 0 Z " fill="#CCD2D6" transform="translate(68,329)"/>
<path d="M0 0 C1.23556641 0.01740234 1.23556641 0.01740234 2.49609375 0.03515625 C3.32238281 0.04417969 4.14867188 0.05320313 5 0.0625 C5.63808594 0.07410156 6.27617188 0.08570313 6.93359375 0.09765625 C6.96048591 1.57672517 6.97993996 3.05593108 6.99609375 4.53515625 C7.00769531 5.35886719 7.01929687 6.18257812 7.03125 7.03125 C6.93359375 9.09765625 6.93359375 9.09765625 5.93359375 10.09765625 C2.49609375 10.28515625 2.49609375 10.28515625 -1.06640625 10.09765625 C-3.06640625 8.09765625 -3.06640625 8.09765625 -3.25390625 4.53515625 C-3.01430425 0.14245294 -3.01430425 0.14245294 0 0 Z " fill="#CFD5D9" transform="translate(75.06640625,199.90234375)"/>
<path d="M0 0 C2.05078125 0.03255208 4.1015625 0.06510417 6.15234375 0.09765625 C6.34646556 1.57596846 6.53246506 3.05534941 6.71484375 4.53515625 C6.81925781 5.35886719 6.92367187 6.18257812 7.03125 7.03125 C7.07121094 7.71316406 7.11117187 8.39507812 7.15234375 9.09765625 C6.15234375 10.09765625 6.15234375 10.09765625 4.0859375 10.1953125 C3.26222656 10.18371094 2.43851563 10.17210937 1.58984375 10.16015625 C0.76355469 10.15113281 -0.06273437 10.14210937 -0.9140625 10.1328125 C-1.55214844 10.12121094 -2.19023438 10.10960937 -2.84765625 10.09765625 C-2.87454841 8.61858733 -2.89400246 7.13938142 -2.91015625 5.66015625 C-2.92175781 4.83644531 -2.93335938 4.01273438 -2.9453125 3.1640625 C-2.8198894 0.51010975 -2.66068535 0.14062819 0 0 Z " fill="#D2D8DB" transform="translate(47.84765625,167.90234375)"/>
<path d="M0 0 C1 1 1 1 1.09765625 2.84765625 C1.04882812 5.92382812 1.04882812 5.92382812 1 9 C-2.50776784 10.60355101 -5.14354879 11.22036864 -9 11 C-9.48461538 4.7 -9.48461538 4.7 -7.3125 1.5625 C-4.59999199 -0.27027568 -3.20957777 -0.43372673 0 0 Z " fill="#D3D8DB" transform="translate(85,250)"/>
<path d="M0 0 C3.46679688 0.04882812 3.46679688 0.04882812 6.93359375 0.09765625 C7.26359375 3.39765625 7.59359375 6.69765625 7.93359375 10.09765625 C1.63359375 10.58227163 1.63359375 10.58227163 -1.50390625 8.41015625 C-3.33668193 5.69764824 -3.50013298 4.30723402 -3.06640625 1.09765625 C-2.06640625 0.09765625 -2.06640625 0.09765625 0 0 Z " fill="#D2D9DC" transform="translate(80.06640625,275.90234375)"/>
<path d="M0 0 C6.27 0 12.54 0 19 0 C15.66666667 3.33333333 12.33333333 6.66666667 9 10 C7.49702124 8.52386015 5.99768715 7.04400843 4.5 5.5625 C3.6646875 4.73878906 2.829375 3.91507812 1.96875 3.06640625 C0 1 0 1 0 0 Z " fill="#D0D8DB" transform="translate(257,367)"/>
<path d="M0 0 C0 2.97 0 5.94 0 9 C-3.47325181 10.1577506 -6.36067448 10.06866652 -10 10 C-10.48468708 3.57789614 -10.48468708 3.57789614 -8.375 1.0625 C-5.43969547 -0.25066255 -3.18136394 -0.21691118 0 0 Z " fill="#D0D6D9" transform="translate(77,315)"/>
<path d="M0 0 C3.3 0 6.6 0 10 0 C10 2.97 10 5.94 10 9 C6.7 9 3.4 9 0 9 C0 6.03 0 3.06 0 0 Z " fill="#CED4D8" transform="translate(71,188)"/>
<path d="M0 0 C2.97 0 5.94 0 9 0 C9 3.3 9 6.6 9 10 C6.03 10 3.06 10 0 10 C0 6.7 0 3.4 0 0 Z " fill="#CED4D8" transform="translate(84,180)"/>
<path d="M0 0 C3.46679688 0.04882812 3.46679688 0.04882812 6.93359375 0.09765625 C6.93359375 3.06765625 6.93359375 6.03765625 6.93359375 9.09765625 C3.63359375 9.09765625 0.33359375 9.09765625 -3.06640625 9.09765625 C-3.1640625 2.9453125 -3.1640625 2.9453125 -3.06640625 1.09765625 C-2.06640625 0.09765625 -2.06640625 0.09765625 0 0 Z " fill="#CED4D8" transform="translate(99.06640625,352.90234375)"/>
<path d="M0 0 C3.51535226 0.2757139 4.84433211 0.63646658 7.1875 3.25 C7.5 5.875 7.5 5.875 7.1875 8.25 C6.1875 9.25 6.1875 9.25 4.15625 9.3828125 C3.3415625 9.38023437 2.526875 9.37765625 1.6875 9.375 C0.8728125 9.37757813 0.058125 9.38015625 -0.78125 9.3828125 C-2.8125 9.25 -2.8125 9.25 -3.8125 8.25 C-3.9375 4.75 -3.9375 4.75 -3.8125 1.25 C-2.8125 0.25 -2.8125 0.25 0 0 Z " fill="#D0D6DA" transform="translate(73.8125,367.75)"/>
<path d="M0 0 C1.23556641 0.01740234 1.23556641 0.01740234 2.49609375 0.03515625 C3.32238281 0.04417969 4.14867188 0.05320312 5 0.0625 C5.63808594 0.07410156 6.27617188 0.08570313 6.93359375 0.09765625 C7.03125 6.25 7.03125 6.25 6.93359375 8.09765625 C5.93359375 9.09765625 5.93359375 9.09765625 3.8671875 9.1953125 C3.04347656 9.18371094 2.21976562 9.17210937 1.37109375 9.16015625 C0.54480469 9.15113281 -0.28148438 9.14210938 -1.1328125 9.1328125 C-1.77089844 9.12121094 -2.40898438 9.10960937 -3.06640625 9.09765625 C-3.1640625 2.9453125 -3.1640625 2.9453125 -3.06640625 1.09765625 C-2.06640625 0.09765625 -2.06640625 0.09765625 0 0 Z " fill="#CFD5D9" transform="translate(86.06640625,354.90234375)"/>
<path d="M0 0 C3.3 0 6.6 0 10 0 C10 2.64 10 5.28 10 8 C6.52674819 9.1577506 3.63932552 9.06866652 0 9 C0 6.03 0 3.06 0 0 Z " fill="#CFD5D8" transform="translate(97,365)"/>
<path d="M0 0 C3.3 0 6.6 0 10 0 C10.125 6.75 10.125 6.75 9 9 C6.03 9 3.06 9 0 9 C0 6.03 0 3.06 0 0 Z " fill="#D6DBDE" transform="translate(95,342)"/>
<path d="M0 0 C3.10873035 1.55436518 4.8532943 2.51868319 7.25 4.8125 C7.77078125 5.29332031 8.2915625 5.77414062 8.828125 6.26953125 C10 8 10 8 10 13 C6.7 12.67 3.4 12.34 0 12 C0 8.04 0 4.08 0 0 Z " fill="#CAD1D5" transform="translate(81,318)"/>
<path d="M0 0 C0.99 0.33 1.98 0.66 3 1 C3 3.97 3 6.94 3 10 C-0.63 10 -4.26 10 -8 10 C-8 8.02 -8 6.04 -8 4 C-6.865625 3.525625 -5.73125 3.05125 -4.5625 2.5625 C-1.24259834 1.36377917 -1.24259834 1.36377917 0 0 Z " fill="#D1D7DA" transform="translate(103,166)"/>
<path d="M0 0 C0.99 0.33 1.98 0.66 3 1 C3 3.31 3 5.62 3 8 C1.35492782 8.19406478 -0.29109594 8.38007935 -1.9375 8.5625 C-3.31228516 8.71912109 -3.31228516 8.71912109 -4.71484375 8.87890625 C-5.46894531 8.91886719 -6.22304688 8.95882813 -7 9 C-8 8 -8 8 -8.0625 4.4375 C-8.041875 3.303125 -8.02125 2.16875 -8 1 C-2.25 0.875 -2.25 0.875 0 2 C0 1.34 0 0.68 0 0 Z " fill="#CFD5D9" transform="translate(64,358)"/>
<path d="M0 0 C0 3.3 0 6.6 0 10 C-2.97 10 -5.94 10 -9 10 C-9 7.36 -9 4.72 -9 2 C-3.375 0 -3.375 0 0 0 Z " fill="#CED4D8" transform="translate(80,175)"/>
<path d="M0 0 C3.3 0 6.6 0 10 0 C10 2.64 10 5.28 10 8 C6.7 8 3.4 8 0 8 C0 5.36 0 2.72 0 0 Z " fill="#CDD3D7" transform="translate(58,381)"/>
<path d="M0 0 C3.3 0 6.6 0 10 0 C10 2.64 10 5.28 10 8 C6.7 8 3.4 8 0 8 C0 5.36 0 2.72 0 0 Z " fill="#D1D7DA" transform="translate(56,347)"/>
<path d="M0 0 C2.97 0 5.94 0 9 0 C9.09765625 6.15234375 9.09765625 6.15234375 9 8 C8 9 8 9 6.15234375 9.09765625 C4.1015625 9.06510417 2.05078125 9.03255208 0 9 C0 6.03 0 3.06 0 0 Z " fill="#CFD5D9" transform="translate(45,157)"/>
<path d="M0 0 C0.66 0.66 1.32 1.32 2 2 C0.76284282 3.3452583 -0.49024577 4.67587876 -1.75 6 C-2.79414062 7.11375 -2.79414062 7.11375 -3.859375 8.25 C-6 10 -6 10 -10 10 C-10 7.03 -10 4.06 -10 1 C-6.47940432 -0.17353189 -3.693507 -0.20146402 0 0 Z " fill="#D1D6DA" transform="translate(107,191)"/>
<path d="M0 0 C3.3 0 6.6 0 10 0 C10 2.31 10 4.62 10 7 C6.7 7.33 3.4 7.66 0 8 C0 5.36 0 2.72 0 0 Z " fill="#CDD3D7" transform="translate(98,377)"/>
<path d="M0 0 C3.60611932 1.40470927 7.1402619 2.93840523 10.67382812 4.51342773 C17.03559655 7.34495331 23.3264012 9.97408608 30 12 C29.67 12.66 29.34 13.32 29 14 C18.75470787 13.30145735 8.13194949 8.13494419 0 2 C0 1.34 0 0.68 0 0 Z " fill="#EBF9F9" transform="translate(288,334)"/>
<path d="M0 0 C2.97 0 5.94 0 9 0 C9.25 5.625 9.25 5.625 7 9 C3.375 9.1875 3.375 9.1875 0 9 C0 6.03 0 3.06 0 0 Z " fill="#CED4D8" transform="translate(85,193)"/>
<path d="M0 0 C1.21236328 0.01353516 1.21236328 0.01353516 2.44921875 0.02734375 C3.37154297 0.04474609 3.37154297 0.04474609 4.3125 0.0625 C4.3125 4.0625 4.3125 4.0625 1.8125 6.8125 C0.9875 7.555 0.1625 8.2975 -0.6875 9.0625 C-4.04370271 7.67372646 -5.76048728 6.14572035 -7.6875 3.0625 C-7.6875 2.4025 -7.6875 1.7425 -7.6875 1.0625 C-4.80538698 0.10179566 -2.98899956 -0.04331883 0 0 Z " fill="#D7FCFC" transform="translate(222.6875,136.9375)"/>
<path d="M0 0 C1.29744141 0.01353516 1.29744141 0.01353516 2.62109375 0.02734375 C3.26175781 0.03894531 3.90242188 0.05054688 4.5625 0.0625 C1.23195622 2.28286252 -0.87030756 2.64494939 -4.79296875 3.28125 C-6.05560547 3.49136719 -7.31824219 3.70148437 -8.61914062 3.91796875 C-9.95435044 4.13328828 -11.28963764 4.34812853 -12.625 4.5625 C-24.11611022 6.40888502 -24.11611022 6.40888502 -35.4375 9.0625 C-33.15721121 5.64206682 -32.69695818 5.57490595 -28.89453125 4.7109375 C-27.98509766 4.49953125 -27.07566406 4.288125 -26.13867188 4.0703125 C-24.7087793 3.75707031 -24.7087793 3.75707031 -23.25 3.4375 C-22.31607422 3.2209375 -21.38214844 3.004375 -20.41992188 2.78125 C-13.63187198 1.2335173 -6.99289566 -0.09579309 0 0 Z " fill="#DCF6F5" transform="translate(324.4375,46.9375)"/>
<path d="M0 0 C7.45463566 0.67769415 12.32879388 6.0268565 16.93359375 11.44921875 C18 13 18 13 18 15 C12.45350757 14.74931108 9.78876381 11.28192922 6.1875 7.5 C5.59001953 6.89285156 4.99253906 6.28570312 4.37695312 5.66015625 C0 1.16815179 0 1.16815179 0 0 Z " fill="#DBDEE0" transform="translate(55,440)"/>
<path d="M0 0 C6.625 0.75 6.625 0.75 10 3 C10 4.65 10 6.3 10 8 C6.7 8 3.4 8 0 8 C0 5.36 0 2.72 0 0 Z " fill="#CFD5D9" transform="translate(82,344)"/>
<path d="M0 0 C3.3 0 6.6 0 10 0 C12.14802531 4.34719408 12.30196265 8.37041791 12.25 13.125 C12.25773437 13.84042969 12.26546875 14.55585938 12.2734375 15.29296875 C12.25933736 19.06475618 12.14079147 20.78881279 10 24 C10.66 24 11.32 24 12 24 C12.33 25.32 12.66 26.64 13 28 C9.2047869 26.50902342 7.38957269 24.24299151 5 21 C6.65 21 8.3 21 10 21 C9.67 14.4 9.34 7.8 9 1 C6.03 1 3.06 1 0 1 C0 0.67 0 0.34 0 0 Z " fill="#DEE2E4" transform="translate(105,293)"/>
<path d="M0 0 C1.66611905 -0.042721 3.33382885 -0.04063832 5 0 C6 1 6 1 6.1328125 2.8125 C6.13023438 3.534375 6.12765625 4.25625 6.125 5 C6.12757812 5.721875 6.13015625 6.44375 6.1328125 7.1875 C6 9 6 9 5 10 C2.5 10.125 2.5 10.125 0 10 C-0.33 9.67 -0.66 9.34 -1 9 C-0.91062197 7.47480724 -0.75462854 5.95318071 -0.5625 4.4375 C-0.46066406 3.61121094 -0.35882813 2.78492188 -0.25390625 1.93359375 C-0.17011719 1.29550781 -0.08632813 0.65742188 0 0 Z " fill="#D6DBDE" transform="translate(47,347)"/>
<path d="M0 0 C2.04119098 0.19260951 4.0827595 0.38135707 6.125 0.5625 C7.40375 0.706875 8.6825 0.85125 10 1 C10 1.33 10 1.66 10 2 C9.19780029 1.98428955 8.39560059 1.9685791 7.5690918 1.95239258 C3.94196596 1.89011417 0.31495251 1.85103136 -3.3125 1.8125 C-4.57513672 1.78736328 -5.83777344 1.76222656 -7.13867188 1.73632812 C-8.34716797 1.72666016 -9.55566406 1.71699219 -10.80078125 1.70703125 C-11.91622314 1.6913208 -13.03166504 1.67561035 -14.1809082 1.65942383 C-16.994508 1.76251937 -16.994508 1.76251937 -18.81323242 3.3503418 C-20.31552819 5.43859781 -21.1501993 7.58133647 -22 10 C-22.99 9.01 -23.98 8.02 -25 7 C-19.49480742 -3.93857831 -10.36497174 -1.33695527 0 0 Z " fill="#E0E7E9" transform="translate(246,139)"/>
<path d="M0 0 C0.66 0 1.32 0 2 0 C3.2380014 3.57644848 2.74926071 6.33694766 2 10 C3.32 10.33 4.64 10.66 6 11 C4.359375 11.68359375 4.359375 11.68359375 2 12 C-0.796875 10.78515625 -0.796875 10.78515625 -3.75 9.0625 C-4.73484375 8.49660156 -5.7196875 7.93070312 -6.734375 7.34765625 C-7.48203125 6.90292969 -8.2296875 6.45820313 -9 6 C-9 5.34 -9 4.68 -9 4 C-7.68 4.33 -6.36 4.66 -5 5 C-5 3.68 -5 2.36 -5 1 C-4.34 1 -3.68 1 -3 1 C-2.87625 1.804375 -2.7525 2.60875 -2.625 3.4375 C-2.315625 4.7059375 -2.315625 4.7059375 -2 6 C-1.34 6.33 -0.68 6.66 0 7 C0 4.69 0 2.38 0 0 Z " fill="#D9F1F0" transform="translate(260,409)"/>
<path d="M0 0 C-0.33 0.33 -0.66 0.66 -1 1 C-0.01 1.33 0.98 1.66 2 2 C2 4.64 2 7.28 2 10 C4.31 10 6.62 10 9 10 C5.33310852 12.34681055 2.26635401 12.07355783 -2 12 C-4.0064731 12.29185063 -6.00994193 12.61169599 -8 13 C-8.33 12.34 -8.66 11.68 -9 11 C-5.7 10.67 -2.4 10.34 1 10 C1 7.69 1 5.38 1 3 C-2.3 3 -5.6 3 -9 3 C-9 2.01 -9 1.02 -9 0 C-3.375 -1.125 -3.375 -1.125 0 0 Z " fill="#E3E6E8" transform="translate(107,374)"/>
<path d="M0 0 C1.32 0.99 2.64 1.98 4 3 C2.63016497 6.16115776 2.0109362 6.9927092 -1 9 C-3.26171875 9.1953125 -3.26171875 9.1953125 -5.6875 9.125 C-6.89986328 9.09792969 -6.89986328 9.09792969 -8.13671875 9.0703125 C-9.05904297 9.03550781 -9.05904297 9.03550781 -10 9 C-6.83047153 5.73991357 -3.60062011 2.77762123 0 0 Z " fill="#EAE2E0" transform="translate(261,230)"/>
<path d="M0 0 C1.98 0 3.96 0 6 0 C7.4783226 2.95664519 7.06032783 5.74229737 7 9 C4.69 9 2.38 9 0 9 C0 6.03 0 3.06 0 0 Z " fill="#D5DADD" transform="translate(48,370)"/>
<path d="M0 0 C1.99954746 -0.04254356 4.00041636 -0.04080783 6 0 C7 1 7 1 7.125 4.5 C7 8 7 8 6 9 C4.00041636 9.04080783 1.99954746 9.04254356 0 9 C0 6.03 0 3.06 0 0 Z " fill="#D4DADD" transform="translate(47,359)"/>
<path d="M0 0 C2.31 0 4.62 0 7 0 C7 0.66 7 1.32 7 2 C6.01 2.33 5.02 2.66 4 3 C3.67 3.66 3.34 4.32 3 5 C5.31 4.34 7.62 3.68 10 3 C10 4.65 10 6.3 10 8 C6.7 8.33 3.4 8.66 0 9 C0 6.03 0 3.06 0 0 Z " fill="#D0D6D9" transform="translate(70,357)"/>
<path d="M0 0 C0.02689216 1.47906892 0.04634621 2.95827483 0.0625 4.4375 C0.07410156 5.26121094 0.08570313 6.08492188 0.09765625 6.93359375 C0 9 0 9 -1 10 C-3.33297433 10.04092937 -5.66705225 10.04241723 -8 10 C-8 6 -8 6 -6.7578125 4.296875 C-6.21898437 3.78640625 -5.68015625 3.2759375 -5.125 2.75 C-4.59132813 2.22921875 -4.05765625 1.7084375 -3.5078125 1.171875 C-2 0 -2 0 0 0 Z " fill="#D9DFE2" transform="translate(277,309)"/>
<path d="M0 0 C2.64 0 5.28 0 8 0 C8 2.97 8 5.94 8 9 C3.46539569 7.86634892 2.09975347 6.35806626 -1 3 C-0.67 2.01 -0.34 1.02 0 0 Z " fill="#D0D6DA" transform="translate(94,295)"/>
<path d="M0 0 C3.3 0 6.6 0 10 0 C8.20272577 3.59454845 7.03436 5.50111529 4 8 C2.68 8 1.36 8 0 8 C0 5.36 0 2.72 0 0 Z " fill="#D3D8DC" transform="translate(85,205)"/>
<path d="M0 0 C1.62651522 3.25303044 1.11453156 6.39225602 1 10 C0 11 0 11 -2.5625 11.0625 C-3.366875 11.041875 -4.17125 11.02125 -5 11 C-5.36717663 3.5340751 -5.36717663 3.5340751 -3.625 1 C-2 0 -2 0 0 0 Z " fill="#D5DADD" transform="translate(41,156)"/>
<path d="M0 0 C2.97 0 5.94 0 9 0 C9 1.65 9 3.3 9 5 C8.34 4.67 7.68 4.34 7 4 C7 3.34 7 2.68 7 2 C6.01 2.33 5.02 2.66 4 3 C3.26676204 5.01508358 3.26676204 5.01508358 3 7 C4.32 7.33 5.64 7.66 7 8 C6.34 8.66 5.68 9.32 5 10 C2.375 9.625 2.375 9.625 0 9 C0 6.03 0 3.06 0 0 Z " fill="#CFD5D8" transform="translate(96,179)"/>
<path d="M0 0 C2.31 0 4.62 0 7 0 C6.01 0.66 5.02 1.32 4 2 C2.78715124 5.05429073 2.78715124 5.05429073 2 8 C4.97 8.33 7.94 8.66 11 9 C11 7.35 11 5.7 11 4 C11.33 4 11.66 4 12 4 C12 5.98 12 7.96 12 10 C10.18757948 10.02687279 8.37504767 10.04633715 6.5625 10.0625 C5.55316406 10.07410156 4.54382813 10.08570313 3.50390625 10.09765625 C1 10 1 10 0 9 C-0.07179964 7.48071962 -0.08392007 5.95832518 -0.0625 4.4375 C-0.05347656 3.61121094 -0.04445312 2.78492188 -0.03515625 1.93359375 C-0.02355469 1.29550781 -0.01195312 0.65742188 0 0 Z M9 0 C10.65 0 12.3 0 14 0 C13.34 1.32 12.68 2.64 12 4 C12 3.01 12 2.02 12 1 C11.01 0.67 10.02 0.34 9 0 Z " fill="#DEEBEC" transform="translate(214,218)"/>
<path d="M0 0 C2.97 0.495 2.97 0.495 6 1 C6 7.6 6 14.2 6 21 C4.35 21 2.7 21 1 21 C1 23.64 1 26.28 1 29 C1.99 29.33 2.98 29.66 4 30 C2.68 30 1.36 30 0 30 C0 26.7 0 23.4 0 20 C1.32 19.67 2.64 19.34 4 19 C4 13.39 4 7.78 4 2 C2.68 1.67 1.36 1.34 0 1 C0 0.67 0 0.34 0 0 Z " fill="#DCE7E9" transform="translate(200,188)"/>
<path d="M0 0 C2.48018753 2.48018753 2.32361558 3.38515951 2.375 6.8125 C2.29952493 10.3145432 2.14965454 11.75057576 0.3125 14.8125 C-0.450625 15.534375 -1.21375 16.25625 -2 17 C-2.825 17.886875 -3.65 18.77375 -4.5 19.6875 C-6.69800637 21.72065589 -8.33976979 22.76569827 -11 24 C-10.06558465 22.72689688 -9.12732889 21.456612 -8.1875 20.1875 C-7.66542969 19.47980469 -7.14335937 18.77210937 -6.60546875 18.04296875 C-5 16 -5 16 -3.36328125 14.42578125 C-1.73973309 12.93097126 -1.73973309 12.93097126 -1 10 C-0.34 10 0.32 10 1 10 C0.84402344 9.36191406 0.68804687 8.72382812 0.52734375 8.06640625 C0.33269531 7.24011719 0.13804687 6.41382813 -0.0625 5.5625 C-0.25972656 4.73878906 -0.45695313 3.91507813 -0.66015625 3.06640625 C-0.77230469 2.38449219 -0.88445312 1.70257813 -1 1 C-0.67 0.67 -0.34 0.34 0 0 Z M-13 24 C-12.34 24.33 -11.68 24.66 -11 25 C-11.33 25.66 -11.66 26.32 -12 27 C-12.99 26.67 -13.98 26.34 -15 26 C-14.34 25.34 -13.68 24.68 -13 24 Z " fill="#DFDBDD" transform="translate(211,41)"/>
<path d="M0 0 C1.65 0 3.3 0 5 0 C5.33 0.99 5.66 1.98 6 3 C7.32 3 8.64 3 10 3 C10 3.99 10 4.98 10 6 C8.52168779 6.19412181 7.04230684 6.38012131 5.5625 6.5625 C4.73878906 6.66691406 3.91507812 6.77132813 3.06640625 6.87890625 C2.38449219 6.91886719 1.70257813 6.95882813 1 7 C0 6 0 6 -0.0625 2.9375 C-0.041875 1.968125 -0.02125 0.99875 0 0 Z " fill="#CBD2D6" transform="translate(111,376)"/>
<path d="M0 0 C0.66 0.33 1.32 0.66 2 1 C2.19645093 4.12450532 2.38063489 7.24961445 2.5625 10.375 C2.61857422 11.26445312 2.67464844 12.15390625 2.73242188 13.0703125 C2.78076172 13.92109375 2.82910156 14.771875 2.87890625 15.6484375 C2.9260376 16.43395996 2.97316895 17.21948242 3.02172852 18.02880859 C3 20 3 20 2 22 C0.35 22 -1.3 22 -3 22 C-2.67 21.34 -2.34 20.68 -2 20 C-1.01 20 -0.02 20 1 20 C0.76603516 18.08574219 0.76603516 18.08574219 0.52734375 16.1328125 C0.33041172 14.46357909 0.13381446 12.79430616 -0.0625 11.125 C-0.16626953 10.28324219 -0.27003906 9.44148438 -0.37695312 8.57421875 C-0.51713867 7.36572266 -0.51713867 7.36572266 -0.66015625 6.1328125 C-0.74918213 5.38918457 -0.83820801 4.64555664 -0.92993164 3.87939453 C-1 2 -1 2 0 0 Z " fill="#DADEE1" transform="translate(28,357)"/>
<path d="M0 0 C1.66611905 -0.042721 3.33382885 -0.04063832 5 0 C6 1 6 1 6.125 4.5 C6 8 6 8 5 9 C3.33382885 9.04063832 1.66611905 9.042721 0 9 C0 6.03 0 3.06 0 0 Z " fill="#D2D7DA" transform="translate(49,382)"/>
<path d="M0 0 C2.82019881 2.82019881 3.62443691 6.23629436 4.875 9.9375 C5.40582874 11.47670784 5.93707967 13.01577015 6.46875 14.5546875 C6.72785156 15.30975586 6.98695313 16.06482422 7.25390625 16.84277344 C8.26314007 19.760833 9.31496865 22.66255708 10.375 25.5625 C10.69210938 26.43003906 11.00921875 27.29757812 11.3359375 28.19140625 C11.66464844 29.08666016 11.66464844 29.08666016 12 30 C11.34 30.33 10.68 30.66 10 31 C8.01565461 28.02348192 7.37498129 25.63146352 6.57128906 22.19335938 C5.44750912 17.87881279 3.68729288 13.78262126 2.03515625 9.6484375 C0.68125298 6.16697195 0 3.79043944 0 0 Z " fill="#E5E7E8" transform="translate(212,431)"/>
<path d="M0 0 C1.23556641 0.01740234 1.23556641 0.01740234 2.49609375 0.03515625 C3.32238281 0.04417969 4.14867188 0.05320313 5 0.0625 C5.63808594 0.07410156 6.27617188 0.08570313 6.93359375 0.09765625 C6.93359375 1.41765625 6.93359375 2.73765625 6.93359375 4.09765625 C2.18359375 5.22265625 2.18359375 5.22265625 -0.06640625 4.09765625 C-0.39640625 5.08765625 -0.72640625 6.07765625 -1.06640625 7.09765625 C-1.72640625 7.09765625 -2.38640625 7.09765625 -3.06640625 7.09765625 C-3.10894981 5.09810879 -3.10721408 3.09723989 -3.06640625 1.09765625 C-2.06640625 0.09765625 -2.06640625 0.09765625 0 0 Z " fill="#D3D8DB" transform="translate(61.06640625,172.90234375)"/>
<path d="M0 0 C-3.20760251 3.80635497 -6.40746109 7.54563567 -10 11 C-9.91291331 9.54054712 -9.80473093 8.08234132 -9.6875 6.625 C-9.62949219 5.81289063 -9.57148438 5.00078125 -9.51171875 4.1640625 C-8.34121871 -0.78599111 -4.18870116 -0.1861645 0 0 Z " fill="#E3EFF1" transform="translate(284,356)"/>
<path d="M0 0 C3.3 0 6.6 0 10 0 C10.95904856 3.83619425 10.91892116 5.32431536 10 9 C6.52674819 10.1577506 3.63932552 10.06866652 0 10 C0 9.67 0 9.34 0 9 C1.98 8.67 3.96 8.34 6 8 C6.33 5.69 6.66 3.38 7 1 C4.69 1 2.38 1 0 1 C0 0.67 0 0.34 0 0 Z " fill="#DCE0E2" transform="translate(111,363)"/>
<path d="M0 0 C0.99 0.33 1.98 0.66 3 1 C2.45502114 4.97834568 0.55195333 6.85088065 -2.25 9.625 C-3.01828125 10.40101563 -3.7865625 11.17703125 -4.578125 11.9765625 C-6.99988221 13.99990159 -9.02240594 15.01802749 -12 16 C-11.67 14.68 -11.34 13.36 -11 12 C-9.68 12 -8.36 12 -7 12 C-7 11.34 -7 10.68 -7 10 C-6.5875 9.608125 -6.175 9.21625 -5.75 8.8125 C-3.21580866 6.18780183 -1.74974638 3.19781235 0 0 Z " fill="#D8DADD" transform="translate(337,208)"/>
<path d="M0 0 C0.84820312 0.13277344 1.69640625 0.26554687 2.5703125 0.40234375 C10.19367777 1.5500372 17.62918281 2.31428115 25.33203125 2.65625 C26.21246094 2.7696875 27.09289062 2.883125 28 3 C28.33 3.66 28.66 4.32 29 5 C25.68690354 4.88852117 22.37478494 4.75829114 19.0625 4.625 C18.13630859 4.5940625 17.21011719 4.563125 16.25585938 4.53125 C10.27178678 4.27928905 4.80938265 3.46575193 -1 2 C-0.67 1.34 -0.34 0.68 0 0 Z " fill="#EAEBEA" transform="translate(233,111)"/>
<path d="M0 0 C0.99 0.33 1.98 0.66 3 1 C4.09506492 4.28519475 4.09960608 6.73663415 4.0625 10.1875 C4.05347656 11.27417969 4.04445313 12.36085937 4.03515625 13.48046875 C4.02355469 14.31191406 4.01195313 15.14335937 4 16 C2.015625 14.91796875 2.015625 14.91796875 0 13 C-0.390625 9.86328125 -0.390625 9.86328125 -0.25 6.3125 C-0.21390625 5.13300781 -0.1778125 3.95351562 -0.140625 2.73828125 C-0.09421875 1.83464844 -0.0478125 0.93101562 0 0 Z " fill="#E2E4E6" transform="translate(66,155)"/>
<path d="M0 0 C0 2.97 0 5.94 0 9 C-1.98 9 -3.96 9 -6 9 C-6.25 6.75 -6.25 6.75 -6 4 C-2.75675676 0 -2.75675676 0 0 0 Z " fill="#D4D9DC" transform="translate(52,335)"/>
<path d="M0 0 C1.32527172 3.6297251 0.66675274 5.62288221 -0.8125 9.125 C-1.16957031 9.99382812 -1.52664063 10.86265625 -1.89453125 11.7578125 C-3 14 -3 14 -5 16 C-6.2109375 14.390625 -6.2109375 14.390625 -7 12 C-5.6640625 8.984375 -5.6640625 8.984375 -3.625 5.75 C-2.95726562 4.67234375 -2.28953125 3.5946875 -1.6015625 2.484375 C-1.07304687 1.66453125 -0.54453125 0.8446875 0 0 Z " fill="#E7DFDE" transform="translate(326,183)"/>
<path d="M0 0 C0.66 0.33 1.32 0.66 2 1 C2 3.64 2 6.28 2 9 C0.68 9 -0.64 9 -2 9 C-2 8.34 -2 7.68 -2 7 C-3.32 7 -4.64 7 -6 7 C-5.67 5.35 -5.34 3.7 -5 2 C-4.01 2 -3.02 2 -2 2 C-1.67 2.66 -1.34 3.32 -1 4 C-0.67 2.68 -0.34 1.36 0 0 Z " fill="#DBDFE2" transform="translate(105,179)"/>
<path d="M0 0 C0.66 1.65 1.32 3.3 2 5 C1.01 4.34 0.02 3.68 -1 3 C-6.05963422 2.50395743 -9.58652466 3.37060702 -14.10546875 5.44140625 C-16.4160825 6.12268 -17.74639052 5.75453444 -20 5 C-13.16076141 1.80835533 -7.61554118 -0.73226358 0 0 Z " fill="#E3E3E3" transform="translate(203,409)"/>
<path d="M0 0 C1.62992692 0.39695637 3.25392235 0.81832493 4.875 1.25 C6.23238281 1.59804687 6.23238281 1.59804687 7.6171875 1.953125 C10 3 10 3 11.3203125 5.109375 C11.54460937 5.73328125 11.76890625 6.3571875 12 7 C10.1875 7.625 10.1875 7.625 8 8 C7.01 7.34 6.02 6.68 5 6 C5 5.34 5 4.68 5 4 C3.68 4 2.36 4 1 4 C0.67 2.68 0.34 1.36 0 0 Z " fill="#DFE9EC" transform="translate(431,201)"/>
<path d="M0 0 C2.97 0 5.94 0 9 0 C8.67 1.65 8.34 3.3 8 5 C5.69 5 3.38 5 1 5 C0.67 3.35 0.34 1.7 0 0 Z " fill="#EEF1F2" transform="translate(257,162)"/>
<path d="M0 0 C0.99 0 1.98 0 3 0 C3 2.97 3 5.94 3 9 C1.35 9 -0.3 9 -2 9 C-2.125 5.625 -2.125 5.625 -2 2 C-1.34 1.34 -0.68 0.68 0 0 Z " fill="#CCD3D6" transform="translate(70,262)"/>
<path d="M0 0 C2.31 0 4.62 0 7 0 C7.33 1.65 7.66 3.3 8 5 C1.25 5.125 1.25 5.125 -1 4 C-0.67 2.68 -0.34 1.36 0 0 Z " fill="#ECEFF1" transform="translate(245,161)"/>
<path d="M0 0 C-1 2 -1 2 -4.0625 3.125 C-5.031875 3.41375 -6.00125 3.7025 -7 4 C-7 4.99 -7 5.98 -7 7 C-8.8141927 6.71905418 -10.62635001 6.42493567 -12.4375 6.125 C-13.95150391 5.88136719 -13.95150391 5.88136719 -15.49609375 5.6328125 C-16.32238281 5.42398438 -17.14867187 5.21515625 -18 5 C-18.33 4.34 -18.66 3.68 -19 3 C-17.989375 3.061875 -16.97875 3.12375 -15.9375 3.1875 C-10.13441648 2.91116269 -5.87165208 -0.53378655 0 0 Z " fill="#E7EAEB" transform="translate(432,214)"/>
<path d="M0 0 C2.64 0 5.28 0 8 0 C8.33 2.64 8.66 5.28 9 8 C4.7257442 6.4169423 2.73468206 3.49431596 0 0 Z " fill="#E2E5E7" transform="translate(60,195)"/>
<path d="M0 0 C2.31 0 4.62 0 7 0 C3.66666667 3.33333333 0.33333333 6.66666667 -3 10 C-3.66 9.01 -4.32 8.02 -5 7 C-4.34 6.67 -3.68 6.34 -3 6 C-1.95191959 4.02477154 -0.9479589 2.02518491 0 0 Z " fill="#CFE7E9" transform="translate(269,367)"/>
<path d="M0 0 C0 1.65 0 3.3 0 5 C-2.97 5 -5.94 5 -9 5 C-8.67 3.68 -8.34 2.36 -8 1 C-5.10765685 0.17361624 -3.11257569 0 0 0 Z " fill="#CCD2D6" transform="translate(92,172)"/>
<path d="M0 0 C0.33 1.32 0.66 2.64 1 4 C2.1446875 4.2165625 2.1446875 4.2165625 3.3125 4.4375 C6 5 6 5 9 6 C8.67 6.99 8.34 7.98 8 9 C5.03 9 2.06 9 -1 9 C-0.67 6.03 -0.34 3.06 0 0 Z " fill="#E5E5E7" transform="translate(358,375)"/>
<path d="M0 0 C1.98 0 3.96 0 6 0 C5.34 1.32 4.68 2.64 4 4 C4.99 4.99 5.98 5.98 7 7 C4.69 7.33 2.38 7.66 0 8 C0 5.36 0 2.72 0 0 Z " fill="#CFD5D8" transform="translate(109,353)"/>
<path d="M0 0 C1.32 0 2.64 0 4 0 C4.33 2.31 4.66 4.62 5 7 C2.36 6.67 -0.28 6.34 -3 6 C-3.33 6.99 -3.66 7.98 -4 9 C-3.67 7.35 -3.34 5.7 -3 4 C-2.01 4 -1.02 4 0 4 C0 2.68 0 1.36 0 0 Z " fill="#DDE1E3" transform="translate(58,330)"/>
<path d="M0 0 C0.66 0 1.32 0 2 0 C2.33 0.99 2.66 1.98 3 3 C3.99 3.66 4.98 4.32 6 5 C4.71937515 6.7074998 3.38232443 8.37373596 2 10 C1.34 10 0.68 10 0 10 C-0.19412181 8.52168779 -0.38012131 7.04230684 -0.5625 5.5625 C-0.66691406 4.73878906 -0.77132813 3.91507813 -0.87890625 3.06640625 C-0.91886719 2.38449219 -0.95882813 1.70257813 -1 1 C-0.67 0.67 -0.34 0.34 0 0 Z " fill="#DEDBDC" transform="translate(298,189)"/>
<path d="M0 0 C1.23556641 0.01740234 1.23556641 0.01740234 2.49609375 0.03515625 C3.32238281 0.04417969 4.14867188 0.05320312 5 0.0625 C5.63808594 0.07410156 6.27617188 0.08570313 6.93359375 0.09765625 C6.93359375 1.41765625 6.93359375 2.73765625 6.93359375 4.09765625 C6.27359375 4.09765625 5.61359375 4.09765625 4.93359375 4.09765625 C4.93359375 4.75765625 4.93359375 5.41765625 4.93359375 6.09765625 C3.61359375 6.09765625 2.29359375 6.09765625 0.93359375 6.09765625 C0.93359375 4.09765625 0.93359375 4.09765625 2.43359375 2.47265625 C2.92859375 2.01890625 3.42359375 1.56515625 3.93359375 1.09765625 C2.28359375 1.42765625 0.63359375 1.75765625 -1.06640625 2.09765625 C-1.39640625 4.40765625 -1.72640625 6.71765625 -2.06640625 9.09765625 C-2.39640625 9.09765625 -2.72640625 9.09765625 -3.06640625 9.09765625 C-3.1640625 2.9453125 -3.1640625 2.9453125 -3.06640625 1.09765625 C-2.06640625 0.09765625 -2.06640625 0.09765625 0 0 Z " fill="#DADEE1" transform="translate(99.06640625,352.90234375)"/>
<path d="M0 0 C2.31 0 4.62 0 7 0 C6.67 1.98 6.34 3.96 6 6 C4.35 5.67 2.7 5.34 1 5 C0.67 3.35 0.34 1.7 0 0 Z " fill="#EBEEF0" transform="translate(256,170)"/>
<path d="M0 0 C0.33 0 0.66 0 1 0 C1.20413361 5.73842251 1.27141454 10.60539047 -1 16 C-1.33 16 -1.66 16 -2 16 C-2.05449838 14.27119018 -2.09301688 12.54187288 -2.125 10.8125 C-2.14820313 9.84957031 -2.17140625 8.88664063 -2.1953125 7.89453125 C-1.9913544 4.87187222 -1.26874632 2.73230015 0 0 Z " fill="#DFDADB" transform="translate(374,228)"/>
<path d="M0 0 C2.31 0 4.62 0 7 0 C5.02 0.99 5.02 0.99 3 2 C3.66 2.66 4.32 3.32 5 4 C4.01 4.33 3.02 4.66 2 5 C2 7.31 2 9.62 2 12 C1.34 11.67 0.68 11.34 0 11 C0 7.37 0 3.74 0 0 Z " fill="#D3E0E3" transform="translate(215,190)"/>
<path d="M0 0 C1.98 0 3.96 0 6 0 C7.125 3.75 7.125 3.75 6 6 C3.03 5.505 3.03 5.505 0 5 C0 3.35 0 1.7 0 0 Z " fill="#EBF1F2" transform="translate(200,183)"/>
<path d="M0 0 C2.31 0 4.62 0 7 0 C7 2.64 7 5.28 7 8 C6.34 6.68 5.68 5.36 5 4 C4.34 4.66 3.68 5.32 3 6 C2.01 6 1.02 6 0 6 C0 5.01 0 4.02 0 3 C0.99 3 1.98 3 3 3 C3 2.34 3 1.68 3 1 C2.01 0.67 1.02 0.34 0 0 Z " fill="#DBDFE2" transform="translate(88,366)"/>
<path d="M0 0 C0.66 0 1.32 0 2 0 C2 1.98 2 3.96 2 6 C-0.64 6 -3.28 6 -6 6 C-5.67 5.01 -5.34 4.02 -5 3 C-3.68 3 -2.36 3 -1 3 C-0.67 2.01 -0.34 1.02 0 0 Z " fill="#D3E3E5" transform="translate(111,271)"/>
<path d="M0 0 C2.31 0 4.62 0 7 0 C7 1.32 7 2.64 7 4 C4.36 4 1.72 4 -1 4 C-0.67 2.68 -0.34 1.36 0 0 Z " fill="#CBD2D6" transform="translate(72,168)"/>
<path d="M0 0 C-0.33 1.32 -0.66 2.64 -1 4 C-3.97 4 -6.94 4 -10 4 C-10 3.34 -10 2.68 -10 2 C-3.375 0 -3.375 0 0 0 Z " fill="#D1D7DA" transform="translate(68,179)"/>
<path d="M0 0 C3.1489715 1.36911804 5.0478487 2.8752136 7.25 5.5 C8.03117187 6.41265625 8.03117187 6.41265625 8.828125 7.34375 C10 9 10 9 10 11 C9.01 11 8.02 11 7 11 C7 10.01 7 9.02 7 8 C6.34 8 5.68 8 5 8 C0 2.52380952 0 2.52380952 0 0 Z " fill="#E4E5E5" transform="translate(63,444)"/>
<path d="M0 0 C0.99 0.495 0.99 0.495 2 1 C2 1.66 2 2.32 2 3 C3.98 3.99 5.96 4.98 8 6 C6 8 6 8 2.875 8.125 C1.451875 8.063125 1.451875 8.063125 0 8 C0 5.36 0 2.72 0 0 Z " fill="#D4D9DC" transform="translate(98,377)"/>
<path d="M0 0 C0.99 0.33 1.98 0.66 3 1 C3 2.98 3 4.96 3 7 C5.64 7 8.28 7 11 7 C11 7.33 11 7.66 11 8 C7.37 8 3.74 8 0 8 C0 5.36 0 2.72 0 0 Z " fill="#E1E4E6" transform="translate(93,355)"/>
<path d="M0 0 C1.98 0 3.96 0 6 0 C6.66 1.32 7.32 2.64 8 4 C4.7 4 1.4 4 -2 4 C-1.34 3.67 -0.68 3.34 0 3 C0 2.01 0 1.02 0 0 Z " fill="#E2E0DF" transform="translate(289,351)"/>
<path d="M0 0 C2.375 0.25 2.375 0.25 5 1 C6.3125 3.0625 6.3125 3.0625 7 5 C4.69 5 2.38 5 0 5 C0 3.35 0 1.7 0 0 Z " fill="#CED4D7" transform="translate(95,334)"/>
<path d="M0 0 C0.66 0.66 1.32 1.32 2 2 C4.65537372 2.56520003 7.29144713 2.73788198 10 3 C9.67 3.99 9.34 4.98 9 6 C8.67 5.34 8.34 4.68 8 4 C1.4 3.67 -5.2 3.34 -12 3 C-12 2.67 -12 2.34 -12 2 C-8.04 2 -4.08 2 0 2 C0 1.34 0 0.68 0 0 Z " fill="#E9EAEA" transform="translate(241,226)"/>
<path d="M0 0 C0.33 0 0.66 0 1 0 C0.69343615 6.62177926 -0.74288723 11.22125154 -4 17 C-5 15 -5 15 -4.00390625 11.5234375 C-3.53099953 10.13802064 -3.05018356 8.75528453 -2.5625 7.375 C-2.31951172 6.66859375 -2.07652344 5.9621875 -1.82617188 5.234375 C-1.22412795 3.48726713 -0.61291983 1.74332214 0 0 Z " fill="#EFE6E4" transform="translate(374,218)"/>
<path d="M0 0 C1.98 0 3.96 0 6 0 C7.76462683 3.08809695 8 4.23312136 8 8 C7.34 8 6.68 8 6 8 C6 6.68 6 5.36 6 4 C5.01 4 4.02 4 3 4 C3 3.01 3 2.02 3 1 C2.01 0.67 1.02 0.34 0 0 Z " fill="#E1E4E6" transform="translate(115,374)"/>
<path d="M0 0 C4.30764815 1.56641751 8.06171464 3.68336156 12 6 C9.46100862 6.9435441 8.39090725 7.16906025 5.859375 6.07421875 C5.16328125 5.61660156 4.4671875 5.15898437 3.75 4.6875 C3.04359375 4.23761719 2.3371875 3.78773438 1.609375 3.32421875 C1.07828125 2.88722656 0.5471875 2.45023437 0 2 C0 1.34 0 0.68 0 0 Z " fill="#DAFBFA" transform="translate(288,334)"/>
<path d="M0 0 C0.20086443 3.71599191 0.1519437 4.77208445 -2 8 C-3.32 7.67 -4.64 7.34 -6 7 C-2.86206897 0 -2.86206897 0 0 0 Z " fill="#E1E8EA" transform="translate(274,311)"/>
<path d="M0 0 C0.33 0 0.66 0 1 0 C1 1.98 1 3.96 1 6 C-1.64 6 -4.28 6 -7 6 C-7.33 4.68 -7.66 3.36 -8 2 C-7.67 2.66 -7.34 3.32 -7 4 C-4.56282742 3.72965366 -4.56282742 3.72965366 -2 3 C-1.34 2.01 -0.68 1.02 0 0 Z " fill="#D0D9DC" transform="translate(113,284)"/>
<path d="M0 0 C2.97 0 5.94 0 9 0 C9 0.99 9 1.98 9 3 C5.37 3.33 1.74 3.66 -2 4 C-1.34 2.68 -0.68 1.36 0 0 Z " fill="#E6E8EA" transform="translate(90,239)"/>
<path d="M0 0 C0.33 0 0.66 0 1 0 C1.66 5.61 2.32 11.22 3 17 C-0.375 12.5 -0.375 12.5 -0.1875 8.25 C-0.16042969 7.45078125 -0.13335937 6.6515625 -0.10546875 5.828125 C-0.05326172 4.92320312 -0.05326172 4.92320312 0 4 C-0.66 4 -1.32 4 -2 4 C-1.34 2.68 -0.68 1.36 0 0 Z " fill="#E4E9EB" transform="translate(432,181)"/>
<path d="M0 0 C1.32 0.66 2.64 1.32 4 2 C3.1875 4.4375 3.1875 4.4375 2 7 C1.01 7.33 0.02 7.66 -1 8 C-0.67 5.36 -0.34 2.72 0 0 Z " fill="#D8DDE0" transform="translate(209,30)"/>
<path d="M0 0 C1.65 0 3.3 0 5 0 C5 1.32 5 2.64 5 4 C2 6 2 6 -2 6 C-1.67 5.01 -1.34 4.02 -1 3 C-0.01 3 0.98 3 2 3 C2 2.34 2 1.68 2 1 C1.34 0.67 0.68 0.34 0 0 Z " fill="#DADEE1" transform="translate(75,356)"/>
<path d="M0 0 C3.3 0.33 6.6 0.66 10 1 C6.71536341 3.18975773 3.79303725 3.99806563 0 5 C0 3.35 0 1.7 0 0 Z " fill="#DDE8EA" transform="translate(87,276)"/>
<path d="M0 0 C0.99 0 1.98 0 3 0 C3.042721 1.66611905 3.04063832 3.33382885 3 5 C2 6 2 6 -0.5625 6.0625 C-1.7690625 6.0315625 -1.7690625 6.0315625 -3 6 C-2.67 5.01 -2.34 4.02 -2 3 C-1.34 3 -0.68 3 0 3 C0 2.01 0 1.02 0 0 Z " fill="#DBDFE1" transform="translate(104,365)"/>
<path d="M0 0 C0 1.98 0 3.96 0 6 C-1.65 6 -3.3 6 -5 6 C-5 3 -5 3 -3.625 1.3125 C-2 0 -2 0 0 0 Z " fill="#D7DCDF" transform="translate(65,322)"/>
<path d="M0 0 C1.32 0.66 2.64 1.32 4 2 C4 2.66 4 3.32 4 4 C4.66 4.33 5.32 4.66 6 5 C5.01 5 4.02 5 3 5 C2.67 5.66 2.34 6.32 2 7 C0.4375 5.75 0.4375 5.75 -1 4 C-0.6875 1.8125 -0.6875 1.8125 0 0 Z " fill="#ECEDEE" transform="translate(402,202)"/>
<path d="M0 0 C2.31 1.98 4.62 3.96 7 6 C3 7 3 7 0 6 C0 4.02 0 2.04 0 0 Z " fill="#CDD4D8" transform="translate(195,164)"/>
<path d="M0 0 C0.66 0 1.32 0 2 0 C2 0.66 2 1.32 2 2 C2.78375 1.814375 3.5675 1.62875 4.375 1.4375 C7 1 7 1 9 2 C9 2.66 9 3.32 9 4 C6.03 4 3.06 4 0 4 C0 2.68 0 1.36 0 0 Z " fill="#CCD2D6" transform="translate(70,349)"/>
<path d="M0 0 C1.65 0 3.3 0 5 0 C4.67 1.65 4.34 3.3 4 5 C2.68 5 1.36 5 0 5 C0 3.35 0 1.7 0 0 Z " fill="#D4FDFD" transform="translate(289,344)"/>
<path d="M0 0 C2 3 2 3 3 6 C3.99 6.66 4.98 7.32 6 8 C4.02 8.99 4.02 8.99 2 10 C-0.77867692 7.22132308 -0.65193902 4.8286708 -1 1 C-0.67 0.67 -0.34 0.34 0 0 Z " fill="#E8ECED" transform="translate(89,286)"/>
<path d="M0 0 C1.32 0 2.64 0 4 0 C4 2.31 4 4.62 4 7 C2.35 5.68 0.7 4.36 -1 3 C-0.67 2.01 -0.34 1.02 0 0 Z " fill="#D7DDDF" transform="translate(38,170)"/>
<path d="M0 0 C1.98 0.495 1.98 0.495 4 1 C3.67 2.65 3.34 4.3 3 6 C1.68 5.34 0.36 4.68 -1 4 C-0.67 2.68 -0.34 1.36 0 0 Z " fill="#E3E7E9" transform="translate(233,154)"/>
<path d="M0 0 C0.99 0.33 1.98 0.66 3 1 C0.03 4.3 -2.94 7.6 -6 11 C-6.33 10.01 -6.66 9.02 -7 8 C-5.56640625 5.95703125 -5.56640625 5.95703125 -3.5625 3.8125 C-2.90378906 3.09707031 -2.24507813 2.38164062 -1.56640625 1.64453125 C-1.04949219 1.10183594 -0.53257812 0.55914062 0 0 Z " fill="#DCF5F6" transform="translate(281,356)"/>
<path d="M0 0 C1.65 0 3.3 0 5 0 C4.01 0.495 4.01 0.495 3 1 C3.33 2.32 3.66 3.64 4 5 C2.68 4.67 1.36 4.34 0 4 C0 5.65 0 7.3 0 9 C-0.33 9 -0.66 9 -1 9 C-0.67 6.03 -0.34 3.06 0 0 Z " fill="#DDE1E3" transform="translate(47,347)"/>
<path d="M0 0 C-3.69172595 3.53790403 -7.09390595 3.59115883 -12 4 C-8.59914501 0.59914501 -4.67235329 -1.5574511 0 0 Z " fill="#E3E4E4" transform="translate(183,416)"/>
<path d="M0 0 C0.66 0 1.32 0 2 0 C3.10844919 3.32534757 2.84454356 5.62182575 2 9 C0.68 8.34 -0.64 7.68 -2 7 C-1.34 7 -0.68 7 0 7 C0 4.69 0 2.38 0 0 Z " fill="#DDE4E6" transform="translate(260,409)"/>
<path d="M0 0 C2 1 2 1 2.75 2.6875 C3.08937645 5.82673219 2.12469641 8.08902106 1 11 C0.67 11 0.34 11 0 11 C0 7.37 0 3.74 0 0 Z " fill="#E8EAEC" transform="translate(92,328)"/>
<path d="M0 0 C0 1.65 0 3.3 0 5 C-1.98 5 -3.96 5 -6 5 C-6 4.34 -6 3.68 -6 3 C-2.53846154 0 -2.53846154 0 0 0 Z " fill="#CFD6D9" transform="translate(97,235)"/>
<path d="M0 0 C2 3 2 3 2 5 C-1.68754757 4.50168276 -3.60490662 3.89932357 -6 1 C-4.02 0.67 -2.04 0.34 0 0 Z " fill="#E1E4E6" transform="translate(81,209)"/>
<path d="M0 0 C3.24208567 0.35049575 4.61527704 0.56221181 6.8125 3.0625 C7.204375 3.701875 7.59625 4.34125 8 5 C4.62537285 4.45276317 2.91765 3.9451 0 2 C0 1.34 0 0.68 0 0 Z " fill="#DDEEF1" transform="translate(455,204)"/>
<path d="M0 0 C2.02054804 1.64169528 4.02043058 3.30911778 6 5 C6 5.33 6 5.66 6 6 C4.02 6 2.04 6 0 6 C0 4.02 0 2.04 0 0 Z " fill="#EAF4F6" transform="translate(214,183)"/>
<path d="M0 0 C1.32 0.66 2.64 1.32 4 2 C2.35 3.65 0.7 5.3 -1 7 C-0.67 4.69 -0.34 2.38 0 0 Z " fill="#E4E3E0" transform="translate(254,425)"/>
<path d="M0 0 C0 1.65 0 3.3 0 5 C-0.33 4.01 -0.66 3.02 -1 2 C-2.98 2 -4.96 2 -7 2 C-7 1.34 -7 0.68 -7 0 C-3.86650268 -1.04449911 -3.01031744 -0.93423645 0 0 Z " fill="#DADEE1" transform="translate(81,371)"/>
<path d="M0 0 C1.65 0.33 3.3 0.66 5 1 C5 1.99 5 2.98 5 4 C3.02 4 1.04 4 -1 4 C-0.67 2.68 -0.34 1.36 0 0 Z " fill="#DADEE0" transform="translate(69,338)"/>
<path d="M0 0 C0 0.66 0 1.32 0 2 C-0.66 2 -1.32 2 -2 2 C-2 2.66 -2 3.32 -2 4 C-3.98 4.33 -5.96 4.66 -8 5 C-3.375 0 -3.375 0 0 0 Z " fill="#DADEE1" transform="translate(108,225)"/>
<path d="M0 0 C-0.33 0.66 -0.66 1.32 -1 2 C-3.64 2 -6.28 2 -9 2 C-9 1.34 -9 0.68 -9 0 C-5.62182575 -0.84454356 -3.32534757 -1.10844919 0 0 Z " fill="#D8DCDF" transform="translate(67,169)"/>
<path d="M0 0 C0.598125 0.20625 1.19625 0.4125 1.8125 0.625 C1.8125 1.615 1.8125 2.605 1.8125 3.625 C-0.4975 3.625 -2.8075 3.625 -5.1875 3.625 C-5.1875 2.965 -5.1875 2.305 -5.1875 1.625 C-2.1875 -0.375 -2.1875 -0.375 0 0 Z " fill="#D3F0F2" transform="translate(347.1875,115.375)"/>
<path d="M0 0 C3.37462715 0.54723683 5.08235 1.0549 8 3 C5.36 3.66 2.72 4.32 0 5 C0 3.35 0 1.7 0 0 Z " fill="#F2F3F4" transform="translate(106,349)"/>
<path d="M0 0 C1.65 0 3.3 0 5 0 C5 1.65 5 3.3 5 5 C3.0625 4.1875 3.0625 4.1875 1 3 C0.67 2.01 0.34 1.02 0 0 Z " fill="#CFD5D9" transform="translate(64,198)"/>
<path d="M0 0 C0.6875 1.8125 0.6875 1.8125 1 4 C-0.4375 5.75 -0.4375 5.75 -2 7 C-2.66 5.68 -3.32 4.36 -4 3 C-2.68 2.01 -1.36 1.02 0 0 Z " fill="#D9D8DB" transform="translate(323,192)"/>
<path d="M0 0 C5.41538462 -0.36923077 5.41538462 -0.36923077 8.375 1.5 C8.91125 1.995 9.4475 2.49 10 3 C7.03 3 4.06 3 1 3 C0.67 2.01 0.34 1.02 0 0 Z " fill="#DFE3E5" transform="translate(58,378)"/>
<path d="M0 0 C2 1 2 1 3.125 4.0625 C3.41375 5.031875 3.7025 6.00125 4 7 C1.525 6.01 1.525 6.01 -1 5 C-0.67 3.35 -0.34 1.7 0 0 Z " fill="#E5FBFB" transform="translate(255,301)"/>
<path d="M0 0 C2.475 0.495 2.475 0.495 5 1 C4.34 2.32 3.68 3.64 3 5 C2.01 5 1.02 5 0 5 C0 3.35 0 1.7 0 0 Z " fill="#CED4D9" transform="translate(299,192)"/>
<path d="M0 0 C1.5625 1.125 1.5625 1.125 3 3 C2.6875 6.1875 2.6875 6.1875 2 9 C1.67 7.68 1.34 6.36 1 5 C0.34 5 -0.32 5 -1 5 C-0.67 3.35 -0.34 1.7 0 0 Z " fill="#DDF3F4" transform="translate(205,174)"/>
<path d="M0 0 C2.31 0.33 4.62 0.66 7 1 C7 1.66 7 2.32 7 3 C4.69 3 2.38 3 0 3 C0 2.01 0 1.02 0 0 Z " fill="#CED4D7" transform="translate(96,348)"/>
</svg>
